<svg xmlns="http://www.w3.org/2000/svg" xmlns:xlink="http://www.w3.org/1999/xlink" id="processonSvg1000" viewBox="80.0 134.0 697.0 267.0" width="697.0" height="267.0"><defs id="ProcessOnDefs1001"><marker id="ProcessOnMarker1025" markerUnits="userSpaceOnUse" orient="auto" markerWidth="16.23606797749979" markerHeight="10.550836550532098" viewBox="-1.0 -1.3763819204711736 16.23606797749979 10.550836550532098" refX="-1.0" refY="3.8990363547948754"><path id="ProcessOnPath1026" d="M12.0 3.8990363547948754L0.0 7.798072709589751V0.0Z" stroke="#323232" stroke-width="2.0" fill="#323232" transform="matrix(1.0,0.0,0.0,1.0,0.0,0.0)"/></marker><marker id="ProcessOnMarker1034" markerUnits="userSpaceOnUse" orient="auto" markerWidth="16.23606797749979" markerHeight="10.550836550532098" viewBox="-1.0 -1.3763819204711736 16.23606797749979 10.550836550532098" refX="-1.0" refY="3.8990363547948754"><path id="ProcessOnPath1035" d="M12.0 3.8990363547948754L0.0 7.798072709589751V0.0Z" stroke="#323232" stroke-width="2.0" fill="#323232" transform="matrix(1.0,0.0,0.0,1.0,0.0,0.0)"/></marker><marker id="ProcessOnMarker1041" markerUnits="userSpaceOnUse" orient="auto" markerWidth="16.23606797749979" markerHeight="10.550836550532098" viewBox="-1.0 -1.3763819204711736 16.23606797749979 10.550836550532098" refX="-1.0" refY="3.8990363547948754"><path id="ProcessOnPath1042" d="M12.0 3.8990363547948754L0.0 7.798072709589751V0.0Z" stroke="#323232" stroke-width="2.0" fill="#323232" transform="matrix(1.0,0.0,0.0,1.0,0.0,0.0)"/></marker><marker id="ProcessOnMarker1048" markerUnits="userSpaceOnUse" orient="auto" markerWidth="16.23606797749979" markerHeight="10.550836550532098" viewBox="-1.0 -1.3763819204711736 16.23606797749979 10.550836550532098" refX="-1.0" refY="3.8990363547948754"><path id="ProcessOnPath1049" d="M12.0 3.8990363547948754L0.0 7.798072709589751V0.0Z" stroke="#323232" stroke-width="2.0" fill="#323232" transform="matrix(1.0,0.0,0.0,1.0,0.0,0.0)"/></marker></defs><g id="ProcessOnG1002"><path id="ProcessOnPath1003" d="M80.0 134.0H777.0V401.0H80.0V134.0Z" fill="none"/><g id="ProcessOnG1004"><g id="ProcessOnG1005" transform="matrix(1.0,0.0,0.0,1.0,100.0,154.0)" opacity="1.0"><path id="ProcessOnPath1006" d="M0.0 0.0L94.0 0.0L94.0 227.0L0.0 227.0Z" stroke="#323232" stroke-width="2.0" stroke-dasharray="none" opacity="1.0" fill="#ffffff"/><g id="ProcessOnG1007" transform="matrix(1.0,0.0,0.0,1.0,10.0,36.625)"><text id="ProcessOnText1008" fill="#000000" font-size="41" x="36.0" y="42.025000000000006" font-family="微软雅黑" font-weight="normal" font-style="normal" text-decoration="none" family="微软雅黑" text-anchor="middle" size="41">客</text><text id="ProcessOnText1009" fill="#000000" font-size="41" x="36.0" y="93.275" font-family="微软雅黑" font-weight="normal" font-style="normal" text-decoration="none" family="微软雅黑" text-anchor="middle" size="41">户</text><text id="ProcessOnText1010" fill="#000000" font-size="41" x="36.0" y="144.525" font-family="微软雅黑" font-weight="normal" font-style="normal" text-decoration="none" family="微软雅黑" text-anchor="middle" size="41">端</text></g></g><g id="ProcessOnG1011" transform="matrix(1.0,0.0,0.0,1.0,381.0,154.0)" opacity="1.0"><path id="ProcessOnPath1012" d="M0.0 0.0L94.0 0.0L94.0 227.0L0.0 227.0Z" stroke="#323232" stroke-width="2.0" stroke-dasharray="none" opacity="1.0" fill="#ffffff"/><g id="ProcessOnG1013" transform="matrix(1.0,0.0,0.0,1.0,10.0,36.625)"><text id="ProcessOnText1014" fill="#000000" font-size="41" x="36.0" y="42.025000000000006" font-family="微软雅黑" font-weight="normal" font-style="normal" text-decoration="none" family="微软雅黑" text-anchor="middle" size="41">节</text><text id="ProcessOnText1015" fill="#000000" font-size="41" x="36.0" y="93.275" font-family="微软雅黑" font-weight="normal" font-style="normal" text-decoration="none" family="微软雅黑" text-anchor="middle" size="41">点</text><text id="ProcessOnText1016" fill="#000000" font-size="41" x="36.0" y="144.525" font-family="微软雅黑" font-weight="normal" font-style="normal" text-decoration="none" family="微软雅黑" text-anchor="middle" size="41">A</text></g></g><g id="ProcessOnG1017" transform="matrix(1.0,0.0,0.0,1.0,663.0,154.0)" opacity="1.0"><path id="ProcessOnPath1018" d="M0.0 0.0L94.0 0.0L94.0 227.0L0.0 227.0Z" stroke="#323232" stroke-width="2.0" stroke-dasharray="none" opacity="1.0" fill="#ffffff"/><g id="ProcessOnG1019" transform="matrix(1.0,0.0,0.0,1.0,10.0,36.625)"><text id="ProcessOnText1020" fill="#000000" font-size="41" x="36.0" y="42.025000000000006" font-family="微软雅黑" font-weight="normal" font-style="normal" text-decoration="none" family="微软雅黑" text-anchor="middle" size="41">节</text><text id="ProcessOnText1021" fill="#000000" font-size="41" x="36.0" y="93.275" font-family="微软雅黑" font-weight="normal" font-style="normal" text-decoration="none" family="微软雅黑" text-anchor="middle" size="41">点</text><text id="ProcessOnText1022" fill="#000000" font-size="41" x="36.0" y="144.525" font-family="微软雅黑" font-weight="normal" font-style="normal" text-decoration="none" family="微软雅黑" text-anchor="middle" size="41">B</text></g></g><g id="ProcessOnG1023"><path id="ProcessOnPath1024" d="M194.0 267.5L287.5 267.5L287.5 267.5L365.7639320225002 267.5" stroke="#323232" stroke-width="2.0" stroke-dasharray="none" fill="none" marker-end="url(#ProcessOnMarker1025)"/><g id="ProcessOnG1027" transform="matrix(1.0,0.0,0.0,1.0,279.88196601125014,243.125)"><path id="ProcessOnPath1028" d="M0 0H109.0V48.75H0Z" fill="#fff" transform="matrix(1.0,0.0,0.0,1.0,-54.5,0.0)"/><text id="ProcessOnText1029" fill="#000000" font-size="13" x="0.0" y="13.325" font-family="微软雅黑" font-weight="normal" font-style="normal" text-decoration="none" family="微软雅黑" text-anchor="middle" size="13">发送命令</text><text id="ProcessOnText1030" fill="#000000" font-size="13" x="0.0" y="29.575" font-family="微软雅黑" font-weight="normal" font-style="normal" text-decoration="none" family="微软雅黑" text-anchor="middle" size="13">CLUSTER MEET</text><text id="ProcessOnText1031" fill="#000000" font-size="13" x="0.0" y="45.825" font-family="微软雅黑" font-weight="normal" font-style="normal" text-decoration="none" family="微软雅黑" text-anchor="middle" size="13">&lt;B_ip&gt; &lt;B_port&gt;</text></g></g><g id="ProcessOnG1032"><path id="ProcessOnPath1033" d="M476.0 200.0L569.5 200.0L569.5 200.0L647.7639320225002 200.0" stroke="#323232" stroke-width="2.0" stroke-dasharray="none" fill="none" marker-end="url(#ProcessOnMarker1034)"/><g id="ProcessOnG1036" transform="matrix(1.0,0.0,0.0,1.0,561.8819660112501,191.875)"><path id="ProcessOnPath1037" d="M0 0H94.0V16.25H0Z" fill="#fff" transform="matrix(1.0,0.0,0.0,1.0,-47.0,0.0)"/><text id="ProcessOnText1038" fill="#000000" font-size="13" x="0.0" y="13.325" font-family="微软雅黑" font-weight="normal" font-style="normal" text-decoration="none" family="微软雅黑" text-anchor="middle" size="13">发送 MEET 消息</text></g></g><g id="ProcessOnG1039"><path id="ProcessOnPath1040" d="M473.0 334.0L566.5 334.0L566.5 334.0L644.7639320225002 334.0" stroke="#323232" stroke-width="2.0" stroke-dasharray="none" fill="none" marker-end="url(#ProcessOnMarker1041)"/><g id="ProcessOnG1043" transform="matrix(1.0,0.0,0.0,1.0,558.8819660112501,325.875)"><path id="ProcessOnPath1044" d="M0 0H100.0V16.25H0Z" fill="#fff" transform="matrix(1.0,0.0,0.0,1.0,-50.0,0.0)"/><text id="ProcessOnText1045" fill="#000000" font-size="13" x="0.0" y="13.325" font-family="微软雅黑" font-weight="normal" font-style="normal" text-decoration="none" family="微软雅黑" text-anchor="middle" size="13">发送 PONG 消息</text></g></g><g id="ProcessOnG1046"><path id="ProcessOnPath1047" d="M663.0 267.5L569.0 267.5L569.0 267.5L490.2360679774998 267.5" stroke="#323232" stroke-width="2.0" stroke-dasharray="none" fill="none" marker-end="url(#ProcessOnMarker1048)"/><g id="ProcessOnG1050" transform="matrix(1.0,0.0,0.0,1.0,576.6180339887499,259.375)"><path id="ProcessOnPath1051" d="M0 0H100.0V16.25H0Z" fill="#fff" transform="matrix(1.0,0.0,0.0,1.0,-50.0,0.0)"/><text id="ProcessOnText1052" fill="#000000" font-size="13" x="0.0" y="13.325" font-family="微软雅黑" font-weight="normal" font-style="normal" text-decoration="none" family="微软雅黑" text-anchor="middle" size="13">返回 PONG 消息</text></g></g></g></g></svg>