<svg xmlns="http://www.w3.org/2000/svg" xmlns:xlink="http://www.w3.org/1999/xlink" id="processonSvg1000" viewBox="-102.0 3.0 945.0 495.0" width="945.0" height="495.0"><defs id="ProcessOnDefs1001"><marker id="ProcessOnMarker1019" markerUnits="userSpaceOnUse" orient="auto" markerWidth="16.23606797749979" markerHeight="10.550836550532098" viewBox="-1.0 -1.3763819204711736 16.23606797749979 10.550836550532098" refX="-1.0" refY="3.8990363547948754"><path id="ProcessOnPath1020" d="M12.0 3.8990363547948754L0.0 7.798072709589751V0.0Z" stroke="#323232" stroke-width="2.0" fill="#323232" transform="matrix(1.0,0.0,0.0,1.0,0.0,0.0)"/></marker><marker id="ProcessOnMarker1026" markerUnits="userSpaceOnUse" orient="auto" markerWidth="16.23606797749979" markerHeight="10.550836550532098" viewBox="-1.0 -1.3763819204711736 16.23606797749979 10.550836550532098" refX="-1.0" refY="3.8990363547948754"><path id="ProcessOnPath1027" d="M12.0 3.8990363547948754L0.0 7.798072709589751V0.0Z" stroke="#323232" stroke-width="2.0" fill="#323232" transform="matrix(1.0,0.0,0.0,1.0,0.0,0.0)"/></marker><marker id="ProcessOnMarker1033" markerUnits="userSpaceOnUse" orient="auto" markerWidth="16.23606797749979" markerHeight="10.550836550532098" viewBox="-1.0 -1.3763819204711736 16.23606797749979 10.550836550532098" refX="-1.0" refY="3.8990363547948754"><path id="ProcessOnPath1034" d="M12.0 3.8990363547948754L0.0 7.798072709589751V0.0Z" stroke="#323232" stroke-width="2.0" fill="#323232" transform="matrix(1.0,0.0,0.0,1.0,0.0,0.0)"/></marker><marker id="ProcessOnMarker1040" markerUnits="userSpaceOnUse" orient="auto" markerWidth="16.23606797749979" markerHeight="10.550836550532098" viewBox="-1.0 -1.3763819204711736 16.23606797749979 10.550836550532098" refX="-1.0" refY="3.8990363547948754"><path id="ProcessOnPath1041" d="M12.0 3.8990363547948754L0.0 7.798072709589751V0.0Z" stroke="#323232" stroke-width="2.0" fill="#323232" transform="matrix(1.0,0.0,0.0,1.0,0.0,0.0)"/></marker><marker id="ProcessOnMarker1047" markerUnits="userSpaceOnUse" orient="auto" markerWidth="16.23606797749979" markerHeight="10.550836550532098" viewBox="-1.0 -1.3763819204711736 16.23606797749979 10.550836550532098" refX="-1.0" refY="3.8990363547948754"><path id="ProcessOnPath1048" d="M12.0 3.8990363547948754L0.0 7.798072709589751V0.0Z" stroke="#323232" stroke-width="2.0" fill="#323232" transform="matrix(1.0,0.0,0.0,1.0,0.0,0.0)"/></marker></defs><g id="ProcessOnG1002"><path id="ProcessOnPath1003" d="M-102.0 3.0H843.0V498.0H-102.0V3.0Z" fill="none"/><g id="ProcessOnG1004"><g id="ProcessOnG1005" transform="matrix(1.0,0.0,0.0,1.0,444.0,65.0)" opacity="1.0"><path id="ProcessOnPath1006" d="M0.0 0.0L111.0 0.0L111.0 203.0L0.0 203.0Z" stroke="#323232" stroke-width="2.0" stroke-dasharray="none" opacity="1.0" fill="#ffffff"/><g id="ProcessOnG1007" transform="matrix(1.0,0.0,0.0,1.0,10.0,89.0)"><text id="ProcessOnText1008" fill="#000000" font-size="20" x="44.5" y="20.5" font-family="微软雅黑" font-weight="normal" font-style="normal" text-decoration="none" family="微软雅黑" text-anchor="middle" size="20">redis-trib</text></g></g><g id="ProcessOnG1009" transform="matrix(1.0,0.0,0.0,1.0,201.0,275.0)" opacity="1.0"><path id="ProcessOnPath1010" d="M0.0 0.0L111.0 0.0L111.0 203.0L0.0 203.0Z" stroke="#323232" stroke-width="2.0" stroke-dasharray="none" opacity="1.0" fill="#ffffff"/><g id="ProcessOnG1011" transform="matrix(1.0,0.0,0.0,1.0,10.0,89.0)"><text id="ProcessOnText1012" fill="#000000" font-size="20" x="44.5" y="20.5" font-family="微软雅黑" font-weight="normal" font-style="normal" text-decoration="none" family="微软雅黑" text-anchor="middle" size="20">源节点</text></g></g><g id="ProcessOnG1013" transform="matrix(1.0,0.0,0.0,1.0,712.0,271.0)" opacity="1.0"><path id="ProcessOnPath1014" d="M0.0 0.0L111.0 0.0L111.0 203.0L0.0 203.0Z" stroke="#323232" stroke-width="2.0" stroke-dasharray="none" opacity="1.0" fill="#ffffff"/><g id="ProcessOnG1015" transform="matrix(1.0,0.0,0.0,1.0,10.0,89.0)"><text id="ProcessOnText1016" fill="#000000" font-size="20" x="44.5" y="20.5" font-family="微软雅黑" font-weight="normal" font-style="normal" text-decoration="none" family="微软雅黑" text-anchor="middle" size="20">目标节点</text></g></g><g id="ProcessOnG1017"><path id="ProcessOnPath1018" d="M555.0 166.5C649.7219087645515 166.5 767.5 176.27809123544858 767.5 255.7639320225002" stroke="#323232" stroke-width="2.0" stroke-dasharray="none" fill="none" marker-end="url(#ProcessOnMarker1019)"/><g id="ProcessOnG1021" transform="matrix(1.0,0.0,0.0,1.0,696.7707157867068,173.19977571610576)"><path id="ProcessOnPath1022" d="M0 0H212.0V16.25H0Z" fill="#fff" transform="matrix(1.0,0.0,0.0,1.0,-106.0,0.0)"/><text id="ProcessOnText1023" fill="#000000" font-size="13" x="0.0" y="13.325" font-family="微软雅黑" font-weight="normal" font-style="normal" text-decoration="none" family="微软雅黑" text-anchor="middle" size="13">1、准备从源节点引入槽slot的键值对</text></g></g><g id="ProcessOnG1024"><path id="ProcessOnPath1025" d="M444.0 166.5C259.0 166.0 86.24443368620413 319.0 185.7639320225002 319.0" stroke="#323232" stroke-width="2.0" stroke-dasharray="none" fill="none" marker-end="url(#ProcessOnMarker1026)"/><g id="ProcessOnG1028" transform="matrix(1.0,0.0,0.0,1.0,208.18715413513908,234.4375)"><path id="ProcessOnPath1029" d="M0 0H224.99999999999997V16.25H0Z" fill="#fff" transform="matrix(1.0,0.0,0.0,1.0,-112.49999999999999,0.0)"/><text id="ProcessOnText1030" fill="#000000" font-size="13" x="0.0" y="13.325" font-family="微软雅黑" font-weight="normal" font-style="normal" text-decoration="none" family="微软雅黑" text-anchor="middle" size="13">2、准备迁移槽slot的键值对到目标节点</text></g></g><g id="ProcessOnG1031"><path id="ProcessOnPath1032" d="M444.0 82.0C-82.0 23.0 48.2758041435477 376.5 185.7639320225002 376.5" stroke="#323232" stroke-width="2.0" stroke-dasharray="none" fill="none" marker-end="url(#ProcessOnMarker1033)"/><g id="ProcessOnG1035" transform="matrix(1.0,0.0,0.0,1.0,66.07391805664291,199.0)"><path id="ProcessOnPath1036" d="M0 0H134.0V16.25H0Z" fill="#fff" transform="matrix(1.0,0.0,0.0,1.0,-67.0,0.0)"/><text id="ProcessOnText1037" fill="#000000" font-size="13" x="0.0" y="13.325" font-family="微软雅黑" font-weight="normal" font-style="normal" text-decoration="none" family="微软雅黑" text-anchor="middle" size="13">3、获取slot槽节的键名</text></g></g><g id="ProcessOnG1038"><path id="ProcessOnPath1039" d="M444.0 244.0C386.001379326746 244.0 369.998620673254 303.99999999999994 327.2360679774998 304.0" stroke="#323232" stroke-width="2.0" stroke-dasharray="none" fill="none" marker-end="url(#ProcessOnMarker1040)"/><g id="ProcessOnG1042" transform="matrix(1.0,0.0,0.0,1.0,379.90450849718746,265.875)"><path id="ProcessOnPath1043" d="M0 0H229.0V16.25H0Z" fill="#fff" transform="matrix(1.0,0.0,0.0,1.0,-114.5,0.0)"/><text id="ProcessOnText1044" fill="#000000" font-size="13" x="0.0" y="13.325" font-family="微软雅黑" font-weight="normal" font-style="normal" text-decoration="none" family="微软雅黑" text-anchor="middle" size="13">4、将被选中的键原子地迁移到目标节点</text></g></g><g id="ProcessOnG1045"><path id="ProcessOnPath1046" d="M312.0 376.5C472.00799980001 376.5 551.99200019999 372.5 696.7639320225002 372.5" stroke="#323232" stroke-width="2.0" stroke-dasharray="none" fill="none" marker-end="url(#ProcessOnMarker1047)"/><g id="ProcessOnG1049" transform="matrix(1.0,0.0,0.0,1.0,510.09549150281254,366.375)"><path id="ProcessOnPath1050" d="M0 0H73.00000000000006V16.25H0Z" fill="#fff" transform="matrix(1.0,0.0,0.0,1.0,-36.50000000000003,0.0)"/><text id="ProcessOnText1051" fill="#000000" font-size="13" x="0.0" y="13.325" font-family="微软雅黑" font-weight="normal" font-style="normal" text-decoration="none" family="微软雅黑" text-anchor="middle" size="13">5、进行迁移</text></g></g></g></g></svg>