<svg version="1.1" xmlns="http://www.w3.org/2000/svg" xmlns:xlink="http://www.w3.org/1999/xlink" width="424.01904296875" height="464"><defs/><g><g transform="translate(-278,-78) scale(1,1)"><rect fill="#C0C0C0" stroke="none" x="295" y="223" width="141.22802734375" height="57" opacity="0.2"/></g><g transform="translate(-278,-78) scale(1,1)"><rect fill="#ffffff" stroke="none" x="288" y="216" width="141.22802734375" height="57"/></g><g transform="translate(-278,-78) scale(1,1)"><path fill="none" stroke="#000000" d="M 288 216 L 429.22802734375 216 L 429.22802734375 273 L 288 273 L 288 216 Z Z" stroke-miterlimit="10"/></g><g transform="translate(-278,-78) scale(1,1)"><path fill="none" stroke="#000000" d="M 288 241 L 429.22802734375 241" stroke-miterlimit="10"/></g><g transform="translate(-278,-78) scale(1,1)"><path fill="none" stroke="#000000" d="M 288 264 L 429.22802734375 264" stroke-miterlimit="10"/></g><g transform="translate(-278,-78) scale(1,1)"><g><path fill="none" stroke="none"/><text fill="#000000" stroke="none" font-family="Arial" font-size="13px" font-style="normal" font-weight="bold" text-decoration="none" x="298.641357421875" y="235.5">ConcurrentHashMap</text></g></g><g transform="translate(-278,-78) scale(1,1)"><g><path fill="none" stroke="none"/><text fill="#000000" stroke="none" font-family="Arial" font-size="13px" font-style="normal" font-weight="normal" text-decoration="none" x="293" y="258.5">-segments: Segment[*]</text></g></g><g transform="translate(-278,-78) scale(1,1)"><rect fill="#C0C0C0" stroke="none" x="591" y="223" width="105.05908203125" height="48" opacity="0.2"/></g><g transform="translate(-278,-78) scale(1,1)"><rect fill="#ffffff" stroke="none" x="584" y="216" width="105.05908203125" height="48"/></g><g transform="translate(-278,-78) scale(1,1)"><path fill="none" stroke="#000000" d="M 584 216 L 689.05908203125 216 L 689.05908203125 264 L 584 264 L 584 216 Z Z" stroke-miterlimit="10"/></g><g transform="translate(-278,-78) scale(1,1)"><g><path fill="none" stroke="none"/><text fill="#000000" stroke="none" font-family="Arial" font-size="13px" font-style="normal" font-weight="normal" text-decoration="none" x="604.369140625" y="233.5">«interface»</text></g></g><g transform="translate(-278,-78) scale(1,1)"><g><path fill="none" stroke="none"/><text fill="#000000" stroke="none" font-family="Arial" font-size="13px" font-style="normal" font-weight="bold" text-decoration="none" x="591.73095703125" y="248.5">ConcurrentMap</text></g></g><g transform="translate(-278,-78) scale(1,1)"><path fill="none" stroke="#000000" d="M 430 243 L 583 241" stroke-miterlimit="10" stroke-dasharray="3"/></g><g transform="translate(-278,-78) scale(1,1)"><path fill="#FFFFFF" stroke="none" d="M 562.7864299541067 249.68398445414098 L 583 241 L 562.5663432533179 232.8473518438012"/></g><g transform="translate(-278,-78) scale(1,1)"><path fill="none" stroke="#000000" d="M 562.7864299541067 249.68398445414098 L 583 241 L 562.5663432533179 232.8473518438012 L 562.7864299541067 249.68398445414098" stroke-miterlimit="10"/></g><g transform="translate(-278,-78) scale(1,1)"><rect fill="#C0C0C0" stroke="none" x="319" y="95" width="87.736328125" height="44" opacity="0.2"/></g><g transform="translate(-278,-78) scale(1,1)"><rect fill="#ffffff" stroke="none" x="312" y="88" width="87.736328125" height="44"/></g><g transform="translate(-278,-78) scale(1,1)"><path fill="none" stroke="#000000" d="M 312 88 L 399.736328125 88 L 399.736328125 132 L 312 132 L 312 88 Z Z" stroke-miterlimit="10"/></g><g transform="translate(-278,-78) scale(1,1)"><path fill="none" stroke="#000000" d="M 312 113 L 399.736328125 113" stroke-miterlimit="10"/></g><g transform="translate(-278,-78) scale(1,1)"><path fill="none" stroke="#000000" d="M 312 123 L 399.736328125 123" stroke-miterlimit="10"/></g><g transform="translate(-278,-78) scale(1,1)"><g><path fill="none" stroke="none"/><text fill="#000000" stroke="none" font-family="Arial" font-size="13px" font-style="normal" font-weight="bold" text-decoration="none" x="319.3818359375" y="107.5">AbstractMap</text></g></g><g transform="translate(-278,-78) scale(1,1)"><path fill="none" stroke="#000000" d="M 357 215 L 356 133" stroke-miterlimit="10"/></g><g transform="translate(-278,-78) scale(1,1)"><path fill="#FFFFFF" stroke="none" d="M 364.6662612269534 153.22117494969578 L 356 133 L 347.8294421506234 153.42650201160222"/></g><g transform="translate(-278,-78) scale(1,1)"><path fill="none" stroke="#000000" d="M 364.6662612269534 153.22117494969578 L 356 133 L 347.8294421506234 153.42650201160222 L 364.6662612269534 153.22117494969578" stroke-miterlimit="10"/></g><g transform="translate(-278,-78) scale(1,1)"><rect fill="#C0C0C0" stroke="none" x="295" y="359" width="138.33984375" height="57" opacity="0.2"/></g><g transform="translate(-278,-78) scale(1,1)"><rect fill="#ffffff" stroke="none" x="288" y="352" width="138.33984375" height="57"/></g><g transform="translate(-278,-78) scale(1,1)"><path fill="none" stroke="#000000" d="M 288 352 L 426.33984375 352 L 426.33984375 409 L 288 409 L 288 352 Z Z" stroke-miterlimit="10"/></g><g transform="translate(-278,-78) scale(1,1)"><path fill="none" stroke="#000000" d="M 288 377 L 426.33984375 377" stroke-miterlimit="10"/></g><g transform="translate(-278,-78) scale(1,1)"><path fill="none" stroke="#000000" d="M 288 400 L 426.33984375 400" stroke-miterlimit="10"/></g><g transform="translate(-278,-78) scale(1,1)"><g><path fill="none" stroke="none"/><text fill="#000000" stroke="none" font-family="Arial" font-size="13px" font-style="normal" font-weight="bold" text-decoration="none" x="331.154052734375" y="371.5">Segment</text></g></g><g transform="translate(-278,-78) scale(1,1)"><g><path fill="none" stroke="none"/><text fill="#000000" stroke="none" font-family="Arial" font-size="13px" font-style="normal" font-weight="normal" text-decoration="none" x="293" y="394.5">-table: HashEntry[*]</text></g></g><g transform="translate(-278,-78) scale(1,1)"><rect fill="#C0C0C0" stroke="none" x="599" y="367" width="100.01904296875" height="44" opacity="0.2"/></g><g transform="translate(-278,-78) scale(1,1)"><rect fill="#ffffff" stroke="none" x="592" y="360" width="100.01904296875" height="44"/></g><g transform="translate(-278,-78) scale(1,1)"><path fill="none" stroke="#000000" d="M 592 360 L 692.01904296875 360 L 692.01904296875 404 L 592 404 L 592 360 Z Z" stroke-miterlimit="10"/></g><g transform="translate(-278,-78) scale(1,1)"><path fill="none" stroke="#000000" d="M 592 385 L 692.01904296875 385" stroke-miterlimit="10"/></g><g transform="translate(-278,-78) scale(1,1)"><path fill="none" stroke="#000000" d="M 592 395 L 692.01904296875 395" stroke-miterlimit="10"/></g><g transform="translate(-278,-78) scale(1,1)"><g><path fill="none" stroke="none"/><text fill="#000000" stroke="none" font-family="Arial" font-size="13px" font-style="normal" font-weight="bold" text-decoration="none" x="599.734130859375" y="379.5">ReentrantLock</text></g></g><g transform="translate(-278,-78) scale(1,1)"><path fill="none" stroke="#000000" d="M 427 380 L 591 382" stroke-miterlimit="10"/></g><g transform="translate(-278,-78) scale(1,1)"><path fill="#FFFFFF" stroke="none" d="M 570.5734979883978 390.1705578493766 L 591 382 L 570.7788250503042 373.3337387730466"/></g><g transform="translate(-278,-78) scale(1,1)"><path fill="none" stroke="#000000" d="M 570.5734979883978 390.1705578493766 L 591 382 L 570.7788250503042 373.3337387730466 L 570.5734979883978 390.1705578493766" stroke-miterlimit="10"/></g><g transform="translate(-278,-78) scale(1,1)"><rect fill="#C0C0C0" stroke="none" x="327" y="495" width="74.01904296875" height="44" opacity="0.2"/></g><g transform="translate(-278,-78) scale(1,1)"><rect fill="#ffffff" stroke="none" x="320" y="488" width="74.01904296875" height="44"/></g><g transform="translate(-278,-78) scale(1,1)"><path fill="none" stroke="#000000" d="M 320 488 L 394.01904296875 488 L 394.01904296875 532 L 320 532 L 320 488 Z Z" stroke-miterlimit="10"/></g><g transform="translate(-278,-78) scale(1,1)"><path fill="none" stroke="#000000" d="M 320 513 L 394.01904296875 513" stroke-miterlimit="10"/></g><g transform="translate(-278,-78) scale(1,1)"><path fill="none" stroke="#000000" d="M 320 523 L 394.01904296875 523" stroke-miterlimit="10"/></g><g transform="translate(-278,-78) scale(1,1)"><g><path fill="none" stroke="none"/><text fill="#000000" stroke="none" font-family="Arial" font-size="13px" font-style="normal" font-weight="bold" text-decoration="none" x="326.66455078125" y="507.5">HashEntry</text></g></g><g transform="translate(-278,-78) scale(1,1)"><path fill="none" stroke="#000000" d="M 357 487 L 357 410" stroke-miterlimit="10"/></g><g transform="translate(-278,-78) scale(1,1)"><path fill="#000000" stroke="none" d="M 361.209517756016 420.16267485762415 L 357 410 L 352.790482243984 420.16267485762415 L 357 432"/></g><g transform="translate(-278,-78) scale(1,1)"><path fill="none" stroke="#000000" d="M 361.209517756016 420.16267485762415 L 357 410 L 352.790482243984 420.16267485762415 L 357 432 L 361.209517756016 420.16267485762415" stroke-miterlimit="10"/></g><g transform="translate(-278,-78) scale(1,1)"><path fill="none" stroke="#000000" d="M 352.790482243984 476.83732514237585 L 357 487 L 361.209517756016 476.83732514237585" stroke-miterlimit="10"/></g><g transform="translate(-278,-78) scale(1,1)"><path fill="none" stroke="#000000" d="M 357 351 L 358 274" stroke-miterlimit="10"/></g><g transform="translate(-278,-78) scale(1,1)"><path fill="#000000" stroke="none" d="M 362.0771911455153 284.2164823869535 L 358 274 L 353.6588655314999 284.1071534828754 L 357.714309805882 295.9981449470855"/></g><g transform="translate(-278,-78) scale(1,1)"><path fill="none" stroke="#000000" d="M 362.0771911455153 284.2164823869535 L 358 274 L 353.6588655314999 284.1071534828754 L 357.714309805882 295.9981449470855 L 362.0771911455153 284.2164823869535" stroke-miterlimit="10"/></g><g transform="translate(-278,-78) scale(1,1)"><path fill="none" stroke="#000000" d="M 352.9228088544847 340.78351761304646 L 357 351 L 361.3411344685001 340.8928465171246" stroke-miterlimit="10"/></g></g></svg>