<svg version="1.1" xmlns="http://www.w3.org/2000/svg" xmlns:xlink="http://www.w3.org/1999/xlink" width="1045.05908203125" height="576"><defs/><g><g transform="translate(-6,-94) scale(1,1)"><rect fill="#C0C0C0" stroke="none" x="567" y="231" width="173.734375" height="132" opacity="0.2"/></g><g transform="translate(-6,-94) scale(1,1)"><rect fill="#ffffff" stroke="none" x="560" y="224" width="173.734375" height="132"/></g><g transform="translate(-6,-94) scale(1,1)"><path fill="none" stroke="#000000" d="M 560 224 L 733.734375 224 L 733.734375 356 L 560 356 L 560 224 Z Z" stroke-miterlimit="10"/></g><g transform="translate(-6,-94) scale(1,1)"><path fill="none" stroke="#000000" d="M 560 249 L 733.734375 249" stroke-miterlimit="10"/></g><g transform="translate(-6,-94) scale(1,1)"><path fill="none" stroke="#000000" d="M 560 347 L 733.734375 347" stroke-miterlimit="10"/></g><g transform="translate(-6,-94) scale(1,1)"><g><path fill="none" stroke="none"/><text fill="#000000" stroke="none" font-family="Arial" font-size="13px" font-style="normal" font-weight="bold" text-decoration="none" x="586.89453125" y="243.5">ConcurrentHashMap</text></g></g><g transform="translate(-6,-94) scale(1,1)"><g><path fill="none" stroke="none"/><text fill="#000000" stroke="none" font-family="Arial" font-size="13px" font-style="normal" font-weight="normal" text-decoration="none" x="565" y="266.5">~table: Node[*]</text></g></g><g transform="translate(-6,-94) scale(1,1)"><g><path fill="none" stroke="none"/><text fill="#000000" stroke="none" font-family="Arial" font-size="13px" font-style="normal" font-weight="normal" text-decoration="none" x="565" y="281.5">-nextTable: Node[*]</text></g></g><g transform="translate(-6,-94) scale(1,1)"><g><path fill="none" stroke="none"/><text fill="#000000" stroke="none" font-family="Arial" font-size="13px" font-style="normal" font-weight="normal" text-decoration="none" x="565" y="296.5">-keySet: KeySetView</text></g></g><g transform="translate(-6,-94) scale(1,1)"><g><path fill="none" stroke="none"/><text fill="#000000" stroke="none" font-family="Arial" font-size="13px" font-style="normal" font-weight="normal" text-decoration="none" x="565" y="311.5">-values: ValuesView</text></g></g><g transform="translate(-6,-94) scale(1,1)"><g><path fill="none" stroke="none"/><text fill="#000000" stroke="none" font-family="Arial" font-size="13px" font-style="normal" font-weight="normal" text-decoration="none" x="565" y="326.5">-entrySet: EntrySetView</text></g></g><g transform="translate(-6,-94) scale(1,1)"><g><path fill="none" stroke="none"/><text fill="#000000" stroke="none" font-family="Arial" font-size="13px" font-style="normal" font-weight="normal" text-decoration="none" x="565" y="341.5">-counterCells: CounterCell[*]</text></g></g><g transform="translate(-6,-94) scale(1,1)"><rect fill="#C0C0C0" stroke="none" x="607" y="111" width="87.736328125" height="44" opacity="0.2"/></g><g transform="translate(-6,-94) scale(1,1)"><rect fill="#ffffff" stroke="none" x="600" y="104" width="87.736328125" height="44"/></g><g transform="translate(-6,-94) scale(1,1)"><path fill="none" stroke="#000000" d="M 600 104 L 687.736328125 104 L 687.736328125 148 L 600 148 L 600 104 Z Z" stroke-miterlimit="10"/></g><g transform="translate(-6,-94) scale(1,1)"><path fill="none" stroke="#000000" d="M 600 129 L 687.736328125 129" stroke-miterlimit="10"/></g><g transform="translate(-6,-94) scale(1,1)"><path fill="none" stroke="#000000" d="M 600 139 L 687.736328125 139" stroke-miterlimit="10"/></g><g transform="translate(-6,-94) scale(1,1)"><g><path fill="none" stroke="none"/><text fill="#000000" stroke="none" font-family="Arial" font-size="13px" font-style="normal" font-weight="bold" text-decoration="none" x="607.3818359375" y="123.5">AbstractMap</text></g></g><g transform="translate(-6,-94) scale(1,1)"><path fill="none" stroke="#000000" d="M 645 223 L 643 149" stroke-miterlimit="10"/></g><g transform="translate(-6,-94) scale(1,1)"><path fill="#FFFFFF" stroke="none" d="M 651.9650955631382 169.09047190943505 L 643 149 L 635.1331709422811 169.54538879107986"/></g><g transform="translate(-6,-94) scale(1,1)"><path fill="none" stroke="#000000" d="M 651.9650955631382 169.09047190943505 L 643 149 L 635.1331709422811 169.54538879107986 L 651.9650955631382 169.09047190943505" stroke-miterlimit="10"/></g><g transform="translate(-6,-94) scale(1,1)"><rect fill="#C0C0C0" stroke="none" x="943" y="271" width="105.05908203125" height="48" opacity="0.2"/></g><g transform="translate(-6,-94) scale(1,1)"><rect fill="#ffffff" stroke="none" x="936" y="264" width="105.05908203125" height="48"/></g><g transform="translate(-6,-94) scale(1,1)"><path fill="none" stroke="#000000" d="M 936 264 L 1041.05908203125 264 L 1041.05908203125 312 L 936 312 L 936 264 Z Z" stroke-miterlimit="10"/></g><g transform="translate(-6,-94) scale(1,1)"><g><path fill="none" stroke="none"/><text fill="#000000" stroke="none" font-family="Arial" font-size="13px" font-style="normal" font-weight="normal" text-decoration="none" x="956.369140625" y="281.5">«interface»</text></g></g><g transform="translate(-6,-94) scale(1,1)"><g><path fill="none" stroke="none"/><text fill="#000000" stroke="none" font-family="Arial" font-size="13px" font-style="normal" font-weight="bold" text-decoration="none" x="943.73095703125" y="296.5">ConcurrentMap</text></g></g><g transform="translate(-6,-94) scale(1,1)"><path fill="none" stroke="#000000" d="M 735 289 L 935 288" stroke-miterlimit="10" stroke-dasharray="3"/></g><g transform="translate(-6,-94) scale(1,1)"><path fill="#FFFFFF" stroke="none" d="M 914.7169989982398 296.52055575432695 L 935 288 L 914.6328096954792 279.68269520220446"/></g><g transform="translate(-6,-94) scale(1,1)"><path fill="none" stroke="#000000" d="M 914.7169989982398 296.52055575432695 L 935 288 L 914.6328096954792 279.68269520220446 L 914.7169989982398 296.52055575432695" stroke-miterlimit="10"/></g><g transform="translate(-6,-94) scale(1,1)"><rect fill="#C0C0C0" stroke="none" x="311" y="479" width="50.919921875" height="44" opacity="0.2"/></g><g transform="translate(-6,-94) scale(1,1)"><rect fill="#ffffff" stroke="none" x="304" y="472" width="50.919921875" height="44"/></g><g transform="translate(-6,-94) scale(1,1)"><path fill="none" stroke="#000000" d="M 304 472 L 354.919921875 472 L 354.919921875 516 L 304 516 L 304 472 Z Z" stroke-miterlimit="10"/></g><g transform="translate(-6,-94) scale(1,1)"><path fill="none" stroke="#000000" d="M 304 497 L 354.919921875 497" stroke-miterlimit="10"/></g><g transform="translate(-6,-94) scale(1,1)"><path fill="none" stroke="#000000" d="M 304 507 L 354.919921875 507" stroke-miterlimit="10"/></g><g transform="translate(-6,-94) scale(1,1)"><g><path fill="none" stroke="none"/><text fill="#000000" stroke="none" font-family="Arial" font-size="13px" font-style="normal" font-weight="bold" text-decoration="none" x="313.9208984375" y="491.5">Node</text></g></g><g transform="translate(-6,-94) scale(1,1)"><rect fill="#C0C0C0" stroke="none" x="439" y="479" width="82.70263671875" height="44" opacity="0.2"/></g><g transform="translate(-6,-94) scale(1,1)"><rect fill="#ffffff" stroke="none" x="432" y="472" width="82.70263671875" height="44"/></g><g transform="translate(-6,-94) scale(1,1)"><path fill="none" stroke="#000000" d="M 432 472 L 514.70263671875 472 L 514.70263671875 516 L 432 516 L 432 472 Z Z" stroke-miterlimit="10"/></g><g transform="translate(-6,-94) scale(1,1)"><path fill="none" stroke="#000000" d="M 432 497 L 514.70263671875 497" stroke-miterlimit="10"/></g><g transform="translate(-6,-94) scale(1,1)"><path fill="none" stroke="#000000" d="M 432 507 L 514.70263671875 507" stroke-miterlimit="10"/></g><g transform="translate(-6,-94) scale(1,1)"><g><path fill="none" stroke="none"/><text fill="#000000" stroke="none" font-family="Arial" font-size="13px" font-style="normal" font-weight="bold" text-decoration="none" x="438.305908203125" y="491.5">KeySetView</text></g></g><g transform="translate(-6,-94) scale(1,1)"><rect fill="#C0C0C0" stroke="none" x="599" y="479" width="80.5380859375" height="44" opacity="0.2"/></g><g transform="translate(-6,-94) scale(1,1)"><rect fill="#ffffff" stroke="none" x="592" y="472" width="80.5380859375" height="44"/></g><g transform="translate(-6,-94) scale(1,1)"><path fill="none" stroke="#000000" d="M 592 472 L 672.5380859375 472 L 672.5380859375 516 L 592 516 L 592 472 Z Z" stroke-miterlimit="10"/></g><g transform="translate(-6,-94) scale(1,1)"><path fill="none" stroke="#000000" d="M 592 497 L 672.5380859375 497" stroke-miterlimit="10"/></g><g transform="translate(-6,-94) scale(1,1)"><path fill="none" stroke="#000000" d="M 592 507 L 672.5380859375 507" stroke-miterlimit="10"/></g><g transform="translate(-6,-94) scale(1,1)"><g><path fill="none" stroke="none"/><text fill="#000000" stroke="none" font-family="Arial" font-size="13px" font-style="normal" font-weight="bold" text-decoration="none" x="598.305908203125" y="491.5">ValuesView</text></g></g><g transform="translate(-6,-94) scale(1,1)"><rect fill="#C0C0C0" stroke="none" x="751" y="479" width="92.08447265625" height="44" opacity="0.2"/></g><g transform="translate(-6,-94) scale(1,1)"><rect fill="#ffffff" stroke="none" x="744" y="472" width="92.08447265625" height="44"/></g><g transform="translate(-6,-94) scale(1,1)"><path fill="none" stroke="#000000" d="M 744 472 L 836.08447265625 472 L 836.08447265625 516 L 744 516 L 744 472 Z Z" stroke-miterlimit="10"/></g><g transform="translate(-6,-94) scale(1,1)"><path fill="none" stroke="#000000" d="M 744 497 L 836.08447265625 497" stroke-miterlimit="10"/></g><g transform="translate(-6,-94) scale(1,1)"><path fill="none" stroke="#000000" d="M 744 507 L 836.08447265625 507" stroke-miterlimit="10"/></g><g transform="translate(-6,-94) scale(1,1)"><g><path fill="none" stroke="none"/><text fill="#000000" stroke="none" font-family="Arial" font-size="13px" font-style="normal" font-weight="bold" text-decoration="none" x="751.0263671875" y="491.5">EntrySetView</text></g></g><g transform="translate(-6,-94) scale(1,1)"><rect fill="#C0C0C0" stroke="none" x="303" y="231" width="73.32080078125" height="48" opacity="0.2"/></g><g transform="translate(-6,-94) scale(1,1)"><rect fill="#ffffff" stroke="none" x="296" y="224" width="73.32080078125" height="48"/></g><g transform="translate(-6,-94) scale(1,1)"><path fill="none" stroke="#000000" d="M 296 224 L 369.32080078125 224 L 369.32080078125 272 L 296 272 L 296 224 Z Z" stroke-miterlimit="10"/></g><g transform="translate(-6,-94) scale(1,1)"><g><path fill="none" stroke="none"/><text fill="#000000" stroke="none" font-family="Arial" font-size="13px" font-style="normal" font-weight="normal" text-decoration="none" x="300.5" y="241.5">«interface»</text></g></g><g transform="translate(-6,-94) scale(1,1)"><g><path fill="none" stroke="none"/><text fill="#000000" stroke="none" font-family="Arial" font-size="13px" font-style="normal" font-weight="bold" text-decoration="none" x="303.0390625" y="256.5">Map.Entry</text></g></g><g transform="translate(-6,-94) scale(1,1)"><path fill="none" stroke="#000000" d="M 329 471 L 332 273" stroke-miterlimit="10" stroke-dasharray="3"/></g><g transform="translate(-6,-94) scale(1,1)"><path fill="#FFFFFF" stroke="none" d="M 340.1101448047532 293.45056359237896 L 332 273 L 323.274006192588 293.1954705831037"/></g><g transform="translate(-6,-94) scale(1,1)"><path fill="none" stroke="#000000" d="M 340.1101448047532 293.45056359237896 L 332 273 L 323.274006192588 293.1954705831037 L 340.1101448047532 293.45056359237896" stroke-miterlimit="10"/></g><g transform="translate(-6,-94) scale(1,1)"><path fill="none" stroke="#000000" d="M 356 477 L 559 346" stroke-miterlimit="10"/></g><g transform="translate(-6,-94) scale(1,1)"><path fill="#000000" stroke="none" d="M 552.7434461049253 355.0474047857949 L 559 346 L 548.1784670377583 347.97342959010876 L 540.5148119897246 357.9288651691925"/></g><g transform="translate(-6,-94) scale(1,1)"><path fill="none" stroke="#000000" d="M 552.7434461049253 355.0474047857949 L 559 346 L 548.1784670377583 347.97342959010876 L 540.5148119897246 357.9288651691925 L 552.7434461049253 355.0474047857949" stroke-miterlimit="10"/></g><g transform="translate(-6,-94) scale(1,1)"><path fill="none" stroke="#000000" d="M 362.2565538950747 467.9525952142051 L 356 477 L 366.8215329622417 475.02657040989124" stroke-miterlimit="10"/></g><g transform="translate(-6,-94) scale(1,1)"><path fill="none" stroke="#000000" d="M 493 471 L 589 357" stroke-miterlimit="10"/></g><g transform="translate(-6,-94) scale(1,1)"><path fill="#000000" stroke="none" d="M 585.6737651216855 367.48504466057653 L 589 357 L 579.2339505811872 362.0620429422621 L 574.8290135927789 373.82804635857514"/></g><g transform="translate(-6,-94) scale(1,1)"><path fill="none" stroke="#000000" d="M 585.6737651216855 367.48504466057653 L 589 357 L 579.2339505811872 362.0620429422621 L 574.8290135927789 373.82804635857514 L 585.6737651216855 367.48504466057653" stroke-miterlimit="10"/></g><g transform="translate(-6,-94) scale(1,1)"><path fill="none" stroke="#000000" d="M 496.32623487831444 460.51495533942347 L 493 471 L 502.7660494188128 465.9379570577379" stroke-miterlimit="10"/></g><g transform="translate(-6,-94) scale(1,1)"><path fill="none" stroke="#000000" d="M 634 471 L 641 357" stroke-miterlimit="10"/></g><g transform="translate(-6,-94) scale(1,1)"><path fill="#000000" stroke="none" d="M 644.5787535587591 367.40156348659514 L 641 357 L 636.1755448332802 366.88557698590785 L 639.6516622956516 378.95864261367336"/></g><g transform="translate(-6,-94) scale(1,1)"><path fill="none" stroke="#000000" d="M 644.5787535587591 367.40156348659514 L 641 357 L 636.1755448332802 366.88557698590785 L 639.6516622956516 378.95864261367336 L 644.5787535587591 367.40156348659514" stroke-miterlimit="10"/></g><g transform="translate(-6,-94) scale(1,1)"><path fill="none" stroke="#000000" d="M 630.4212464412409 460.59843651340486 L 634 471 L 638.8244551667198 461.11442301409215" stroke-miterlimit="10"/></g><g transform="translate(-6,-94) scale(1,1)"><path fill="none" stroke="#000000" d="M 774 471 L 693 357" stroke-miterlimit="10"/></g><g transform="translate(-6,-94) scale(1,1)"><path fill="#000000" stroke="none" d="M 702.3178101626089 362.84623073215397 L 693 357 L 695.4547773567025 367.722596146877 L 705.7425569081623 374.933968981858"/></g><g transform="translate(-6,-94) scale(1,1)"><path fill="none" stroke="#000000" d="M 702.3178101626089 362.84623073215397 L 693 357 L 695.4547773567025 367.722596146877 L 705.7425569081623 374.933968981858 L 702.3178101626089 362.84623073215397" stroke-miterlimit="10"/></g><g transform="translate(-6,-94) scale(1,1)"><path fill="none" stroke="#000000" d="M 764.6821898373911 465.1537692678461 L 774 471 L 771.5452226432975 460.277403853123" stroke-miterlimit="10"/></g><g transform="translate(-6,-94) scale(1,1)"><rect fill="#C0C0C0" stroke="none" x="919" y="479" width="82.6708984375" height="44" opacity="0.2"/></g><g transform="translate(-6,-94) scale(1,1)"><rect fill="#ffffff" stroke="none" x="912" y="472" width="82.6708984375" height="44"/></g><g transform="translate(-6,-94) scale(1,1)"><path fill="none" stroke="#000000" d="M 912 472 L 994.6708984375 472 L 994.6708984375 516 L 912 516 L 912 472 Z Z" stroke-miterlimit="10"/></g><g transform="translate(-6,-94) scale(1,1)"><path fill="none" stroke="#000000" d="M 912 497 L 994.6708984375 497" stroke-miterlimit="10"/></g><g transform="translate(-6,-94) scale(1,1)"><path fill="none" stroke="#000000" d="M 912 507 L 994.6708984375 507" stroke-miterlimit="10"/></g><g transform="translate(-6,-94) scale(1,1)"><g><path fill="none" stroke="none"/><text fill="#000000" stroke="none" font-family="Arial" font-size="13px" font-style="normal" font-weight="bold" text-decoration="none" x="919.013671875" y="491.5">CounterCell</text></g></g><g transform="translate(-6,-94) scale(1,1)"><path fill="none" stroke="#000000" d="M 918 471 L 735 349" stroke-miterlimit="10"/></g><g transform="translate(-6,-94) scale(1,1)"><path fill="#000000" stroke="none" d="M 745.7908769318217 351.13470724978384 L 735 349 L 741.1208362812703 358.1397682256108 L 753.3051064754326 361.203404316955"/></g><g transform="translate(-6,-94) scale(1,1)"><path fill="none" stroke="#000000" d="M 745.7908769318217 351.13470724978384 L 735 349 L 741.1208362812703 358.1397682256108 L 753.3051064754326 361.203404316955 L 745.7908769318217 351.13470724978384" stroke-miterlimit="10"/></g><g transform="translate(-6,-94) scale(1,1)"><path fill="none" stroke="#000000" d="M 907.2091230681783 468.86529275021616 L 918 471 L 911.8791637187296 461.8602317743892" stroke-miterlimit="10"/></g><g transform="translate(-6,-94) scale(1,1)"><rect fill="#C0C0C0" stroke="none" x="23" y="623" width="112.2763671875" height="44" opacity="0.2"/></g><g transform="translate(-6,-94) scale(1,1)"><rect fill="#ffffff" stroke="none" x="16" y="616" width="112.2763671875" height="44"/></g><g transform="translate(-6,-94) scale(1,1)"><path fill="none" stroke="#000000" d="M 16 616 L 128.2763671875 616 L 128.2763671875 660 L 16 660 L 16 616 Z Z" stroke-miterlimit="10"/></g><g transform="translate(-6,-94) scale(1,1)"><path fill="none" stroke="#000000" d="M 16 641 L 128.2763671875 641" stroke-miterlimit="10"/></g><g transform="translate(-6,-94) scale(1,1)"><path fill="none" stroke="#000000" d="M 16 651 L 128.2763671875 651" stroke-miterlimit="10"/></g><g transform="translate(-6,-94) scale(1,1)"><g><path fill="none" stroke="none"/><text fill="#000000" stroke="none" font-family="Arial" font-size="13px" font-style="normal" font-weight="bold" text-decoration="none" x="24.08642578125" y="635.5">ForwardingNode</text></g></g><g transform="translate(-6,-94) scale(1,1)"><rect fill="#C0C0C0" stroke="none" x="207" y="623" width="115.919921875" height="44" opacity="0.2"/></g><g transform="translate(-6,-94) scale(1,1)"><rect fill="#ffffff" stroke="none" x="200" y="616" width="115.919921875" height="44"/></g><g transform="translate(-6,-94) scale(1,1)"><path fill="none" stroke="#000000" d="M 200 616 L 315.919921875 616 L 315.919921875 660 L 200 660 L 200 616 Z Z" stroke-miterlimit="10"/></g><g transform="translate(-6,-94) scale(1,1)"><path fill="none" stroke="#000000" d="M 200 641 L 315.919921875 641" stroke-miterlimit="10"/></g><g transform="translate(-6,-94) scale(1,1)"><path fill="none" stroke="#000000" d="M 200 651 L 315.919921875 651" stroke-miterlimit="10"/></g><g transform="translate(-6,-94) scale(1,1)"><g><path fill="none" stroke="none"/><text fill="#000000" stroke="none" font-family="Arial" font-size="13px" font-style="normal" font-weight="bold" text-decoration="none" x="207.7373046875" y="635.5">ReservationNode</text></g></g><g transform="translate(-6,-94) scale(1,1)"><rect fill="#C0C0C0" stroke="none" x="399" y="623" width="68.9599609375" height="44" opacity="0.2"/></g><g transform="translate(-6,-94) scale(1,1)"><rect fill="#ffffff" stroke="none" x="392" y="616" width="68.9599609375" height="44"/></g><g transform="translate(-6,-94) scale(1,1)"><path fill="none" stroke="#000000" d="M 392 616 L 460.9599609375 616 L 460.9599609375 660 L 392 660 L 392 616 Z Z" stroke-miterlimit="10"/></g><g transform="translate(-6,-94) scale(1,1)"><path fill="none" stroke="#000000" d="M 392 641 L 460.9599609375 641" stroke-miterlimit="10"/></g><g transform="translate(-6,-94) scale(1,1)"><path fill="none" stroke="#000000" d="M 392 651 L 460.9599609375 651" stroke-miterlimit="10"/></g><g transform="translate(-6,-94) scale(1,1)"><g><path fill="none" stroke="none"/><text fill="#000000" stroke="none" font-family="Arial" font-size="13px" font-style="normal" font-weight="bold" text-decoration="none" x="397.575927734375" y="635.5">TreeNode</text></g></g><g transform="translate(-6,-94) scale(1,1)"><rect fill="#C0C0C0" stroke="none" x="543" y="623" width="57.40087890625" height="44" opacity="0.2"/></g><g transform="translate(-6,-94) scale(1,1)"><rect fill="#ffffff" stroke="none" x="536" y="616" width="57.40087890625" height="44"/></g><g transform="translate(-6,-94) scale(1,1)"><path fill="none" stroke="#000000" d="M 536 616 L 593.40087890625 616 L 593.40087890625 660 L 536 660 L 536 616 Z Z" stroke-miterlimit="10"/></g><g transform="translate(-6,-94) scale(1,1)"><path fill="none" stroke="#000000" d="M 536 641 L 593.40087890625 641" stroke-miterlimit="10"/></g><g transform="translate(-6,-94) scale(1,1)"><path fill="none" stroke="#000000" d="M 536 651 L 593.40087890625 651" stroke-miterlimit="10"/></g><g transform="translate(-6,-94) scale(1,1)"><g><path fill="none" stroke="none"/><text fill="#000000" stroke="none" font-family="Arial" font-size="13px" font-style="normal" font-weight="bold" text-decoration="none" x="541.94091796875" y="635.5">TreeBin</text></g></g><g transform="translate(-6,-94) scale(1,1)"><path fill="none" stroke="#000000" d="M 113 615 L 303 509" stroke-miterlimit="10"/></g><g transform="translate(-6,-94) scale(1,1)"><path fill="#FFFFFF" stroke="none" d="M 289.3518831143408 526.2548226729626 L 303 509 L 281.1483218795005 511.550326119947"/></g><g transform="translate(-6,-94) scale(1,1)"><path fill="none" stroke="#000000" d="M 289.3518831143408 526.2548226729626 L 303 509 L 281.1483218795005 511.550326119947 L 289.3518831143408 526.2548226729626" stroke-miterlimit="10"/></g><g transform="translate(-6,-94) scale(1,1)"><path fill="none" stroke="#000000" d="M 535 620 L 356 510" stroke-miterlimit="10"/></g><g transform="translate(-6,-94) scale(1,1)"><path fill="#FFFFFF" stroke="none" d="M 377.72481543928814 513.4687741536266 L 356 510 L 368.9089705907129 527.8145580435807"/></g><g transform="translate(-6,-94) scale(1,1)"><path fill="none" stroke="#000000" d="M 377.72481543928814 513.4687741536266 L 356 510 L 368.9089705907129 527.8145580435807 L 377.72481543928814 513.4687741536266" stroke-miterlimit="10"/></g><g transform="translate(-6,-94) scale(1,1)"><path fill="none" stroke="#000000" d="M 411 615 L 344 517" stroke-miterlimit="10"/></g><g transform="translate(-6,-94) scale(1,1)"><path fill="#FFFFFF" stroke="none" d="M 362.4212896666708 529.0273058918698 L 344 517 L 348.52122928595855 538.5304083970507"/></g><g transform="translate(-6,-94) scale(1,1)"><path fill="none" stroke="#000000" d="M 362.4212896666708 529.0273058918698 L 344 517 L 348.52122928595855 538.5304083970507 L 362.4212896666708 529.0273058918698" stroke-miterlimit="10"/></g><g transform="translate(-6,-94) scale(1,1)"><path fill="none" stroke="#000000" d="M 269 615 L 318 517" stroke-miterlimit="10"/></g><g transform="translate(-6,-94) scale(1,1)"><path fill="#FFFFFF" stroke="none" d="M 316.44044155800503 538.9446525938781 L 318 517 L 301.3800129900945 531.4144383099228"/></g><g transform="translate(-6,-94) scale(1,1)"><path fill="none" stroke="#000000" d="M 316.44044155800503 538.9446525938781 L 318 517 L 301.3800129900945 531.4144383099228 L 316.44044155800503 538.9446525938781" stroke-miterlimit="10"/></g></g></svg>