<?xml version="1.0" encoding="UTF-8" standalone="no"?>
<!DOCTYPE svg PUBLIC "-//W3C//DTD SVG 1.1//EN"
 "http://www.w3.org/Graphics/SVG/1.1/DTD/svg11.dtd">
<!-- Generated by graphviz version 2.38.0 (20140413.2041)
 -->
<!-- Title: G Pages: 1 -->
<svg width="384pt" height="549pt"
 viewBox="0.00 0.00 384.00 549.00" xmlns="http://www.w3.org/2000/svg" xmlns:xlink="http://www.w3.org/1999/xlink">
<g id="graph0" class="graph" transform="scale(1 1) rotate(0) translate(4 545)">
<title>G</title>
<polygon fill="white" stroke="none" points="-4,4 -4,-545 380,-545 380,4 -4,4"/>
<!-- node0 -->
<g id="node1" class="node"><title>node0</title>
<polygon fill="none" stroke="black" points="0,-504.5 0,-540.5 173,-540.5 173,-504.5 0,-504.5"/>
<text text-anchor="middle" x="11.5" y="-518.8" font-family="Times New Roman,serif" font-size="14.00">0</text>
<polyline fill="none" stroke="black" points="23,-504.5 23,-540.5 "/>
<text text-anchor="middle" x="34.5" y="-518.8" font-family="Times New Roman,serif" font-size="14.00">1</text>
<polyline fill="none" stroke="black" points="46,-504.5 46,-540.5 "/>
<text text-anchor="middle" x="57.5" y="-518.8" font-family="Times New Roman,serif" font-size="14.00">2</text>
<polyline fill="none" stroke="black" points="69,-504.5 69,-540.5 "/>
<text text-anchor="middle" x="80.5" y="-518.8" font-family="Times New Roman,serif" font-size="14.00">3</text>
<polyline fill="none" stroke="black" points="92,-504.5 92,-540.5 "/>
<text text-anchor="middle" x="103.5" y="-518.8" font-family="Times New Roman,serif" font-size="14.00">4</text>
<polyline fill="none" stroke="black" points="115,-504.5 115,-540.5 "/>
<text text-anchor="middle" x="129" y="-518.8" font-family="Times New Roman,serif" font-size="14.00">...</text>
<polyline fill="none" stroke="black" points="143,-504.5 143,-540.5 "/>
<text text-anchor="middle" x="158" y="-518.8" font-family="Times New Roman,serif" font-size="14.00">15</text>
</g>
<!-- t1 -->
<g id="node3" class="node"><title>t1</title>
<ellipse fill="none" stroke="blue" cx="34.5" cy="-450" rx="18" ry="18"/>
<text text-anchor="middle" x="34.5" y="-446.3" font-family="Times New Roman,serif" font-size="14.00">1</text>
</g>
<!-- node0&#45;&gt;t1 -->
<g id="edge1" class="edge"><title>node0:f1&#45;&gt;t1</title>
<path fill="none" stroke="black" d="M34.5,-504C34.5,-495.683 34.5,-486.631 34.5,-478.401"/>
<polygon fill="black" stroke="black" points="38.0001,-478.186 34.5,-468.186 31.0001,-478.186 38.0001,-478.186"/>
</g>
<!-- node1 -->
<g id="node2" class="node"><title>node1</title>
<polygon fill="none" stroke="black" points="191,-504.5 191,-540.5 376,-540.5 376,-504.5 191,-504.5"/>
<text text-anchor="middle" x="202.5" y="-518.8" font-family="Times New Roman,serif" font-size="14.00">0</text>
<polyline fill="none" stroke="black" points="214,-504.5 214,-540.5 "/>
<text text-anchor="middle" x="225.5" y="-518.8" font-family="Times New Roman,serif" font-size="14.00">1</text>
<polyline fill="none" stroke="black" points="237,-504.5 237,-540.5 "/>
<text text-anchor="middle" x="248.5" y="-518.8" font-family="Times New Roman,serif" font-size="14.00">2</text>
<polyline fill="none" stroke="black" points="260,-504.5 260,-540.5 "/>
<text text-anchor="middle" x="274" y="-518.8" font-family="Times New Roman,serif" font-size="14.00">...</text>
<polyline fill="none" stroke="black" points="288,-504.5 288,-540.5 "/>
<text text-anchor="middle" x="303" y="-518.8" font-family="Times New Roman,serif" font-size="14.00">17</text>
<polyline fill="none" stroke="black" points="318,-504.5 318,-540.5 "/>
<text text-anchor="middle" x="332" y="-518.8" font-family="Times New Roman,serif" font-size="14.00">...</text>
<polyline fill="none" stroke="black" points="346,-504.5 346,-540.5 "/>
<text text-anchor="middle" x="361" y="-518.8" font-family="Times New Roman,serif" font-size="14.00">31</text>
</g>
<!-- n4 -->
<g id="node13" class="node"><title>n4</title>
<ellipse fill="none" stroke="red" cx="303.5" cy="-450" rx="18" ry="18"/>
<text text-anchor="middle" x="303.5" y="-446.3" font-family="Times New Roman,serif" font-size="14.00">4</text>
</g>
<!-- node1&#45;&gt;n4 -->
<g id="edge11" class="edge"><title>node1:f17&#45;&gt;n4</title>
<path fill="none" stroke="black" d="M303.5,-504C303.5,-495.683 303.5,-486.631 303.5,-478.401"/>
<polygon fill="black" stroke="black" points="307,-478.186 303.5,-468.186 300,-478.186 307,-478.186"/>
</g>
<!-- n5 -->
<g id="node14" class="node"><title>n5</title>
<ellipse fill="none" stroke="blue" cx="225.5" cy="-450" rx="18" ry="18"/>
<text text-anchor="middle" x="225.5" y="-446.3" font-family="Times New Roman,serif" font-size="14.00">5</text>
</g>
<!-- node1&#45;&gt;n5 -->
<g id="edge8" class="edge"><title>node1:f1&#45;&gt;n5</title>
<path fill="none" stroke="black" d="M225.5,-504C225.5,-495.683 225.5,-486.631 225.5,-478.401"/>
<polygon fill="black" stroke="black" points="229,-478.186 225.5,-468.186 222,-478.186 229,-478.186"/>
</g>
<!-- t2 -->
<g id="node4" class="node"><title>t2</title>
<ellipse fill="none" stroke="red" cx="34.5" cy="-378" rx="18" ry="18"/>
<text text-anchor="middle" x="34.5" y="-374.3" font-family="Times New Roman,serif" font-size="14.00">2</text>
</g>
<!-- t1&#45;&gt;t2 -->
<g id="edge2" class="edge"><title>t1&#45;&gt;t2</title>
<path fill="none" stroke="black" d="M34.5,-431.697C34.5,-423.983 34.5,-414.712 34.5,-406.112"/>
<polygon fill="black" stroke="black" points="38.0001,-406.104 34.5,-396.104 31.0001,-406.104 38.0001,-406.104"/>
</g>
<!-- t3 -->
<g id="node5" class="node"><title>t3</title>
<ellipse fill="none" stroke="blue" cx="34.5" cy="-306" rx="18" ry="18"/>
<text text-anchor="middle" x="34.5" y="-302.3" font-family="Times New Roman,serif" font-size="14.00">2</text>
</g>
<!-- t2&#45;&gt;t3 -->
<g id="edge3" class="edge"><title>t2&#45;&gt;t3</title>
<path fill="none" stroke="black" d="M34.5,-359.697C34.5,-351.983 34.5,-342.712 34.5,-334.112"/>
<polygon fill="black" stroke="black" points="38.0001,-334.104 34.5,-324.104 31.0001,-334.104 38.0001,-334.104"/>
</g>
<!-- t4 -->
<g id="node6" class="node"><title>t4</title>
<ellipse fill="none" stroke="red" cx="34.5" cy="-234" rx="18" ry="18"/>
<text text-anchor="middle" x="34.5" y="-230.3" font-family="Times New Roman,serif" font-size="14.00">4</text>
</g>
<!-- t3&#45;&gt;t4 -->
<g id="edge4" class="edge"><title>t3&#45;&gt;t4</title>
<path fill="none" stroke="black" d="M34.5,-287.697C34.5,-279.983 34.5,-270.712 34.5,-262.112"/>
<polygon fill="black" stroke="black" points="38.0001,-262.104 34.5,-252.104 31.0001,-262.104 38.0001,-262.104"/>
</g>
<!-- t5 -->
<g id="node7" class="node"><title>t5</title>
<ellipse fill="none" stroke="blue" cx="34.5" cy="-162" rx="18" ry="18"/>
<text text-anchor="middle" x="34.5" y="-158.3" font-family="Times New Roman,serif" font-size="14.00">5</text>
</g>
<!-- t4&#45;&gt;t5 -->
<g id="edge5" class="edge"><title>t4&#45;&gt;t5</title>
<path fill="none" stroke="black" d="M34.5,-215.697C34.5,-207.983 34.5,-198.712 34.5,-190.112"/>
<polygon fill="black" stroke="black" points="38.0001,-190.104 34.5,-180.104 31.0001,-190.104 38.0001,-190.104"/>
</g>
<!-- t6 -->
<g id="node8" class="node"><title>t6</title>
<ellipse fill="none" stroke="red" cx="34.5" cy="-90" rx="18" ry="18"/>
<text text-anchor="middle" x="34.5" y="-86.3" font-family="Times New Roman,serif" font-size="14.00">6</text>
</g>
<!-- t5&#45;&gt;t6 -->
<g id="edge6" class="edge"><title>t5&#45;&gt;t6</title>
<path fill="none" stroke="black" d="M34.5,-143.697C34.5,-135.983 34.5,-126.712 34.5,-118.112"/>
<polygon fill="black" stroke="black" points="38.0001,-118.104 34.5,-108.104 31.0001,-118.104 38.0001,-118.104"/>
</g>
<!-- t7 -->
<g id="node9" class="node"><title>t7</title>
<ellipse fill="none" stroke="red" cx="34.5" cy="-18" rx="18" ry="18"/>
<text text-anchor="middle" x="34.5" y="-14.3" font-family="Times New Roman,serif" font-size="14.00">7</text>
</g>
<!-- t6&#45;&gt;t7 -->
<g id="edge7" class="edge"><title>t6&#45;&gt;t7</title>
<path fill="none" stroke="black" d="M34.5,-71.6966C34.5,-63.9827 34.5,-54.7125 34.5,-46.1124"/>
<polygon fill="black" stroke="black" points="38.0001,-46.1043 34.5,-36.1043 31.0001,-46.1044 38.0001,-46.1043"/>
</g>
<!-- n1 -->
<g id="node10" class="node"><title>n1</title>
<ellipse fill="none" stroke="blue" cx="225.5" cy="-306" rx="18" ry="18"/>
<text text-anchor="middle" x="225.5" y="-302.3" font-family="Times New Roman,serif" font-size="14.00">1</text>
</g>
<!-- n2 -->
<g id="node11" class="node"><title>n2</title>
<ellipse fill="none" stroke="red" cx="303.5" cy="-378" rx="18" ry="18"/>
<text text-anchor="middle" x="303.5" y="-374.3" font-family="Times New Roman,serif" font-size="14.00">2</text>
</g>
<!-- n6 -->
<g id="node15" class="node"><title>n6</title>
<ellipse fill="none" stroke="red" cx="303.5" cy="-306" rx="18" ry="18"/>
<text text-anchor="middle" x="303.5" y="-302.3" font-family="Times New Roman,serif" font-size="14.00">6</text>
</g>
<!-- n2&#45;&gt;n6 -->
<g id="edge13" class="edge"><title>n2&#45;&gt;n6</title>
<path fill="none" stroke="black" d="M303.5,-359.697C303.5,-351.983 303.5,-342.712 303.5,-334.112"/>
<polygon fill="black" stroke="black" points="307,-334.104 303.5,-324.104 300,-334.104 307,-334.104"/>
</g>
<!-- n3 -->
<g id="node12" class="node"><title>n3</title>
<ellipse fill="none" stroke="blue" cx="225.5" cy="-378" rx="18" ry="18"/>
<text text-anchor="middle" x="225.5" y="-374.3" font-family="Times New Roman,serif" font-size="14.00">2</text>
</g>
<!-- n3&#45;&gt;n1 -->
<g id="edge10" class="edge"><title>n3&#45;&gt;n1</title>
<path fill="none" stroke="black" d="M225.5,-359.697C225.5,-351.983 225.5,-342.712 225.5,-334.112"/>
<polygon fill="black" stroke="black" points="229,-334.104 225.5,-324.104 222,-334.104 229,-334.104"/>
</g>
<!-- n4&#45;&gt;n2 -->
<g id="edge12" class="edge"><title>n4&#45;&gt;n2</title>
<path fill="none" stroke="black" d="M303.5,-431.697C303.5,-423.983 303.5,-414.712 303.5,-406.112"/>
<polygon fill="black" stroke="black" points="307,-406.104 303.5,-396.104 300,-406.104 307,-406.104"/>
</g>
<!-- n5&#45;&gt;n3 -->
<g id="edge9" class="edge"><title>n5&#45;&gt;n3</title>
<path fill="none" stroke="black" d="M225.5,-431.697C225.5,-423.983 225.5,-414.712 225.5,-406.112"/>
<polygon fill="black" stroke="black" points="229,-406.104 225.5,-396.104 222,-406.104 229,-406.104"/>
</g>
<!-- n7 -->
<g id="node16" class="node"><title>n7</title>
<ellipse fill="none" stroke="red" cx="303.5" cy="-234" rx="18" ry="18"/>
<text text-anchor="middle" x="303.5" y="-230.3" font-family="Times New Roman,serif" font-size="14.00">7</text>
</g>
<!-- n6&#45;&gt;n7 -->
<g id="edge14" class="edge"><title>n6&#45;&gt;n7</title>
<path fill="none" stroke="black" d="M303.5,-287.697C303.5,-279.983 303.5,-270.712 303.5,-262.112"/>
<polygon fill="black" stroke="black" points="307,-262.104 303.5,-252.104 300,-262.104 307,-262.104"/>
</g>
</g>
</svg>
