<svg version="1.1" xmlns="http://www.w3.org/2000/svg" xmlns:xlink="http://www.w3.org/1999/xlink" width="644.494140625" height="451"><defs/><g><g transform="translate(-46,-118) scale(1,1)"><rect fill="#C0C0C0" stroke="none" x="343" y="279" width="56.2900390625" height="44" opacity="0.2"/></g><g transform="translate(-46,-118) scale(1,1)"><rect fill="#ffffff" stroke="none" x="336" y="272" width="56.2900390625" height="44"/></g><g transform="translate(-46,-118) scale(1,1)"><path fill="none" stroke="#000000" d="M 336 272 L 392.2900390625 272 L 392.2900390625 316 L 336 316 L 336 272 Z Z" stroke-miterlimit="10"/></g><g transform="translate(-46,-118) scale(1,1)"><path fill="none" stroke="#000000" d="M 336 297 L 392.2900390625 297" stroke-miterlimit="10"/></g><g transform="translate(-46,-118) scale(1,1)"><path fill="none" stroke="#000000" d="M 336 307 L 392.2900390625 307" stroke-miterlimit="10"/></g><g transform="translate(-46,-118) scale(1,1)"><g><path fill="none" stroke="none"/><text fill="#000000" stroke="none" font-family="Arial" font-size="13px" font-style="normal" font-weight="bold" text-decoration="none" x="344.14501953125" y="291.5">Thread</text></g></g><g transform="translate(-46,-118) scale(1,1)"><rect fill="#C0C0C0" stroke="none" x="335" y="135" width="77.732421875" height="48" opacity="0.2"/></g><g transform="translate(-46,-118) scale(1,1)"><rect fill="#ffffff" stroke="none" x="328" y="128" width="77.732421875" height="48"/></g><g transform="translate(-46,-118) scale(1,1)"><path fill="none" stroke="#000000" d="M 328 128 L 405.732421875 128 L 405.732421875 176 L 328 176 L 328 128 Z Z" stroke-miterlimit="10"/></g><g transform="translate(-46,-118) scale(1,1)"><g><path fill="none" stroke="none"/><text fill="#000000" stroke="none" font-family="Arial" font-size="13px" font-style="normal" font-weight="normal" text-decoration="none" x="334.8662109375" y="145.5">«interface»</text></g></g><g transform="translate(-46,-118) scale(1,1)"><g><path fill="none" stroke="none"/><text fill="#000000" stroke="none" font-family="Arial" font-size="13px" font-style="normal" font-weight="bold" text-decoration="none" x="339.8662109375" y="160.5">Runnable</text></g></g><g transform="translate(-46,-118) scale(1,1)"><path fill="none" stroke="#000000" d="M 364 271 L 366 177" stroke-miterlimit="10" stroke-dasharray="3"/></g><g transform="translate(-46,-118) scale(1,1)"><path fill="#FFFFFF" stroke="none" d="M 373.9847741394848 197.49983858330145 L 366 177 L 357.15051306479063 197.14166281575476"/></g><g transform="translate(-46,-118) scale(1,1)"><path fill="none" stroke="#000000" d="M 373.9847741394848 197.49983858330145 L 366 177 L 357.15051306479063 197.14166281575476 L 373.9847741394848 197.49983858330145" stroke-miterlimit="10"/></g><g transform="translate(-46,-118) scale(1,1)"><rect fill="#C0C0C0" stroke="none" x="63" y="431" width="113" height="135" opacity="0.2"/></g><g transform="translate(-46,-118) scale(1,1)"><rect fill="#ffffff" stroke="none" x="56" y="424" width="113" height="135"/></g><g transform="translate(-46,-118) scale(1,1)"><path fill="none" stroke="#000000" d="M 56 424 L 169 424 L 169 559 L 56 559 L 56 424 Z Z" stroke-miterlimit="10"/></g><g transform="translate(-46,-118) scale(1,1)"><path fill="none" stroke="#000000" d="M 56 462 L 169 462" stroke-miterlimit="10"/></g><g transform="translate(-46,-118) scale(1,1)"><g><path fill="none" stroke="none"/><text fill="#000000" stroke="none" font-family="Arial" font-size="13px" font-style="normal" font-weight="normal" text-decoration="none" x="70" y="441.5">«enumeration»</text></g></g><g transform="translate(-46,-118) scale(1,1)"><g><path fill="none" stroke="none"/><text fill="#000000" stroke="none" font-family="Arial" font-size="13px" font-style="normal" font-weight="bold" text-decoration="none" x="97" y="456.5">State</text></g></g><g transform="translate(-46,-118) scale(1,1)"><g><path fill="none" stroke="none"/><text fill="#000000" stroke="none" font-family="Arial" font-size="13px" font-style="normal" font-weight="normal" text-decoration="none" x="61" y="479.5">NEW</text></g></g><g transform="translate(-46,-118) scale(1,1)"><g><path fill="none" stroke="none"/><text fill="#000000" stroke="none" font-family="Arial" font-size="13px" font-style="normal" font-weight="normal" text-decoration="none" x="61" y="494.5">RUNNABLE</text></g></g><g transform="translate(-46,-118) scale(1,1)"><g><path fill="none" stroke="none"/><text fill="#000000" stroke="none" font-family="Arial" font-size="13px" font-style="normal" font-weight="normal" text-decoration="none" x="61" y="509.5">BLOCKED</text></g></g><g transform="translate(-46,-118) scale(1,1)"><g><path fill="none" stroke="none"/><text fill="#000000" stroke="none" font-family="Arial" font-size="13px" font-style="normal" font-weight="normal" text-decoration="none" x="61" y="524.5">WAITING</text></g></g><g transform="translate(-46,-118) scale(1,1)"><g><path fill="none" stroke="none"/><text fill="#000000" stroke="none" font-family="Arial" font-size="13px" font-style="normal" font-weight="normal" text-decoration="none" x="61" y="539.5">TIMED_WAITING</text></g></g><g transform="translate(-46,-118) scale(1,1)"><g><path fill="none" stroke="none"/><text fill="#000000" stroke="none" font-family="Arial" font-size="13px" font-style="normal" font-weight="normal" text-decoration="none" x="61" y="554.5">TERMINATED</text></g></g><g transform="translate(-46,-118) scale(1,1)"><rect fill="#C0C0C0" stroke="none" x="271" y="487" width="190.25732421875" height="48" opacity="0.2"/></g><g transform="translate(-46,-118) scale(1,1)"><rect fill="#ffffff" stroke="none" x="264" y="480" width="190.25732421875" height="48"/></g><g transform="translate(-46,-118) scale(1,1)"><path fill="none" stroke="#000000" d="M 264 480 L 454.25732421875 480 L 454.25732421875 528 L 264 528 L 264 480 Z Z" stroke-miterlimit="10"/></g><g transform="translate(-46,-118) scale(1,1)"><g><path fill="none" stroke="none"/><text fill="#000000" stroke="none" font-family="Arial" font-size="13px" font-style="normal" font-weight="normal" text-decoration="none" x="327.128662109375" y="497.5">«interface»</text></g></g><g transform="translate(-46,-118) scale(1,1)"><g><path fill="none" stroke="none"/><text fill="#000000" stroke="none" font-family="Arial" font-size="13px" font-style="normal" font-weight="bold" text-decoration="none" x="280.628662109375" y="512.5">UncaughtExceptionHandler</text></g></g><g transform="translate(-46,-118) scale(1,1)"><rect fill="#C0C0C0" stroke="none" x="583" y="495" width="104.494140625" height="44" opacity="0.2"/></g><g transform="translate(-46,-118) scale(1,1)"><rect fill="#ffffff" stroke="none" x="576" y="488" width="104.494140625" height="44"/></g><g transform="translate(-46,-118) scale(1,1)"><path fill="none" stroke="#000000" d="M 576 488 L 680.494140625 488 L 680.494140625 532 L 576 532 L 576 488 Z Z" stroke-miterlimit="10"/></g><g transform="translate(-46,-118) scale(1,1)"><path fill="none" stroke="#000000" d="M 576 513 L 680.494140625 513" stroke-miterlimit="10"/></g><g transform="translate(-46,-118) scale(1,1)"><path fill="none" stroke="#000000" d="M 576 523 L 680.494140625 523" stroke-miterlimit="10"/></g><g transform="translate(-46,-118) scale(1,1)"><g><path fill="none" stroke="none"/><text fill="#000000" stroke="none" font-family="Arial" font-size="13px" font-style="normal" font-weight="bold" text-decoration="none" x="583.7470703125" y="507.5">WeakClassKey</text></g></g><g transform="translate(-46,-118) scale(1,1)"><rect fill="#C0C0C0" stroke="none" x="575" y="271" width="110.42919921875" height="48" opacity="0.2"/></g><g transform="translate(-46,-118) scale(1,1)"><rect fill="#ffffff" stroke="none" x="568" y="264" width="110.42919921875" height="48"/></g><g transform="translate(-46,-118) scale(1,1)"><path fill="none" stroke="#000000" d="M 568 264 L 678.42919921875 264 L 678.42919921875 312 L 568 312 L 568 264 Z Z" stroke-miterlimit="10"/></g><g transform="translate(-46,-118) scale(1,1)"><g><path fill="none" stroke="none"/><text fill="#000000" stroke="none" font-family="Arial" font-size="13px" font-style="normal" font-weight="normal" text-decoration="none" x="591.214599609375" y="281.5">«interface»</text></g></g><g transform="translate(-46,-118) scale(1,1)"><g><path fill="none" stroke="none"/><text fill="#000000" stroke="none" font-family="Arial" font-size="13px" font-style="normal" font-weight="bold" text-decoration="none" x="577.214599609375" y="296.5">WeakReference</text></g></g><g transform="translate(-46,-118) scale(1,1)"><path fill="none" stroke="#000000" d="M 627 487 L 624 313" stroke-miterlimit="10" stroke-dasharray="3"/></g><g transform="translate(-46,-118) scale(1,1)"><path fill="#FFFFFF" stroke="none" d="M 632.7681694372776 333.1771951648189 L 624 313 L 615.9326005413237 333.4674635940595"/></g><g transform="translate(-46,-118) scale(1,1)"><path fill="none" stroke="#000000" d="M 632.7681694372776 333.1771951648189 L 624 313 L 615.9326005413237 333.4674635940595 L 632.7681694372776 333.1771951648189" stroke-miterlimit="10"/></g><g transform="translate(-46,-118) scale(1,1)"><path fill="none" stroke="#000000" d="M 360 479 L 363 317" stroke-miterlimit="10"/></g><g transform="translate(-46,-118) scale(1,1)"><path fill="#000000" stroke="none" d="M 367.02063072400256 327.23887340390564 L 363 317 L 358.6030384339769 327.0829920652015 L 362.59266243186755 338.99622867915286"/></g><g transform="translate(-46,-118) scale(1,1)"><path fill="none" stroke="#000000" d="M 367.02063072400256 327.23887340390564 L 363 317 L 358.6030384339769 327.0829920652015 L 362.59266243186755 338.99622867915286 L 367.02063072400256 327.23887340390564" stroke-miterlimit="10"/></g><g transform="translate(-46,-118) scale(1,1)"><path fill="none" stroke="#000000" d="M 355.97936927599744 468.76112659609436 L 360 479 L 364.3969615660231 468.9170079347985" stroke-miterlimit="10"/></g><g transform="translate(-46,-118) scale(1,1)"><path fill="none" stroke="#000000" d="M 600 487 L 392 317" stroke-miterlimit="10"/></g><g transform="translate(-46,-118) scale(1,1)"><path fill="#000000" stroke="none" d="M 402.5327650953419 320.17188578709056 L 392 317 L 397.2049276743603 326.6906515727622 L 409.03435590452364 330.9223101142741"/></g><g transform="translate(-46,-118) scale(1,1)"><path fill="none" stroke="#000000" d="M 402.5327650953419 320.17188578709056 L 392 317 L 397.2049276743603 326.6906515727622 L 409.03435590452364 330.9223101142741 L 402.5327650953419 320.17188578709056" stroke-miterlimit="10"/></g><g transform="translate(-46,-118) scale(1,1)"><path fill="none" stroke="#000000" d="M 589.4672349046581 483.82811421290944 L 600 487 L 594.7950723256397 477.3093484272378" stroke-miterlimit="10"/></g><g transform="translate(-46,-118) scale(1,1)"><path fill="none" stroke="#000000" d="M 170 446 L 335 317" stroke-miterlimit="10"/></g><g transform="translate(-46,-118) scale(1,1)"><path fill="#000000" stroke="none" d="M 329.5865063720296 326.5757029371176 L 335 317 L 324.4010374642881 319.94312642721576 L 317.66824234090643 330.5502832607459"/></g><g transform="translate(-46,-118) scale(1,1)"><path fill="none" stroke="#000000" d="M 329.5865063720296 326.5757029371176 L 335 317 L 324.4010374642881 319.94312642721576 L 317.66824234090643 330.5502832607459 L 329.5865063720296 326.5757029371176" stroke-miterlimit="10"/></g><g transform="translate(-46,-118) scale(1,1)"><path fill="none" stroke="#000000" d="M 175.4134936279704 436.4242970628824 L 170 446 L 180.59896253571188 443.05687357278424" stroke-miterlimit="10"/></g></g></svg>