<?xml version="1.0" encoding="UTF-8" standalone="no"?>
<!DOCTYPE svg PUBLIC "-//W3C//DTD SVG 1.1//EN"
 "http://www.w3.org/Graphics/SVG/1.1/DTD/svg11.dtd">
<!-- Generated by graphviz version 2.40.1 (20161225.0304)
 -->
<!-- Title: insert Pages: 1 -->
<svg width="692pt" height="410pt"
 viewBox="0.00 0.00 692.32 410.00" xmlns="http://www.w3.org/2000/svg" xmlns:xlink="http://www.w3.org/1999/xlink">
<g id="graph0" class="graph" transform="scale(1 1) rotate(0) translate(4 406)">
<title>insert</title>
<polygon fill="#ffffff" stroke="transparent" points="-4,4 -4,-406 688.3242,-406 688.3242,4 -4,4"/>
<!-- Root -->
<g id="node1" class="node">
<title>Root</title>
<polygon fill="#ffff00" stroke="#ff0000" points="433.2202,-.5 433.2202,-36.5 505.104,-36.5 505.104,-.5 433.2202,-.5"/>
<text text-anchor="middle" x="469.1621" y="-14.3" font-family="Times,serif" font-size="14.00" fill="#000000">Tree Root</text>
</g>
<!-- Data01 -->
<g id="node2" class="node">
<title>Data01</title>
<polygon fill="#00ff00" stroke="#0000ff" points="1.9482,-365.5 1.9482,-401.5 58.376,-401.5 58.376,-365.5 1.9482,-365.5"/>
<text text-anchor="middle" x="30.1621" y="-379.3" font-family="Times,serif" font-size="14.00" fill="#000000">Data01</text>
</g>
<!-- Node01 -->
<g id="node11" class="node">
<title>Node01</title>
<polygon fill="#40e0d0" stroke="#ffff00" points="0,-292.5 0,-328.5 60.3242,-328.5 60.3242,-292.5 0,-292.5"/>
<text text-anchor="middle" x="30.1621" y="-306.3" font-family="Times,serif" font-size="14.00" fill="#000000">Node01</text>
</g>
<!-- Data01&#45;&gt;Node01 -->
<g id="edge1" class="edge">
<title>Data01&#45;&gt;Node01</title>
<path fill="none" stroke="#000000" d="M30.1621,-365.4551C30.1621,-357.3828 30.1621,-347.6764 30.1621,-338.6817"/>
<polygon fill="#000000" stroke="#000000" points="33.6622,-338.5903 30.1621,-328.5904 26.6622,-338.5904 33.6622,-338.5903"/>
</g>
<!-- Data02 -->
<g id="node3" class="node">
<title>Data02</title>
<polygon fill="#00ff00" stroke="#0000ff" points="79.9482,-365.5 79.9482,-401.5 136.376,-401.5 136.376,-365.5 79.9482,-365.5"/>
<text text-anchor="middle" x="108.1621" y="-379.3" font-family="Times,serif" font-size="14.00" fill="#000000">Data02</text>
</g>
<!-- Node02 -->
<g id="node15" class="node">
<title>Node02</title>
<polygon fill="#40e0d0" stroke="#ffff00" points="78,-292.5 78,-328.5 138.3242,-328.5 138.3242,-292.5 78,-292.5"/>
<text text-anchor="middle" x="108.1621" y="-306.3" font-family="Times,serif" font-size="14.00" fill="#000000">Node02</text>
</g>
<!-- Data02&#45;&gt;Node02 -->
<g id="edge6" class="edge">
<title>Data02&#45;&gt;Node02</title>
<path fill="none" stroke="#000000" d="M108.1621,-365.4551C108.1621,-357.3828 108.1621,-347.6764 108.1621,-338.6817"/>
<polygon fill="#000000" stroke="#000000" points="111.6622,-338.5903 108.1621,-328.5904 104.6622,-338.5904 111.6622,-338.5903"/>
</g>
<!-- Data03 -->
<g id="node4" class="node">
<title>Data03</title>
<polygon fill="#00ff00" stroke="#0000ff" points="157.9482,-365.5 157.9482,-401.5 214.376,-401.5 214.376,-365.5 157.9482,-365.5"/>
<text text-anchor="middle" x="186.1621" y="-379.3" font-family="Times,serif" font-size="14.00" fill="#000000">Data03</text>
</g>
<!-- Node03 -->
<g id="node16" class="node">
<title>Node03</title>
<polygon fill="#40e0d0" stroke="#ffff00" points="156,-292.5 156,-328.5 216.3242,-328.5 216.3242,-292.5 156,-292.5"/>
<text text-anchor="middle" x="186.1621" y="-306.3" font-family="Times,serif" font-size="14.00" fill="#000000">Node03</text>
</g>
<!-- Data03&#45;&gt;Node03 -->
<g id="edge8" class="edge">
<title>Data03&#45;&gt;Node03</title>
<path fill="none" stroke="#000000" d="M186.1621,-365.4551C186.1621,-357.3828 186.1621,-347.6764 186.1621,-338.6817"/>
<polygon fill="#000000" stroke="#000000" points="189.6622,-338.5903 186.1621,-328.5904 182.6622,-338.5904 189.6622,-338.5903"/>
</g>
<!-- Data04 -->
<g id="node5" class="node">
<title>Data04</title>
<polygon fill="#00ff00" stroke="#0000ff" points="235.9482,-365.5 235.9482,-401.5 292.376,-401.5 292.376,-365.5 235.9482,-365.5"/>
<text text-anchor="middle" x="264.1621" y="-379.3" font-family="Times,serif" font-size="14.00" fill="#000000">Data04</text>
</g>
<!-- Node04 -->
<g id="node18" class="node">
<title>Node04</title>
<polygon fill="#40e0d0" stroke="#ffff00" points="234,-292.5 234,-328.5 294.3242,-328.5 294.3242,-292.5 234,-292.5"/>
<text text-anchor="middle" x="264.1621" y="-306.3" font-family="Times,serif" font-size="14.00" fill="#000000">Node04</text>
</g>
<!-- Data04&#45;&gt;Node04 -->
<g id="edge11" class="edge">
<title>Data04&#45;&gt;Node04</title>
<path fill="none" stroke="#000000" d="M264.1621,-365.4551C264.1621,-357.3828 264.1621,-347.6764 264.1621,-338.6817"/>
<polygon fill="#000000" stroke="#000000" points="267.6622,-338.5903 264.1621,-328.5904 260.6622,-338.5904 267.6622,-338.5903"/>
</g>
<!-- Data05 -->
<g id="node6" class="node">
<title>Data05</title>
<polygon fill="#00ff00" stroke="#0000ff" points="313.9482,-365.5 313.9482,-401.5 370.376,-401.5 370.376,-365.5 313.9482,-365.5"/>
<text text-anchor="middle" x="342.1621" y="-379.3" font-family="Times,serif" font-size="14.00" fill="#000000">Data05</text>
</g>
<!-- Node05 -->
<g id="node19" class="node">
<title>Node05</title>
<polygon fill="#40e0d0" stroke="#ffff00" points="312,-292.5 312,-328.5 372.3242,-328.5 372.3242,-292.5 312,-292.5"/>
<text text-anchor="middle" x="342.1621" y="-306.3" font-family="Times,serif" font-size="14.00" fill="#000000">Node05</text>
</g>
<!-- Data05&#45;&gt;Node05 -->
<g id="edge13" class="edge">
<title>Data05&#45;&gt;Node05</title>
<path fill="none" stroke="#000000" d="M342.1621,-365.4551C342.1621,-357.3828 342.1621,-347.6764 342.1621,-338.6817"/>
<polygon fill="#000000" stroke="#000000" points="345.6622,-338.5903 342.1621,-328.5904 338.6622,-338.5904 345.6622,-338.5903"/>
</g>
<!-- Data06 -->
<g id="node7" class="node">
<title>Data06</title>
<polygon fill="#00ff00" stroke="#0000ff" points="391.9482,-365.5 391.9482,-401.5 448.376,-401.5 448.376,-365.5 391.9482,-365.5"/>
<text text-anchor="middle" x="420.1621" y="-379.3" font-family="Times,serif" font-size="14.00" fill="#000000">Data06</text>
</g>
<!-- Node06 -->
<g id="node22" class="node">
<title>Node06</title>
<polygon fill="#40e0d0" stroke="#ffff00" points="390,-292.5 390,-328.5 450.3242,-328.5 450.3242,-292.5 390,-292.5"/>
<text text-anchor="middle" x="420.1621" y="-306.3" font-family="Times,serif" font-size="14.00" fill="#000000">Node06</text>
</g>
<!-- Data06&#45;&gt;Node06 -->
<g id="edge17" class="edge">
<title>Data06&#45;&gt;Node06</title>
<path fill="none" stroke="#000000" d="M420.1621,-365.4551C420.1621,-357.3828 420.1621,-347.6764 420.1621,-338.6817"/>
<polygon fill="#000000" stroke="#000000" points="423.6622,-338.5903 420.1621,-328.5904 416.6622,-338.5904 423.6622,-338.5903"/>
</g>
<!-- Data07 -->
<g id="node8" class="node">
<title>Data07</title>
<polygon fill="#00ff00" stroke="#0000ff" points="469.9482,-365.5 469.9482,-401.5 526.376,-401.5 526.376,-365.5 469.9482,-365.5"/>
<text text-anchor="middle" x="498.1621" y="-379.3" font-family="Times,serif" font-size="14.00" fill="#000000">Data07</text>
</g>
<!-- Node07 -->
<g id="node23" class="node">
<title>Node07</title>
<polygon fill="#40e0d0" stroke="#ffff00" points="468,-292.5 468,-328.5 528.3242,-328.5 528.3242,-292.5 468,-292.5"/>
<text text-anchor="middle" x="498.1621" y="-306.3" font-family="Times,serif" font-size="14.00" fill="#000000">Node07</text>
</g>
<!-- Data07&#45;&gt;Node07 -->
<g id="edge19" class="edge">
<title>Data07&#45;&gt;Node07</title>
<path fill="none" stroke="#000000" d="M498.1621,-365.4551C498.1621,-357.3828 498.1621,-347.6764 498.1621,-338.6817"/>
<polygon fill="#000000" stroke="#000000" points="501.6622,-338.5903 498.1621,-328.5904 494.6622,-338.5904 501.6622,-338.5903"/>
</g>
<!-- Data08 -->
<g id="node9" class="node">
<title>Data08</title>
<polygon fill="#00ff00" stroke="#0000ff" points="547.9482,-365.5 547.9482,-401.5 604.376,-401.5 604.376,-365.5 547.9482,-365.5"/>
<text text-anchor="middle" x="576.1621" y="-379.3" font-family="Times,serif" font-size="14.00" fill="#000000">Data08</text>
</g>
<!-- Node08 -->
<g id="node25" class="node">
<title>Node08</title>
<polygon fill="#40e0d0" stroke="#ffff00" points="546,-292.5 546,-328.5 606.3242,-328.5 606.3242,-292.5 546,-292.5"/>
<text text-anchor="middle" x="576.1621" y="-306.3" font-family="Times,serif" font-size="14.00" fill="#000000">Node08</text>
</g>
<!-- Data08&#45;&gt;Node08 -->
<g id="edge22" class="edge">
<title>Data08&#45;&gt;Node08</title>
<path fill="none" stroke="#000000" d="M576.1621,-365.4551C576.1621,-357.3828 576.1621,-347.6764 576.1621,-338.6817"/>
<polygon fill="#000000" stroke="#000000" points="579.6622,-338.5903 576.1621,-328.5904 572.6622,-338.5904 579.6622,-338.5903"/>
</g>
<!-- Data09 -->
<g id="node10" class="node">
<title>Data09</title>
<polygon fill="#00ff00" stroke="#0000ff" points="625.9482,-365.5 625.9482,-401.5 682.376,-401.5 682.376,-365.5 625.9482,-365.5"/>
<text text-anchor="middle" x="654.1621" y="-379.3" font-family="Times,serif" font-size="14.00" fill="#000000">Data09</text>
</g>
<!-- Node09 -->
<g id="node26" class="node">
<title>Node09</title>
<polygon fill="#40e0d0" stroke="#ffff00" points="624,-292.5 624,-328.5 684.3242,-328.5 684.3242,-292.5 624,-292.5"/>
<text text-anchor="middle" x="654.1621" y="-306.3" font-family="Times,serif" font-size="14.00" fill="#000000">Node09</text>
</g>
<!-- Data09&#45;&gt;Node09 -->
<g id="edge24" class="edge">
<title>Data09&#45;&gt;Node09</title>
<path fill="none" stroke="#000000" d="M654.1621,-365.4551C654.1621,-357.3828 654.1621,-347.6764 654.1621,-338.6817"/>
<polygon fill="#000000" stroke="#000000" points="657.6622,-338.5903 654.1621,-328.5904 650.6622,-338.5904 657.6622,-338.5903"/>
</g>
<!-- Node11 -->
<g id="node12" class="node">
<title>Node11</title>
<polygon fill="#40e0d0" stroke="#ffff00" points="78.2563,-219.5 78.2563,-255.5 138.0679,-255.5 138.0679,-219.5 78.2563,-219.5"/>
<text text-anchor="middle" x="108.1621" y="-233.3" font-family="Times,serif" font-size="14.00" fill="#000000">Node11</text>
</g>
<!-- Node01&#45;&gt;Node11 -->
<g id="edge2" class="edge">
<title>Node01&#45;&gt;Node11</title>
<path fill="none" stroke="#000000" d="M49.443,-292.4551C59.0994,-283.4177 70.9445,-272.3319 81.4605,-262.4899"/>
<polygon fill="#000000" stroke="#000000" points="83.9231,-264.979 88.8327,-255.5904 79.1398,-259.8681 83.9231,-264.979"/>
</g>
<!-- Node21 -->
<g id="node13" class="node">
<title>Node21</title>
<polygon fill="#40e0d0" stroke="#ffff00" points="195,-146.5 195,-182.5 255.3242,-182.5 255.3242,-146.5 195,-146.5"/>
<text text-anchor="middle" x="225.1621" y="-160.3" font-family="Times,serif" font-size="14.00" fill="#000000">Node21</text>
</g>
<!-- Node11&#45;&gt;Node21 -->
<g id="edge3" class="edge">
<title>Node11&#45;&gt;Node21</title>
<path fill="none" stroke="#000000" d="M137.0835,-219.4551C152.2712,-209.979 171.0684,-198.2508 187.3922,-188.0658"/>
<polygon fill="#000000" stroke="#000000" points="189.5366,-190.8533 196.168,-182.5904 185.8312,-184.9145 189.5366,-190.8533"/>
</g>
<!-- Node31 -->
<g id="node14" class="node">
<title>Node31</title>
<polygon fill="#40e0d0" stroke="#ffff00" points="400,-73.5 400,-109.5 460.3242,-109.5 460.3242,-73.5 400,-73.5"/>
<text text-anchor="middle" x="430.1621" y="-87.3" font-family="Times,serif" font-size="14.00" fill="#000000">Node31</text>
</g>
<!-- Node21&#45;&gt;Node31 -->
<g id="edge4" class="edge">
<title>Node21&#45;&gt;Node31</title>
<path fill="none" stroke="#000000" d="M255.4106,-153.7286C291.1412,-141.005 350.7045,-119.7947 390.2058,-105.7283"/>
<polygon fill="#000000" stroke="#000000" points="391.5432,-108.9675 399.7896,-102.3156 389.1949,-102.3731 391.5432,-108.9675"/>
</g>
<!-- Node31&#45;&gt;Root -->
<g id="edge5" class="edge">
<title>Node31&#45;&gt;Root</title>
<path fill="none" stroke="#000000" d="M439.8026,-73.4551C444.3026,-65.0319 449.7533,-54.8292 454.7306,-45.5128"/>
<polygon fill="#000000" stroke="#000000" points="457.8723,-47.0598 459.4974,-36.5904 451.6981,-43.7613 457.8723,-47.0598"/>
</g>
<!-- Node02&#45;&gt;Node11 -->
<g id="edge7" class="edge">
<title>Node02&#45;&gt;Node11</title>
<path fill="none" stroke="#000000" d="M108.1621,-292.4551C108.1621,-284.3828 108.1621,-274.6764 108.1621,-265.6817"/>
<polygon fill="#000000" stroke="#000000" points="111.6622,-265.5903 108.1621,-255.5904 104.6622,-265.5904 111.6622,-265.5903"/>
</g>
<!-- Node12 -->
<g id="node17" class="node">
<title>Node12</title>
<polygon fill="#40e0d0" stroke="#ffff00" points="195,-219.5 195,-255.5 255.3242,-255.5 255.3242,-219.5 195,-219.5"/>
<text text-anchor="middle" x="225.1621" y="-233.3" font-family="Times,serif" font-size="14.00" fill="#000000">Node12</text>
</g>
<!-- Node03&#45;&gt;Node12 -->
<g id="edge9" class="edge">
<title>Node03&#45;&gt;Node12</title>
<path fill="none" stroke="#000000" d="M195.8026,-292.4551C200.3026,-284.0319 205.7533,-273.8292 210.7306,-264.5128"/>
<polygon fill="#000000" stroke="#000000" points="213.8723,-266.0598 215.4974,-255.5904 207.6981,-262.7613 213.8723,-266.0598"/>
</g>
<!-- Node12&#45;&gt;Node21 -->
<g id="edge10" class="edge">
<title>Node12&#45;&gt;Node21</title>
<path fill="none" stroke="#000000" d="M225.1621,-219.4551C225.1621,-211.3828 225.1621,-201.6764 225.1621,-192.6817"/>
<polygon fill="#000000" stroke="#000000" points="228.6622,-192.5903 225.1621,-182.5904 221.6622,-192.5904 228.6622,-192.5903"/>
</g>
<!-- Node04&#45;&gt;Node12 -->
<g id="edge12" class="edge">
<title>Node04&#45;&gt;Node12</title>
<path fill="none" stroke="#000000" d="M254.5217,-292.4551C250.0216,-284.0319 244.5709,-273.8292 239.5936,-264.5128"/>
<polygon fill="#000000" stroke="#000000" points="242.6261,-262.7613 234.8268,-255.5904 236.452,-266.0598 242.6261,-262.7613"/>
</g>
<!-- Node13 -->
<g id="node20" class="node">
<title>Node13</title>
<polygon fill="#40e0d0" stroke="#ffff00" points="390,-219.5 390,-255.5 450.3242,-255.5 450.3242,-219.5 390,-219.5"/>
<text text-anchor="middle" x="420.1621" y="-233.3" font-family="Times,serif" font-size="14.00" fill="#000000">Node13</text>
</g>
<!-- Node05&#45;&gt;Node13 -->
<g id="edge14" class="edge">
<title>Node05&#45;&gt;Node13</title>
<path fill="none" stroke="#000000" d="M361.443,-292.4551C371.0994,-283.4177 382.9445,-272.3319 393.4605,-262.4899"/>
<polygon fill="#000000" stroke="#000000" points="395.9231,-264.979 400.8327,-255.5904 391.1398,-259.8681 395.9231,-264.979"/>
</g>
<!-- Node22 -->
<g id="node21" class="node">
<title>Node22</title>
<polygon fill="#40e0d0" stroke="#ffff00" points="400,-146.5 400,-182.5 460.3242,-182.5 460.3242,-146.5 400,-146.5"/>
<text text-anchor="middle" x="430.1621" y="-160.3" font-family="Times,serif" font-size="14.00" fill="#000000">Node22</text>
</g>
<!-- Node13&#45;&gt;Node22 -->
<g id="edge15" class="edge">
<title>Node13&#45;&gt;Node22</title>
<path fill="none" stroke="#000000" d="M422.634,-219.4551C423.7398,-211.3828 425.0695,-201.6764 426.3016,-192.6817"/>
<polygon fill="#000000" stroke="#000000" points="429.7943,-192.9729 427.684,-182.5904 422.8591,-192.0228 429.7943,-192.9729"/>
</g>
<!-- Node22&#45;&gt;Node31 -->
<g id="edge16" class="edge">
<title>Node22&#45;&gt;Node31</title>
<path fill="none" stroke="#000000" d="M430.1621,-146.4551C430.1621,-138.3828 430.1621,-128.6764 430.1621,-119.6817"/>
<polygon fill="#000000" stroke="#000000" points="433.6622,-119.5903 430.1621,-109.5904 426.6622,-119.5904 433.6622,-119.5903"/>
</g>
<!-- Node06&#45;&gt;Node13 -->
<g id="edge18" class="edge">
<title>Node06&#45;&gt;Node13</title>
<path fill="none" stroke="#000000" d="M420.1621,-292.4551C420.1621,-284.3828 420.1621,-274.6764 420.1621,-265.6817"/>
<polygon fill="#000000" stroke="#000000" points="423.6622,-265.5903 420.1621,-255.5904 416.6622,-265.5904 423.6622,-265.5903"/>
</g>
<!-- Node14 -->
<g id="node24" class="node">
<title>Node14</title>
<polygon fill="#40e0d0" stroke="#ffff00" points="468,-219.5 468,-255.5 528.3242,-255.5 528.3242,-219.5 468,-219.5"/>
<text text-anchor="middle" x="498.1621" y="-233.3" font-family="Times,serif" font-size="14.00" fill="#000000">Node14</text>
</g>
<!-- Node07&#45;&gt;Node14 -->
<g id="edge20" class="edge">
<title>Node07&#45;&gt;Node14</title>
<path fill="none" stroke="#000000" d="M498.1621,-292.4551C498.1621,-284.3828 498.1621,-274.6764 498.1621,-265.6817"/>
<polygon fill="#000000" stroke="#000000" points="501.6622,-265.5903 498.1621,-255.5904 494.6622,-265.5904 501.6622,-265.5903"/>
</g>
<!-- Node14&#45;&gt;Node22 -->
<g id="edge21" class="edge">
<title>Node14&#45;&gt;Node22</title>
<path fill="none" stroke="#000000" d="M481.3531,-219.4551C473.0982,-210.5932 463.0086,-199.7616 453.9757,-190.0646"/>
<polygon fill="#000000" stroke="#000000" points="456.3905,-187.522 447.0134,-182.5904 451.2684,-192.2932 456.3905,-187.522"/>
</g>
<!-- Node08&#45;&gt;Node14 -->
<g id="edge23" class="edge">
<title>Node08&#45;&gt;Node14</title>
<path fill="none" stroke="#000000" d="M556.8812,-292.4551C547.2248,-283.4177 535.3798,-272.3319 524.8637,-262.4899"/>
<polygon fill="#000000" stroke="#000000" points="527.1844,-259.8681 517.4915,-255.5904 522.4011,-264.979 527.1844,-259.8681"/>
</g>
<!-- Node15 -->
<g id="node27" class="node">
<title>Node15</title>
<polygon fill="#40e0d0" stroke="#ffff00" points="585,-219.5 585,-255.5 645.3242,-255.5 645.3242,-219.5 585,-219.5"/>
<text text-anchor="middle" x="615.1621" y="-233.3" font-family="Times,serif" font-size="14.00" fill="#000000">Node15</text>
</g>
<!-- Node09&#45;&gt;Node15 -->
<g id="edge25" class="edge">
<title>Node09&#45;&gt;Node15</title>
<path fill="none" stroke="#000000" d="M644.5217,-292.4551C640.0216,-284.0319 634.5709,-273.8292 629.5936,-264.5128"/>
<polygon fill="#000000" stroke="#000000" points="632.6261,-262.7613 624.8268,-255.5904 626.452,-266.0598 632.6261,-262.7613"/>
</g>
<!-- Node23 -->
<g id="node28" class="node">
<title>Node23</title>
<polygon fill="#40e0d0" stroke="#ffff00" points="536,-146.5 536,-182.5 596.3242,-182.5 596.3242,-146.5 536,-146.5"/>
<text text-anchor="middle" x="566.1621" y="-160.3" font-family="Times,serif" font-size="14.00" fill="#000000">Node23</text>
</g>
<!-- Node15&#45;&gt;Node23 -->
<g id="edge26" class="edge">
<title>Node15&#45;&gt;Node23</title>
<path fill="none" stroke="#000000" d="M603.0497,-219.4551C597.278,-210.8564 590.2616,-200.4034 583.9039,-190.9316"/>
<polygon fill="#000000" stroke="#000000" points="586.7843,-188.9427 578.305,-182.5904 580.9722,-192.844 586.7843,-188.9427"/>
</g>
<!-- Node32 -->
<g id="node29" class="node">
<title>Node32</title>
<polygon fill="#40e0d0" stroke="#ffff00" points="497,-73.5 497,-109.5 557.3242,-109.5 557.3242,-73.5 497,-73.5"/>
<text text-anchor="middle" x="527.1621" y="-87.3" font-family="Times,serif" font-size="14.00" fill="#000000">Node32</text>
</g>
<!-- Node23&#45;&gt;Node32 -->
<g id="edge27" class="edge">
<title>Node23&#45;&gt;Node32</title>
<path fill="none" stroke="#000000" d="M556.5217,-146.4551C552.0216,-138.0319 546.5709,-127.8292 541.5936,-118.5128"/>
<polygon fill="#000000" stroke="#000000" points="544.6261,-116.7613 536.8268,-109.5904 538.452,-120.0598 544.6261,-116.7613"/>
</g>
<!-- Node32&#45;&gt;Root -->
<g id="edge28" class="edge">
<title>Node32&#45;&gt;Root</title>
<path fill="none" stroke="#000000" d="M512.825,-73.4551C505.9235,-64.7686 497.5184,-54.1898 489.9325,-44.642"/>
<polygon fill="#000000" stroke="#000000" points="492.4964,-42.2427 483.5353,-36.5904 487.0157,-46.5972 492.4964,-42.2427"/>
</g>
</g>
</svg>
