<?xml version="1.0" encoding="UTF-8" standalone="no"?>
<!DOCTYPE svg PUBLIC "-//W3C//DTD SVG 1.1//EN"
 "http://www.w3.org/Graphics/SVG/1.1/DTD/svg11.dtd">
<!-- Generated by graphviz version 2.40.1 (20161225.0304)
 -->
<!-- Title: merkletree_insert Pages: 1 -->
<svg width="701pt" height="410pt"
 viewBox="0.00 0.00 701.32 410.00" xmlns="http://www.w3.org/2000/svg" xmlns:xlink="http://www.w3.org/1999/xlink">
<g id="graph0" class="graph" transform="scale(1 1) rotate(0) translate(4 406)">
<title>merkletree_insert</title>
<polygon fill="#ffffff" stroke="transparent" points="-4,4 -4,-406 697.3242,-406 697.3242,4 -4,4"/>
<!-- Root -->
<g id="node1" class="node">
<title>Root</title>
<polygon fill="#ffa500" stroke="#ff0000" points="270.2202,-.5 270.2202,-36.5 342.104,-36.5 342.104,-.5 270.2202,-.5"/>
<text text-anchor="middle" x="306.1621" y="-14.3" font-family="Times,serif" font-size="14.00" fill="#000000">Tree Root</text>
</g>
<!-- Data01 -->
<g id="node2" class="node">
<title>Data01</title>
<polygon fill="#00ff00" stroke="#0000ff" points="1.9482,-292.5 1.9482,-328.5 58.376,-328.5 58.376,-292.5 1.9482,-292.5"/>
<text text-anchor="middle" x="30.1621" y="-306.3" font-family="Times,serif" font-size="14.00" fill="#000000">Data01</text>
</g>
<!-- Node01 -->
<g id="node11" class="node">
<title>Node01</title>
<polygon fill="#40e0d0" stroke="#ffff00" points="0,-219.5 0,-255.5 60.3242,-255.5 60.3242,-219.5 0,-219.5"/>
<text text-anchor="middle" x="30.1621" y="-233.3" font-family="Times,serif" font-size="14.00" fill="#000000">Node01</text>
</g>
<!-- Data01&#45;&gt;Node01 -->
<g id="edge1" class="edge">
<title>Data01&#45;&gt;Node01</title>
<path fill="none" stroke="#606060" stroke-width="3" d="M30.1621,-292.4551C30.1621,-284.3828 30.1621,-274.6764 30.1621,-265.6817"/>
<polygon fill="#606060" stroke="#606060" stroke-width="3" points="33.6622,-265.5903 30.1621,-255.5904 26.6622,-265.5904 33.6622,-265.5903"/>
</g>
<!-- Data02 -->
<g id="node3" class="node">
<title>Data02</title>
<polygon fill="#00ff00" stroke="#0000ff" points="79.9482,-292.5 79.9482,-328.5 136.376,-328.5 136.376,-292.5 79.9482,-292.5"/>
<text text-anchor="middle" x="108.1621" y="-306.3" font-family="Times,serif" font-size="14.00" fill="#000000">Data02</text>
</g>
<!-- Node02 -->
<g id="node12" class="node">
<title>Node02</title>
<polygon fill="#40e0d0" stroke="#ffff00" points="78,-219.5 78,-255.5 138.3242,-255.5 138.3242,-219.5 78,-219.5"/>
<text text-anchor="middle" x="108.1621" y="-233.3" font-family="Times,serif" font-size="14.00" fill="#000000">Node02</text>
</g>
<!-- Data02&#45;&gt;Node02 -->
<g id="edge5" class="edge">
<title>Data02&#45;&gt;Node02</title>
<path fill="none" stroke="#606060" stroke-width="3" d="M108.1621,-292.4551C108.1621,-284.3828 108.1621,-274.6764 108.1621,-265.6817"/>
<polygon fill="#606060" stroke="#606060" stroke-width="3" points="111.6622,-265.5903 108.1621,-255.5904 104.6622,-265.5904 111.6622,-265.5903"/>
</g>
<!-- Data03 -->
<g id="node4" class="node">
<title>Data03</title>
<polygon fill="#00ff00" stroke="#0000ff" points="231.9482,-365.5 231.9482,-401.5 288.376,-401.5 288.376,-365.5 231.9482,-365.5"/>
<text text-anchor="middle" x="260.1621" y="-379.3" font-family="Times,serif" font-size="14.00" fill="#000000">Data03</text>
</g>
<!-- Node03 -->
<g id="node13" class="node">
<title>Node03</title>
<polygon fill="#40e0d0" stroke="#ffff00" points="230,-292.5 230,-328.5 290.3242,-328.5 290.3242,-292.5 230,-292.5"/>
<text text-anchor="middle" x="260.1621" y="-306.3" font-family="Times,serif" font-size="14.00" fill="#000000">Node03</text>
</g>
<!-- Data03&#45;&gt;Node03 -->
<g id="edge7" class="edge">
<title>Data03&#45;&gt;Node03</title>
<path fill="none" stroke="#606060" stroke-width="3" d="M260.1621,-365.4551C260.1621,-357.3828 260.1621,-347.6764 260.1621,-338.6817"/>
<polygon fill="#606060" stroke="#606060" stroke-width="3" points="263.6622,-338.5903 260.1621,-328.5904 256.6622,-338.5904 263.6622,-338.5903"/>
</g>
<!-- Data04 -->
<g id="node5" class="node">
<title>Data04</title>
<polygon fill="#00ff00" stroke="#0000ff" points="155.9482,-292.5 155.9482,-328.5 212.376,-328.5 212.376,-292.5 155.9482,-292.5"/>
<text text-anchor="middle" x="184.1621" y="-306.3" font-family="Times,serif" font-size="14.00" fill="#000000">Data04</text>
</g>
<!-- Node04 -->
<g id="node14" class="node">
<title>Node04</title>
<polygon fill="#40e0d0" stroke="#ffff00" points="156,-219.5 156,-255.5 216.3242,-255.5 216.3242,-219.5 156,-219.5"/>
<text text-anchor="middle" x="186.1621" y="-233.3" font-family="Times,serif" font-size="14.00" fill="#000000">Node04</text>
</g>
<!-- Data04&#45;&gt;Node04 -->
<g id="edge13" class="edge">
<title>Data04&#45;&gt;Node04</title>
<path fill="none" stroke="#606060" stroke-width="3" d="M184.6565,-292.4551C184.8776,-284.3828 185.1436,-274.6764 185.39,-265.6817"/>
<polygon fill="#606060" stroke="#606060" stroke-width="3" points="188.8912,-265.6825 185.6665,-255.5904 181.8938,-265.4907 188.8912,-265.6825"/>
</g>
<!-- Data05 -->
<g id="node6" class="node">
<title>Data05</title>
<polygon fill="#00ff00" stroke="#0000ff" points="402.9482,-292.5 402.9482,-328.5 459.376,-328.5 459.376,-292.5 402.9482,-292.5"/>
<text text-anchor="middle" x="431.1621" y="-306.3" font-family="Times,serif" font-size="14.00" fill="#000000">Data05</text>
</g>
<!-- Node05 -->
<g id="node15" class="node">
<title>Node05</title>
<polygon fill="#40e0d0" stroke="#ffff00" points="399,-219.5 399,-255.5 459.3242,-255.5 459.3242,-219.5 399,-219.5"/>
<text text-anchor="middle" x="429.1621" y="-233.3" font-family="Times,serif" font-size="14.00" fill="#000000">Node05</text>
</g>
<!-- Data05&#45;&gt;Node05 -->
<g id="edge15" class="edge">
<title>Data05&#45;&gt;Node05</title>
<path fill="none" stroke="#606060" stroke-width="3" d="M430.6677,-292.4551C430.4466,-284.3828 430.1806,-274.6764 429.9342,-265.6817"/>
<polygon fill="#606060" stroke="#606060" stroke-width="3" points="433.4304,-265.4907 429.6577,-255.5904 426.433,-265.6825 433.4304,-265.4907"/>
</g>
<!-- Data06 -->
<g id="node7" class="node">
<title>Data06</title>
<polygon fill="#00ff00" stroke="#0000ff" points="478.9482,-292.5 478.9482,-328.5 535.376,-328.5 535.376,-292.5 478.9482,-292.5"/>
<text text-anchor="middle" x="507.1621" y="-306.3" font-family="Times,serif" font-size="14.00" fill="#000000">Data06</text>
</g>
<!-- Node06 -->
<g id="node16" class="node">
<title>Node06</title>
<polygon fill="#40e0d0" stroke="#ffff00" points="477,-219.5 477,-255.5 537.3242,-255.5 537.3242,-219.5 477,-219.5"/>
<text text-anchor="middle" x="507.1621" y="-233.3" font-family="Times,serif" font-size="14.00" fill="#000000">Node06</text>
</g>
<!-- Data06&#45;&gt;Node06 -->
<g id="edge19" class="edge">
<title>Data06&#45;&gt;Node06</title>
<path fill="none" stroke="#606060" stroke-width="3" d="M507.1621,-292.4551C507.1621,-284.3828 507.1621,-274.6764 507.1621,-265.6817"/>
<polygon fill="#606060" stroke="#606060" stroke-width="3" points="510.6622,-265.5903 507.1621,-255.5904 503.6622,-265.5904 510.6622,-265.5903"/>
</g>
<!-- Data07 -->
<g id="node8" class="node">
<title>Data07</title>
<polygon fill="#00ff00" stroke="#0000ff" points="556.9482,-292.5 556.9482,-328.5 613.376,-328.5 613.376,-292.5 556.9482,-292.5"/>
<text text-anchor="middle" x="585.1621" y="-306.3" font-family="Times,serif" font-size="14.00" fill="#000000">Data07</text>
</g>
<!-- Node07 -->
<g id="node17" class="node">
<title>Node07</title>
<polygon fill="#40e0d0" stroke="#ffff00" points="555,-219.5 555,-255.5 615.3242,-255.5 615.3242,-219.5 555,-219.5"/>
<text text-anchor="middle" x="585.1621" y="-233.3" font-family="Times,serif" font-size="14.00" fill="#000000">Node07</text>
</g>
<!-- Data07&#45;&gt;Node07 -->
<g id="edge21" class="edge">
<title>Data07&#45;&gt;Node07</title>
<path fill="none" stroke="#606060" stroke-width="3" d="M585.1621,-292.4551C585.1621,-284.3828 585.1621,-274.6764 585.1621,-265.6817"/>
<polygon fill="#606060" stroke="#606060" stroke-width="3" points="588.6622,-265.5903 585.1621,-255.5904 581.6622,-265.5904 588.6622,-265.5903"/>
</g>
<!-- Data08 -->
<g id="node9" class="node">
<title>Data08</title>
<polygon fill="#00ff00" stroke="#0000ff" points="634.9482,-292.5 634.9482,-328.5 691.376,-328.5 691.376,-292.5 634.9482,-292.5"/>
<text text-anchor="middle" x="663.1621" y="-306.3" font-family="Times,serif" font-size="14.00" fill="#000000">Data08</text>
</g>
<!-- Node08 -->
<g id="node18" class="node">
<title>Node08</title>
<polygon fill="#40e0d0" stroke="#ffff00" points="633,-219.5 633,-255.5 693.3242,-255.5 693.3242,-219.5 633,-219.5"/>
<text text-anchor="middle" x="663.1621" y="-233.3" font-family="Times,serif" font-size="14.00" fill="#000000">Node08</text>
</g>
<!-- Data08&#45;&gt;Node08 -->
<g id="edge24" class="edge">
<title>Data08&#45;&gt;Node08</title>
<path fill="none" stroke="#606060" stroke-width="3" d="M663.1621,-292.4551C663.1621,-284.3828 663.1621,-274.6764 663.1621,-265.6817"/>
<polygon fill="#606060" stroke="#606060" stroke-width="3" points="666.6622,-265.5903 663.1621,-255.5904 659.6622,-265.5904 666.6622,-265.5903"/>
</g>
<!-- Data_new -->
<g id="node10" class="node">
<title>Data_new</title>
<polygon fill="#ffa500" stroke="#0000ff" points="309.7861,-365.5 309.7861,-401.5 382.5381,-401.5 382.5381,-365.5 309.7861,-365.5"/>
<text text-anchor="middle" x="346.1621" y="-379.3" font-family="Times,serif" font-size="14.00" fill="#000000">Data_new</text>
</g>
<!-- Node_new -->
<g id="node19" class="node">
<title>Node_new</title>
<polygon fill="#ffa500" stroke="#ffff00" points="307.8379,-292.5 307.8379,-328.5 384.4863,-328.5 384.4863,-292.5 307.8379,-292.5"/>
<text text-anchor="middle" x="346.1621" y="-306.3" font-family="Times,serif" font-size="14.00" fill="#000000">Node_new</text>
</g>
<!-- Data_new&#45;&gt;Node_new -->
<g id="edge11" class="edge">
<title>Data_new&#45;&gt;Node_new</title>
<path fill="none" stroke="#606060" stroke-width="3" d="M346.1621,-365.4551C346.1621,-357.3828 346.1621,-347.6764 346.1621,-338.6817"/>
<polygon fill="#606060" stroke="#606060" stroke-width="3" points="349.6622,-338.5903 346.1621,-328.5904 342.6622,-338.5904 349.6622,-338.5903"/>
</g>
<!-- Node11 -->
<g id="node21" class="node">
<title>Node11</title>
<polygon fill="#40e0d0" stroke="#ffff00" points="78.2563,-146.5 78.2563,-182.5 138.0679,-182.5 138.0679,-146.5 78.2563,-146.5"/>
<text text-anchor="middle" x="108.1621" y="-160.3" font-family="Times,serif" font-size="14.00" fill="#000000">Node11</text>
</g>
<!-- Node01&#45;&gt;Node11 -->
<g id="edge2" class="edge">
<title>Node01&#45;&gt;Node11</title>
<path fill="none" stroke="#606060" stroke-width="3" d="M49.443,-219.4551C59.0994,-210.4177 70.9445,-199.3319 81.4605,-189.4899"/>
<polygon fill="#606060" stroke="#606060" stroke-width="3" points="83.9231,-191.979 88.8327,-182.5904 79.1398,-186.8681 83.9231,-191.979"/>
</g>
<!-- Node02&#45;&gt;Node11 -->
<g id="edge6" class="edge">
<title>Node02&#45;&gt;Node11</title>
<path fill="none" stroke="#606060" stroke-width="3" d="M108.1621,-219.4551C108.1621,-211.3828 108.1621,-201.6764 108.1621,-192.6817"/>
<polygon fill="#606060" stroke="#606060" stroke-width="3" points="111.6622,-192.5903 108.1621,-182.5904 104.6622,-192.5904 111.6622,-192.5903"/>
</g>
<!-- Node03_new -->
<g id="node20" class="node">
<title>Node03_new</title>
<polygon fill="#ffa500" stroke="#ffff00" points="233.8379,-219.5 233.8379,-255.5 324.4863,-255.5 324.4863,-219.5 233.8379,-219.5"/>
<text text-anchor="middle" x="279.1621" y="-233.3" font-family="Times,serif" font-size="14.00" fill="#000000">Node03_new</text>
</g>
<!-- Node03&#45;&gt;Node03_new -->
<g id="edge8" class="edge">
<title>Node03&#45;&gt;Node03_new</title>
<path fill="none" stroke="#606060" stroke-width="3" d="M264.8587,-292.4551C266.9826,-284.2951 269.541,-274.4652 271.9034,-265.3887"/>
<polygon fill="#606060" stroke="#606060" stroke-width="3" points="275.3219,-266.1496 274.4537,-255.5904 268.5476,-264.3863 275.3219,-266.1496"/>
</g>
<!-- Node12 -->
<g id="node22" class="node">
<title>Node12</title>
<polygon fill="#ffa500" stroke="#ffff00" points="203,-146.5 203,-182.5 263.3242,-182.5 263.3242,-146.5 203,-146.5"/>
<text text-anchor="middle" x="233.1621" y="-160.3" font-family="Times,serif" font-size="14.00" fill="#000000">Node12</text>
</g>
<!-- Node04&#45;&gt;Node12 -->
<g id="edge14" class="edge">
<title>Node04&#45;&gt;Node12</title>
<path fill="none" stroke="#606060" stroke-width="3" d="M197.7801,-219.4551C203.2597,-210.9441 209.909,-200.6165 215.9576,-191.2219"/>
<polygon fill="#606060" stroke="#606060" stroke-width="3" points="219.0443,-192.8931 221.5149,-182.5904 213.1586,-189.1037 219.0443,-192.8931"/>
</g>
<!-- Node13 -->
<g id="node23" class="node">
<title>Node13</title>
<polygon fill="#40e0d0" stroke="#ffff00" points="438,-146.5 438,-182.5 498.3242,-182.5 498.3242,-146.5 438,-146.5"/>
<text text-anchor="middle" x="468.1621" y="-160.3" font-family="Times,serif" font-size="14.00" fill="#000000">Node13</text>
</g>
<!-- Node05&#45;&gt;Node13 -->
<g id="edge16" class="edge">
<title>Node05&#45;&gt;Node13</title>
<path fill="none" stroke="#606060" stroke-width="3" d="M438.8026,-219.4551C443.3026,-211.0319 448.7533,-200.8292 453.7306,-191.5128"/>
<polygon fill="#606060" stroke="#606060" stroke-width="3" points="456.8723,-193.0598 458.4974,-182.5904 450.6981,-189.7613 456.8723,-193.0598"/>
</g>
<!-- Node06&#45;&gt;Node13 -->
<g id="edge20" class="edge">
<title>Node06&#45;&gt;Node13</title>
<path fill="none" stroke="#606060" stroke-width="3" d="M497.5217,-219.4551C493.0216,-211.0319 487.5709,-200.8292 482.5936,-191.5128"/>
<polygon fill="#606060" stroke="#606060" stroke-width="3" points="485.6261,-189.7613 477.8268,-182.5904 479.452,-193.0598 485.6261,-189.7613"/>
</g>
<!-- Node14 -->
<g id="node24" class="node">
<title>Node14</title>
<polygon fill="#40e0d0" stroke="#ffff00" points="555,-146.5 555,-182.5 615.3242,-182.5 615.3242,-146.5 555,-146.5"/>
<text text-anchor="middle" x="585.1621" y="-160.3" font-family="Times,serif" font-size="14.00" fill="#000000">Node14</text>
</g>
<!-- Node07&#45;&gt;Node14 -->
<g id="edge22" class="edge">
<title>Node07&#45;&gt;Node14</title>
<path fill="none" stroke="#606060" stroke-width="3" d="M585.1621,-219.4551C585.1621,-211.3828 585.1621,-201.6764 585.1621,-192.6817"/>
<polygon fill="#606060" stroke="#606060" stroke-width="3" points="588.6622,-192.5903 585.1621,-182.5904 581.6622,-192.5904 588.6622,-192.5903"/>
</g>
<!-- Node08&#45;&gt;Node14 -->
<g id="edge25" class="edge">
<title>Node08&#45;&gt;Node14</title>
<path fill="none" stroke="#606060" stroke-width="3" d="M643.8812,-219.4551C634.2248,-210.4177 622.3798,-199.3319 611.8637,-189.4899"/>
<polygon fill="#606060" stroke="#606060" stroke-width="3" points="614.1844,-186.8681 604.4915,-182.5904 609.4011,-191.979 614.1844,-186.8681"/>
</g>
<!-- Node_new&#45;&gt;Node03_new -->
<g id="edge12" class="edge">
<title>Node_new&#45;&gt;Node03_new</title>
<path fill="none" stroke="#606060" stroke-width="3" d="M329.6003,-292.4551C321.4668,-283.5932 311.5255,-272.7616 302.6255,-263.0646"/>
<polygon fill="#606060" stroke="#606060" stroke-width="3" points="305.106,-260.5911 295.7656,-255.5904 299.9489,-265.3244 305.106,-260.5911"/>
</g>
<!-- Node03_new&#45;&gt;Node12 -->
<g id="edge9" class="edge">
<title>Node03_new&#45;&gt;Node12</title>
<path fill="none" stroke="#606060" stroke-width="3" d="M267.7913,-219.4551C262.4283,-210.9441 255.9205,-200.6165 250.0006,-191.2219"/>
<polygon fill="#606060" stroke="#606060" stroke-width="3" points="252.8539,-189.1848 244.5615,-182.5904 246.9316,-192.9167 252.8539,-189.1848"/>
</g>
<!-- Node21 -->
<g id="node25" class="node">
<title>Node21</title>
<polygon fill="#ffa500" stroke="#ffff00" points="203,-73.5 203,-109.5 263.3242,-109.5 263.3242,-73.5 203,-73.5"/>
<text text-anchor="middle" x="233.1621" y="-87.3" font-family="Times,serif" font-size="14.00" fill="#000000">Node21</text>
</g>
<!-- Node11&#45;&gt;Node21 -->
<g id="edge3" class="edge">
<title>Node11&#45;&gt;Node21</title>
<path fill="none" stroke="#606060" stroke-width="3" d="M138.1027,-147.0147C154.7093,-137.3165 175.5706,-125.1334 193.5166,-114.653"/>
<polygon fill="#606060" stroke="#606060" stroke-width="3" points="195.7272,-117.4152 202.5974,-109.3498 192.1971,-111.3705 195.7272,-117.4152"/>
</g>
<!-- Node12&#45;&gt;Node21 -->
<g id="edge10" class="edge">
<title>Node12&#45;&gt;Node21</title>
<path fill="none" stroke="#606060" stroke-width="3" d="M233.1621,-146.4551C233.1621,-138.3828 233.1621,-128.6764 233.1621,-119.6817"/>
<polygon fill="#606060" stroke="#606060" stroke-width="3" points="236.6622,-119.5903 233.1621,-109.5904 229.6622,-119.5904 236.6622,-119.5903"/>
</g>
<!-- Node22 -->
<g id="node26" class="node">
<title>Node22</title>
<polygon fill="#40e0d0" stroke="#ffff00" points="438,-73.5 438,-109.5 498.3242,-109.5 498.3242,-73.5 438,-73.5"/>
<text text-anchor="middle" x="468.1621" y="-87.3" font-family="Times,serif" font-size="14.00" fill="#000000">Node22</text>
</g>
<!-- Node13&#45;&gt;Node22 -->
<g id="edge17" class="edge">
<title>Node13&#45;&gt;Node22</title>
<path fill="none" stroke="#606060" stroke-width="3" d="M468.1621,-146.4551C468.1621,-138.3828 468.1621,-128.6764 468.1621,-119.6817"/>
<polygon fill="#606060" stroke="#606060" stroke-width="3" points="471.6622,-119.5903 468.1621,-109.5904 464.6622,-119.5904 471.6622,-119.5903"/>
</g>
<!-- Node14&#45;&gt;Node22 -->
<g id="edge23" class="edge">
<title>Node14&#45;&gt;Node22</title>
<path fill="none" stroke="#606060" stroke-width="3" d="M556.2408,-146.4551C541.0531,-136.979 522.2558,-125.2508 505.932,-115.0658"/>
<polygon fill="#606060" stroke="#606060" stroke-width="3" points="507.493,-111.9145 497.1562,-109.5904 503.7876,-117.8533 507.493,-111.9145"/>
</g>
<!-- Node21&#45;&gt;Root -->
<g id="edge4" class="edge">
<title>Node21&#45;&gt;Root</title>
<path fill="none" stroke="#606060" stroke-width="3" d="M251.2071,-73.4551C260.1567,-64.5054 271.1151,-53.547 280.8852,-43.7769"/>
<polygon fill="#606060" stroke="#606060" stroke-width="3" points="283.4755,-46.1363 288.0717,-36.5904 278.5258,-41.1866 283.4755,-46.1363"/>
</g>
<!-- Node22&#45;&gt;Root -->
<g id="edge18" class="edge">
<title>Node22&#45;&gt;Root</title>
<path fill="none" stroke="#606060" stroke-width="3" d="M437.6911,-77.7693C413.4226,-66.8334 379.0782,-51.3573 351.57,-38.9616"/>
<polygon fill="#606060" stroke="#606060" stroke-width="3" points="352.7079,-35.6355 342.1529,-34.7181 349.8321,-42.0174 352.7079,-35.6355"/>
</g>
</g>
</svg>
