<?xml version="1.0" encoding="UTF-8" standalone="no"?>
<!DOCTYPE svg PUBLIC "-//W3C//DTD SVG 1.1//EN"
 "http://www.w3.org/Graphics/SVG/1.1/DTD/svg11.dtd">
<!-- Generated by graphviz version 2.40.1 (20161225.0304)
 -->
<!-- Title: merkletree_update Pages: 1 -->
<svg width="614pt" height="337pt"
 viewBox="0.00 0.00 614.32 337.00" xmlns="http://www.w3.org/2000/svg" xmlns:xlink="http://www.w3.org/1999/xlink">
<g id="graph0" class="graph" transform="scale(1 1) rotate(0) translate(4 333)">
<title>merkletree_update</title>
<polygon fill="#ffffff" stroke="transparent" points="-4,4 -4,-333 610.3242,-333 610.3242,4 -4,4"/>
<!-- Root -->
<g id="node1" class="node">
<title>Root</title>
<polygon fill="#c0c0c0" stroke="#ff0000" points="306.2202,-.5 306.2202,-36.5 378.104,-36.5 378.104,-.5 306.2202,-.5"/>
<text text-anchor="middle" x="342.1621" y="-14.3" font-family="Times,serif" font-size="14.00" fill="#000000">Tree Root</text>
</g>
<!-- Data01 -->
<g id="node2" class="node">
<title>Data01</title>
<polygon fill="#00ff00" stroke="#0000ff" points="1.9482,-292.5 1.9482,-328.5 58.376,-328.5 58.376,-292.5 1.9482,-292.5"/>
<text text-anchor="middle" x="30.1621" y="-306.3" font-family="Times,serif" font-size="14.00" fill="#000000">Data01</text>
</g>
<!-- Node01 -->
<g id="node10" class="node">
<title>Node01</title>
<polygon fill="#40e0d0" stroke="#ffff00" points="0,-219.5 0,-255.5 60.3242,-255.5 60.3242,-219.5 0,-219.5"/>
<text text-anchor="middle" x="30.1621" y="-233.3" font-family="Times,serif" font-size="14.00" fill="#000000">Node01</text>
</g>
<!-- Data01&#45;&gt;Node01 -->
<g id="edge1" class="edge">
<title>Data01&#45;&gt;Node01</title>
<path fill="none" stroke="#606060" stroke-width="3" d="M30.1621,-292.4551C30.1621,-284.3828 30.1621,-274.6764 30.1621,-265.6817"/>
<polygon fill="#606060" stroke="#606060" stroke-width="3" points="33.6622,-265.5903 30.1621,-255.5904 26.6622,-265.5904 33.6622,-265.5903"/>
</g>
<!-- Data02 -->
<g id="node3" class="node">
<title>Data02</title>
<polygon fill="#00ff00" stroke="#0000ff" points="79.9482,-292.5 79.9482,-328.5 136.376,-328.5 136.376,-292.5 79.9482,-292.5"/>
<text text-anchor="middle" x="108.1621" y="-306.3" font-family="Times,serif" font-size="14.00" fill="#000000">Data02</text>
</g>
<!-- Node02 -->
<g id="node11" class="node">
<title>Node02</title>
<polygon fill="#40e0d0" stroke="#ffff00" points="78,-219.5 78,-255.5 138.3242,-255.5 138.3242,-219.5 78,-219.5"/>
<text text-anchor="middle" x="108.1621" y="-233.3" font-family="Times,serif" font-size="14.00" fill="#000000">Node02</text>
</g>
<!-- Data02&#45;&gt;Node02 -->
<g id="edge5" class="edge">
<title>Data02&#45;&gt;Node02</title>
<path fill="none" stroke="#606060" stroke-width="3" d="M108.1621,-292.4551C108.1621,-284.3828 108.1621,-274.6764 108.1621,-265.6817"/>
<polygon fill="#606060" stroke="#606060" stroke-width="3" points="111.6622,-265.5903 108.1621,-255.5904 104.6622,-265.5904 111.6622,-265.5903"/>
</g>
<!-- Data03 -->
<g id="node4" class="node">
<title>Data03</title>
<polygon fill="#00ff00" stroke="#0000ff" points="157.9482,-292.5 157.9482,-328.5 214.376,-328.5 214.376,-292.5 157.9482,-292.5"/>
<text text-anchor="middle" x="186.1621" y="-306.3" font-family="Times,serif" font-size="14.00" fill="#000000">Data03</text>
</g>
<!-- Node03 -->
<g id="node12" class="node">
<title>Node03</title>
<polygon fill="#40e0d0" stroke="#ffff00" points="156,-219.5 156,-255.5 216.3242,-255.5 216.3242,-219.5 156,-219.5"/>
<text text-anchor="middle" x="186.1621" y="-233.3" font-family="Times,serif" font-size="14.00" fill="#000000">Node03</text>
</g>
<!-- Data03&#45;&gt;Node03 -->
<g id="edge7" class="edge">
<title>Data03&#45;&gt;Node03</title>
<path fill="none" stroke="#606060" stroke-width="3" d="M186.1621,-292.4551C186.1621,-284.3828 186.1621,-274.6764 186.1621,-265.6817"/>
<polygon fill="#606060" stroke="#606060" stroke-width="3" points="189.6622,-265.5903 186.1621,-255.5904 182.6622,-265.5904 189.6622,-265.5903"/>
</g>
<!-- Data04 -->
<g id="node5" class="node">
<title>Data04</title>
<polygon fill="#00ff00" stroke="#0000ff" points="235.9482,-292.5 235.9482,-328.5 292.376,-328.5 292.376,-292.5 235.9482,-292.5"/>
<text text-anchor="middle" x="264.1621" y="-306.3" font-family="Times,serif" font-size="14.00" fill="#000000">Data04</text>
</g>
<!-- Node04 -->
<g id="node13" class="node">
<title>Node04</title>
<polygon fill="#40e0d0" stroke="#ffff00" points="234,-219.5 234,-255.5 294.3242,-255.5 294.3242,-219.5 234,-219.5"/>
<text text-anchor="middle" x="264.1621" y="-233.3" font-family="Times,serif" font-size="14.00" fill="#000000">Node04</text>
</g>
<!-- Data04&#45;&gt;Node04 -->
<g id="edge10" class="edge">
<title>Data04&#45;&gt;Node04</title>
<path fill="none" stroke="#606060" stroke-width="3" d="M264.1621,-292.4551C264.1621,-284.3828 264.1621,-274.6764 264.1621,-265.6817"/>
<polygon fill="#606060" stroke="#606060" stroke-width="3" points="267.6622,-265.5903 264.1621,-255.5904 260.6622,-265.5904 267.6622,-265.5903"/>
</g>
<!-- Data05 -->
<g id="node6" class="node">
<title>Data05</title>
<polygon fill="#00ff00" stroke="#0000ff" points="313.9482,-292.5 313.9482,-328.5 370.376,-328.5 370.376,-292.5 313.9482,-292.5"/>
<text text-anchor="middle" x="342.1621" y="-306.3" font-family="Times,serif" font-size="14.00" fill="#000000">Data05</text>
</g>
<!-- Node05 -->
<g id="node14" class="node">
<title>Node05</title>
<polygon fill="#40e0d0" stroke="#ffff00" points="312,-219.5 312,-255.5 372.3242,-255.5 372.3242,-219.5 312,-219.5"/>
<text text-anchor="middle" x="342.1621" y="-233.3" font-family="Times,serif" font-size="14.00" fill="#000000">Node05</text>
</g>
<!-- Data05&#45;&gt;Node05 -->
<g id="edge12" class="edge">
<title>Data05&#45;&gt;Node05</title>
<path fill="none" stroke="#606060" stroke-width="3" d="M342.1621,-292.4551C342.1621,-284.3828 342.1621,-274.6764 342.1621,-265.6817"/>
<polygon fill="#606060" stroke="#606060" stroke-width="3" points="345.6622,-265.5903 342.1621,-255.5904 338.6622,-265.5904 345.6622,-265.5903"/>
</g>
<!-- Data06 -->
<g id="node7" class="node">
<title>Data06</title>
<polygon fill="#00ff00" stroke="#0000ff" points="391.9482,-292.5 391.9482,-328.5 448.376,-328.5 448.376,-292.5 391.9482,-292.5"/>
<text text-anchor="middle" x="420.1621" y="-306.3" font-family="Times,serif" font-size="14.00" fill="#000000">Data06</text>
</g>
<!-- Node06 -->
<g id="node15" class="node">
<title>Node06</title>
<polygon fill="#40e0d0" stroke="#ffff00" points="390,-219.5 390,-255.5 450.3242,-255.5 450.3242,-219.5 390,-219.5"/>
<text text-anchor="middle" x="420.1621" y="-233.3" font-family="Times,serif" font-size="14.00" fill="#000000">Node06</text>
</g>
<!-- Data06&#45;&gt;Node06 -->
<g id="edge16" class="edge">
<title>Data06&#45;&gt;Node06</title>
<path fill="none" stroke="#606060" stroke-width="3" d="M420.1621,-292.4551C420.1621,-284.3828 420.1621,-274.6764 420.1621,-265.6817"/>
<polygon fill="#606060" stroke="#606060" stroke-width="3" points="423.6622,-265.5903 420.1621,-255.5904 416.6622,-265.5904 423.6622,-265.5903"/>
</g>
<!-- Data07 -->
<g id="node8" class="node">
<title>Data07</title>
<polygon fill="#c0c0c0" stroke="#0000ff" points="469.9482,-292.5 469.9482,-328.5 526.376,-328.5 526.376,-292.5 469.9482,-292.5"/>
<text text-anchor="middle" x="498.1621" y="-306.3" font-family="Times,serif" font-size="14.00" fill="#000000">Data07</text>
</g>
<!-- Node07 -->
<g id="node16" class="node">
<title>Node07</title>
<polygon fill="#c0c0c0" stroke="#ffff00" points="468,-219.5 468,-255.5 528.3242,-255.5 528.3242,-219.5 468,-219.5"/>
<text text-anchor="middle" x="498.1621" y="-233.3" font-family="Times,serif" font-size="14.00" fill="#000000">Node07</text>
</g>
<!-- Data07&#45;&gt;Node07 -->
<g id="edge18" class="edge">
<title>Data07&#45;&gt;Node07</title>
<path fill="none" stroke="#606060" stroke-width="3" d="M498.1621,-292.4551C498.1621,-284.3828 498.1621,-274.6764 498.1621,-265.6817"/>
<polygon fill="#606060" stroke="#606060" stroke-width="3" points="501.6622,-265.5903 498.1621,-255.5904 494.6622,-265.5904 501.6622,-265.5903"/>
</g>
<!-- Data08 -->
<g id="node9" class="node">
<title>Data08</title>
<polygon fill="#00ff00" stroke="#0000ff" points="547.9482,-292.5 547.9482,-328.5 604.376,-328.5 604.376,-292.5 547.9482,-292.5"/>
<text text-anchor="middle" x="576.1621" y="-306.3" font-family="Times,serif" font-size="14.00" fill="#000000">Data08</text>
</g>
<!-- Node08 -->
<g id="node17" class="node">
<title>Node08</title>
<polygon fill="#40e0d0" stroke="#ffff00" points="546,-219.5 546,-255.5 606.3242,-255.5 606.3242,-219.5 546,-219.5"/>
<text text-anchor="middle" x="576.1621" y="-233.3" font-family="Times,serif" font-size="14.00" fill="#000000">Node08</text>
</g>
<!-- Data08&#45;&gt;Node08 -->
<g id="edge21" class="edge">
<title>Data08&#45;&gt;Node08</title>
<path fill="none" stroke="#606060" stroke-width="3" d="M576.1621,-292.4551C576.1621,-284.3828 576.1621,-274.6764 576.1621,-265.6817"/>
<polygon fill="#606060" stroke="#606060" stroke-width="3" points="579.6622,-265.5903 576.1621,-255.5904 572.6622,-265.5904 579.6622,-265.5903"/>
</g>
<!-- Node11 -->
<g id="node18" class="node">
<title>Node11</title>
<polygon fill="#40e0d0" stroke="#ffff00" points="78.2563,-146.5 78.2563,-182.5 138.0679,-182.5 138.0679,-146.5 78.2563,-146.5"/>
<text text-anchor="middle" x="108.1621" y="-160.3" font-family="Times,serif" font-size="14.00" fill="#000000">Node11</text>
</g>
<!-- Node01&#45;&gt;Node11 -->
<g id="edge2" class="edge">
<title>Node01&#45;&gt;Node11</title>
<path fill="none" stroke="#606060" stroke-width="3" d="M49.443,-219.4551C59.0994,-210.4177 70.9445,-199.3319 81.4605,-189.4899"/>
<polygon fill="#606060" stroke="#606060" stroke-width="3" points="83.9231,-191.979 88.8327,-182.5904 79.1398,-186.8681 83.9231,-191.979"/>
</g>
<!-- Node02&#45;&gt;Node11 -->
<g id="edge6" class="edge">
<title>Node02&#45;&gt;Node11</title>
<path fill="none" stroke="#606060" stroke-width="3" d="M108.1621,-219.4551C108.1621,-211.3828 108.1621,-201.6764 108.1621,-192.6817"/>
<polygon fill="#606060" stroke="#606060" stroke-width="3" points="111.6622,-192.5903 108.1621,-182.5904 104.6622,-192.5904 111.6622,-192.5903"/>
</g>
<!-- Node12 -->
<g id="node19" class="node">
<title>Node12</title>
<polygon fill="#40e0d0" stroke="#ffff00" points="195,-146.5 195,-182.5 255.3242,-182.5 255.3242,-146.5 195,-146.5"/>
<text text-anchor="middle" x="225.1621" y="-160.3" font-family="Times,serif" font-size="14.00" fill="#000000">Node12</text>
</g>
<!-- Node03&#45;&gt;Node12 -->
<g id="edge8" class="edge">
<title>Node03&#45;&gt;Node12</title>
<path fill="none" stroke="#606060" stroke-width="3" d="M195.8026,-219.4551C200.3026,-211.0319 205.7533,-200.8292 210.7306,-191.5128"/>
<polygon fill="#606060" stroke="#606060" stroke-width="3" points="213.8723,-193.0598 215.4974,-182.5904 207.6981,-189.7613 213.8723,-193.0598"/>
</g>
<!-- Node04&#45;&gt;Node12 -->
<g id="edge11" class="edge">
<title>Node04&#45;&gt;Node12</title>
<path fill="none" stroke="#606060" stroke-width="3" d="M254.5217,-219.4551C250.0216,-211.0319 244.5709,-200.8292 239.5936,-191.5128"/>
<polygon fill="#606060" stroke="#606060" stroke-width="3" points="242.6261,-189.7613 234.8268,-182.5904 236.452,-193.0598 242.6261,-189.7613"/>
</g>
<!-- Node13 -->
<g id="node20" class="node">
<title>Node13</title>
<polygon fill="#40e0d0" stroke="#ffff00" points="351,-146.5 351,-182.5 411.3242,-182.5 411.3242,-146.5 351,-146.5"/>
<text text-anchor="middle" x="381.1621" y="-160.3" font-family="Times,serif" font-size="14.00" fill="#000000">Node13</text>
</g>
<!-- Node05&#45;&gt;Node13 -->
<g id="edge13" class="edge">
<title>Node05&#45;&gt;Node13</title>
<path fill="none" stroke="#606060" stroke-width="3" d="M351.8026,-219.4551C356.3026,-211.0319 361.7533,-200.8292 366.7306,-191.5128"/>
<polygon fill="#606060" stroke="#606060" stroke-width="3" points="369.8723,-193.0598 371.4974,-182.5904 363.6981,-189.7613 369.8723,-193.0598"/>
</g>
<!-- Node06&#45;&gt;Node13 -->
<g id="edge17" class="edge">
<title>Node06&#45;&gt;Node13</title>
<path fill="none" stroke="#606060" stroke-width="3" d="M410.5217,-219.4551C406.0216,-211.0319 400.5709,-200.8292 395.5936,-191.5128"/>
<polygon fill="#606060" stroke="#606060" stroke-width="3" points="398.6261,-189.7613 390.8268,-182.5904 392.452,-193.0598 398.6261,-189.7613"/>
</g>
<!-- Node14 -->
<g id="node21" class="node">
<title>Node14</title>
<polygon fill="#c0c0c0" stroke="#ffff00" points="468,-146.5 468,-182.5 528.3242,-182.5 528.3242,-146.5 468,-146.5"/>
<text text-anchor="middle" x="498.1621" y="-160.3" font-family="Times,serif" font-size="14.00" fill="#000000">Node14</text>
</g>
<!-- Node07&#45;&gt;Node14 -->
<g id="edge19" class="edge">
<title>Node07&#45;&gt;Node14</title>
<path fill="none" stroke="#606060" stroke-width="3" d="M498.1621,-219.4551C498.1621,-211.3828 498.1621,-201.6764 498.1621,-192.6817"/>
<polygon fill="#606060" stroke="#606060" stroke-width="3" points="501.6622,-192.5903 498.1621,-182.5904 494.6622,-192.5904 501.6622,-192.5903"/>
</g>
<!-- Node08&#45;&gt;Node14 -->
<g id="edge22" class="edge">
<title>Node08&#45;&gt;Node14</title>
<path fill="none" stroke="#606060" stroke-width="3" d="M556.8812,-219.4551C547.2248,-210.4177 535.3798,-199.3319 524.8637,-189.4899"/>
<polygon fill="#606060" stroke="#606060" stroke-width="3" points="527.1844,-186.8681 517.4915,-182.5904 522.4011,-191.979 527.1844,-186.8681"/>
</g>
<!-- Node21 -->
<g id="node22" class="node">
<title>Node21</title>
<polygon fill="#40e0d0" stroke="#ffff00" points="195,-73.5 195,-109.5 255.3242,-109.5 255.3242,-73.5 195,-73.5"/>
<text text-anchor="middle" x="225.1621" y="-87.3" font-family="Times,serif" font-size="14.00" fill="#000000">Node21</text>
</g>
<!-- Node11&#45;&gt;Node21 -->
<g id="edge3" class="edge">
<title>Node11&#45;&gt;Node21</title>
<path fill="none" stroke="#606060" stroke-width="3" d="M137.0835,-146.4551C152.2712,-136.979 171.0684,-125.2508 187.3922,-115.0658"/>
<polygon fill="#606060" stroke="#606060" stroke-width="3" points="189.5366,-117.8533 196.168,-109.5904 185.8312,-111.9145 189.5366,-117.8533"/>
</g>
<!-- Node12&#45;&gt;Node21 -->
<g id="edge9" class="edge">
<title>Node12&#45;&gt;Node21</title>
<path fill="none" stroke="#606060" stroke-width="3" d="M225.1621,-146.4551C225.1621,-138.3828 225.1621,-128.6764 225.1621,-119.6817"/>
<polygon fill="#606060" stroke="#606060" stroke-width="3" points="228.6622,-119.5903 225.1621,-109.5904 221.6622,-119.5904 228.6622,-119.5903"/>
</g>
<!-- Node22 -->
<g id="node23" class="node">
<title>Node22</title>
<polygon fill="#c0c0c0" stroke="#ffff00" points="351,-73.5 351,-109.5 411.3242,-109.5 411.3242,-73.5 351,-73.5"/>
<text text-anchor="middle" x="381.1621" y="-87.3" font-family="Times,serif" font-size="14.00" fill="#000000">Node22</text>
</g>
<!-- Node13&#45;&gt;Node22 -->
<g id="edge14" class="edge">
<title>Node13&#45;&gt;Node22</title>
<path fill="none" stroke="#606060" stroke-width="3" d="M381.1621,-146.4551C381.1621,-138.3828 381.1621,-128.6764 381.1621,-119.6817"/>
<polygon fill="#606060" stroke="#606060" stroke-width="3" points="384.6622,-119.5903 381.1621,-109.5904 377.6622,-119.5904 384.6622,-119.5903"/>
</g>
<!-- Node14&#45;&gt;Node22 -->
<g id="edge20" class="edge">
<title>Node14&#45;&gt;Node22</title>
<path fill="none" stroke="#606060" stroke-width="3" d="M469.2408,-146.4551C454.0531,-136.979 435.2558,-125.2508 418.932,-115.0658"/>
<polygon fill="#606060" stroke="#606060" stroke-width="3" points="420.493,-111.9145 410.1562,-109.5904 416.7876,-117.8533 420.493,-111.9145"/>
</g>
<!-- Node21&#45;&gt;Root -->
<g id="edge4" class="edge">
<title>Node21&#45;&gt;Root</title>
<path fill="none" stroke="#606060" stroke-width="3" d="M254.0835,-73.4551C269.2712,-63.979 288.0684,-52.2508 304.3922,-42.0658"/>
<polygon fill="#606060" stroke="#606060" stroke-width="3" points="306.5366,-44.8533 313.168,-36.5904 302.8312,-38.9145 306.5366,-44.8533"/>
</g>
<!-- Node22&#45;&gt;Root -->
<g id="edge15" class="edge">
<title>Node22&#45;&gt;Root</title>
<path fill="none" stroke="#606060" stroke-width="3" d="M371.5217,-73.4551C367.0216,-65.0319 361.5709,-54.8292 356.5936,-45.5128"/>
<polygon fill="#606060" stroke="#606060" stroke-width="3" points="359.6261,-43.7613 351.8268,-36.5904 353.452,-47.0598 359.6261,-43.7613"/>
</g>
</g>
</svg>
