<?xml version="1.0" encoding="UTF-8" standalone="no"?>
<!DOCTYPE svg PUBLIC "-//W3C//DTD SVG 1.1//EN"
 "http://www.w3.org/Graphics/SVG/1.1/DTD/svg11.dtd">
<!-- Generated by graphviz version 2.40.1 (20161225.0304)
 -->
<!-- Title: merkletree_delete Pages: 1 -->
<svg width="536pt" height="337pt"
 viewBox="0.00 0.00 536.32 337.00" xmlns="http://www.w3.org/2000/svg" xmlns:xlink="http://www.w3.org/1999/xlink">
<g id="graph0" class="graph" transform="scale(1 1) rotate(0) translate(4 333)">
<title>merkletree_delete</title>
<polygon fill="#ffffff" stroke="transparent" points="-4,4 -4,-333 532.3242,-333 532.3242,4 -4,4"/>
<!-- Root -->
<g id="node1" class="node">
<title>Root</title>
<polygon fill="#a020f0" stroke="#ff0000" points="228.2202,-.5 228.2202,-36.5 300.104,-36.5 300.104,-.5 228.2202,-.5"/>
<text text-anchor="middle" x="264.1621" y="-14.3" font-family="Times,serif" font-size="14.00" fill="#000000">Tree Root</text>
</g>
<!-- Data01 -->
<g id="node2" class="node">
<title>Data01</title>
<polygon fill="#00ff00" stroke="#0000ff" points="1.9482,-292.5 1.9482,-328.5 58.376,-328.5 58.376,-292.5 1.9482,-292.5"/>
<text text-anchor="middle" x="30.1621" y="-306.3" font-family="Times,serif" font-size="14.00" fill="#000000">Data01</text>
</g>
<!-- Node01 -->
<g id="node9" class="node">
<title>Node01</title>
<polygon fill="#40e0d0" stroke="#ffff00" points="0,-219.5 0,-255.5 60.3242,-255.5 60.3242,-219.5 0,-219.5"/>
<text text-anchor="middle" x="30.1621" y="-233.3" font-family="Times,serif" font-size="14.00" fill="#000000">Node01</text>
</g>
<!-- Data01&#45;&gt;Node01 -->
<g id="edge1" class="edge">
<title>Data01&#45;&gt;Node01</title>
<path fill="none" stroke="#606060" stroke-width="3" d="M30.1621,-292.4551C30.1621,-284.3828 30.1621,-274.6764 30.1621,-265.6817"/>
<polygon fill="#606060" stroke="#606060" stroke-width="3" points="33.6622,-265.5903 30.1621,-255.5904 26.6622,-265.5904 33.6622,-265.5903"/>
</g>
<!-- Data02 -->
<g id="node3" class="node">
<title>Data02</title>
<polygon fill="#00ff00" stroke="#0000ff" points="79.9482,-292.5 79.9482,-328.5 136.376,-328.5 136.376,-292.5 79.9482,-292.5"/>
<text text-anchor="middle" x="108.1621" y="-306.3" font-family="Times,serif" font-size="14.00" fill="#000000">Data02</text>
</g>
<!-- Node02 -->
<g id="node10" class="node">
<title>Node02</title>
<polygon fill="#40e0d0" stroke="#ffff00" points="78,-219.5 78,-255.5 138.3242,-255.5 138.3242,-219.5 78,-219.5"/>
<text text-anchor="middle" x="108.1621" y="-233.3" font-family="Times,serif" font-size="14.00" fill="#000000">Node02</text>
</g>
<!-- Data02&#45;&gt;Node02 -->
<g id="edge5" class="edge">
<title>Data02&#45;&gt;Node02</title>
<path fill="none" stroke="#606060" stroke-width="3" d="M108.1621,-292.4551C108.1621,-284.3828 108.1621,-274.6764 108.1621,-265.6817"/>
<polygon fill="#606060" stroke="#606060" stroke-width="3" points="111.6622,-265.5903 108.1621,-255.5904 104.6622,-265.5904 111.6622,-265.5903"/>
</g>
<!-- Data03 -->
<g id="node4" class="node">
<title>Data03</title>
<polygon fill="#00ff00" stroke="#0000ff" points="157.9482,-292.5 157.9482,-328.5 214.376,-328.5 214.376,-292.5 157.9482,-292.5"/>
<text text-anchor="middle" x="186.1621" y="-306.3" font-family="Times,serif" font-size="14.00" fill="#000000">Data03</text>
</g>
<!-- Node03 -->
<g id="node11" class="node">
<title>Node03</title>
<polygon fill="#40e0d0" stroke="#ffff00" points="156,-219.5 156,-255.5 216.3242,-255.5 216.3242,-219.5 156,-219.5"/>
<text text-anchor="middle" x="186.1621" y="-233.3" font-family="Times,serif" font-size="14.00" fill="#000000">Node03</text>
</g>
<!-- Data03&#45;&gt;Node03 -->
<g id="edge7" class="edge">
<title>Data03&#45;&gt;Node03</title>
<path fill="none" stroke="#606060" stroke-width="3" d="M186.1621,-292.4551C186.1621,-284.3828 186.1621,-274.6764 186.1621,-265.6817"/>
<polygon fill="#606060" stroke="#606060" stroke-width="3" points="189.6622,-265.5903 186.1621,-255.5904 182.6622,-265.5904 189.6622,-265.5903"/>
</g>
<!-- Data05 -->
<g id="node5" class="node">
<title>Data05</title>
<polygon fill="#00ff00" stroke="#0000ff" points="235.9482,-292.5 235.9482,-328.5 292.376,-328.5 292.376,-292.5 235.9482,-292.5"/>
<text text-anchor="middle" x="264.1621" y="-306.3" font-family="Times,serif" font-size="14.00" fill="#000000">Data05</text>
</g>
<!-- Node05 -->
<g id="node12" class="node">
<title>Node05</title>
<polygon fill="#40e0d0" stroke="#ffff00" points="234,-219.5 234,-255.5 294.3242,-255.5 294.3242,-219.5 234,-219.5"/>
<text text-anchor="middle" x="264.1621" y="-233.3" font-family="Times,serif" font-size="14.00" fill="#000000">Node05</text>
</g>
<!-- Data05&#45;&gt;Node05 -->
<g id="edge10" class="edge">
<title>Data05&#45;&gt;Node05</title>
<path fill="none" stroke="#606060" stroke-width="3" d="M264.1621,-292.4551C264.1621,-284.3828 264.1621,-274.6764 264.1621,-265.6817"/>
<polygon fill="#606060" stroke="#606060" stroke-width="3" points="267.6622,-265.5903 264.1621,-255.5904 260.6622,-265.5904 267.6622,-265.5903"/>
</g>
<!-- Data06 -->
<g id="node6" class="node">
<title>Data06</title>
<polygon fill="#00ff00" stroke="#0000ff" points="313.9482,-292.5 313.9482,-328.5 370.376,-328.5 370.376,-292.5 313.9482,-292.5"/>
<text text-anchor="middle" x="342.1621" y="-306.3" font-family="Times,serif" font-size="14.00" fill="#000000">Data06</text>
</g>
<!-- Node06 -->
<g id="node13" class="node">
<title>Node06</title>
<polygon fill="#40e0d0" stroke="#ffff00" points="312,-219.5 312,-255.5 372.3242,-255.5 372.3242,-219.5 312,-219.5"/>
<text text-anchor="middle" x="342.1621" y="-233.3" font-family="Times,serif" font-size="14.00" fill="#000000">Node06</text>
</g>
<!-- Data06&#45;&gt;Node06 -->
<g id="edge14" class="edge">
<title>Data06&#45;&gt;Node06</title>
<path fill="none" stroke="#606060" stroke-width="3" d="M342.1621,-292.4551C342.1621,-284.3828 342.1621,-274.6764 342.1621,-265.6817"/>
<polygon fill="#606060" stroke="#606060" stroke-width="3" points="345.6622,-265.5903 342.1621,-255.5904 338.6622,-265.5904 345.6622,-265.5903"/>
</g>
<!-- Data07 -->
<g id="node7" class="node">
<title>Data07</title>
<polygon fill="#00ff00" stroke="#0000ff" points="391.9482,-292.5 391.9482,-328.5 448.376,-328.5 448.376,-292.5 391.9482,-292.5"/>
<text text-anchor="middle" x="420.1621" y="-306.3" font-family="Times,serif" font-size="14.00" fill="#000000">Data07</text>
</g>
<!-- Node07 -->
<g id="node14" class="node">
<title>Node07</title>
<polygon fill="#40e0d0" stroke="#ffff00" points="390,-219.5 390,-255.5 450.3242,-255.5 450.3242,-219.5 390,-219.5"/>
<text text-anchor="middle" x="420.1621" y="-233.3" font-family="Times,serif" font-size="14.00" fill="#000000">Node07</text>
</g>
<!-- Data07&#45;&gt;Node07 -->
<g id="edge16" class="edge">
<title>Data07&#45;&gt;Node07</title>
<path fill="none" stroke="#606060" stroke-width="3" d="M420.1621,-292.4551C420.1621,-284.3828 420.1621,-274.6764 420.1621,-265.6817"/>
<polygon fill="#606060" stroke="#606060" stroke-width="3" points="423.6622,-265.5903 420.1621,-255.5904 416.6622,-265.5904 423.6622,-265.5903"/>
</g>
<!-- Data08 -->
<g id="node8" class="node">
<title>Data08</title>
<polygon fill="#00ff00" stroke="#0000ff" points="469.9482,-292.5 469.9482,-328.5 526.376,-328.5 526.376,-292.5 469.9482,-292.5"/>
<text text-anchor="middle" x="498.1621" y="-306.3" font-family="Times,serif" font-size="14.00" fill="#000000">Data08</text>
</g>
<!-- Node08 -->
<g id="node15" class="node">
<title>Node08</title>
<polygon fill="#40e0d0" stroke="#ffff00" points="468,-219.5 468,-255.5 528.3242,-255.5 528.3242,-219.5 468,-219.5"/>
<text text-anchor="middle" x="498.1621" y="-233.3" font-family="Times,serif" font-size="14.00" fill="#000000">Node08</text>
</g>
<!-- Data08&#45;&gt;Node08 -->
<g id="edge19" class="edge">
<title>Data08&#45;&gt;Node08</title>
<path fill="none" stroke="#606060" stroke-width="3" d="M498.1621,-292.4551C498.1621,-284.3828 498.1621,-274.6764 498.1621,-265.6817"/>
<polygon fill="#606060" stroke="#606060" stroke-width="3" points="501.6622,-265.5903 498.1621,-255.5904 494.6622,-265.5904 501.6622,-265.5903"/>
</g>
<!-- Node11 -->
<g id="node16" class="node">
<title>Node11</title>
<polygon fill="#40e0d0" stroke="#ffff00" points="78.2563,-146.5 78.2563,-182.5 138.0679,-182.5 138.0679,-146.5 78.2563,-146.5"/>
<text text-anchor="middle" x="108.1621" y="-160.3" font-family="Times,serif" font-size="14.00" fill="#000000">Node11</text>
</g>
<!-- Node01&#45;&gt;Node11 -->
<g id="edge2" class="edge">
<title>Node01&#45;&gt;Node11</title>
<path fill="none" stroke="#606060" stroke-width="3" d="M49.443,-219.4551C59.0994,-210.4177 70.9445,-199.3319 81.4605,-189.4899"/>
<polygon fill="#606060" stroke="#606060" stroke-width="3" points="83.9231,-191.979 88.8327,-182.5904 79.1398,-186.8681 83.9231,-191.979"/>
</g>
<!-- Node02&#45;&gt;Node11 -->
<g id="edge6" class="edge">
<title>Node02&#45;&gt;Node11</title>
<path fill="none" stroke="#606060" stroke-width="3" d="M108.1621,-219.4551C108.1621,-211.3828 108.1621,-201.6764 108.1621,-192.6817"/>
<polygon fill="#606060" stroke="#606060" stroke-width="3" points="111.6622,-192.5903 108.1621,-182.5904 104.6622,-192.5904 111.6622,-192.5903"/>
</g>
<!-- Node12 -->
<g id="node17" class="node">
<title>Node12</title>
<polygon fill="#a020f0" stroke="#ffff00" points="156,-146.5 156,-182.5 216.3242,-182.5 216.3242,-146.5 156,-146.5"/>
<text text-anchor="middle" x="186.1621" y="-160.3" font-family="Times,serif" font-size="14.00" fill="#000000">Node12</text>
</g>
<!-- Node03&#45;&gt;Node12 -->
<g id="edge8" class="edge">
<title>Node03&#45;&gt;Node12</title>
<path fill="none" stroke="#606060" stroke-width="3" d="M186.1621,-219.4551C186.1621,-211.3828 186.1621,-201.6764 186.1621,-192.6817"/>
<polygon fill="#606060" stroke="#606060" stroke-width="3" points="189.6622,-192.5903 186.1621,-182.5904 182.6622,-192.5904 189.6622,-192.5903"/>
</g>
<!-- Node13 -->
<g id="node18" class="node">
<title>Node13</title>
<polygon fill="#40e0d0" stroke="#ffff00" points="273,-146.5 273,-182.5 333.3242,-182.5 333.3242,-146.5 273,-146.5"/>
<text text-anchor="middle" x="303.1621" y="-160.3" font-family="Times,serif" font-size="14.00" fill="#000000">Node13</text>
</g>
<!-- Node05&#45;&gt;Node13 -->
<g id="edge11" class="edge">
<title>Node05&#45;&gt;Node13</title>
<path fill="none" stroke="#606060" stroke-width="3" d="M273.8026,-219.4551C278.3026,-211.0319 283.7533,-200.8292 288.7306,-191.5128"/>
<polygon fill="#606060" stroke="#606060" stroke-width="3" points="291.8723,-193.0598 293.4974,-182.5904 285.6981,-189.7613 291.8723,-193.0598"/>
</g>
<!-- Node06&#45;&gt;Node13 -->
<g id="edge15" class="edge">
<title>Node06&#45;&gt;Node13</title>
<path fill="none" stroke="#606060" stroke-width="3" d="M332.5217,-219.4551C328.0216,-211.0319 322.5709,-200.8292 317.5936,-191.5128"/>
<polygon fill="#606060" stroke="#606060" stroke-width="3" points="320.6261,-189.7613 312.8268,-182.5904 314.452,-193.0598 320.6261,-189.7613"/>
</g>
<!-- Node14 -->
<g id="node19" class="node">
<title>Node14</title>
<polygon fill="#40e0d0" stroke="#ffff00" points="390,-146.5 390,-182.5 450.3242,-182.5 450.3242,-146.5 390,-146.5"/>
<text text-anchor="middle" x="420.1621" y="-160.3" font-family="Times,serif" font-size="14.00" fill="#000000">Node14</text>
</g>
<!-- Node07&#45;&gt;Node14 -->
<g id="edge17" class="edge">
<title>Node07&#45;&gt;Node14</title>
<path fill="none" stroke="#606060" stroke-width="3" d="M420.1621,-219.4551C420.1621,-211.3828 420.1621,-201.6764 420.1621,-192.6817"/>
<polygon fill="#606060" stroke="#606060" stroke-width="3" points="423.6622,-192.5903 420.1621,-182.5904 416.6622,-192.5904 423.6622,-192.5903"/>
</g>
<!-- Node08&#45;&gt;Node14 -->
<g id="edge20" class="edge">
<title>Node08&#45;&gt;Node14</title>
<path fill="none" stroke="#606060" stroke-width="3" d="M478.8812,-219.4551C469.2248,-210.4177 457.3798,-199.3319 446.8637,-189.4899"/>
<polygon fill="#606060" stroke="#606060" stroke-width="3" points="449.1844,-186.8681 439.4915,-182.5904 444.4011,-191.979 449.1844,-186.8681"/>
</g>
<!-- Node21 -->
<g id="node20" class="node">
<title>Node21</title>
<polygon fill="#a020f0" stroke="#ffff00" points="156,-73.5 156,-109.5 216.3242,-109.5 216.3242,-73.5 156,-73.5"/>
<text text-anchor="middle" x="186.1621" y="-87.3" font-family="Times,serif" font-size="14.00" fill="#000000">Node21</text>
</g>
<!-- Node11&#45;&gt;Node21 -->
<g id="edge3" class="edge">
<title>Node11&#45;&gt;Node21</title>
<path fill="none" stroke="#606060" stroke-width="3" d="M127.443,-146.4551C137.0994,-137.4177 148.9445,-126.3319 159.4605,-116.4899"/>
<polygon fill="#606060" stroke="#606060" stroke-width="3" points="161.9231,-118.979 166.8327,-109.5904 157.1398,-113.8681 161.9231,-118.979"/>
</g>
<!-- Node12&#45;&gt;Node21 -->
<g id="edge9" class="edge">
<title>Node12&#45;&gt;Node21</title>
<path fill="none" stroke="#606060" stroke-width="3" d="M186.1621,-146.4551C186.1621,-138.3828 186.1621,-128.6764 186.1621,-119.6817"/>
<polygon fill="#606060" stroke="#606060" stroke-width="3" points="189.6622,-119.5903 186.1621,-109.5904 182.6622,-119.5904 189.6622,-119.5903"/>
</g>
<!-- Node22 -->
<g id="node21" class="node">
<title>Node22</title>
<polygon fill="#40e0d0" stroke="#ffff00" points="273,-73.5 273,-109.5 333.3242,-109.5 333.3242,-73.5 273,-73.5"/>
<text text-anchor="middle" x="303.1621" y="-87.3" font-family="Times,serif" font-size="14.00" fill="#000000">Node22</text>
</g>
<!-- Node13&#45;&gt;Node22 -->
<g id="edge12" class="edge">
<title>Node13&#45;&gt;Node22</title>
<path fill="none" stroke="#606060" stroke-width="3" d="M303.1621,-146.4551C303.1621,-138.3828 303.1621,-128.6764 303.1621,-119.6817"/>
<polygon fill="#606060" stroke="#606060" stroke-width="3" points="306.6622,-119.5903 303.1621,-109.5904 299.6622,-119.5904 306.6622,-119.5903"/>
</g>
<!-- Node14&#45;&gt;Node22 -->
<g id="edge18" class="edge">
<title>Node14&#45;&gt;Node22</title>
<path fill="none" stroke="#606060" stroke-width="3" d="M391.2408,-146.4551C376.0531,-136.979 357.2558,-125.2508 340.932,-115.0658"/>
<polygon fill="#606060" stroke="#606060" stroke-width="3" points="342.493,-111.9145 332.1562,-109.5904 338.7876,-117.8533 342.493,-111.9145"/>
</g>
<!-- Node21&#45;&gt;Root -->
<g id="edge4" class="edge">
<title>Node21&#45;&gt;Root</title>
<path fill="none" stroke="#606060" stroke-width="3" d="M205.443,-73.4551C215.0994,-64.4177 226.9445,-53.3319 237.4605,-43.4899"/>
<polygon fill="#606060" stroke="#606060" stroke-width="3" points="239.9231,-45.979 244.8327,-36.5904 235.1398,-40.8681 239.9231,-45.979"/>
</g>
<!-- Node22&#45;&gt;Root -->
<g id="edge13" class="edge">
<title>Node22&#45;&gt;Root</title>
<path fill="none" stroke="#606060" stroke-width="3" d="M293.5217,-73.4551C289.0216,-65.0319 283.5709,-54.8292 278.5936,-45.5128"/>
<polygon fill="#606060" stroke="#606060" stroke-width="3" points="281.6261,-43.7613 273.8268,-36.5904 275.452,-47.0598 281.6261,-43.7613"/>
</g>
</g>
</svg>
