<svg version="1.1" xmlns="http://www.w3.org/2000/svg" xmlns:xlink="http://www.w3.org/1999/xlink" width="2025.46630859375" height="436"><defs/><g><g transform="translate(-38,-174) scale(1,1)"><rect fill="#C0C0C0" stroke="none" x="607" y="199" width="107.32080078125" height="48" opacity="0.2"/></g><g transform="translate(-38,-174) scale(1,1)"><rect fill="#ffffff" stroke="none" x="600" y="192" width="107.32080078125" height="48"/></g><g transform="translate(-38,-174) scale(1,1)"><path fill="none" stroke="#000000" d="M 600 192 L 707.32080078125 192 L 707.32080078125 240 L 600 240 L 600 192 Z Z" stroke-miterlimit="10"/></g><g transform="translate(-38,-174) scale(1,1)"><g><path fill="none" stroke="none"/><text fill="#000000" stroke="none" font-family="Arial" font-size="13px" font-style="normal" font-weight="normal" text-decoration="none" x="621.5" y="209.5">«interface»</text></g></g><g transform="translate(-38,-174) scale(1,1)"><g><path fill="none" stroke="none"/><text fill="#000000" stroke="none" font-family="Arial" font-size="13px" font-style="normal" font-weight="bold" text-decoration="none" x="639.930419921875" y="224.5">Lock</text></g></g><g transform="translate(-38,-174) scale(1,1)"><rect fill="#C0C0C0" stroke="none" x="599" y="303" width="128" height="44" opacity="0.2"/></g><g transform="translate(-38,-174) scale(1,1)"><rect fill="#ffffff" stroke="none" x="592" y="296" width="128" height="44"/></g><g transform="translate(-38,-174) scale(1,1)"><path fill="none" stroke="#000000" d="M 592 296 L 720 296 L 720 340 L 592 340 L 592 296 Z Z" stroke-miterlimit="10"/></g><g transform="translate(-38,-174) scale(1,1)"><path fill="none" stroke="#000000" d="M 592 321 L 720 321" stroke-miterlimit="10"/></g><g transform="translate(-38,-174) scale(1,1)"><path fill="none" stroke="#000000" d="M 592 331 L 720 331" stroke-miterlimit="10"/></g><g transform="translate(-38,-174) scale(1,1)"><g><path fill="none" stroke="none"/><text fill="#000000" stroke="none" font-family="Arial" font-size="13px" font-style="normal" font-weight="bold" text-decoration="none" x="613.724609375" y="315.5">ReentrantLock</text></g></g><g transform="translate(-38,-174) scale(1,1)"><path fill="none" stroke="#000000" d="M 655 295 L 654 241" stroke-miterlimit="10" stroke-dasharray="3"/></g><g transform="translate(-38,-174) scale(1,1)"><path fill="#FFFFFF" stroke="none" d="M 662.7939231320462 261.16598413040293 L 654 241 L 645.9587385519949 261.4777468078113"/></g><g transform="translate(-38,-174) scale(1,1)"><path fill="none" stroke="#000000" d="M 662.7939231320462 261.16598413040293 L 654 241 L 645.9587385519949 261.4777468078113 L 662.7939231320462 261.16598413040293" stroke-miterlimit="10"/></g><g transform="translate(-38,-174) scale(1,1)"><rect fill="#C0C0C0" stroke="none" x="399" y="303" width="89.93896484375" height="44" opacity="0.2"/></g><g transform="translate(-38,-174) scale(1,1)"><rect fill="#ffffff" stroke="none" x="392" y="296" width="89.93896484375" height="44"/></g><g transform="translate(-38,-174) scale(1,1)"><path fill="none" stroke="#000000" d="M 392 296 L 481.93896484375 296 L 481.93896484375 340 L 392 340 L 392 296 Z Z" stroke-miterlimit="10"/></g><g transform="translate(-38,-174) scale(1,1)"><path fill="none" stroke="#000000" d="M 392 321 L 481.93896484375 321" stroke-miterlimit="10"/></g><g transform="translate(-38,-174) scale(1,1)"><path fill="none" stroke="#000000" d="M 392 331 L 481.93896484375 331" stroke-miterlimit="10"/></g><g transform="translate(-38,-174) scale(1,1)"><g><path fill="none" stroke="none"/><text fill="#000000" stroke="none" font-family="Arial" font-size="13px" font-style="normal" font-weight="bold" text-decoration="none" x="400.134033203125" y="315.5">CyclicBarrier</text></g></g><g transform="translate(-38,-174) scale(1,1)"><path fill="none" stroke="#000000" d="M 591 318 L 483 318" stroke-miterlimit="10"/></g><g transform="translate(-38,-174) scale(1,1)"><path fill="#000000" stroke="none" d="M 493.16267485762415 313.790482243984 L 483 318 L 493.16267485762415 322.209517756016 L 505 318"/></g><g transform="translate(-38,-174) scale(1,1)"><path fill="none" stroke="#000000" d="M 493.16267485762415 313.790482243984 L 483 318 L 493.16267485762415 322.209517756016 L 505 318 L 493.16267485762415 313.790482243984" stroke-miterlimit="10"/></g><g transform="translate(-38,-174) scale(1,1)"><path fill="none" stroke="#000000" d="M 580.8373251423759 322.209517756016 L 591 318 L 580.8373251423758 313.790482243984" stroke-miterlimit="10"/></g><g transform="translate(-38,-174) scale(1,1)"><rect fill="#C0C0C0" stroke="none" x="207" y="303" width="116.5927734375" height="44" opacity="0.2"/></g><g transform="translate(-38,-174) scale(1,1)"><rect fill="#ffffff" stroke="none" x="200" y="296" width="116.5927734375" height="44"/></g><g transform="translate(-38,-174) scale(1,1)"><path fill="none" stroke="#000000" d="M 200 296 L 316.5927734375 296 L 316.5927734375 340 L 200 340 L 200 296 Z Z" stroke-miterlimit="10"/></g><g transform="translate(-38,-174) scale(1,1)"><path fill="none" stroke="#000000" d="M 200 321 L 316.5927734375 321" stroke-miterlimit="10"/></g><g transform="translate(-38,-174) scale(1,1)"><path fill="none" stroke="#000000" d="M 200 331 L 316.5927734375 331" stroke-miterlimit="10"/></g><g transform="translate(-38,-174) scale(1,1)"><g><path fill="none" stroke="none"/><text fill="#000000" stroke="none" font-family="Arial" font-size="13px" font-style="normal" font-weight="bold" text-decoration="none" x="208.432373046875" y="315.5">CountDownLatch</text></g></g><g transform="translate(-38,-174) scale(1,1)"><rect fill="#C0C0C0" stroke="none" x="55" y="303" width="79.8017578125" height="44" opacity="0.2"/></g><g transform="translate(-38,-174) scale(1,1)"><rect fill="#ffffff" stroke="none" x="48" y="296" width="79.8017578125" height="44"/></g><g transform="translate(-38,-174) scale(1,1)"><path fill="none" stroke="#000000" d="M 48 296 L 127.8017578125 296 L 127.8017578125 340 L 48 340 L 48 296 Z Z" stroke-miterlimit="10"/></g><g transform="translate(-38,-174) scale(1,1)"><path fill="none" stroke="#000000" d="M 48 321 L 127.8017578125 321" stroke-miterlimit="10"/></g><g transform="translate(-38,-174) scale(1,1)"><path fill="none" stroke="#000000" d="M 48 331 L 127.8017578125 331" stroke-miterlimit="10"/></g><g transform="translate(-38,-174) scale(1,1)"><g><path fill="none" stroke="none"/><text fill="#000000" stroke="none" font-family="Arial" font-size="13px" font-style="normal" font-weight="bold" text-decoration="none" x="54.29638671875" y="315.5">Semaphore</text></g></g><g transform="translate(-38,-174) scale(1,1)"><rect fill="#C0C0C0" stroke="none" x="935" y="343" width="198.26806640625" height="44" opacity="0.2"/></g><g transform="translate(-38,-174) scale(1,1)"><rect fill="#ffffff" stroke="none" x="928" y="336" width="198.26806640625" height="44"/></g><g transform="translate(-38,-174) scale(1,1)"><path fill="none" stroke="#000000" d="M 928 336 L 1126.26806640625 336 L 1126.26806640625 380 L 928 380 L 928 336 Z Z" stroke-miterlimit="10"/></g><g transform="translate(-38,-174) scale(1,1)"><path fill="none" stroke="#000000" d="M 928 361 L 1126.26806640625 361" stroke-miterlimit="10"/></g><g transform="translate(-38,-174) scale(1,1)"><path fill="none" stroke="#000000" d="M 928 371 L 1126.26806640625 371" stroke-miterlimit="10"/></g><g transform="translate(-38,-174) scale(1,1)"><g><path fill="none" stroke="none"/><text fill="#000000" stroke="none" font-family="Arial" font-size="13px" font-style="italic" font-weight="bold" text-decoration="none" x="939.70458984375" y="355.5">AbstractOwnableSynchronizer</text></g></g><g transform="translate(-38,-174) scale(1,1)"><rect fill="#C0C0C0" stroke="none" x="839" y="455" width="192.4853515625" height="44" opacity="0.2"/></g><g transform="translate(-38,-174) scale(1,1)"><rect fill="#ffffff" stroke="none" x="832" y="448" width="192.4853515625" height="44"/></g><g transform="translate(-38,-174) scale(1,1)"><path fill="none" stroke="#000000" d="M 832 448 L 1024.4853515625 448 L 1024.4853515625 492 L 832 492 L 832 448 Z Z" stroke-miterlimit="10"/></g><g transform="translate(-38,-174) scale(1,1)"><path fill="none" stroke="#000000" d="M 832 473 L 1024.4853515625 473" stroke-miterlimit="10"/></g><g transform="translate(-38,-174) scale(1,1)"><path fill="none" stroke="#000000" d="M 832 483 L 1024.4853515625 483" stroke-miterlimit="10"/></g><g transform="translate(-38,-174) scale(1,1)"><g><path fill="none" stroke="none"/><text fill="#000000" stroke="none" font-family="Arial" font-size="13px" font-style="normal" font-weight="bold" text-decoration="none" x="843.33642578125" y="467.5">AbstractQueuedSynchronizer</text></g></g><g transform="translate(-38,-174) scale(1,1)"><rect fill="#C0C0C0" stroke="none" x="1071" y="407" width="224.2490234375" height="44" opacity="0.2"/></g><g transform="translate(-38,-174) scale(1,1)"><rect fill="#ffffff" stroke="none" x="1064" y="400" width="224.2490234375" height="44"/></g><g transform="translate(-38,-174) scale(1,1)"><path fill="none" stroke="#000000" d="M 1064 400 L 1288.2490234375 400 L 1288.2490234375 444 L 1064 444 L 1064 400 Z Z" stroke-miterlimit="10"/></g><g transform="translate(-38,-174) scale(1,1)"><path fill="none" stroke="#000000" d="M 1064 425 L 1288.2490234375 425" stroke-miterlimit="10"/></g><g transform="translate(-38,-174) scale(1,1)"><path fill="none" stroke="#000000" d="M 1064 435 L 1288.2490234375 435" stroke-miterlimit="10"/></g><g transform="translate(-38,-174) scale(1,1)"><g><path fill="none" stroke="none"/><text fill="#000000" stroke="none" font-family="Arial" font-size="13px" font-style="normal" font-weight="bold" text-decoration="none" x="1076.75830078125" y="419.5">AbstractQueuedLongSynchronizer</text></g></g><g transform="translate(-38,-174) scale(1,1)"><rect fill="#C0C0C0" stroke="none" x="815" y="559" width="89.16455078125" height="44" opacity="0.2"/></g><g transform="translate(-38,-174) scale(1,1)"><rect fill="#ffffff" stroke="none" x="808" y="552" width="89.16455078125" height="44"/></g><g transform="translate(-38,-174) scale(1,1)"><path fill="none" stroke="#000000" d="M 808 552 L 897.16455078125 552 L 897.16455078125 596 L 808 596 L 808 552 Z Z" stroke-miterlimit="10"/></g><g transform="translate(-38,-174) scale(1,1)"><path fill="none" stroke="#000000" d="M 808 577 L 897.16455078125 577" stroke-miterlimit="10"/></g><g transform="translate(-38,-174) scale(1,1)"><path fill="none" stroke="#000000" d="M 808 587 L 897.16455078125 587" stroke-miterlimit="10"/></g><g transform="translate(-38,-174) scale(1,1)"><g><path fill="none" stroke="none"/><text fill="#000000" stroke="none" font-family="Arial" font-size="13px" font-style="normal" font-weight="bold" text-decoration="none" x="816.08642578125" y="571.5">LockSupport</text></g></g><g transform="translate(-38,-174) scale(1,1)"><rect fill="#C0C0C0" stroke="none" x="967" y="559" width="73.32080078125" height="48" opacity="0.2"/></g><g transform="translate(-38,-174) scale(1,1)"><rect fill="#ffffff" stroke="none" x="960" y="552" width="73.32080078125" height="48"/></g><g transform="translate(-38,-174) scale(1,1)"><path fill="none" stroke="#000000" d="M 960 552 L 1033.32080078125 552 L 1033.32080078125 600 L 960 600 L 960 552 Z Z" stroke-miterlimit="10"/></g><g transform="translate(-38,-174) scale(1,1)"><g><path fill="none" stroke="none"/><text fill="#000000" stroke="none" font-family="Arial" font-size="13px" font-style="normal" font-weight="normal" text-decoration="none" x="964.5" y="569.5">«interface»</text></g></g><g transform="translate(-38,-174) scale(1,1)"><g><path fill="none" stroke="none"/><text fill="#000000" stroke="none" font-family="Arial" font-size="13px" font-style="normal" font-weight="bold" text-decoration="none" x="969.197265625" y="584.5">Condition</text></g></g><g transform="translate(-38,-174) scale(1,1)"><path fill="none" stroke="#000000" d="M 911 493 L 869 551" stroke-miterlimit="10" stroke-dasharray="3"/></g><g transform="translate(-38,-174) scale(1,1)"><path fill="none" stroke="#000000" d="M 871.5510427797248 540.2998980969331 L 869 551 L 878.369974263686 545.2377450335947" stroke-miterlimit="10"/></g><g transform="translate(-38,-174) scale(1,1)"><path fill="none" stroke="#000000" d="M 943 493 L 980 551" stroke-miterlimit="10" stroke-dasharray="3"/></g><g transform="translate(-38,-174) scale(1,1)"><path fill="none" stroke="#000000" d="M 970.985467648395 544.6961752497498 L 980 551 L 978.0832402732681 540.1682858166411" stroke-miterlimit="10"/></g><g transform="translate(-38,-174) scale(1,1)"><path fill="none" stroke="#000000" d="M 948 447 L 1007 381" stroke-miterlimit="10"/></g><g transform="translate(-38,-174) scale(1,1)"><path fill="#FFFFFF" stroke="none" d="M 999.7305736101929 401.76428279433645 L 1007 381 L 987.1771741340805 390.5423044747814"/></g><g transform="translate(-38,-174) scale(1,1)"><path fill="none" stroke="#000000" d="M 999.7305736101929 401.76428279433645 L 1007 381 L 987.1771741340805 390.5423044747814 L 999.7305736101929 401.76428279433645" stroke-miterlimit="10"/></g><g transform="translate(-38,-174) scale(1,1)"><path fill="none" stroke="#000000" d="M 1122 399 L 1081 381" stroke-miterlimit="10"/></g><g transform="translate(-38,-174) scale(1,1)"><path fill="#FFFFFF" stroke="none" d="M 1102.9951537360755 381.4617489863593 L 1081 381 L 1096.226416520559 396.8794281994803"/></g><g transform="translate(-38,-174) scale(1,1)"><path fill="none" stroke="#000000" d="M 1102.9951537360755 381.4617489863593 L 1081 381 L 1096.226416520559 396.8794281994803 L 1102.9951537360755 381.4617489863593" stroke-miterlimit="10"/></g><g transform="translate(-38,-174) scale(1,1)"><path fill="none" stroke="#000000" d="M 831 471 L 656 472 L 656 341" stroke-miterlimit="10"/></g><g transform="translate(-38,-174) scale(1,1)"><path fill="#000000" stroke="none" d="M 660.209517756016 351.16267485762415 L 656 341 L 651.790482243984 351.16267485762415 L 656 363"/></g><g transform="translate(-38,-174) scale(1,1)"><path fill="none" stroke="#000000" d="M 660.209517756016 351.16267485762415 L 656 341 L 651.790482243984 351.16267485762415 L 656 363 L 660.209517756016 351.16267485762415" stroke-miterlimit="10"/></g><g transform="translate(-38,-174) scale(1,1)"><path fill="none" stroke="#000000" d="M 820.8615450539969 475.26752051053836 L 831 471 L 820.8134370650725 466.84862244878127" stroke-miterlimit="10"/></g><g transform="translate(-38,-174) scale(1,1)"><path fill="none" stroke="#000000" d="M 831 470 L 256 472 L 258 341" stroke-miterlimit="10"/></g><g transform="translate(-38,-174) scale(1,1)"><path fill="#000000" stroke="none" d="M 262.0538899883873 351.22575063073873 L 258 341 L 253.63583548725498 351.0972307146909 L 257.66416127488577 362.99743649498083"/></g><g transform="translate(-38,-174) scale(1,1)"><path fill="none" stroke="#000000" d="M 262.0538899883873 351.22575063073873 L 258 341 L 253.63583548725498 351.0972307146909 L 257.66416127488577 362.99743649498083 L 262.0538899883873 351.22575063073873" stroke-miterlimit="10"/></g><g transform="translate(-38,-174) scale(1,1)"><path fill="none" stroke="#000000" d="M 820.8520283296768 474.24484051270684 L 831 470 L 820.822744905035 465.8258559282159" stroke-miterlimit="10"/></g><g transform="translate(-38,-174) scale(1,1)"><path fill="none" stroke="#000000" d="M 831 470 L 88 472 L 87 341" stroke-miterlimit="10"/></g><g transform="translate(-38,-174) scale(1,1)"><path fill="#000000" stroke="none" d="M 91.28697052405468 351.1302459854579 L 87 341 L 82.86818029690082 351.19451155971103 L 87.16793403847119 362.9993590397248"/></g><g transform="translate(-38,-174) scale(1,1)"><path fill="none" stroke="#000000" d="M 91.28697052405468 351.1302459854579 L 87 341 L 82.86818029690082 351.19451155971103 L 87.16793403847119 362.9993590397248 L 91.28697052405468 351.1302459854579" stroke-miterlimit="10"/></g><g transform="translate(-38,-174) scale(1,1)"><rect fill="#C0C0C0" stroke="none" x="1455" y="199" width="103.630859375" height="48" opacity="0.2"/></g><g transform="translate(-38,-174) scale(1,1)"><rect fill="#ffffff" stroke="none" x="1448" y="192" width="103.630859375" height="48"/></g><g transform="translate(-38,-174) scale(1,1)"><path fill="none" stroke="#000000" d="M 1448 192 L 1551.630859375 192 L 1551.630859375 240 L 1448 240 L 1448 192 Z Z" stroke-miterlimit="10"/></g><g transform="translate(-38,-174) scale(1,1)"><g><path fill="none" stroke="none"/><text fill="#000000" stroke="none" font-family="Arial" font-size="13px" font-style="normal" font-weight="normal" text-decoration="none" x="1467.655029296875" y="209.5">«interface»</text></g></g><g transform="translate(-38,-174) scale(1,1)"><g><path fill="none" stroke="none"/><text fill="#000000" stroke="none" font-family="Arial" font-size="13px" font-style="normal" font-weight="bold" text-decoration="none" x="1455.3818359375" y="224.5">ReadWriteLock</text></g></g><g transform="translate(-38,-174) scale(1,1)"><rect fill="#C0C0C0" stroke="none" x="1423" y="295" width="164.30810546875" height="44" opacity="0.2"/></g><g transform="translate(-38,-174) scale(1,1)"><rect fill="#ffffff" stroke="none" x="1416" y="288" width="164.30810546875" height="44"/></g><g transform="translate(-38,-174) scale(1,1)"><path fill="none" stroke="#000000" d="M 1416 288 L 1580.30810546875 288 L 1580.30810546875 332 L 1416 332 L 1416 288 Z Z" stroke-miterlimit="10"/></g><g transform="translate(-38,-174) scale(1,1)"><path fill="none" stroke="#000000" d="M 1416 313 L 1580.30810546875 313" stroke-miterlimit="10"/></g><g transform="translate(-38,-174) scale(1,1)"><path fill="none" stroke="#000000" d="M 1416 323 L 1580.30810546875 323" stroke-miterlimit="10"/></g><g transform="translate(-38,-174) scale(1,1)"><g><path fill="none" stroke="none"/><text fill="#000000" stroke="none" font-family="Arial" font-size="13px" font-style="normal" font-weight="bold" text-decoration="none" x="1425.175048828125" y="307.5">ReentrantReadWriteLock</text></g></g><g transform="translate(-38,-174) scale(1,1)"><rect fill="#C0C0C0" stroke="none" x="1383" y="391" width="71.130859375" height="44" opacity="0.2"/></g><g transform="translate(-38,-174) scale(1,1)"><rect fill="#ffffff" stroke="none" x="1376" y="384" width="71.130859375" height="44"/></g><g transform="translate(-38,-174) scale(1,1)"><path fill="none" stroke="#000000" d="M 1376 384 L 1447.130859375 384 L 1447.130859375 428 L 1376 428 L 1376 384 Z Z" stroke-miterlimit="10"/></g><g transform="translate(-38,-174) scale(1,1)"><path fill="none" stroke="#000000" d="M 1376 409 L 1447.130859375 409" stroke-miterlimit="10"/></g><g transform="translate(-38,-174) scale(1,1)"><path fill="none" stroke="#000000" d="M 1376 419 L 1447.130859375 419" stroke-miterlimit="10"/></g><g transform="translate(-38,-174) scale(1,1)"><g><path fill="none" stroke="none"/><text fill="#000000" stroke="none" font-family="Arial" font-size="13px" font-style="normal" font-weight="bold" text-decoration="none" x="1382.29638671875" y="403.5">ReadLock</text></g></g><g transform="translate(-38,-174) scale(1,1)"><rect fill="#C0C0C0" stroke="none" x="1535" y="391" width="71.841796875" height="44" opacity="0.2"/></g><g transform="translate(-38,-174) scale(1,1)"><rect fill="#ffffff" stroke="none" x="1528" y="384" width="71.841796875" height="44"/></g><g transform="translate(-38,-174) scale(1,1)"><path fill="none" stroke="#000000" d="M 1528 384 L 1599.841796875 384 L 1599.841796875 428 L 1528 428 L 1528 384 Z Z" stroke-miterlimit="10"/></g><g transform="translate(-38,-174) scale(1,1)"><path fill="none" stroke="#000000" d="M 1528 409 L 1599.841796875 409" stroke-miterlimit="10"/></g><g transform="translate(-38,-174) scale(1,1)"><path fill="none" stroke="#000000" d="M 1528 419 L 1599.841796875 419" stroke-miterlimit="10"/></g><g transform="translate(-38,-174) scale(1,1)"><g><path fill="none" stroke="none"/><text fill="#000000" stroke="none" font-family="Arial" font-size="13px" font-style="normal" font-weight="bold" text-decoration="none" x="1535.0263671875" y="403.5">WriteLock</text></g></g><g transform="translate(-38,-174) scale(1,1)"><path fill="none" stroke="#000000" d="M 1025 470 L 1416 472 L 1413 429" stroke-miterlimit="10"/></g><g transform="translate(-38,-174) scale(1,1)"><path fill="#000000" stroke="none" d="M 1417.9066146159198 438.84505627260927 L 1413 429 L 1409.5079944160607 439.43100651911107 L 1414.5311617826787 450.9466522183969"/></g><g transform="translate(-38,-174) scale(1,1)"><path fill="none" stroke="#000000" d="M 1417.9066146159198 438.84505627260927 L 1413 429 L 1409.5079944160607 439.43100651911107 L 1414.5311617826787 450.9466522183969 L 1417.9066146159198 438.84505627260927" stroke-miterlimit="10"/></g><g transform="translate(-38,-174) scale(1,1)"><path fill="none" stroke="#000000" d="M 1025 470 L 1568 472 L 1565 429" stroke-miterlimit="10"/></g><g transform="translate(-38,-174) scale(1,1)"><path fill="#000000" stroke="none" d="M 1569.9066146159198 438.84505627260927 L 1565 429 L 1561.5079944160607 439.43100651911107 L 1566.5311617826787 450.9466522183969"/></g><g transform="translate(-38,-174) scale(1,1)"><path fill="none" stroke="#000000" d="M 1569.9066146159198 438.84505627260927 L 1565 429 L 1561.5079944160607 439.43100651911107 L 1566.5311617826787 450.9466522183969 L 1569.9066146159198 438.84505627260927" stroke-miterlimit="10"/></g><g transform="translate(-38,-174) scale(1,1)"><path fill="none" stroke="#000000" d="M 1035.1781104878319 465.82794212678107 L 1025 470 L 1035.1471013592677 474.24692053195594" stroke-miterlimit="10"/></g><g transform="translate(-38,-174) scale(1,1)"><path fill="none" stroke="#000000" d="M 1432 383 L 1477 333" stroke-miterlimit="10"/></g><g transform="translate(-38,-174) scale(1,1)"><path fill="#000000" stroke="none" d="M 1473.3304388478734 343.36987564779844 L 1477 333 L 1467.072619034733 337.7378378159721 L 1462.2827759043062 349.35247121743765"/></g><g transform="translate(-38,-174) scale(1,1)"><path fill="none" stroke="#000000" d="M 1473.3304388478734 343.36987564779844 L 1477 333 L 1467.072619034733 337.7378378159721 L 1462.2827759043062 349.35247121743765 L 1473.3304388478734 343.36987564779844" stroke-miterlimit="10"/></g><g transform="translate(-38,-174) scale(1,1)"><path fill="none" stroke="#000000" d="M 1435.6695611521266 372.63012435220156 L 1432 383 L 1441.927380965267 378.2621621840279" stroke-miterlimit="10"/></g><g transform="translate(-38,-174) scale(1,1)"><path fill="none" stroke="#000000" d="M 1547 383 L 1514 333" stroke-miterlimit="10"/></g><g transform="translate(-38,-174) scale(1,1)"><path fill="#000000" stroke="none" d="M 1523.1113333773806 339.1630839752702 L 1514 333 L 1516.0847271448615 343.8006440887328 L 1526.1185285832762 351.36140694435795"/></g><g transform="translate(-38,-174) scale(1,1)"><path fill="none" stroke="#000000" d="M 1523.1113333773806 339.1630839752702 L 1514 333 L 1516.0847271448615 343.8006440887328 L 1526.1185285832762 351.36140694435795 L 1523.1113333773806 339.1630839752702" stroke-miterlimit="10"/></g><g transform="translate(-38,-174) scale(1,1)"><path fill="none" stroke="#000000" d="M 1537.8886666226194 376.8369160247298 L 1547 383 L 1544.9152728551385 372.1993559112672" stroke-miterlimit="10"/></g><g transform="translate(-38,-174) scale(1,1)"><path fill="none" stroke="#000000" d="M 1498 287 L 1499 241" stroke-miterlimit="10" stroke-dasharray="3"/></g><g transform="translate(-38,-174) scale(1,1)"><path fill="#FFFFFF" stroke="none" d="M 1506.9752957843502 261.5035279196563 L 1499 241 L 1490.141202100846 261.1375693613192"/></g><g transform="translate(-38,-174) scale(1,1)"><path fill="none" stroke="#000000" d="M 1506.9752957843502 261.5035279196563 L 1499 241 L 1490.141202100846 261.1375693613192 L 1506.9752957843502 261.5035279196563" stroke-miterlimit="10"/></g><g transform="translate(-38,-174) scale(1,1)"><rect fill="#C0C0C0" stroke="none" x="1831" y="191" width="94.24267578125" height="44" opacity="0.2"/></g><g transform="translate(-38,-174) scale(1,1)"><rect fill="#ffffff" stroke="none" x="1824" y="184" width="94.24267578125" height="44"/></g><g transform="translate(-38,-174) scale(1,1)"><path fill="none" stroke="#000000" d="M 1824 184 L 1918.24267578125 184 L 1918.24267578125 228 L 1824 228 L 1824 184 Z Z" stroke-miterlimit="10"/></g><g transform="translate(-38,-174) scale(1,1)"><path fill="none" stroke="#000000" d="M 1824 209 L 1918.24267578125 209" stroke-miterlimit="10"/></g><g transform="translate(-38,-174) scale(1,1)"><path fill="none" stroke="#000000" d="M 1824 219 L 1918.24267578125 219" stroke-miterlimit="10"/></g><g transform="translate(-38,-174) scale(1,1)"><g><path fill="none" stroke="none"/><text fill="#000000" stroke="none" font-family="Arial" font-size="13px" font-style="normal" font-weight="bold" text-decoration="none" x="1831.37548828125" y="203.5">StampedLock</text></g></g><g transform="translate(-38,-174) scale(1,1)"><rect fill="#C0C0C0" stroke="none" x="1655" y="295" width="133.25537109375" height="44" opacity="0.2"/></g><g transform="translate(-38,-174) scale(1,1)"><rect fill="#ffffff" stroke="none" x="1648" y="288" width="133.25537109375" height="44"/></g><g transform="translate(-38,-174) scale(1,1)"><path fill="none" stroke="#000000" d="M 1648 288 L 1781.25537109375 288 L 1781.25537109375 332 L 1648 332 L 1648 288 Z Z" stroke-miterlimit="10"/></g><g transform="translate(-38,-174) scale(1,1)"><path fill="none" stroke="#000000" d="M 1648 313 L 1781.25537109375 313" stroke-miterlimit="10"/></g><g transform="translate(-38,-174) scale(1,1)"><path fill="none" stroke="#000000" d="M 1648 323 L 1781.25537109375 323" stroke-miterlimit="10"/></g><g transform="translate(-38,-174) scale(1,1)"><g><path fill="none" stroke="none"/><text fill="#000000" stroke="none" font-family="Arial" font-size="13px" font-style="normal" font-weight="bold" text-decoration="none" x="1656.10546875" y="307.5">ReadWriteLockView</text></g></g><g transform="translate(-38,-174) scale(1,1)"><path fill="none" stroke="#000000" d="M 1661 287 L 1553 239" stroke-miterlimit="10" stroke-dasharray="3"/></g><g transform="translate(-38,-174) scale(1,1)"><path fill="#FFFFFF" stroke="none" d="M 1574.9928334680455 239.56149447621195 L 1553 239 L 1568.1542451310331 254.9483182344897"/></g><g transform="translate(-38,-174) scale(1,1)"><path fill="none" stroke="#000000" d="M 1574.9928334680455 239.56149447621195 L 1553 239 L 1568.1542451310331 254.9483182344897 L 1574.9928334680455 239.56149447621195" stroke-miterlimit="10"/></g><g transform="translate(-38,-174) scale(1,1)"><rect fill="#C0C0C0" stroke="none" x="1831" y="295" width="100.75537109375" height="44" opacity="0.2"/></g><g transform="translate(-38,-174) scale(1,1)"><rect fill="#ffffff" stroke="none" x="1824" y="288" width="100.75537109375" height="44"/></g><g transform="translate(-38,-174) scale(1,1)"><path fill="none" stroke="#000000" d="M 1824 288 L 1924.75537109375 288 L 1924.75537109375 332 L 1824 332 L 1824 288 Z Z" stroke-miterlimit="10"/></g><g transform="translate(-38,-174) scale(1,1)"><path fill="none" stroke="#000000" d="M 1824 313 L 1924.75537109375 313" stroke-miterlimit="10"/></g><g transform="translate(-38,-174) scale(1,1)"><path fill="none" stroke="#000000" d="M 1824 323 L 1924.75537109375 323" stroke-miterlimit="10"/></g><g transform="translate(-38,-174) scale(1,1)"><g><path fill="none" stroke="none"/><text fill="#000000" stroke="none" font-family="Arial" font-size="13px" font-style="normal" font-weight="bold" text-decoration="none" x="1831.02001953125" y="307.5">ReadLockView</text></g></g><g transform="translate(-38,-174) scale(1,1)"><rect fill="#C0C0C0" stroke="none" x="1959" y="295" width="101.46630859375" height="44" opacity="0.2"/></g><g transform="translate(-38,-174) scale(1,1)"><rect fill="#ffffff" stroke="none" x="1952" y="288" width="101.46630859375" height="44"/></g><g transform="translate(-38,-174) scale(1,1)"><path fill="none" stroke="#000000" d="M 1952 288 L 2053.46630859375 288 L 2053.46630859375 332 L 1952 332 L 1952 288 Z Z" stroke-miterlimit="10"/></g><g transform="translate(-38,-174) scale(1,1)"><path fill="none" stroke="#000000" d="M 1952 313 L 2053.46630859375 313" stroke-miterlimit="10"/></g><g transform="translate(-38,-174) scale(1,1)"><path fill="none" stroke="#000000" d="M 1952 323 L 2053.46630859375 323" stroke-miterlimit="10"/></g><g transform="translate(-38,-174) scale(1,1)"><g><path fill="none" stroke="none"/><text fill="#000000" stroke="none" font-family="Arial" font-size="13px" font-style="normal" font-weight="bold" text-decoration="none" x="1959.75" y="307.5">WriteLockView</text></g></g><g transform="translate(-38,-174) scale(1,1)"><path fill="none" stroke="#000000" d="M 1749 287 L 1836 229" stroke-miterlimit="10"/></g><g transform="translate(-38,-174) scale(1,1)"><path fill="#000000" stroke="none" d="M 1829.8791637187296 238.1397682256108 L 1836 229 L 1825.2091230681783 231.13470724978384 L 1817.6948935245675 241.20340431695504"/></g><g transform="translate(-38,-174) scale(1,1)"><path fill="none" stroke="#000000" d="M 1829.8791637187296 238.1397682256108 L 1836 229 L 1825.2091230681783 231.13470724978384 L 1817.6948935245675 241.20340431695504 L 1829.8791637187296 238.1397682256108" stroke-miterlimit="10"/></g><g transform="translate(-38,-174) scale(1,1)"><path fill="none" stroke="#000000" d="M 1755.1208362812704 277.8602317743892 L 1749 287 L 1759.7908769318217 284.86529275021616" stroke-miterlimit="10"/></g><g transform="translate(-38,-174) scale(1,1)"><path fill="none" stroke="#000000" d="M 1873 287 L 1872 229" stroke-miterlimit="10"/></g><g transform="translate(-38,-174) scale(1,1)"><path fill="#000000" stroke="none" d="M 1876.3840847186389 239.08859758240945 L 1872 229 L 1867.9663002706618 239.23373179702975 L 1872.3792539795186 250.99673081207794"/></g><g transform="translate(-38,-174) scale(1,1)"><path fill="none" stroke="#000000" d="M 1876.3840847186389 239.08859758240945 L 1872 229 L 1867.9663002706618 239.23373179702975 L 1872.3792539795186 250.99673081207794 L 1876.3840847186389 239.08859758240945" stroke-miterlimit="10"/></g><g transform="translate(-38,-174) scale(1,1)"><path fill="none" stroke="#000000" d="M 1868.6159152813611 276.9114024175906 L 1873 287 L 1877.0336997293382 276.76626820297025" stroke-miterlimit="10"/></g><g transform="translate(-38,-174) scale(1,1)"><path fill="none" stroke="#000000" d="M 1973 287 L 1900 229" stroke-miterlimit="10"/></g><g transform="translate(-38,-174) scale(1,1)"><path fill="#000000" stroke="none" d="M 1910.5755776196431 232.02607964384674 L 1900 229 L 1905.3383012132397 238.61782408638894 L 1917.2250583251107 242.685662778855"/></g><g transform="translate(-38,-174) scale(1,1)"><path fill="none" stroke="#000000" d="M 1910.5755776196431 232.02607964384674 L 1900 229 L 1905.3383012132397 238.61782408638894 L 1917.2250583251107 242.685662778855 L 1910.5755776196431 232.02607964384674" stroke-miterlimit="10"/></g><g transform="translate(-38,-174) scale(1,1)"><path fill="none" stroke="#000000" d="M 1962.4244223803569 283.97392035615326 L 1973 287 L 1967.6616987867603 277.38217591361104" stroke-miterlimit="10"/></g></g></svg>