<svg version="1.1" xmlns="http://www.w3.org/2000/svg" xmlns:xlink="http://www.w3.org/1999/xlink" width="763.4853515625" height="402"><defs/><g><g transform="translate(-1542,-176) scale(1,1)"><rect fill="#C0C0C0" stroke="none" x="1700" y="193" width="103.630859375" height="48" opacity="0.2"/></g><g transform="translate(-1542,-176) scale(1,1)"><rect fill="#ffffff" stroke="none" x="1693" y="186" width="103.630859375" height="48"/></g><g transform="translate(-1542,-176) scale(1,1)"><path fill="none" stroke="#000000" d="M 1693 186 L 1796.630859375 186 L 1796.630859375 234 L 1693 234 L 1693 186 Z Z" stroke-miterlimit="10"/></g><g transform="translate(-1542,-176) scale(1,1)"><g><path fill="none" stroke="none"/><text fill="#000000" stroke="none" font-family="Arial" font-size="13px" font-style="normal" font-weight="normal" text-decoration="none" x="1712.655029296875" y="203.5">«interface»</text></g></g><g transform="translate(-1542,-176) scale(1,1)"><g><path fill="none" stroke="none"/><text fill="#000000" stroke="none" font-family="Arial" font-size="13px" font-style="normal" font-weight="bold" text-decoration="none" x="1700.3818359375" y="218.5">ReadWriteLock</text></g></g><g transform="translate(-1542,-176) scale(1,1)"><rect fill="#C0C0C0" stroke="none" x="1668" y="289" width="164.30810546875" height="87" opacity="0.2"/></g><g transform="translate(-1542,-176) scale(1,1)"><rect fill="#ffffff" stroke="none" x="1661" y="282" width="164.30810546875" height="87"/></g><g transform="translate(-1542,-176) scale(1,1)"><path fill="none" stroke="#000000" d="M 1661 282 L 1825.30810546875 282 L 1825.30810546875 369 L 1661 369 L 1661 282 Z Z" stroke-miterlimit="10"/></g><g transform="translate(-1542,-176) scale(1,1)"><path fill="none" stroke="#000000" d="M 1661 307 L 1825.30810546875 307" stroke-miterlimit="10"/></g><g transform="translate(-1542,-176) scale(1,1)"><path fill="none" stroke="#000000" d="M 1661 360 L 1825.30810546875 360" stroke-miterlimit="10"/></g><g transform="translate(-1542,-176) scale(1,1)"><g><path fill="none" stroke="none"/><text fill="#000000" stroke="none" font-family="Arial" font-size="13px" font-style="normal" font-weight="bold" text-decoration="none" x="1670.175048828125" y="301.5">ReentrantReadWriteLock</text></g></g><g transform="translate(-1542,-176) scale(1,1)"><g><path fill="none" stroke="none"/><text fill="#000000" stroke="none" font-family="Arial" font-size="13px" font-style="normal" font-weight="normal" text-decoration="none" x="1666" y="324.5">-sync: Sync</text></g></g><g transform="translate(-1542,-176) scale(1,1)"><g><path fill="none" stroke="none"/><text fill="#000000" stroke="none" font-family="Arial" font-size="13px" font-style="normal" font-weight="normal" text-decoration="none" x="1666" y="339.5">-readLock: ReadLock</text></g></g><g transform="translate(-1542,-176) scale(1,1)"><g><path fill="none" stroke="none"/><text fill="#000000" stroke="none" font-family="Arial" font-size="13px" font-style="normal" font-weight="normal" text-decoration="none" x="1666" y="354.5">-writeLock: WriteLock</text></g></g><g transform="translate(-1542,-176) scale(1,1)"><rect fill="#C0C0C0" stroke="none" x="1559" y="417" width="71.130859375" height="44" opacity="0.2"/></g><g transform="translate(-1542,-176) scale(1,1)"><rect fill="#ffffff" stroke="none" x="1552" y="410" width="71.130859375" height="44"/></g><g transform="translate(-1542,-176) scale(1,1)"><path fill="none" stroke="#000000" d="M 1552 410 L 1623.130859375 410 L 1623.130859375 454 L 1552 454 L 1552 410 Z Z" stroke-miterlimit="10"/></g><g transform="translate(-1542,-176) scale(1,1)"><path fill="none" stroke="#000000" d="M 1552 435 L 1623.130859375 435" stroke-miterlimit="10"/></g><g transform="translate(-1542,-176) scale(1,1)"><path fill="none" stroke="#000000" d="M 1552 445 L 1623.130859375 445" stroke-miterlimit="10"/></g><g transform="translate(-1542,-176) scale(1,1)"><g><path fill="none" stroke="none"/><text fill="#000000" stroke="none" font-family="Arial" font-size="13px" font-style="normal" font-weight="bold" text-decoration="none" x="1558.29638671875" y="429.5">ReadLock</text></g></g><g transform="translate(-1542,-176) scale(1,1)"><rect fill="#C0C0C0" stroke="none" x="1719" y="417" width="71.841796875" height="44" opacity="0.2"/></g><g transform="translate(-1542,-176) scale(1,1)"><rect fill="#ffffff" stroke="none" x="1712" y="410" width="71.841796875" height="44"/></g><g transform="translate(-1542,-176) scale(1,1)"><path fill="none" stroke="#000000" d="M 1712 410 L 1783.841796875 410 L 1783.841796875 454 L 1712 454 L 1712 410 Z Z" stroke-miterlimit="10"/></g><g transform="translate(-1542,-176) scale(1,1)"><path fill="none" stroke="#000000" d="M 1712 435 L 1783.841796875 435" stroke-miterlimit="10"/></g><g transform="translate(-1542,-176) scale(1,1)"><path fill="none" stroke="#000000" d="M 1712 445 L 1783.841796875 445" stroke-miterlimit="10"/></g><g transform="translate(-1542,-176) scale(1,1)"><g><path fill="none" stroke="none"/><text fill="#000000" stroke="none" font-family="Arial" font-size="13px" font-style="normal" font-weight="bold" text-decoration="none" x="1719.0263671875" y="429.5">WriteLock</text></g></g><g transform="translate(-1542,-176) scale(1,1)"><path fill="none" stroke="#000000" d="M 1621 409 L 1677 370" stroke-miterlimit="10"/></g><g transform="translate(-1542,-176) scale(1,1)"><path fill="#000000" stroke="none" d="M 1671.0661569155234 379.26226248002115 L 1677 370 L 1666.2547307077168 372.3535479252223 L 1658.946658855595 382.57286258271074"/></g><g transform="translate(-1542,-176) scale(1,1)"><path fill="none" stroke="#000000" d="M 1671.0661569155234 379.26226248002115 L 1677 370 L 1666.2547307077168 372.3535479252223 L 1658.946658855595 382.57286258271074 L 1671.0661569155234 379.26226248002115" stroke-miterlimit="10"/></g><g transform="translate(-1542,-176) scale(1,1)"><path fill="none" stroke="#000000" d="M 1626.9338430844766 399.73773751997885 L 1621 409 L 1631.7452692922832 406.6464520747777" stroke-miterlimit="10"/></g><g transform="translate(-1542,-176) scale(1,1)"><path fill="none" stroke="#000000" d="M 1746 409 L 1745 370" stroke-miterlimit="10"/></g><g transform="translate(-1542,-176) scale(1,1)"><path fill="#000000" stroke="none" d="M 1749.4686304262054 380.05143482861985 L 1745 370 L 1741.0523611490146 380.26723660495804 L 1745.563917217436 391.99277148000857"/></g><g transform="translate(-1542,-176) scale(1,1)"><path fill="none" stroke="#000000" d="M 1749.4686304262054 380.05143482861985 L 1745 370 L 1741.0523611490146 380.26723660495804 L 1745.563917217436 391.99277148000857 L 1749.4686304262054 380.05143482861985" stroke-miterlimit="10"/></g><g transform="translate(-1542,-176) scale(1,1)"><path fill="none" stroke="#000000" d="M 1741.5313695737946 398.94856517138015 L 1746 409 L 1749.9476388509854 398.73276339504196" stroke-miterlimit="10"/></g><g transform="translate(-1542,-176) scale(1,1)"><path fill="none" stroke="#000000" d="M 1743 281 L 1744 235" stroke-miterlimit="10" stroke-dasharray="3"/></g><g transform="translate(-1542,-176) scale(1,1)"><path fill="#FFFFFF" stroke="none" d="M 1751.9752957843502 255.50352791965628 L 1744 235 L 1735.141202100846 255.13756936131924"/></g><g transform="translate(-1542,-176) scale(1,1)"><path fill="none" stroke="#000000" d="M 1751.9752957843502 255.50352791965628 L 1744 235 L 1735.141202100846 255.13756936131924 L 1751.9752957843502 255.50352791965628" stroke-miterlimit="10"/></g><g transform="translate(-1542,-176) scale(1,1)"><rect fill="#C0C0C0" stroke="none" x="1952" y="414" width="50.919921875" height="44" opacity="0.2"/></g><g transform="translate(-1542,-176) scale(1,1)"><rect fill="#ffffff" stroke="none" x="1945" y="407" width="50.919921875" height="44"/></g><g transform="translate(-1542,-176) scale(1,1)"><path fill="none" stroke="#000000" d="M 1945 407 L 1995.919921875 407 L 1995.919921875 451 L 1945 451 L 1945 407 Z Z" stroke-miterlimit="10"/></g><g transform="translate(-1542,-176) scale(1,1)"><path fill="none" stroke="#000000" d="M 1945 432 L 1995.919921875 432" stroke-miterlimit="10"/></g><g transform="translate(-1542,-176) scale(1,1)"><path fill="none" stroke="#000000" d="M 1945 442 L 1995.919921875 442" stroke-miterlimit="10"/></g><g transform="translate(-1542,-176) scale(1,1)"><g><path fill="none" stroke="none"/><text fill="#000000" stroke="none" font-family="Arial" font-size="13px" font-style="italic" font-weight="bold" text-decoration="none" x="1956.009521484375" y="426.5">Sync</text></g></g><g transform="translate(-1542,-176) scale(1,1)"><rect fill="#C0C0C0" stroke="none" x="2110" y="414" width="192.4853515625" height="44" opacity="0.2"/></g><g transform="translate(-1542,-176) scale(1,1)"><rect fill="#ffffff" stroke="none" x="2103" y="407" width="192.4853515625" height="44"/></g><g transform="translate(-1542,-176) scale(1,1)"><path fill="none" stroke="#000000" d="M 2103 407 L 2295.4853515625 407 L 2295.4853515625 451 L 2103 451 L 2103 407 Z Z" stroke-miterlimit="10"/></g><g transform="translate(-1542,-176) scale(1,1)"><path fill="none" stroke="#000000" d="M 2103 432 L 2295.4853515625 432" stroke-miterlimit="10"/></g><g transform="translate(-1542,-176) scale(1,1)"><path fill="none" stroke="#000000" d="M 2103 442 L 2295.4853515625 442" stroke-miterlimit="10"/></g><g transform="translate(-1542,-176) scale(1,1)"><g><path fill="none" stroke="none"/><text fill="#000000" stroke="none" font-family="Arial" font-size="13px" font-style="normal" font-weight="bold" text-decoration="none" x="2114.33642578125" y="426.5">AbstractQueuedSynchronizer</text></g></g><g transform="translate(-1542,-176) scale(1,1)"><path fill="none" stroke="#000000" d="M 1944 417 L 1826 363" stroke-miterlimit="10"/></g><g transform="translate(-1542,-176) scale(1,1)"><path fill="#000000" stroke="none" d="M 1836.9926816946343 363.401184696187 L 1826 363 L 1833.489319350519 371.05668018888315 L 1846.0047737770697 372.1547269827268"/></g><g transform="translate(-1542,-176) scale(1,1)"><path fill="none" stroke="#000000" d="M 1836.9926816946343 363.401184696187 L 1826 363 L 1833.489319350519 371.05668018888315 L 1846.0047737770697 372.1547269827268 L 1836.9926816946343 363.401184696187" stroke-miterlimit="10"/></g><g transform="translate(-1542,-176) scale(1,1)"><path fill="none" stroke="#000000" d="M 1933.0073183053657 416.598815303813 L 1944 417 L 1936.510680649481 408.94331981111685" stroke-miterlimit="10"/></g><g transform="translate(-1542,-176) scale(1,1)"><path fill="none" stroke="#000000" d="M 1997 429 L 2102 429" stroke-miterlimit="10"/></g><g transform="translate(-1542,-176) scale(1,1)"><path fill="#FFFFFF" stroke="none" d="M 2081.674650284752 437.419035512032 L 2102 429 L 2081.674650284752 420.580964487968"/></g><g transform="translate(-1542,-176) scale(1,1)"><path fill="none" stroke="#000000" d="M 2081.674650284752 437.419035512032 L 2102 429 L 2081.674650284752 420.580964487968 L 2081.674650284752 437.419035512032" stroke-miterlimit="10"/></g><g transform="translate(-1542,-176) scale(1,1)"><rect fill="#C0C0C0" stroke="none" x="1848" y="526" width="85.57177734375" height="44" opacity="0.2"/></g><g transform="translate(-1542,-176) scale(1,1)"><rect fill="#ffffff" stroke="none" x="1841" y="519" width="85.57177734375" height="44"/></g><g transform="translate(-1542,-176) scale(1,1)"><path fill="none" stroke="#000000" d="M 1841 519 L 1926.57177734375 519 L 1926.57177734375 563 L 1841 563 L 1841 519 Z Z" stroke-miterlimit="10"/></g><g transform="translate(-1542,-176) scale(1,1)"><path fill="none" stroke="#000000" d="M 1841 544 L 1926.57177734375 544" stroke-miterlimit="10"/></g><g transform="translate(-1542,-176) scale(1,1)"><path fill="none" stroke="#000000" d="M 1841 554 L 1926.57177734375 554" stroke-miterlimit="10"/></g><g transform="translate(-1542,-176) scale(1,1)"><g><path fill="none" stroke="none"/><text fill="#000000" stroke="none" font-family="Arial" font-size="13px" font-style="normal" font-weight="bold" text-decoration="none" x="1848.3818359375" y="538.5">NonfairSync</text></g></g><g transform="translate(-1542,-176) scale(1,1)"><rect fill="#C0C0C0" stroke="none" x="2040" y="526" width="63.91357421875" height="44" opacity="0.2"/></g><g transform="translate(-1542,-176) scale(1,1)"><rect fill="#ffffff" stroke="none" x="2033" y="519" width="63.91357421875" height="44"/></g><g transform="translate(-1542,-176) scale(1,1)"><path fill="none" stroke="#000000" d="M 2033 519 L 2096.91357421875 519 L 2096.91357421875 563 L 2033 563 L 2033 519 Z Z" stroke-miterlimit="10"/></g><g transform="translate(-1542,-176) scale(1,1)"><path fill="none" stroke="#000000" d="M 2033 544 L 2096.91357421875 544" stroke-miterlimit="10"/></g><g transform="translate(-1542,-176) scale(1,1)"><path fill="none" stroke="#000000" d="M 2033 554 L 2096.91357421875 554" stroke-miterlimit="10"/></g><g transform="translate(-1542,-176) scale(1,1)"><g><path fill="none" stroke="none"/><text fill="#000000" stroke="none" font-family="Arial" font-size="13px" font-style="normal" font-weight="bold" text-decoration="none" x="2039.312255859375" y="538.5">FairSync</text></g></g><g transform="translate(-1542,-176) scale(1,1)"><path fill="none" stroke="#000000" d="M 2045 518 L 1989 452" stroke-miterlimit="10"/></g><g transform="translate(-1542,-176) scale(1,1)"><path fill="#FFFFFF" stroke="none" d="M 2008.5696343813966 462.05133872568524 L 1989 452 L 1995.730451403492 472.9451909493619"/></g><g transform="translate(-1542,-176) scale(1,1)"><path fill="none" stroke="#000000" d="M 2008.5696343813966 462.05133872568524 L 1989 452 L 1995.730451403492 472.9451909493619 L 2008.5696343813966 462.05133872568524" stroke-miterlimit="10"/></g><g transform="translate(-1542,-176) scale(1,1)"><path fill="none" stroke="#000000" d="M 1901 518 L 1952 452" stroke-miterlimit="10"/></g><g transform="translate(-1542,-176) scale(1,1)"><path fill="#FFFFFF" stroke="none" d="M 1946.2339722349793 473.2309426030266 L 1952 452 L 1932.9102591812614 462.93534615242646"/></g><g transform="translate(-1542,-176) scale(1,1)"><path fill="none" stroke="#000000" d="M 1946.2339722349793 473.2309426030266 L 1952 452 L 1932.9102591812614 462.93534615242646 L 1946.2339722349793 473.2309426030266" stroke-miterlimit="10"/></g><g transform="translate(-1542,-176) scale(1,1)"><rect fill="#C0C0C0" stroke="none" x="1631" y="527" width="107.32080078125" height="48" opacity="0.2"/></g><g transform="translate(-1542,-176) scale(1,1)"><rect fill="#ffffff" stroke="none" x="1624" y="520" width="107.32080078125" height="48"/></g><g transform="translate(-1542,-176) scale(1,1)"><path fill="none" stroke="#000000" d="M 1624 520 L 1731.32080078125 520 L 1731.32080078125 568 L 1624 568 L 1624 520 Z Z" stroke-miterlimit="10"/></g><g transform="translate(-1542,-176) scale(1,1)"><g><path fill="none" stroke="none"/><text fill="#000000" stroke="none" font-family="Arial" font-size="13px" font-style="normal" font-weight="normal" text-decoration="none" x="1645.5" y="537.5">«interface»</text></g></g><g transform="translate(-1542,-176) scale(1,1)"><g><path fill="none" stroke="none"/><text fill="#000000" stroke="none" font-family="Arial" font-size="13px" font-style="normal" font-weight="bold" text-decoration="none" x="1663.930419921875" y="552.5">Lock</text></g></g><g transform="translate(-1542,-176) scale(1,1)"><path fill="none" stroke="#000000" d="M 1733 455 L 1693 519" stroke-miterlimit="10" stroke-dasharray="3"/></g><g transform="translate(-1542,-176) scale(1,1)"><path fill="#FFFFFF" stroke="none" d="M 1696.6330859687139 497.3020580159331 L 1693 519 L 1710.9117416398371 506.2262178103852"/></g><g transform="translate(-1542,-176) scale(1,1)"><path fill="none" stroke="#000000" d="M 1696.6330859687139 497.3020580159331 L 1693 519 L 1710.9117416398371 506.2262178103852 L 1696.6330859687139 497.3020580159331" stroke-miterlimit="10"/></g><g transform="translate(-1542,-176) scale(1,1)"><path fill="none" stroke="#000000" d="M 1605 455 L 1657 519" stroke-miterlimit="10" stroke-dasharray="3"/></g><g transform="translate(-1542,-176) scale(1,1)"><path fill="#FFFFFF" stroke="none" d="M 1637.6488530387344 508.5341932330324 L 1657 519 L 1650.7171156954626 497.91622982444085"/></g><g transform="translate(-1542,-176) scale(1,1)"><path fill="none" stroke="#000000" d="M 1637.6488530387344 508.5341932330324 L 1657 519 L 1650.7171156954626 497.91622982444085 L 1637.6488530387344 508.5341932330324" stroke-miterlimit="10"/></g></g></svg>