<svg version="1.1" xmlns="http://www.w3.org/2000/svg" xmlns:xlink="http://www.w3.org/1999/xlink" width="474.4853515625" height="390"><defs/><g><g transform="translate(-478,-176) scale(1,1)"><rect fill="#C0C0C0" stroke="none" x="566" y="193" width="107.32080078125" height="48" opacity="0.2"/></g><g transform="translate(-478,-176) scale(1,1)"><rect fill="#ffffff" stroke="none" x="559" y="186" width="107.32080078125" height="48"/></g><g transform="translate(-478,-176) scale(1,1)"><path fill="none" stroke="#000000" d="M 559 186 L 666.32080078125 186 L 666.32080078125 234 L 559 234 L 559 186 Z Z" stroke-miterlimit="10"/></g><g transform="translate(-478,-176) scale(1,1)"><g><path fill="none" stroke="none"/><text fill="#000000" stroke="none" font-family="Arial" font-size="13px" font-style="normal" font-weight="normal" text-decoration="none" x="580.5" y="203.5">«interface»</text></g></g><g transform="translate(-478,-176) scale(1,1)"><g><path fill="none" stroke="none"/><text fill="#000000" stroke="none" font-family="Arial" font-size="13px" font-style="normal" font-weight="bold" text-decoration="none" x="598.930419921875" y="218.5">Lock</text></g></g><g transform="translate(-478,-176) scale(1,1)"><rect fill="#C0C0C0" stroke="none" x="558" y="297" width="128" height="57" opacity="0.2"/></g><g transform="translate(-478,-176) scale(1,1)"><rect fill="#ffffff" stroke="none" x="551" y="290" width="128" height="57"/></g><g transform="translate(-478,-176) scale(1,1)"><path fill="none" stroke="#000000" d="M 551 290 L 679 290 L 679 347 L 551 347 L 551 290 Z Z" stroke-miterlimit="10"/></g><g transform="translate(-478,-176) scale(1,1)"><path fill="none" stroke="#000000" d="M 551 315 L 679 315" stroke-miterlimit="10"/></g><g transform="translate(-478,-176) scale(1,1)"><path fill="none" stroke="#000000" d="M 551 338 L 679 338" stroke-miterlimit="10"/></g><g transform="translate(-478,-176) scale(1,1)"><g><path fill="none" stroke="none"/><text fill="#000000" stroke="none" font-family="Arial" font-size="13px" font-style="normal" font-weight="bold" text-decoration="none" x="572.724609375" y="309.5">ReentrantLock</text></g></g><g transform="translate(-478,-176) scale(1,1)"><g><path fill="none" stroke="none"/><text fill="#000000" stroke="none" font-family="Arial" font-size="13px" font-style="normal" font-weight="normal" text-decoration="none" x="556" y="332.5">-sync: Sync</text></g></g><g transform="translate(-478,-176) scale(1,1)"><path fill="none" stroke="#000000" d="M 614 289 L 613 235" stroke-miterlimit="10" stroke-dasharray="3"/></g><g transform="translate(-478,-176) scale(1,1)"><path fill="#FFFFFF" stroke="none" d="M 621.7939231320462 255.16598413040293 L 613 235 L 604.9587385519949 255.47774680781131"/></g><g transform="translate(-478,-176) scale(1,1)"><path fill="none" stroke="#000000" d="M 621.7939231320462 255.16598413040293 L 613 235 L 604.9587385519949 255.47774680781131 L 621.7939231320462 255.16598413040293" stroke-miterlimit="10"/></g><g transform="translate(-478,-176) scale(1,1)"><rect fill="#C0C0C0" stroke="none" x="599" y="407" width="50.919921875" height="44" opacity="0.2"/></g><g transform="translate(-478,-176) scale(1,1)"><rect fill="#ffffff" stroke="none" x="592" y="400" width="50.919921875" height="44"/></g><g transform="translate(-478,-176) scale(1,1)"><path fill="none" stroke="#000000" d="M 592 400 L 642.919921875 400 L 642.919921875 444 L 592 444 L 592 400 Z Z" stroke-miterlimit="10"/></g><g transform="translate(-478,-176) scale(1,1)"><path fill="none" stroke="#000000" d="M 592 425 L 642.919921875 425" stroke-miterlimit="10"/></g><g transform="translate(-478,-176) scale(1,1)"><path fill="none" stroke="#000000" d="M 592 435 L 642.919921875 435" stroke-miterlimit="10"/></g><g transform="translate(-478,-176) scale(1,1)"><g><path fill="none" stroke="none"/><text fill="#000000" stroke="none" font-family="Arial" font-size="13px" font-style="italic" font-weight="bold" text-decoration="none" x="603.009521484375" y="419.5">Sync</text></g></g><g transform="translate(-478,-176) scale(1,1)"><rect fill="#C0C0C0" stroke="none" x="757" y="407" width="192.4853515625" height="44" opacity="0.2"/></g><g transform="translate(-478,-176) scale(1,1)"><rect fill="#ffffff" stroke="none" x="750" y="400" width="192.4853515625" height="44"/></g><g transform="translate(-478,-176) scale(1,1)"><path fill="none" stroke="#000000" d="M 750 400 L 942.4853515625 400 L 942.4853515625 444 L 750 444 L 750 400 Z Z" stroke-miterlimit="10"/></g><g transform="translate(-478,-176) scale(1,1)"><path fill="none" stroke="#000000" d="M 750 425 L 942.4853515625 425" stroke-miterlimit="10"/></g><g transform="translate(-478,-176) scale(1,1)"><path fill="none" stroke="#000000" d="M 750 435 L 942.4853515625 435" stroke-miterlimit="10"/></g><g transform="translate(-478,-176) scale(1,1)"><g><path fill="none" stroke="none"/><text fill="#000000" stroke="none" font-family="Arial" font-size="13px" font-style="normal" font-weight="bold" text-decoration="none" x="761.33642578125" y="419.5">AbstractQueuedSynchronizer</text></g></g><g transform="translate(-478,-176) scale(1,1)"><path fill="none" stroke="#000000" d="M 617 399 L 616 348" stroke-miterlimit="10"/></g><g transform="translate(-478,-176) scale(1,1)"><path fill="#000000" stroke="none" d="M 620.407938617311 358.07819811007994 L 616 348 L 611.9905210615756 358.24324551313356 L 616.4312896485578 369.99577207644796"/></g><g transform="translate(-478,-176) scale(1,1)"><path fill="none" stroke="#000000" d="M 620.407938617311 358.07819811007994 L 616 348 L 611.9905210615756 358.24324551313356 L 616.4312896485578 369.99577207644796 L 620.407938617311 358.07819811007994" stroke-miterlimit="10"/></g><g transform="translate(-478,-176) scale(1,1)"><path fill="none" stroke="#000000" d="M 612.592061382689 388.92180188992006 L 617 399 L 621.0094789384244 388.75675448686644" stroke-miterlimit="10"/></g><g transform="translate(-478,-176) scale(1,1)"><path fill="none" stroke="#000000" d="M 644 422 L 749 422" stroke-miterlimit="10"/></g><g transform="translate(-478,-176) scale(1,1)"><path fill="#FFFFFF" stroke="none" d="M 728.6746502847517 430.419035512032 L 749 422 L 728.6746502847517 413.580964487968"/></g><g transform="translate(-478,-176) scale(1,1)"><path fill="none" stroke="#000000" d="M 728.6746502847517 430.419035512032 L 749 422 L 728.6746502847517 413.580964487968 L 728.6746502847517 430.419035512032" stroke-miterlimit="10"/></g><g transform="translate(-478,-176) scale(1,1)"><rect fill="#C0C0C0" stroke="none" x="495" y="519" width="85.57177734375" height="44" opacity="0.2"/></g><g transform="translate(-478,-176) scale(1,1)"><rect fill="#ffffff" stroke="none" x="488" y="512" width="85.57177734375" height="44"/></g><g transform="translate(-478,-176) scale(1,1)"><path fill="none" stroke="#000000" d="M 488 512 L 573.57177734375 512 L 573.57177734375 556 L 488 556 L 488 512 Z Z" stroke-miterlimit="10"/></g><g transform="translate(-478,-176) scale(1,1)"><path fill="none" stroke="#000000" d="M 488 537 L 573.57177734375 537" stroke-miterlimit="10"/></g><g transform="translate(-478,-176) scale(1,1)"><path fill="none" stroke="#000000" d="M 488 547 L 573.57177734375 547" stroke-miterlimit="10"/></g><g transform="translate(-478,-176) scale(1,1)"><g><path fill="none" stroke="none"/><text fill="#000000" stroke="none" font-family="Arial" font-size="13px" font-style="normal" font-weight="bold" text-decoration="none" x="495.3818359375" y="531.5">NonfairSync</text></g></g><g transform="translate(-478,-176) scale(1,1)"><rect fill="#C0C0C0" stroke="none" x="687" y="519" width="63.91357421875" height="44" opacity="0.2"/></g><g transform="translate(-478,-176) scale(1,1)"><rect fill="#ffffff" stroke="none" x="680" y="512" width="63.91357421875" height="44"/></g><g transform="translate(-478,-176) scale(1,1)"><path fill="none" stroke="#000000" d="M 680 512 L 743.91357421875 512 L 743.91357421875 556 L 680 556 L 680 512 Z Z" stroke-miterlimit="10"/></g><g transform="translate(-478,-176) scale(1,1)"><path fill="none" stroke="#000000" d="M 680 537 L 743.91357421875 537" stroke-miterlimit="10"/></g><g transform="translate(-478,-176) scale(1,1)"><path fill="none" stroke="#000000" d="M 680 547 L 743.91357421875 547" stroke-miterlimit="10"/></g><g transform="translate(-478,-176) scale(1,1)"><g><path fill="none" stroke="none"/><text fill="#000000" stroke="none" font-family="Arial" font-size="13px" font-style="normal" font-weight="bold" text-decoration="none" x="686.312255859375" y="531.5">FairSync</text></g></g><g transform="translate(-478,-176) scale(1,1)"><path fill="none" stroke="#000000" d="M 692 511 L 636 445" stroke-miterlimit="10"/></g><g transform="translate(-478,-176) scale(1,1)"><path fill="#FFFFFF" stroke="none" d="M 655.5696343813966 455.05133872568524 L 636 445 L 642.7304514034919 465.9451909493619"/></g><g transform="translate(-478,-176) scale(1,1)"><path fill="none" stroke="#000000" d="M 655.5696343813966 455.05133872568524 L 636 445 L 642.7304514034919 465.9451909493619 L 655.5696343813966 455.05133872568524" stroke-miterlimit="10"/></g><g transform="translate(-478,-176) scale(1,1)"><path fill="none" stroke="#000000" d="M 548 511 L 599 445" stroke-miterlimit="10"/></g><g transform="translate(-478,-176) scale(1,1)"><path fill="#FFFFFF" stroke="none" d="M 593.2339722349793 466.2309426030266 L 599 445 L 579.9102591812615 455.93534615242646"/></g><g transform="translate(-478,-176) scale(1,1)"><path fill="none" stroke="#000000" d="M 593.2339722349793 466.2309426030266 L 599 445 L 579.9102591812615 455.93534615242646 L 593.2339722349793 466.2309426030266" stroke-miterlimit="10"/></g></g></svg>