<svg version="1.1" xmlns="http://www.w3.org/2000/svg" xmlns:xlink="http://www.w3.org/1999/xlink" width="509.77001953125" height="312"><defs/><g><g transform="translate(-1602,-242) scale(1,1)"><rect fill="#C0C0C0" stroke="none" x="1843" y="259" width="94.24267578125" height="44" opacity="0.2"/></g><g transform="translate(-1602,-242) scale(1,1)"><rect fill="#ffffff" stroke="none" x="1836" y="252" width="94.24267578125" height="44"/></g><g transform="translate(-1602,-242) scale(1,1)"><path fill="none" stroke="#000000" d="M 1836 252 L 1930.24267578125 252 L 1930.24267578125 296 L 1836 296 L 1836 252 Z Z" stroke-miterlimit="10"/></g><g transform="translate(-1602,-242) scale(1,1)"><path fill="none" stroke="#000000" d="M 1836 277 L 1930.24267578125 277" stroke-miterlimit="10"/></g><g transform="translate(-1602,-242) scale(1,1)"><path fill="none" stroke="#000000" d="M 1836 287 L 1930.24267578125 287" stroke-miterlimit="10"/></g><g transform="translate(-1602,-242) scale(1,1)"><g><path fill="none" stroke="none"/><text fill="#000000" stroke="none" font-family="Arial" font-size="13px" font-style="normal" font-weight="bold" text-decoration="none" x="1843.37548828125" y="271.5">StampedLock</text></g></g><g transform="translate(-1602,-242) scale(1,1)"><rect fill="#C0C0C0" stroke="none" x="1619" y="371" width="133.25537109375" height="44" opacity="0.2"/></g><g transform="translate(-1602,-242) scale(1,1)"><rect fill="#ffffff" stroke="none" x="1612" y="364" width="133.25537109375" height="44"/></g><g transform="translate(-1602,-242) scale(1,1)"><path fill="none" stroke="#000000" d="M 1612 364 L 1745.25537109375 364 L 1745.25537109375 408 L 1612 408 L 1612 364 Z Z" stroke-miterlimit="10"/></g><g transform="translate(-1602,-242) scale(1,1)"><path fill="none" stroke="#000000" d="M 1612 389 L 1745.25537109375 389" stroke-miterlimit="10"/></g><g transform="translate(-1602,-242) scale(1,1)"><path fill="none" stroke="#000000" d="M 1612 399 L 1745.25537109375 399" stroke-miterlimit="10"/></g><g transform="translate(-1602,-242) scale(1,1)"><g><path fill="none" stroke="none"/><text fill="#000000" stroke="none" font-family="Arial" font-size="13px" font-style="normal" font-weight="bold" text-decoration="none" x="1620.10546875" y="383.5">ReadWriteLockView</text></g></g><g transform="translate(-1602,-242) scale(1,1)"><path fill="none" stroke="#000000" d="M 1677 409 L 1676 495" stroke-miterlimit="10" stroke-dasharray="3"/></g><g transform="translate(-1602,-242) scale(1,1)"><path fill="#FFFFFF" stroke="none" d="M 1667.8178588914006 474.5781350783292 L 1676 495 L 1684.6547917080734 474.7739133668951"/></g><g transform="translate(-1602,-242) scale(1,1)"><path fill="none" stroke="#000000" d="M 1667.8178588914006 474.5781350783292 L 1676 495 L 1684.6547917080734 474.7739133668951 L 1667.8178588914006 474.5781350783292" stroke-miterlimit="10"/></g><g transform="translate(-1602,-242) scale(1,1)"><rect fill="#C0C0C0" stroke="none" x="1795" y="371" width="100.75537109375" height="44" opacity="0.2"/></g><g transform="translate(-1602,-242) scale(1,1)"><rect fill="#ffffff" stroke="none" x="1788" y="364" width="100.75537109375" height="44"/></g><g transform="translate(-1602,-242) scale(1,1)"><path fill="none" stroke="#000000" d="M 1788 364 L 1888.75537109375 364 L 1888.75537109375 408 L 1788 408 L 1788 364 Z Z" stroke-miterlimit="10"/></g><g transform="translate(-1602,-242) scale(1,1)"><path fill="none" stroke="#000000" d="M 1788 389 L 1888.75537109375 389" stroke-miterlimit="10"/></g><g transform="translate(-1602,-242) scale(1,1)"><path fill="none" stroke="#000000" d="M 1788 399 L 1888.75537109375 399" stroke-miterlimit="10"/></g><g transform="translate(-1602,-242) scale(1,1)"><g><path fill="none" stroke="none"/><text fill="#000000" stroke="none" font-family="Arial" font-size="13px" font-style="normal" font-weight="bold" text-decoration="none" x="1795.02001953125" y="383.5">ReadLockView</text></g></g><g transform="translate(-1602,-242) scale(1,1)"><rect fill="#C0C0C0" stroke="none" x="1923" y="371" width="101.46630859375" height="44" opacity="0.2"/></g><g transform="translate(-1602,-242) scale(1,1)"><rect fill="#ffffff" stroke="none" x="1916" y="364" width="101.46630859375" height="44"/></g><g transform="translate(-1602,-242) scale(1,1)"><path fill="none" stroke="#000000" d="M 1916 364 L 2017.46630859375 364 L 2017.46630859375 408 L 1916 408 L 1916 364 Z Z" stroke-miterlimit="10"/></g><g transform="translate(-1602,-242) scale(1,1)"><path fill="none" stroke="#000000" d="M 1916 389 L 2017.46630859375 389" stroke-miterlimit="10"/></g><g transform="translate(-1602,-242) scale(1,1)"><path fill="none" stroke="#000000" d="M 1916 399 L 2017.46630859375 399" stroke-miterlimit="10"/></g><g transform="translate(-1602,-242) scale(1,1)"><g><path fill="none" stroke="none"/><text fill="#000000" stroke="none" font-family="Arial" font-size="13px" font-style="normal" font-weight="bold" text-decoration="none" x="1923.75" y="383.5">WriteLockView</text></g></g><g transform="translate(-1602,-242) scale(1,1)"><path fill="none" stroke="#000000" d="M 1720 363 L 1841 297" stroke-miterlimit="10"/></g><g transform="translate(-1602,-242) scale(1,1)"><path fill="#000000" stroke="none" d="M 1834.0939692801294 305.56193551109817 L 1841 297 L 1830.0624961869175 298.1709015068763 L 1821.6862973958835 307.5347468749726"/></g><g transform="translate(-1602,-242) scale(1,1)"><path fill="none" stroke="#000000" d="M 1834.0939692801294 305.56193551109817 L 1841 297 L 1830.0624961869175 298.1709015068763 L 1821.6862973958835 307.5347468749726 L 1834.0939692801294 305.56193551109817" stroke-miterlimit="10"/></g><g transform="translate(-1602,-242) scale(1,1)"><path fill="none" stroke="#000000" d="M 1726.9060307198706 354.43806448890183 L 1720 363 L 1730.9375038130825 361.8290984931237" stroke-miterlimit="10"/></g><g transform="translate(-1602,-242) scale(1,1)"><path fill="none" stroke="#000000" d="M 1847 363 L 1874 297" stroke-miterlimit="10"/></g><g transform="translate(-1602,-242) scale(1,1)"><path fill="#000000" stroke="none" d="M 1874.0481838447 307.9998944684533 L 1874 297 L 1866.255971152351 304.81217109431066 L 1865.6700773941488 317.3620330365249"/></g><g transform="translate(-1602,-242) scale(1,1)"><path fill="none" stroke="#000000" d="M 1874.0481838447 307.9998944684533 L 1874 297 L 1866.255971152351 304.81217109431066 L 1865.6700773941488 317.3620330365249 L 1874.0481838447 307.9998944684533" stroke-miterlimit="10"/></g><g transform="translate(-1602,-242) scale(1,1)"><path fill="none" stroke="#000000" d="M 1846.9518161553 352.0001055315467 L 1847 363 L 1854.744028847649 355.18782890568934" stroke-miterlimit="10"/></g><g transform="translate(-1602,-242) scale(1,1)"><path fill="none" stroke="#000000" d="M 1949 363 L 1900 297" stroke-miterlimit="10"/></g><g transform="translate(-1602,-242) scale(1,1)"><path fill="#000000" stroke="none" d="M 1909.4378352157412 302.65042179315094 L 1900 297 L 1902.6781057142705 307.66900884727306 L 1913.114199961848 314.66402443840764"/></g><g transform="translate(-1602,-242) scale(1,1)"><path fill="none" stroke="#000000" d="M 1909.4378352157412 302.65042179315094 L 1900 297 L 1902.6781057142705 307.66900884727306 L 1913.114199961848 314.66402443840764 L 1909.4378352157412 302.65042179315094" stroke-miterlimit="10"/></g><g transform="translate(-1602,-242) scale(1,1)"><path fill="none" stroke="#000000" d="M 1939.5621647842588 357.34957820684906 L 1949 363 L 1946.3218942857295 352.33099115272694" stroke-miterlimit="10"/></g><g transform="translate(-1602,-242) scale(1,1)"><rect fill="#C0C0C0" stroke="none" x="1631" y="503" width="103.630859375" height="48" opacity="0.2"/></g><g transform="translate(-1602,-242) scale(1,1)"><rect fill="#ffffff" stroke="none" x="1624" y="496" width="103.630859375" height="48"/></g><g transform="translate(-1602,-242) scale(1,1)"><path fill="none" stroke="#000000" d="M 1624 496 L 1727.630859375 496 L 1727.630859375 544 L 1624 544 L 1624 496 Z Z" stroke-miterlimit="10"/></g><g transform="translate(-1602,-242) scale(1,1)"><g><path fill="none" stroke="none"/><text fill="#000000" stroke="none" font-family="Arial" font-size="13px" font-style="normal" font-weight="normal" text-decoration="none" x="1643.655029296875" y="513.5">«interface»</text></g></g><g transform="translate(-1602,-242) scale(1,1)"><g><path fill="none" stroke="none"/><text fill="#000000" stroke="none" font-family="Arial" font-size="13px" font-style="normal" font-weight="bold" text-decoration="none" x="1631.3818359375" y="528.5">ReadWriteLock</text></g></g><g transform="translate(-1602,-242) scale(1,1)"><rect fill="#C0C0C0" stroke="none" x="1847" y="503" width="107.32080078125" height="48" opacity="0.2"/></g><g transform="translate(-1602,-242) scale(1,1)"><rect fill="#ffffff" stroke="none" x="1840" y="496" width="107.32080078125" height="48"/></g><g transform="translate(-1602,-242) scale(1,1)"><path fill="none" stroke="#000000" d="M 1840 496 L 1947.32080078125 496 L 1947.32080078125 544 L 1840 544 L 1840 496 Z Z" stroke-miterlimit="10"/></g><g transform="translate(-1602,-242) scale(1,1)"><g><path fill="none" stroke="none"/><text fill="#000000" stroke="none" font-family="Arial" font-size="13px" font-style="normal" font-weight="normal" text-decoration="none" x="1861.5" y="513.5">«interface»</text></g></g><g transform="translate(-1602,-242) scale(1,1)"><g><path fill="none" stroke="none"/><text fill="#000000" stroke="none" font-family="Arial" font-size="13px" font-style="normal" font-weight="bold" text-decoration="none" x="1879.930419921875" y="528.5">Lock</text></g></g><g transform="translate(-1602,-242) scale(1,1)"><path fill="none" stroke="#000000" d="M 1847 409 L 1883 495" stroke-miterlimit="10" stroke-dasharray="3"/></g><g transform="translate(-1602,-242) scale(1,1)"><path fill="#FFFFFF" stroke="none" d="M 1867.3855448821964 479.5019745975786 L 1883 495 L 1882.9176717587216 473.0001540446146"/></g><g transform="translate(-1602,-242) scale(1,1)"><path fill="none" stroke="#000000" d="M 1867.3855448821964 479.5019745975786 L 1883 495 L 1882.9176717587216 473.0001540446146 L 1867.3855448821964 479.5019745975786" stroke-miterlimit="10"/></g><g transform="translate(-1602,-242) scale(1,1)"><path fill="none" stroke="#000000" d="M 1953 409 L 1907 495" stroke-miterlimit="10" stroke-dasharray="3"/></g><g transform="translate(-1602,-242) scale(1,1)"><path fill="#FFFFFF" stroke="none" d="M 1909.1627207176741 473.10656173422404 L 1907 495 L 1924.0102731464992 481.04827582406074"/></g><g transform="translate(-1602,-242) scale(1,1)"><path fill="none" stroke="#000000" d="M 1909.1627207176741 473.10656173422404 L 1907 495 L 1924.0102731464992 481.04827582406074 L 1909.1627207176741 473.10656173422404" stroke-miterlimit="10"/></g><g transform="translate(-1602,-242) scale(1,1)"><rect fill="#C0C0C0" stroke="none" x="2055" y="367" width="53.77001953125" height="44" opacity="0.2"/></g><g transform="translate(-1602,-242) scale(1,1)"><rect fill="#ffffff" stroke="none" x="2048" y="360" width="53.77001953125" height="44"/></g><g transform="translate(-1602,-242) scale(1,1)"><path fill="none" stroke="#000000" d="M 2048 360 L 2101.77001953125 360 L 2101.77001953125 404 L 2048 404 L 2048 360 Z Z" stroke-miterlimit="10"/></g><g transform="translate(-1602,-242) scale(1,1)"><path fill="none" stroke="#000000" d="M 2048 385 L 2101.77001953125 385" stroke-miterlimit="10"/></g><g transform="translate(-1602,-242) scale(1,1)"><path fill="none" stroke="#000000" d="M 2048 395 L 2101.77001953125 395" stroke-miterlimit="10"/></g><g transform="translate(-1602,-242) scale(1,1)"><g><path fill="none" stroke="none"/><text fill="#000000" stroke="none" font-family="Arial" font-size="13px" font-style="normal" font-weight="bold" text-decoration="none" x="2053.2109375" y="379.5">WNode</text></g></g><g transform="translate(-1602,-242) scale(1,1)"><path fill="none" stroke="#000000" d="M 2047 367 L 1924 297" stroke-miterlimit="10"/></g><g transform="translate(-1602,-242) scale(1,1)"><path fill="#000000" stroke="none" d="M 1934.914593229274 298.36808429546005 L 1924 297 L 1930.750401203758 305.6851645688671 L 1943.1204521925224 307.881558158346"/></g><g transform="translate(-1602,-242) scale(1,1)"><path fill="none" stroke="#000000" d="M 1934.914593229274 298.36808429546005 L 1924 297 L 1930.750401203758 305.6851645688671 L 1943.1204521925224 307.881558158346 L 1934.914593229274 298.36808429546005" stroke-miterlimit="10"/></g><g transform="translate(-1602,-242) scale(1,1)"><path fill="none" stroke="#000000" d="M 2036.085406770726 365.63191570453995 L 2047 367 L 2040.249598796242 358.3148354311329" stroke-miterlimit="10"/></g></g></svg>