<svg version="1.1" xmlns="http://www.w3.org/2000/svg" xmlns:xlink="http://www.w3.org/1999/xlink" width="1100.34814453125" height="888"><defs/><g><g transform="translate(-38,-110) scale(1,1)"><rect fill="#C0C0C0" stroke="none" x="616" y="127" width="73.32080078125" height="48" opacity="0.2"/></g><g transform="translate(-38,-110) scale(1,1)"><rect fill="#ffffff" stroke="none" x="609" y="120" width="73.32080078125" height="48"/></g><g transform="translate(-38,-110) scale(1,1)"><path fill="none" stroke="#000000" d="M 609 120 L 682.32080078125 120 L 682.32080078125 168 L 609 168 L 609 120 Z Z" stroke-miterlimit="10"/></g><g transform="translate(-38,-110) scale(1,1)"><g><path fill="none" stroke="none"/><text fill="#000000" stroke="none" font-family="Arial" font-size="13px" font-style="normal" font-weight="normal" text-decoration="none" x="613.5" y="137.5">«interface»</text></g></g><g transform="translate(-38,-110) scale(1,1)"><g><path fill="none" stroke="none"/><text fill="#000000" stroke="none" font-family="Arial" font-size="13px" font-style="normal" font-weight="bold" text-decoration="none" x="620.009521484375" y="152.5">Executor</text></g></g><g transform="translate(-38,-110) scale(1,1)"><rect fill="#C0C0C0" stroke="none" x="600" y="271" width="110.892578125" height="48" opacity="0.2"/></g><g transform="translate(-38,-110) scale(1,1)"><rect fill="#ffffff" stroke="none" x="593" y="264" width="110.892578125" height="48"/></g><g transform="translate(-38,-110) scale(1,1)"><path fill="none" stroke="#000000" d="M 593 264 L 703.892578125 264 L 703.892578125 312 L 593 312 L 593 264 Z Z" stroke-miterlimit="10"/></g><g transform="translate(-38,-110) scale(1,1)"><g><path fill="none" stroke="none"/><text fill="#000000" stroke="none" font-family="Arial" font-size="13px" font-style="normal" font-weight="normal" text-decoration="none" x="616.285888671875" y="281.5">«interface»</text></g></g><g transform="translate(-38,-110) scale(1,1)"><g><path fill="none" stroke="none"/><text fill="#000000" stroke="none" font-family="Arial" font-size="13px" font-style="normal" font-weight="bold" text-decoration="none" x="601.121337890625" y="296.5">ExecutorService</text></g></g><g transform="translate(-38,-110) scale(1,1)"><rect fill="#C0C0C0" stroke="none" x="576" y="407" width="163.62890625" height="44" opacity="0.2"/></g><g transform="translate(-38,-110) scale(1,1)"><rect fill="#ffffff" stroke="none" x="569" y="400" width="163.62890625" height="44"/></g><g transform="translate(-38,-110) scale(1,1)"><path fill="none" stroke="#000000" d="M 569 400 L 732.62890625 400 L 732.62890625 444 L 569 444 L 569 400 Z Z" stroke-miterlimit="10"/></g><g transform="translate(-38,-110) scale(1,1)"><path fill="none" stroke="#000000" d="M 569 425 L 732.62890625 425" stroke-miterlimit="10"/></g><g transform="translate(-38,-110) scale(1,1)"><path fill="none" stroke="#000000" d="M 569 435 L 732.62890625 435" stroke-miterlimit="10"/></g><g transform="translate(-38,-110) scale(1,1)"><g><path fill="none" stroke="none"/><text fill="#000000" stroke="none" font-family="Arial" font-size="13px" font-style="normal" font-weight="bold" text-decoration="none" x="579.647705078125" y="419.5">AbstractExecutorService</text></g></g><g transform="translate(-38,-110) scale(1,1)"><rect fill="#C0C0C0" stroke="none" x="551" y="527" width="217.84423828125" height="117" opacity="0.2"/></g><g transform="translate(-38,-110) scale(1,1)"><rect fill="#ffffff" stroke="none" x="544" y="520" width="217.84423828125" height="117"/></g><g transform="translate(-38,-110) scale(1,1)"><path fill="none" stroke="#000000" d="M 544 520 L 761.84423828125 520 L 761.84423828125 637 L 544 637 L 544 520 Z Z" stroke-miterlimit="10"/></g><g transform="translate(-38,-110) scale(1,1)"><path fill="none" stroke="#000000" d="M 544 545 L 761.84423828125 545" stroke-miterlimit="10"/></g><g transform="translate(-38,-110) scale(1,1)"><path fill="none" stroke="#000000" d="M 544 628 L 761.84423828125 628" stroke-miterlimit="10"/></g><g transform="translate(-38,-110) scale(1,1)"><g><path fill="none" stroke="none"/><text fill="#000000" stroke="none" font-family="Arial" font-size="13px" font-style="normal" font-weight="bold" text-decoration="none" x="593.666748046875" y="539.5">ThreadPoolExecutor</text></g></g><g transform="translate(-38,-110) scale(1,1)"><g><path fill="none" stroke="none"/><text fill="#000000" stroke="none" font-family="Arial" font-size="13px" font-style="normal" font-weight="normal" text-decoration="none" x="549" y="562.5">-workQueue: BlockingQueue</text></g></g><g transform="translate(-38,-110) scale(1,1)"><g><path fill="none" stroke="none"/><text fill="#000000" stroke="none" font-family="Arial" font-size="13px" font-style="normal" font-weight="normal" text-decoration="none" x="549" y="577.5">-Attribute1: ReentrantLock</text></g></g><g transform="translate(-38,-110) scale(1,1)"><g><path fill="none" stroke="none"/><text fill="#000000" stroke="none" font-family="Arial" font-size="13px" font-style="normal" font-weight="normal" text-decoration="none" x="549" y="592.5">-workers: HashSet&lt;Worker&gt;</text></g></g><g transform="translate(-38,-110) scale(1,1)"><g><path fill="none" stroke="none"/><text fill="#000000" stroke="none" font-family="Arial" font-size="13px" font-style="normal" font-weight="normal" text-decoration="none" x="549" y="607.5">-termination: Condition</text></g></g><g transform="translate(-38,-110) scale(1,1)"><g><path fill="none" stroke="none"/><text fill="#000000" stroke="none" font-family="Arial" font-size="13px" font-style="normal" font-weight="normal" text-decoration="none" x="549" y="622.5">-handler: RejectedExecutionHandler</text></g></g><g transform="translate(-38,-110) scale(1,1)"><path fill="none" stroke="#000000" d="M 651 519 L 650 445" stroke-miterlimit="10"/></g><g transform="translate(-38,-110) scale(1,1)"><path fill="#FFFFFF" stroke="none" d="M 658.692908708341 465.2097337485789 L 650 445 L 641.8563749163087 465.43725447549826"/></g><g transform="translate(-38,-110) scale(1,1)"><path fill="none" stroke="#000000" d="M 658.692908708341 465.2097337485789 L 650 445 L 641.8563749163087 465.43725447549826 L 658.692908708341 465.2097337485789" stroke-miterlimit="10"/></g><g transform="translate(-38,-110) scale(1,1)"><path fill="none" stroke="#000000" d="M 647 263 L 646 169" stroke-miterlimit="10"/></g><g transform="translate(-38,-110) scale(1,1)"><path fill="#FFFFFF" stroke="none" d="M 654.6347740371973 189.2346405287206 L 646 169 L 637.7976557429853 189.41375880844626"/></g><g transform="translate(-38,-110) scale(1,1)"><path fill="none" stroke="#000000" d="M 654.6347740371973 189.2346405287206 L 646 169 L 637.7976557429853 189.41375880844626 L 654.6347740371973 189.2346405287206" stroke-miterlimit="10"/></g><g transform="translate(-38,-110) scale(1,1)"><path fill="none" stroke="#000000" d="M 650 399 L 648 313" stroke-miterlimit="10" stroke-dasharray="3"/></g><g transform="translate(-38,-110) scale(1,1)"><path fill="#FFFFFF" stroke="none" d="M 656.8893145716651 333.124117035189 L 648 313 L 640.055794992751 333.5155942346986"/></g><g transform="translate(-38,-110) scale(1,1)"><path fill="none" stroke="#000000" d="M 656.8893145716651 333.124117035189 L 648 313 L 640.055794992751 333.5155942346986 L 656.8893145716651 333.124117035189" stroke-miterlimit="10"/></g><g transform="translate(-38,-110) scale(1,1)"><rect fill="#C0C0C0" stroke="none" x="287" y="799" width="53.7890625" height="44" opacity="0.2"/></g><g transform="translate(-38,-110) scale(1,1)"><rect fill="#ffffff" stroke="none" x="280" y="792" width="53.7890625" height="44"/></g><g transform="translate(-38,-110) scale(1,1)"><path fill="none" stroke="#000000" d="M 280 792 L 333.7890625 792 L 333.7890625 836 L 280 836 L 280 792 Z Z" stroke-miterlimit="10"/></g><g transform="translate(-38,-110) scale(1,1)"><path fill="none" stroke="#000000" d="M 280 817 L 333.7890625 817" stroke-miterlimit="10"/></g><g transform="translate(-38,-110) scale(1,1)"><path fill="none" stroke="#000000" d="M 280 827 L 333.7890625 827" stroke-miterlimit="10"/></g><g transform="translate(-38,-110) scale(1,1)"><g><path fill="none" stroke="none"/><text fill="#000000" stroke="none" font-family="Arial" font-size="13px" font-style="normal" font-weight="bold" text-decoration="none" x="285.950439453125" y="811.5">Worker</text></g></g><g transform="translate(-38,-110) scale(1,1)"><rect fill="#C0C0C0" stroke="none" x="223" y="951" width="115.92626953125" height="44" opacity="0.2"/></g><g transform="translate(-38,-110) scale(1,1)"><rect fill="#ffffff" stroke="none" x="216" y="944" width="115.92626953125" height="44"/></g><g transform="translate(-38,-110) scale(1,1)"><path fill="none" stroke="#000000" d="M 216 944 L 331.92626953125 944 L 331.92626953125 988 L 216 988 L 216 944 Z Z" stroke-miterlimit="10"/></g><g transform="translate(-38,-110) scale(1,1)"><path fill="none" stroke="#000000" d="M 216 969 L 331.92626953125 969" stroke-miterlimit="10"/></g><g transform="translate(-38,-110) scale(1,1)"><path fill="none" stroke="#000000" d="M 216 979 L 331.92626953125 979" stroke-miterlimit="10"/></g><g transform="translate(-38,-110) scale(1,1)"><g><path fill="none" stroke="none"/><text fill="#000000" stroke="none" font-family="Arial" font-size="13px" font-style="normal" font-weight="bold" text-decoration="none" x="224.4736328125" y="963.5">CallerRunsPolicy</text></g></g><g transform="translate(-38,-110) scale(1,1)"><rect fill="#C0C0C0" stroke="none" x="407" y="951" width="81.95361328125" height="44" opacity="0.2"/></g><g transform="translate(-38,-110) scale(1,1)"><rect fill="#ffffff" stroke="none" x="400" y="944" width="81.95361328125" height="44"/></g><g transform="translate(-38,-110) scale(1,1)"><path fill="none" stroke="#000000" d="M 400 944 L 481.95361328125 944 L 481.95361328125 988 L 400 988 L 400 944 Z Z" stroke-miterlimit="10"/></g><g transform="translate(-38,-110) scale(1,1)"><path fill="none" stroke="#000000" d="M 400 969 L 481.95361328125 969" stroke-miterlimit="10"/></g><g transform="translate(-38,-110) scale(1,1)"><path fill="none" stroke="#000000" d="M 400 979 L 481.95361328125 979" stroke-miterlimit="10"/></g><g transform="translate(-38,-110) scale(1,1)"><g><path fill="none" stroke="none"/><text fill="#000000" stroke="none" font-family="Arial" font-size="13px" font-style="normal" font-weight="bold" text-decoration="none" x="408.102294921875" y="963.5">AbortPolicy</text></g></g><g transform="translate(-38,-110) scale(1,1)"><rect fill="#C0C0C0" stroke="none" x="567" y="951" width="94.9853515625" height="44" opacity="0.2"/></g><g transform="translate(-38,-110) scale(1,1)"><rect fill="#ffffff" stroke="none" x="560" y="944" width="94.9853515625" height="44"/></g><g transform="translate(-38,-110) scale(1,1)"><path fill="none" stroke="#000000" d="M 560 944 L 654.9853515625 944 L 654.9853515625 988 L 560 988 L 560 944 Z Z" stroke-miterlimit="10"/></g><g transform="translate(-38,-110) scale(1,1)"><path fill="none" stroke="#000000" d="M 560 969 L 654.9853515625 969" stroke-miterlimit="10"/></g><g transform="translate(-38,-110) scale(1,1)"><path fill="none" stroke="#000000" d="M 560 979 L 654.9853515625 979" stroke-miterlimit="10"/></g><g transform="translate(-38,-110) scale(1,1)"><g><path fill="none" stroke="none"/><text fill="#000000" stroke="none" font-family="Arial" font-size="13px" font-style="normal" font-weight="bold" text-decoration="none" x="568.121337890625" y="963.5">DiscardPolicy</text></g></g><g transform="translate(-38,-110) scale(1,1)"><rect fill="#C0C0C0" stroke="none" x="727" y="951" width="135.43896484375" height="44" opacity="0.2"/></g><g transform="translate(-38,-110) scale(1,1)"><rect fill="#ffffff" stroke="none" x="720" y="944" width="135.43896484375" height="44"/></g><g transform="translate(-38,-110) scale(1,1)"><path fill="none" stroke="#000000" d="M 720 944 L 855.43896484375 944 L 855.43896484375 988 L 720 988 L 720 944 Z Z" stroke-miterlimit="10"/></g><g transform="translate(-38,-110) scale(1,1)"><path fill="none" stroke="#000000" d="M 720 969 L 855.43896484375 969" stroke-miterlimit="10"/></g><g transform="translate(-38,-110) scale(1,1)"><path fill="none" stroke="#000000" d="M 720 979 L 855.43896484375 979" stroke-miterlimit="10"/></g><g transform="translate(-38,-110) scale(1,1)"><g><path fill="none" stroke="none"/><text fill="#000000" stroke="none" font-family="Arial" font-size="13px" font-style="normal" font-weight="bold" text-decoration="none" x="729.562255859375" y="963.5">DiscardOldestPolicy</text></g></g><g transform="translate(-38,-110) scale(1,1)"><rect fill="#C0C0C0" stroke="none" x="215" y="527" width="192.4853515625" height="44" opacity="0.2"/></g><g transform="translate(-38,-110) scale(1,1)"><rect fill="#ffffff" stroke="none" x="208" y="520" width="192.4853515625" height="44"/></g><g transform="translate(-38,-110) scale(1,1)"><path fill="none" stroke="#000000" d="M 208 520 L 400.4853515625 520 L 400.4853515625 564 L 208 564 L 208 520 Z Z" stroke-miterlimit="10"/></g><g transform="translate(-38,-110) scale(1,1)"><path fill="none" stroke="#000000" d="M 208 545 L 400.4853515625 545" stroke-miterlimit="10"/></g><g transform="translate(-38,-110) scale(1,1)"><path fill="none" stroke="#000000" d="M 208 555 L 400.4853515625 555" stroke-miterlimit="10"/></g><g transform="translate(-38,-110) scale(1,1)"><g><path fill="none" stroke="none"/><text fill="#000000" stroke="none" font-family="Arial" font-size="13px" font-style="italic" font-weight="bold" text-decoration="none" x="219.33642578125" y="539.5">AbstractQueuedSynchronizer</text></g></g><g transform="translate(-38,-110) scale(1,1)"><path fill="none" stroke="#000000" d="M 306 791 L 304 565" stroke-miterlimit="10"/></g><g transform="translate(-38,-110) scale(1,1)"><path fill="#FFFFFF" stroke="none" d="M 312.59856917303966 585.2500520536727 L 304 565 L 295.7611574442255 585.3990556972905"/></g><g transform="translate(-38,-110) scale(1,1)"><path fill="none" stroke="#000000" d="M 312.59856917303966 585.2500520536727 L 304 565 L 295.7611574442255 585.3990556972905 L 312.59856917303966 585.2500520536727" stroke-miterlimit="10"/></g><g transform="translate(-38,-110) scale(1,1)"><rect fill="#C0C0C0" stroke="none" x="55" y="799" width="73.32080078125" height="48" opacity="0.2"/></g><g transform="translate(-38,-110) scale(1,1)"><rect fill="#ffffff" stroke="none" x="48" y="792" width="73.32080078125" height="48"/></g><g transform="translate(-38,-110) scale(1,1)"><path fill="none" stroke="#000000" d="M 48 792 L 121.32080078125 792 L 121.32080078125 840 L 48 840 L 48 792 Z Z" stroke-miterlimit="10"/></g><g transform="translate(-38,-110) scale(1,1)"><g><path fill="none" stroke="none"/><text fill="#000000" stroke="none" font-family="Arial" font-size="13px" font-style="normal" font-weight="normal" text-decoration="none" x="52.5" y="809.5">«interface»</text></g></g><g transform="translate(-38,-110) scale(1,1)"><g><path fill="none" stroke="none"/><text fill="#000000" stroke="none" font-family="Arial" font-size="13px" font-style="normal" font-weight="bold" text-decoration="none" x="56.832275390625" y="824.5">Runnable</text></g></g><g transform="translate(-38,-110) scale(1,1)"><path fill="none" stroke="#000000" d="M 279 814 L 122 816" stroke-miterlimit="10" stroke-dasharray="3"/></g><g transform="translate(-38,-110) scale(1,1)"><path fill="#FFFFFF" stroke="none" d="M 142.2164605744429 807.3227468723105 L 122 816 L 142.43094089244045 824.1594518351177"/></g><g transform="translate(-38,-110) scale(1,1)"><path fill="none" stroke="#000000" d="M 142.2164605744429 807.3227468723105 L 122 816 L 142.43094089244045 824.1594518351177 L 142.2164605744429 807.3227468723105" stroke-miterlimit="10"/></g><g transform="translate(-38,-110) scale(1,1)"><rect fill="#C0C0C0" stroke="none" x="423" y="799" width="173.71533203125" height="48" opacity="0.2"/></g><g transform="translate(-38,-110) scale(1,1)"><rect fill="#ffffff" stroke="none" x="416" y="792" width="173.71533203125" height="48"/></g><g transform="translate(-38,-110) scale(1,1)"><path fill="none" stroke="#000000" d="M 416 792 L 589.71533203125 792 L 589.71533203125 840 L 416 840 L 416 792 Z Z" stroke-miterlimit="10"/></g><g transform="translate(-38,-110) scale(1,1)"><g><path fill="none" stroke="none"/><text fill="#000000" stroke="none" font-family="Arial" font-size="13px" font-style="normal" font-weight="normal" text-decoration="none" x="470.697265625" y="809.5">«interface»</text></g></g><g transform="translate(-38,-110) scale(1,1)"><g><path fill="none" stroke="none"/><text fill="#000000" stroke="none" font-family="Arial" font-size="13px" font-style="normal" font-weight="bold" text-decoration="none" x="425.8955078125" y="824.5">RejectedExecutionHandler</text></g></g><g transform="translate(-38,-110) scale(1,1)"><path fill="none" stroke="#000000" d="M 308 943 L 464 841" stroke-miterlimit="10" stroke-dasharray="3"/></g><g transform="translate(-38,-110) scale(1,1)"><path fill="#FFFFFF" stroke="none" d="M 451.5956117158396 859.1695115866053 L 464 841 L 442.38098807406305 845.0765577815354"/></g><g transform="translate(-38,-110) scale(1,1)"><path fill="none" stroke="#000000" d="M 451.5956117158396 859.1695115866053 L 464 841 L 442.38098807406305 845.0765577815354 L 451.5956117158396 859.1695115866053" stroke-miterlimit="10"/></g><g transform="translate(-38,-110) scale(1,1)"><path fill="none" stroke="#000000" d="M 450 943 L 492 841" stroke-miterlimit="10" stroke-dasharray="3"/></g><g transform="translate(-38,-110) scale(1,1)"><path fill="#FFFFFF" stroke="none" d="M 492.04602480245063 862.9999518571645 L 492 841 L 476.47622930593695 856.5888595938942"/></g><g transform="translate(-38,-110) scale(1,1)"><path fill="none" stroke="#000000" d="M 492.04602480245063 862.9999518571645 L 492 841 L 476.47622930593695 856.5888595938942 L 492.04602480245063 862.9999518571645" stroke-miterlimit="10"/></g><g transform="translate(-38,-110) scale(1,1)"><path fill="none" stroke="#000000" d="M 591 943 L 520 841" stroke-miterlimit="10" stroke-dasharray="3"/></g><g transform="translate(-38,-110) scale(1,1)"><path fill="#FFFFFF" stroke="none" d="M 538.5217257924731 852.8720543154265 L 520 841 L 524.7020277940825 862.4916480201886"/></g><g transform="translate(-38,-110) scale(1,1)"><path fill="none" stroke="#000000" d="M 538.5217257924731 852.8720543154265 L 520 841 L 524.7020277940825 862.4916480201886 L 538.5217257924731 852.8720543154265" stroke-miterlimit="10"/></g><g transform="translate(-38,-110) scale(1,1)"><path fill="none" stroke="#000000" d="M 743 943 L 550 841" stroke-miterlimit="10" stroke-dasharray="3"/></g><g transform="translate(-38,-110) scale(1,1)"><path fill="#FFFFFF" stroke="none" d="M 571.9039346691092 843.0536908266338 L 550 841 L 564.0362420292208 857.9405994491675"/></g><g transform="translate(-38,-110) scale(1,1)"><path fill="none" stroke="#000000" d="M 571.9039346691092 843.0536908266338 L 550 841 L 564.0362420292208 857.9405994491675 L 571.9039346691092 843.0536908266338" stroke-miterlimit="10"/></g><g transform="translate(-38,-110) scale(1,1)"><rect fill="#C0C0C0" stroke="none" x="679" y="799" width="100.01904296875" height="44" opacity="0.2"/></g><g transform="translate(-38,-110) scale(1,1)"><rect fill="#ffffff" stroke="none" x="672" y="792" width="100.01904296875" height="44"/></g><g transform="translate(-38,-110) scale(1,1)"><path fill="none" stroke="#000000" d="M 672 792 L 772.01904296875 792 L 772.01904296875 836 L 672 836 L 672 792 Z Z" stroke-miterlimit="10"/></g><g transform="translate(-38,-110) scale(1,1)"><path fill="none" stroke="#000000" d="M 672 817 L 772.01904296875 817" stroke-miterlimit="10"/></g><g transform="translate(-38,-110) scale(1,1)"><path fill="none" stroke="#000000" d="M 672 827 L 772.01904296875 827" stroke-miterlimit="10"/></g><g transform="translate(-38,-110) scale(1,1)"><g><path fill="none" stroke="none"/><text fill="#000000" stroke="none" font-family="Arial" font-size="13px" font-style="normal" font-weight="bold" text-decoration="none" x="679.734130859375" y="811.5">ReentrantLock</text></g></g><g transform="translate(-38,-110) scale(1,1)"><rect fill="#C0C0C0" stroke="none" x="879" y="799" width="73.32080078125" height="48" opacity="0.2"/></g><g transform="translate(-38,-110) scale(1,1)"><rect fill="#ffffff" stroke="none" x="872" y="792" width="73.32080078125" height="48"/></g><g transform="translate(-38,-110) scale(1,1)"><path fill="none" stroke="#000000" d="M 872 792 L 945.32080078125 792 L 945.32080078125 840 L 872 840 L 872 792 Z Z" stroke-miterlimit="10"/></g><g transform="translate(-38,-110) scale(1,1)"><g><path fill="none" stroke="none"/><text fill="#000000" stroke="none" font-family="Arial" font-size="13px" font-style="normal" font-weight="normal" text-decoration="none" x="876.5" y="809.5">«interface»</text></g></g><g transform="translate(-38,-110) scale(1,1)"><g><path fill="none" stroke="none"/><text fill="#000000" stroke="none" font-family="Arial" font-size="13px" font-style="normal" font-weight="bold" text-decoration="none" x="881.197265625" y="824.5">Condition</text></g></g><g transform="translate(-38,-110) scale(1,1)"><rect fill="#C0C0C0" stroke="none" x="1031" y="799" width="104.34814453125" height="48" opacity="0.2"/></g><g transform="translate(-38,-110) scale(1,1)"><rect fill="#ffffff" stroke="none" x="1024" y="792" width="104.34814453125" height="48"/></g><g transform="translate(-38,-110) scale(1,1)"><path fill="none" stroke="#000000" d="M 1024 792 L 1128.34814453125 792 L 1128.34814453125 840 L 1024 840 L 1024 792 Z Z" stroke-miterlimit="10"/></g><g transform="translate(-38,-110) scale(1,1)"><g><path fill="none" stroke="none"/><text fill="#000000" stroke="none" font-family="Arial" font-size="13px" font-style="normal" font-weight="normal" text-decoration="none" x="1044.013671875" y="809.5">«interface»</text></g></g><g transform="translate(-38,-110) scale(1,1)"><g><path fill="none" stroke="none"/><text fill="#000000" stroke="none" font-family="Arial" font-size="13px" font-style="normal" font-weight="bold" text-decoration="none" x="1032.089599609375" y="824.5">BlockingQueue</text></g></g><g transform="translate(-38,-110) scale(1,1)"><path fill="none" stroke="#000000" d="M 335 794 L 564 638" stroke-miterlimit="10"/></g><g transform="translate(-38,-110) scale(1,1)"><path fill="#000000" stroke="none" d="M 557.9709549386542 647.2005769193166 L 564 638 L 553.2310310225658 640.2426116835203 L 545.8179606240225 650.3860180901855"/></g><g transform="translate(-38,-110) scale(1,1)"><path fill="none" stroke="#000000" d="M 557.9709549386542 647.2005769193166 L 564 638 L 553.2310310225658 640.2426116835203 L 545.8179606240225 650.3860180901855 L 557.9709549386542 647.2005769193166" stroke-miterlimit="10"/></g><g transform="translate(-38,-110) scale(1,1)"><path fill="none" stroke="#000000" d="M 341.0290450613458 784.7994230806834 L 335 794 L 345.7689689774341 791.7573883164797" stroke-miterlimit="10"/></g><g transform="translate(-38,-110) scale(1,1)"><path fill="none" stroke="#000000" d="M 518 791 L 614 638" stroke-miterlimit="10"/></g><g transform="translate(-38,-110) scale(1,1)"><path fill="#000000" stroke="none" d="M 612.164359559459 648.8457560443268 L 614 638 L 605.0328985506347 644.3711138427116 L 602.3071964365934 656.6354056791793"/></g><g transform="translate(-38,-110) scale(1,1)"><path fill="none" stroke="#000000" d="M 612.164359559459 648.8457560443268 L 614 638 L 605.0328985506347 644.3711138427116 L 602.3071964365934 656.6354056791793 L 612.164359559459 648.8457560443268" stroke-miterlimit="10"/></g><g transform="translate(-38,-110) scale(1,1)"><path fill="none" stroke="#000000" d="M 519.835640440541 780.1542439556732 L 518 791 L 526.9671014493653 784.6288861572884" stroke-miterlimit="10"/></g><g transform="translate(-38,-110) scale(1,1)"><path fill="none" stroke="#000000" d="M 715 791 L 670 638" stroke-miterlimit="10"/></g><g transform="translate(-38,-110) scale(1,1)"><path fill="#000000" stroke="none" d="M 676.9060307198706 646.5619355110981 L 670 638 L 668.8290984931238 648.9375038130826 L 676.207659127814 659.106041034568"/></g><g transform="translate(-38,-110) scale(1,1)"><path fill="none" stroke="#000000" d="M 676.9060307198706 646.5619355110981 L 670 638 L 668.8290984931238 648.9375038130826 L 676.207659127814 659.106041034568 L 676.9060307198706 646.5619355110981" stroke-miterlimit="10"/></g><g transform="translate(-38,-110) scale(1,1)"><path fill="none" stroke="#000000" d="M 708.0939692801294 782.4380644889019 L 715 791 L 716.1709015068762 780.0624961869174" stroke-miterlimit="10"/></g><g transform="translate(-38,-110) scale(1,1)"><path fill="none" stroke="#000000" d="M 881 791 L 717 638" stroke-miterlimit="10"/></g><g transform="translate(-38,-110) scale(1,1)"><path fill="#000000" stroke="none" d="M 727.3025456088999 641.8545497761135 L 717 638 L 721.5594215784259 648.0105781486478 L 733.0864773645629 653.0075063218179"/></g><g transform="translate(-38,-110) scale(1,1)"><path fill="none" stroke="#000000" d="M 727.3025456088999 641.8545497761135 L 717 638 L 721.5594215784259 648.0105781486478 L 733.0864773645629 653.0075063218179 L 727.3025456088999 641.8545497761135" stroke-miterlimit="10"/></g><g transform="translate(-38,-110) scale(1,1)"><path fill="none" stroke="#000000" d="M 870.6974543911001 787.1454502238865 L 881 791 L 876.4405784215741 780.9894218513522" stroke-miterlimit="10"/></g><g transform="translate(-38,-110) scale(1,1)"><path fill="none" stroke="#000000" d="M 1031 791 L 759 638" stroke-miterlimit="10"/></g><g transform="translate(-38,-110) scale(1,1)"><path fill="#000000" stroke="none" d="M 769.9213021909756 639.3134528744465 L 759 638 L 765.7937754043362 646.6512782729164 L 778.1746618167401 648.7857472719163"/></g><g transform="translate(-38,-110) scale(1,1)"><path fill="none" stroke="#000000" d="M 769.9213021909756 639.3134528744465 L 759 638 L 765.7937754043362 646.6512782729164 L 778.1746618167401 648.7857472719163 L 769.9213021909756 639.3134528744465" stroke-miterlimit="10"/></g><g transform="translate(-38,-110) scale(1,1)"><path fill="none" stroke="#000000" d="M 1020.0786978090244 789.6865471255535 L 1031 791 L 1024.2062245956638 782.3487217270836" stroke-miterlimit="10"/></g></g></svg>