<svg version="1.1" xmlns="http://www.w3.org/2000/svg" xmlns:xlink="http://www.w3.org/1999/xlink" width="677.87353515625" height="464"><defs/><g><g transform="translate(-94,-150) scale(1,1)"><rect fill="#C0C0C0" stroke="none" x="319" y="167" width="73.32080078125" height="48" opacity="0.2"/></g><g transform="translate(-94,-150) scale(1,1)"><rect fill="#ffffff" stroke="none" x="312" y="160" width="73.32080078125" height="48"/></g><g transform="translate(-94,-150) scale(1,1)"><path fill="none" stroke="#000000" d="M 312 160 L 385.32080078125 160 L 385.32080078125 208 L 312 208 L 312 160 Z Z" stroke-miterlimit="10"/></g><g transform="translate(-94,-150) scale(1,1)"><g><path fill="none" stroke="none"/><text fill="#000000" stroke="none" font-family="Arial" font-size="13px" font-style="normal" font-weight="normal" text-decoration="none" x="316.5" y="177.5">«interface»</text></g></g><g transform="translate(-94,-150) scale(1,1)"><g><path fill="none" stroke="none"/><text fill="#000000" stroke="none" font-family="Arial" font-size="13px" font-style="normal" font-weight="bold" text-decoration="none" x="323.009521484375" y="192.5">Executor</text></g></g><g transform="translate(-94,-150) scale(1,1)"><rect fill="#C0C0C0" stroke="none" x="303" y="311" width="110.892578125" height="48" opacity="0.2"/></g><g transform="translate(-94,-150) scale(1,1)"><rect fill="#ffffff" stroke="none" x="296" y="304" width="110.892578125" height="48"/></g><g transform="translate(-94,-150) scale(1,1)"><path fill="none" stroke="#000000" d="M 296 304 L 406.892578125 304 L 406.892578125 352 L 296 352 L 296 304 Z Z" stroke-miterlimit="10"/></g><g transform="translate(-94,-150) scale(1,1)"><g><path fill="none" stroke="none"/><text fill="#000000" stroke="none" font-family="Arial" font-size="13px" font-style="normal" font-weight="normal" text-decoration="none" x="319.285888671875" y="321.5">«interface»</text></g></g><g transform="translate(-94,-150) scale(1,1)"><g><path fill="none" stroke="none"/><text fill="#000000" stroke="none" font-family="Arial" font-size="13px" font-style="normal" font-weight="bold" text-decoration="none" x="304.121337890625" y="336.5">ExecutorService</text></g></g><g transform="translate(-94,-150) scale(1,1)"><rect fill="#C0C0C0" stroke="none" x="575" y="447" width="176.62890625" height="48" opacity="0.2"/></g><g transform="translate(-94,-150) scale(1,1)"><rect fill="#ffffff" stroke="none" x="568" y="440" width="176.62890625" height="48"/></g><g transform="translate(-94,-150) scale(1,1)"><path fill="none" stroke="#000000" d="M 568 440 L 744.62890625 440 L 744.62890625 488 L 568 488 L 568 440 Z Z" stroke-miterlimit="10"/></g><g transform="translate(-94,-150) scale(1,1)"><g><path fill="none" stroke="none"/><text fill="#000000" stroke="none" font-family="Arial" font-size="13px" font-style="normal" font-weight="normal" text-decoration="none" x="624.154052734375" y="457.5">«interface»</text></g></g><g transform="translate(-94,-150) scale(1,1)"><g><path fill="none" stroke="none"/><text fill="#000000" stroke="none" font-family="Arial" font-size="13px" font-style="normal" font-weight="bold" text-decoration="none" x="578.27001953125" y="472.5">ScheduledExecutorService</text></g></g><g transform="translate(-94,-150) scale(1,1)"><rect fill="#C0C0C0" stroke="none" x="279" y="447" width="163.62890625" height="44" opacity="0.2"/></g><g transform="translate(-94,-150) scale(1,1)"><rect fill="#ffffff" stroke="none" x="272" y="440" width="163.62890625" height="44"/></g><g transform="translate(-94,-150) scale(1,1)"><path fill="none" stroke="#000000" d="M 272 440 L 435.62890625 440 L 435.62890625 484 L 272 484 L 272 440 Z Z" stroke-miterlimit="10"/></g><g transform="translate(-94,-150) scale(1,1)"><path fill="none" stroke="#000000" d="M 272 465 L 435.62890625 465" stroke-miterlimit="10"/></g><g transform="translate(-94,-150) scale(1,1)"><path fill="none" stroke="#000000" d="M 272 475 L 435.62890625 475" stroke-miterlimit="10"/></g><g transform="translate(-94,-150) scale(1,1)"><g><path fill="none" stroke="none"/><text fill="#000000" stroke="none" font-family="Arial" font-size="13px" font-style="normal" font-weight="bold" text-decoration="none" x="282.647705078125" y="459.5">AbstractExecutorService</text></g></g><g transform="translate(-94,-150) scale(1,1)"><rect fill="#C0C0C0" stroke="none" x="295" y="567" width="136.13720703125" height="44" opacity="0.2"/></g><g transform="translate(-94,-150) scale(1,1)"><rect fill="#ffffff" stroke="none" x="288" y="560" width="136.13720703125" height="44"/></g><g transform="translate(-94,-150) scale(1,1)"><path fill="none" stroke="#000000" d="M 288 560 L 424.13720703125 560 L 424.13720703125 604 L 288 604 L 288 560 Z Z" stroke-miterlimit="10"/></g><g transform="translate(-94,-150) scale(1,1)"><path fill="none" stroke="#000000" d="M 288 585 L 424.13720703125 585" stroke-miterlimit="10"/></g><g transform="translate(-94,-150) scale(1,1)"><path fill="none" stroke="#000000" d="M 288 595 L 424.13720703125 595" stroke-miterlimit="10"/></g><g transform="translate(-94,-150) scale(1,1)"><g><path fill="none" stroke="none"/><text fill="#000000" stroke="none" font-family="Arial" font-size="13px" font-style="normal" font-weight="bold" text-decoration="none" x="296.813232421875" y="579.5">ThreadPoolExecutor</text></g></g><g transform="translate(-94,-150) scale(1,1)"><rect fill="#C0C0C0" stroke="none" x="567" y="567" width="201.87353515625" height="44" opacity="0.2"/></g><g transform="translate(-94,-150) scale(1,1)"><rect fill="#ffffff" stroke="none" x="560" y="560" width="201.87353515625" height="44"/></g><g transform="translate(-94,-150) scale(1,1)"><path fill="none" stroke="#000000" d="M 560 560 L 761.87353515625 560 L 761.87353515625 604 L 560 604 L 560 560 Z Z" stroke-miterlimit="10"/></g><g transform="translate(-94,-150) scale(1,1)"><path fill="none" stroke="#000000" d="M 560 585 L 761.87353515625 585" stroke-miterlimit="10"/></g><g transform="translate(-94,-150) scale(1,1)"><path fill="none" stroke="#000000" d="M 560 595 L 761.87353515625 595" stroke-miterlimit="10"/></g><g transform="translate(-94,-150) scale(1,1)"><g><path fill="none" stroke="none"/><text fill="#000000" stroke="none" font-family="Arial" font-size="13px" font-style="normal" font-weight="bold" text-decoration="none" x="570.9619140625" y="579.5">ScheduledThreadPoolExecutor</text></g></g><g transform="translate(-94,-150) scale(1,1)"><rect fill="#C0C0C0" stroke="none" x="111" y="311" width="71.86083984375" height="44" opacity="0.2"/></g><g transform="translate(-94,-150) scale(1,1)"><rect fill="#ffffff" stroke="none" x="104" y="304" width="71.86083984375" height="44"/></g><g transform="translate(-94,-150) scale(1,1)"><path fill="none" stroke="#000000" d="M 104 304 L 175.86083984375 304 L 175.86083984375 348 L 104 348 L 104 304 Z Z" stroke-miterlimit="10"/></g><g transform="translate(-94,-150) scale(1,1)"><path fill="none" stroke="#000000" d="M 104 329 L 175.86083984375 329" stroke-miterlimit="10"/></g><g transform="translate(-94,-150) scale(1,1)"><path fill="none" stroke="#000000" d="M 104 339 L 175.86083984375 339" stroke-miterlimit="10"/></g><g transform="translate(-94,-150) scale(1,1)"><g><path fill="none" stroke="none"/><text fill="#000000" stroke="none" font-family="Arial" font-size="13px" font-style="normal" font-weight="bold" text-decoration="none" x="111.029541015625" y="323.5">Executors</text></g></g><g transform="translate(-94,-150) scale(1,1)"><path fill="none" stroke="#000000" d="M 355 559 L 354 485" stroke-miterlimit="10"/></g><g transform="translate(-94,-150) scale(1,1)"><path fill="#FFFFFF" stroke="none" d="M 362.69290870834095 505.2097337485789 L 354 485 L 345.8563749163087 505.43725447549826"/></g><g transform="translate(-94,-150) scale(1,1)"><path fill="none" stroke="#000000" d="M 362.69290870834095 505.2097337485789 L 354 485 L 345.8563749163087 505.43725447549826 L 362.69290870834095 505.2097337485789" stroke-miterlimit="10"/></g><g transform="translate(-94,-150) scale(1,1)"><path fill="none" stroke="#000000" d="M 559 582 L 425 582" stroke-miterlimit="10"/></g><g transform="translate(-94,-150) scale(1,1)"><path fill="#FFFFFF" stroke="none" d="M 445.3253497152483 573.580964487968 L 425 582 L 445.3253497152483 590.419035512032"/></g><g transform="translate(-94,-150) scale(1,1)"><path fill="none" stroke="#000000" d="M 445.3253497152483 573.580964487968 L 425 582 L 445.3253497152483 590.419035512032 L 445.3253497152483 573.580964487968" stroke-miterlimit="10"/></g><g transform="translate(-94,-150) scale(1,1)"><path fill="none" stroke="#000000" d="M 177 326 L 295 327" stroke-miterlimit="10" stroke-dasharray="3"/></g><g transform="translate(-94,-150) scale(1,1)"><path fill="none" stroke="#000000" d="M 284.8020174581266 331.1232453329442 L 295 327 L 284.8733626547987 322.70451212563995" stroke-miterlimit="10"/></g><g transform="translate(-94,-150) scale(1,1)"><path fill="none" stroke="#000000" d="M 350 303 L 349 209" stroke-miterlimit="10"/></g><g transform="translate(-94,-150) scale(1,1)"><path fill="#FFFFFF" stroke="none" d="M 357.63477403719736 229.2346405287206 L 349 209 L 340.7976557429853 229.41375880844626"/></g><g transform="translate(-94,-150) scale(1,1)"><path fill="none" stroke="#000000" d="M 357.63477403719736 229.2346405287206 L 349 209 L 340.7976557429853 229.41375880844626 L 357.63477403719736 229.2346405287206" stroke-miterlimit="10"/></g><g transform="translate(-94,-150) scale(1,1)"><path fill="none" stroke="#000000" d="M 353 439 L 351 353" stroke-miterlimit="10" stroke-dasharray="3"/></g><g transform="translate(-94,-150) scale(1,1)"><path fill="#FFFFFF" stroke="none" d="M 359.88931457166507 373.124117035189 L 351 353 L 343.0557949927509 373.5155942346986"/></g><g transform="translate(-94,-150) scale(1,1)"><path fill="none" stroke="#000000" d="M 359.88931457166507 373.124117035189 L 351 353 L 343.0557949927509 373.5155942346986 L 359.88931457166507 373.124117035189" stroke-miterlimit="10"/></g><g transform="translate(-94,-150) scale(1,1)"><path fill="none" stroke="#000000" d="M 656 439 L 656 328 L 408 328" stroke-miterlimit="10"/></g><g transform="translate(-94,-150) scale(1,1)"><path fill="#FFFFFF" stroke="none" d="M 428.3253497152483 319.580964487968 L 408 328 L 428.3253497152483 336.419035512032"/></g><g transform="translate(-94,-150) scale(1,1)"><path fill="none" stroke="#000000" d="M 428.3253497152483 319.580964487968 L 408 328 L 428.3253497152483 336.419035512032 L 428.3253497152483 319.580964487968" stroke-miterlimit="10"/></g><g transform="translate(-94,-150) scale(1,1)"><path fill="none" stroke="#000000" d="M 659 559 L 657 489" stroke-miterlimit="10" stroke-dasharray="3"/></g><g transform="translate(-94,-150) scale(1,1)"><path fill="#FFFFFF" stroke="none" d="M 665.9960886657418 509.0766129792381 L 657 489 L 649.1648861188244 509.5575044805786"/></g><g transform="translate(-94,-150) scale(1,1)"><path fill="none" stroke="#000000" d="M 665.9960886657418 509.0766129792381 L 657 489 L 649.1648861188244 509.5575044805786 L 665.9960886657418 509.0766129792381" stroke-miterlimit="10"/></g></g></svg>