<svg version="1.1" xmlns="http://www.w3.org/2000/svg" xmlns:xlink="http://www.w3.org/1999/xlink" width="685.32080078125" height="341"><defs/><g><g transform="translate(-638,-393) scale(1,1)"><rect fill="#C0C0C0" stroke="none" x="940" y="410" width="198.26806640625" height="44" opacity="0.2"/></g><g transform="translate(-638,-393) scale(1,1)"><rect fill="#ffffff" stroke="none" x="933" y="403" width="198.26806640625" height="44"/></g><g transform="translate(-638,-393) scale(1,1)"><path fill="none" stroke="#000000" d="M 933 403 L 1131.26806640625 403 L 1131.26806640625 447 L 933 447 L 933 403 Z Z" stroke-miterlimit="10"/></g><g transform="translate(-638,-393) scale(1,1)"><path fill="none" stroke="#000000" d="M 933 428 L 1131.26806640625 428" stroke-miterlimit="10"/></g><g transform="translate(-638,-393) scale(1,1)"><path fill="none" stroke="#000000" d="M 933 438 L 1131.26806640625 438" stroke-miterlimit="10"/></g><g transform="translate(-638,-393) scale(1,1)"><g><path fill="none" stroke="none"/><text fill="#000000" stroke="none" font-family="Arial" font-size="13px" font-style="italic" font-weight="bold" text-decoration="none" x="944.70458984375" y="422.5">AbstractOwnableSynchronizer</text></g></g><g transform="translate(-638,-393) scale(1,1)"><rect fill="#C0C0C0" stroke="none" x="844" y="522" width="192.4853515625" height="102" opacity="0.2"/></g><g transform="translate(-638,-393) scale(1,1)"><rect fill="#ffffff" stroke="none" x="837" y="515" width="192.4853515625" height="102"/></g><g transform="translate(-638,-393) scale(1,1)"><path fill="none" stroke="#000000" d="M 837 515 L 1029.4853515625 515 L 1029.4853515625 617 L 837 617 L 837 515 Z Z" stroke-miterlimit="10"/></g><g transform="translate(-638,-393) scale(1,1)"><path fill="none" stroke="#000000" d="M 837 540 L 1029.4853515625 540" stroke-miterlimit="10"/></g><g transform="translate(-638,-393) scale(1,1)"><path fill="none" stroke="#000000" d="M 837 608 L 1029.4853515625 608" stroke-miterlimit="10"/></g><g transform="translate(-638,-393) scale(1,1)"><g><path fill="none" stroke="none"/><text fill="#000000" stroke="none" font-family="Arial" font-size="13px" font-style="italic" font-weight="bold" text-decoration="none" x="848.33642578125" y="534.5">AbstractQueuedSynchronizer</text></g></g><g transform="translate(-638,-393) scale(1,1)"><g><path fill="none" stroke="none"/><text fill="#000000" stroke="none" font-family="Arial" font-size="13px" font-style="normal" font-weight="normal" text-decoration="none" x="842" y="557.5">-head: Node</text></g></g><g transform="translate(-638,-393) scale(1,1)"><g><path fill="none" stroke="none"/><text fill="#000000" stroke="none" font-family="Arial" font-size="13px" font-style="normal" font-weight="normal" text-decoration="none" x="842" y="572.5">-tail: Node</text></g></g><g transform="translate(-638,-393) scale(1,1)"><g><path fill="none" stroke="none"/><text fill="#000000" stroke="none" font-family="Arial" font-size="13px" font-style="normal" font-weight="normal" text-decoration="none" x="842" y="587.5">-state: int</text></g></g><g transform="translate(-638,-393) scale(1,1)"><g><path fill="none" stroke="none"/><text fill="#000000" stroke="none" font-family="Arial" font-size="13px" font-style="normal" font-weight="normal" text-decoration="none" x="842" y="602.5">-unsafe: Unsafe</text></g></g><g transform="translate(-638,-393) scale(1,1)"><rect fill="#C0C0C0" stroke="none" x="1063" y="519" width="224.2490234375" height="44" opacity="0.2"/></g><g transform="translate(-638,-393) scale(1,1)"><rect fill="#ffffff" stroke="none" x="1056" y="512" width="224.2490234375" height="44"/></g><g transform="translate(-638,-393) scale(1,1)"><path fill="none" stroke="#000000" d="M 1056 512 L 1280.2490234375 512 L 1280.2490234375 556 L 1056 556 L 1056 512 Z Z" stroke-miterlimit="10"/></g><g transform="translate(-638,-393) scale(1,1)"><path fill="none" stroke="#000000" d="M 1056 537 L 1280.2490234375 537" stroke-miterlimit="10"/></g><g transform="translate(-638,-393) scale(1,1)"><path fill="none" stroke="#000000" d="M 1056 547 L 1280.2490234375 547" stroke-miterlimit="10"/></g><g transform="translate(-638,-393) scale(1,1)"><g><path fill="none" stroke="none"/><text fill="#000000" stroke="none" font-family="Arial" font-size="13px" font-style="italic" font-weight="bold" text-decoration="none" x="1068.75830078125" y="531.5">AbstractQueuedLongSynchronizer</text></g></g><g transform="translate(-638,-393) scale(1,1)"><rect fill="#C0C0C0" stroke="none" x="655" y="687" width="89.16455078125" height="44" opacity="0.2"/></g><g transform="translate(-638,-393) scale(1,1)"><rect fill="#ffffff" stroke="none" x="648" y="680" width="89.16455078125" height="44"/></g><g transform="translate(-638,-393) scale(1,1)"><path fill="none" stroke="#000000" d="M 648 680 L 737.16455078125 680 L 737.16455078125 724 L 648 724 L 648 680 Z Z" stroke-miterlimit="10"/></g><g transform="translate(-638,-393) scale(1,1)"><path fill="none" stroke="#000000" d="M 648 705 L 737.16455078125 705" stroke-miterlimit="10"/></g><g transform="translate(-638,-393) scale(1,1)"><path fill="none" stroke="#000000" d="M 648 715 L 737.16455078125 715" stroke-miterlimit="10"/></g><g transform="translate(-638,-393) scale(1,1)"><g><path fill="none" stroke="none"/><text fill="#000000" stroke="none" font-family="Arial" font-size="13px" font-style="normal" font-weight="bold" text-decoration="none" x="656.08642578125" y="699.5">LockSupport</text></g></g><g transform="translate(-638,-393) scale(1,1)"><rect fill="#C0C0C0" stroke="none" x="1247" y="682" width="73.32080078125" height="48" opacity="0.2"/></g><g transform="translate(-638,-393) scale(1,1)"><rect fill="#ffffff" stroke="none" x="1240" y="675" width="73.32080078125" height="48"/></g><g transform="translate(-638,-393) scale(1,1)"><path fill="none" stroke="#000000" d="M 1240 675 L 1313.32080078125 675 L 1313.32080078125 723 L 1240 723 L 1240 675 Z Z" stroke-miterlimit="10"/></g><g transform="translate(-638,-393) scale(1,1)"><g><path fill="none" stroke="none"/><text fill="#000000" stroke="none" font-family="Arial" font-size="13px" font-style="normal" font-weight="normal" text-decoration="none" x="1244.5" y="692.5">«interface»</text></g></g><g transform="translate(-638,-393) scale(1,1)"><g><path fill="none" stroke="none"/><text fill="#000000" stroke="none" font-family="Arial" font-size="13px" font-style="normal" font-weight="bold" text-decoration="none" x="1249.197265625" y="707.5">Condition</text></g></g><g transform="translate(-638,-393) scale(1,1)"><path fill="none" stroke="#000000" d="M 841 618 L 733 679" stroke-miterlimit="10" stroke-dasharray="3"/></g><g transform="translate(-638,-393) scale(1,1)"><path fill="none" stroke="#000000" d="M 739.7785672669378 670.3368004866793 L 733 679 L 743.918978003822 677.6673637585398" stroke-miterlimit="10"/></g><g transform="translate(-638,-393) scale(1,1)"><path fill="none" stroke="#000000" d="M 970 514 L 1016 448" stroke-miterlimit="10"/></g><g transform="translate(-638,-393) scale(1,1)"><path fill="#FFFFFF" stroke="none" d="M 1011.2850754866176 469.4888223696206 L 1016 448 L 997.4711528865328 459.8609369210766"/></g><g transform="translate(-638,-393) scale(1,1)"><path fill="none" stroke="#000000" d="M 1011.2850754866176 469.4888223696206 L 1016 448 L 997.4711528865328 459.8609369210766 L 1011.2850754866176 469.4888223696206" stroke-miterlimit="10"/></g><g transform="translate(-638,-393) scale(1,1)"><path fill="none" stroke="#000000" d="M 1139 511 L 1061 448" stroke-miterlimit="10"/></g><g transform="translate(-638,-393) scale(1,1)"><path fill="#FFFFFF" stroke="none" d="M 1082.1019189636318 454.22165701821615 L 1061 448 L 1071.5219341274355 467.3206858630305"/></g><g transform="translate(-638,-393) scale(1,1)"><path fill="none" stroke="#000000" d="M 1082.1019189636318 454.22165701821615 L 1061 448 L 1071.5219341274355 467.3206858630305 L 1082.1019189636318 454.22165701821615" stroke-miterlimit="10"/></g><g transform="translate(-638,-393) scale(1,1)"><rect fill="#C0C0C0" stroke="none" x="839" y="687" width="50.919921875" height="44" opacity="0.2"/></g><g transform="translate(-638,-393) scale(1,1)"><rect fill="#ffffff" stroke="none" x="832" y="680" width="50.919921875" height="44"/></g><g transform="translate(-638,-393) scale(1,1)"><path fill="none" stroke="#000000" d="M 832 680 L 882.919921875 680 L 882.919921875 724 L 832 724 L 832 680 Z Z" stroke-miterlimit="10"/></g><g transform="translate(-638,-393) scale(1,1)"><path fill="none" stroke="#000000" d="M 832 705 L 882.919921875 705" stroke-miterlimit="10"/></g><g transform="translate(-638,-393) scale(1,1)"><path fill="none" stroke="#000000" d="M 832 715 L 882.919921875 715" stroke-miterlimit="10"/></g><g transform="translate(-638,-393) scale(1,1)"><g><path fill="none" stroke="none"/><text fill="#000000" stroke="none" font-family="Arial" font-size="13px" font-style="normal" font-weight="bold" text-decoration="none" x="841.9208984375" y="699.5">Node</text></g></g><g transform="translate(-638,-393) scale(1,1)"><path fill="none" stroke="#000000" d="M 870 679 L 904 618" stroke-miterlimit="10"/></g><g transform="translate(-638,-393) scale(1,1)"><path fill="#000000" stroke="none" d="M 902.7291515734283 628.9263417609317 L 904 618 L 895.3752841069944 624.8274648124275 L 893.2891183629979 637.2165817605039"/></g><g transform="translate(-638,-393) scale(1,1)"><path fill="none" stroke="#000000" d="M 902.7291515734283 628.9263417609317 L 904 618 L 895.3752841069944 624.8274648124275 L 893.2891183629979 637.2165817605039 L 902.7291515734283 628.9263417609317" stroke-miterlimit="10"/></g><g transform="translate(-638,-393) scale(1,1)"><path fill="none" stroke="#000000" d="M 871.2708484265717 668.0736582390683 L 870 679 L 878.6247158930056 672.1725351875725" stroke-miterlimit="10"/></g><g transform="translate(-638,-393) scale(1,1)"><rect fill="#C0C0C0" stroke="none" x="1039" y="687" width="110.09912109375" height="44" opacity="0.2"/></g><g transform="translate(-638,-393) scale(1,1)"><rect fill="#ffffff" stroke="none" x="1032" y="680" width="110.09912109375" height="44"/></g><g transform="translate(-638,-393) scale(1,1)"><path fill="none" stroke="#000000" d="M 1032 680 L 1142.09912109375 680 L 1142.09912109375 724 L 1032 724 L 1032 680 Z Z" stroke-miterlimit="10"/></g><g transform="translate(-638,-393) scale(1,1)"><path fill="none" stroke="#000000" d="M 1032 705 L 1142.09912109375 705" stroke-miterlimit="10"/></g><g transform="translate(-638,-393) scale(1,1)"><path fill="none" stroke="#000000" d="M 1032 715 L 1142.09912109375 715" stroke-miterlimit="10"/></g><g transform="translate(-638,-393) scale(1,1)"><g><path fill="none" stroke="none"/><text fill="#000000" stroke="none" font-family="Arial" font-size="13px" font-style="normal" font-weight="bold" text-decoration="none" x="1040.800537109375" y="699.5">ConditionObject</text></g></g><g transform="translate(-638,-393) scale(1,1)"><path fill="none" stroke="#000000" d="M 1143 701 L 1239 700" stroke-miterlimit="10" stroke-dasharray="3"/></g><g transform="translate(-638,-393) scale(1,1)"><path fill="#FFFFFF" stroke="none" d="M 1218.7634464448506 708.6302896944176 L 1239 700 L 1218.588059386782 691.7931321198362"/></g><g transform="translate(-638,-393) scale(1,1)"><path fill="none" stroke="#000000" d="M 1218.7634464448506 708.6302896944176 L 1239 700 L 1218.588059386782 691.7931321198362 L 1218.7634464448506 708.6302896944176" stroke-miterlimit="10"/></g><g transform="translate(-638,-393) scale(1,1)"><rect fill="#C0C0C0" stroke="none" x="943" y="687" width="52.34814453125" height="44" opacity="0.2"/></g><g transform="translate(-638,-393) scale(1,1)"><rect fill="#ffffff" stroke="none" x="936" y="680" width="52.34814453125" height="44"/></g><g transform="translate(-638,-393) scale(1,1)"><path fill="none" stroke="#000000" d="M 936 680 L 988.34814453125 680 L 988.34814453125 724 L 936 724 L 936 680 Z Z" stroke-miterlimit="10"/></g><g transform="translate(-638,-393) scale(1,1)"><path fill="none" stroke="#000000" d="M 936 705 L 988.34814453125 705" stroke-miterlimit="10"/></g><g transform="translate(-638,-393) scale(1,1)"><path fill="none" stroke="#000000" d="M 936 715 L 988.34814453125 715" stroke-miterlimit="10"/></g><g transform="translate(-638,-393) scale(1,1)"><g><path fill="none" stroke="none"/><text fill="#000000" stroke="none" font-family="Arial" font-size="13px" font-style="normal" font-weight="bold" text-decoration="none" x="941.5791015625" y="699.5">Unsafe</text></g></g><g transform="translate(-638,-393) scale(1,1)"><path fill="none" stroke="#000000" d="M 957 679 L 944 618" stroke-miterlimit="10"/></g><g transform="translate(-638,-393) scale(1,1)"><path fill="#000000" stroke="none" d="M 950.2353086586157 627.0620596958855 L 944 618 L 942.0011851728204 628.8168728977763 L 948.5855478797333 639.5168015895177"/></g><g transform="translate(-638,-393) scale(1,1)"><path fill="none" stroke="#000000" d="M 950.2353086586157 627.0620596958855 L 944 618 L 942.0011851728204 628.8168728977763 L 948.5855478797333 639.5168015895177 L 950.2353086586157 627.0620596958855" stroke-miterlimit="10"/></g><g transform="translate(-638,-393) scale(1,1)"><path fill="none" stroke="#000000" d="M 950.7646913413843 669.9379403041145 L 957 679 L 958.9988148271796 668.1831271022237" stroke-miterlimit="10"/></g><g transform="translate(-638,-393) scale(1,1)"><path fill="none" stroke="#000000" d="M 992 618 L 1061 679" stroke-miterlimit="10" stroke-dasharray="3"/></g><g transform="translate(-638,-393) scale(1,1)"><path fill="none" stroke="#000000" d="M 1050.597955462812 675.422644909104 L 1061 679 L 1056.1742158130348 669.1150717260651" stroke-miterlimit="10"/></g></g></svg>