<?xml version="1.0" encoding="UTF-8" standalone="no"?>
<!DOCTYPE svg PUBLIC "-//W3C//DTD SVG 1.1//EN"
 "http://www.w3.org/Graphics/SVG/1.1/DTD/svg11.dtd">
<!-- Generated by graphviz version 2.38.0 (20140413.2041)
 -->
<!-- Title: base_struct Pages: 1 -->
<svg width="413pt" height="101pt"
 viewBox="0.00 0.00 413.00 101.00" xmlns="http://www.w3.org/2000/svg" xmlns:xlink="http://www.w3.org/1999/xlink">
<g id="graph0" class="graph" transform="scale(1 1) rotate(0) translate(4 97)">
<title>base_struct</title>
<polygon fill="white" stroke="none" points="-4,4 -4,-97 409,-97 409,4 -4,4"/>
<!-- node0 -->
<g id="node1" class="node"><title>node0</title>
<polygon fill="none" stroke="black" points="0,-3.5 0,-72.5 45,-72.5 45,-3.5 0,-3.5"/>
<text text-anchor="middle" x="22.5" y="-57.3" font-family="Times New Roman,serif" font-size="14.00">AQS</text>
<polyline fill="none" stroke="black" points="0,-49.5 45,-49.5 "/>
<text text-anchor="middle" x="22.5" y="-34.3" font-family="Times New Roman,serif" font-size="14.00">head</text>
<polyline fill="none" stroke="black" points="0,-26.5 45,-26.5 "/>
<text text-anchor="middle" x="22.5" y="-11.3" font-family="Times New Roman,serif" font-size="14.00">tail</text>
</g>
<!-- node1 -->
<g id="node2" class="node"><title>node1</title>
<polygon fill="none" stroke="black" points="81,-23.5 81,-92.5 135,-92.5 135,-23.5 81,-23.5"/>
<text text-anchor="middle" x="108" y="-77.3" font-family="Times New Roman,serif" font-size="14.00">Node</text>
<polyline fill="none" stroke="black" points="81,-69.5 135,-69.5 "/>
<text text-anchor="middle" x="108" y="-54.3" font-family="Times New Roman,serif" font-size="14.00">prev</text>
<polyline fill="none" stroke="black" points="81,-46.5 135,-46.5 "/>
<text text-anchor="middle" x="108" y="-31.3" font-family="Times New Roman,serif" font-size="14.00">next</text>
</g>
<!-- node0&#45;&gt;node1 -->
<g id="edge1" class="edge"><title>node0:h&#45;&gt;node1</title>
<path fill="none" stroke="black" d="M45,-38C53.6981,-38 62.7656,-39.805 71.1956,-42.3305"/>
<polygon fill="black" stroke="black" points="70.1441,-45.6696 80.7383,-45.5611 72.3888,-39.0392 70.1441,-45.6696"/>
</g>
<!-- node4 -->
<g id="node5" class="node"><title>node4</title>
<polygon fill="none" stroke="black" points="351,-0.5 351,-69.5 405,-69.5 405,-0.5 351,-0.5"/>
<text text-anchor="middle" x="378" y="-54.3" font-family="Times New Roman,serif" font-size="14.00">Node</text>
<polyline fill="none" stroke="black" points="351,-46.5 405,-46.5 "/>
<text text-anchor="middle" x="378" y="-31.3" font-family="Times New Roman,serif" font-size="14.00">prev</text>
<polyline fill="none" stroke="black" points="351,-23.5 405,-23.5 "/>
<text text-anchor="middle" x="378" y="-8.3" font-family="Times New Roman,serif" font-size="14.00">next</text>
</g>
<!-- node0&#45;&gt;node4 -->
<g id="edge2" class="edge"><title>node0:t&#45;&gt;node4</title>
<path fill="none" stroke="black" d="M45,-15C61.0062,-15 64.9954,-14.2222 81,-14 184.99,-12.556 212.383,2.90687 315,-14 323.704,-15.4341 332.831,-17.9293 341.322,-20.7103"/>
<polygon fill="black" stroke="black" points="340.342,-24.0749 350.936,-24.0597 342.645,-17.4646 340.342,-24.0749"/>
</g>
<!-- node2 -->
<g id="node3" class="node"><title>node2</title>
<polygon fill="none" stroke="black" points="171,-23.5 171,-92.5 225,-92.5 225,-23.5 171,-23.5"/>
<text text-anchor="middle" x="198" y="-77.3" font-family="Times New Roman,serif" font-size="14.00">Node</text>
<polyline fill="none" stroke="black" points="171,-69.5 225,-69.5 "/>
<text text-anchor="middle" x="198" y="-54.3" font-family="Times New Roman,serif" font-size="14.00">prev</text>
<polyline fill="none" stroke="black" points="171,-46.5 225,-46.5 "/>
<text text-anchor="middle" x="198" y="-31.3" font-family="Times New Roman,serif" font-size="14.00">next</text>
</g>
<!-- node1&#45;&gt;node2 -->
<g id="edge3" class="edge"><title>node1:n&#45;&gt;node2</title>
<path fill="none" stroke="black" d="M135,-35C143.829,-35 152.949,-37.0757 161.388,-39.98"/>
<polygon fill="black" stroke="black" points="160.335,-43.3261 170.924,-43.6953 162.877,-36.8037 160.335,-43.3261"/>
</g>
<!-- node2&#45;&gt;node1 -->
<g id="edge5" class="edge"><title>node2:p&#45;&gt;node1</title>
<path fill="none" stroke="black" d="M171,-58C162.75,-58 153.884,-58 145.508,-58"/>
<polygon fill="black" stroke="black" points="145.246,-54.5001 135.246,-58 145.246,-61.5001 145.246,-54.5001"/>
</g>
<!-- node3 -->
<g id="node4" class="node"><title>node3</title>
<polygon fill="none" stroke="black" points="261,-23.5 261,-92.5 315,-92.5 315,-23.5 261,-23.5"/>
<text text-anchor="middle" x="288" y="-77.3" font-family="Times New Roman,serif" font-size="14.00">Node</text>
<polyline fill="none" stroke="black" points="261,-69.5 315,-69.5 "/>
<text text-anchor="middle" x="288" y="-54.3" font-family="Times New Roman,serif" font-size="14.00">prev</text>
<polyline fill="none" stroke="black" points="261,-46.5 315,-46.5 "/>
<text text-anchor="middle" x="288" y="-31.3" font-family="Times New Roman,serif" font-size="14.00">next</text>
</g>
<!-- node2&#45;&gt;node3 -->
<g id="edge4" class="edge"><title>node2:n&#45;&gt;node3</title>
<path fill="none" stroke="black" d="M225,-35C233.829,-35 242.949,-37.0757 251.388,-39.98"/>
<polygon fill="black" stroke="black" points="250.335,-43.3261 260.924,-43.6953 252.877,-36.8037 250.335,-43.3261"/>
</g>
<!-- node3&#45;&gt;node2 -->
<g id="edge7" class="edge"><title>node3:p&#45;&gt;node2</title>
<path fill="none" stroke="black" d="M261,-58C252.75,-58 243.884,-58 235.508,-58"/>
<polygon fill="black" stroke="black" points="235.246,-54.5001 225.246,-58 235.246,-61.5001 235.246,-54.5001"/>
</g>
<!-- node3&#45;&gt;node4 -->
<g id="edge6" class="edge"><title>node3:n&#45;&gt;node4</title>
<path fill="none" stroke="black" d="M315,-35C323.25,-35 332.116,-35 340.492,-35"/>
<polygon fill="black" stroke="black" points="340.754,-38.5001 350.754,-35 340.754,-31.5001 340.754,-38.5001"/>
</g>
<!-- node4&#45;&gt;node3 -->
<g id="edge8" class="edge"><title>node4:p&#45;&gt;node3</title>
<path fill="none" stroke="black" d="M351,-35C342.171,-35 333.051,-37.0757 324.612,-39.98"/>
<polygon fill="black" stroke="black" points="323.123,-36.8037 315.076,-43.6953 325.665,-43.3261 323.123,-36.8037"/>
</g>
</g>
</svg>
