<svg version="1.1" xmlns="http://www.w3.org/2000/svg" xmlns:xlink="http://www.w3.org/1999/xlink" width="502.07177734375" height="208"><defs/><g><g transform="translate(-62,-238) scale(1,1)"><rect fill="#C0C0C0" stroke="none" x="79" y="399" width="73.2890625" height="44" opacity="0.2"/></g><g transform="translate(-62,-238) scale(1,1)"><rect fill="#ffffff" stroke="none" x="72" y="392" width="73.2890625" height="44"/></g><g transform="translate(-62,-238) scale(1,1)"><path fill="none" stroke="#000000" d="M 72 392 L 145.2890625 392 L 145.2890625 436 L 72 436 L 72 392 Z Z" stroke-miterlimit="10"/></g><g transform="translate(-62,-238) scale(1,1)"><path fill="none" stroke="#000000" d="M 72 417 L 145.2890625 417" stroke-miterlimit="10"/></g><g transform="translate(-62,-238) scale(1,1)"><path fill="none" stroke="#000000" d="M 72 427 L 145.2890625 427" stroke-miterlimit="10"/></g><g transform="translate(-62,-238) scale(1,1)"><g><path fill="none" stroke="none"/><text fill="#000000" stroke="none" font-family="Arial" font-size="13px" font-style="normal" font-weight="bold" text-decoration="none" x="78.661376953125" y="411.5">Consumer</text></g></g><g transform="translate(-62,-238) scale(1,1)"><rect fill="#C0C0C0" stroke="none" x="271" y="399" width="104.34814453125" height="44" opacity="0.2"/></g><g transform="translate(-62,-238) scale(1,1)"><rect fill="#ffffff" stroke="none" x="264" y="392" width="104.34814453125" height="44"/></g><g transform="translate(-62,-238) scale(1,1)"><path fill="none" stroke="#000000" d="M 264 392 L 368.34814453125 392 L 368.34814453125 436 L 264 436 L 264 392 Z Z" stroke-miterlimit="10"/></g><g transform="translate(-62,-238) scale(1,1)"><path fill="none" stroke="#000000" d="M 264 417 L 368.34814453125 417" stroke-miterlimit="10"/></g><g transform="translate(-62,-238) scale(1,1)"><path fill="none" stroke="#000000" d="M 264 427 L 368.34814453125 427" stroke-miterlimit="10"/></g><g transform="translate(-62,-238) scale(1,1)"><g><path fill="none" stroke="none"/><text fill="#000000" stroke="none" font-family="Arial" font-size="13px" font-style="normal" font-weight="bold" text-decoration="none" x="272.089599609375" y="411.5">BlockingQueue</text></g></g><g transform="translate(-62,-238) scale(1,1)"><rect fill="#C0C0C0" stroke="none" x="495" y="399" width="66.07177734375" height="44" opacity="0.2"/></g><g transform="translate(-62,-238) scale(1,1)"><rect fill="#ffffff" stroke="none" x="488" y="392" width="66.07177734375" height="44"/></g><g transform="translate(-62,-238) scale(1,1)"><path fill="none" stroke="#000000" d="M 488 392 L 554.07177734375 392 L 554.07177734375 436 L 488 436 L 488 392 Z Z" stroke-miterlimit="10"/></g><g transform="translate(-62,-238) scale(1,1)"><path fill="none" stroke="#000000" d="M 488 417 L 554.07177734375 417" stroke-miterlimit="10"/></g><g transform="translate(-62,-238) scale(1,1)"><path fill="none" stroke="#000000" d="M 488 427 L 554.07177734375 427" stroke-miterlimit="10"/></g><g transform="translate(-62,-238) scale(1,1)"><g><path fill="none" stroke="none"/><text fill="#000000" stroke="none" font-family="Arial" font-size="13px" font-style="normal" font-weight="bold" text-decoration="none" x="494.661376953125" y="411.5">Producer</text></g></g><g transform="translate(-62,-238) scale(1,1)"><rect fill="#C0C0C0" stroke="none" x="295" y="255" width="50.919921875" height="44" opacity="0.2"/></g><g transform="translate(-62,-238) scale(1,1)"><rect fill="#ffffff" stroke="none" x="288" y="248" width="50.919921875" height="44"/></g><g transform="translate(-62,-238) scale(1,1)"><path fill="none" stroke="#000000" d="M 288 248 L 338.919921875 248 L 338.919921875 292 L 288 292 L 288 248 Z Z" stroke-miterlimit="10"/></g><g transform="translate(-62,-238) scale(1,1)"><path fill="none" stroke="#000000" d="M 288 273 L 338.919921875 273" stroke-miterlimit="10"/></g><g transform="translate(-62,-238) scale(1,1)"><path fill="none" stroke="#000000" d="M 288 283 L 338.919921875 283" stroke-miterlimit="10"/></g><g transform="translate(-62,-238) scale(1,1)"><g><path fill="none" stroke="none"/><text fill="#000000" stroke="none" font-family="Arial" font-size="13px" font-style="normal" font-weight="bold" text-decoration="none" x="296.841796875" y="267.5">Client</text></g></g><g transform="translate(-62,-238) scale(1,1)"><path fill="none" stroke="#000000" d="M 263 414 L 146 414" stroke-miterlimit="10"/></g><g transform="translate(-62,-238) scale(1,1)"><path fill="#FFFFFF" stroke="none" d="M 156.16267485762415 409.790482243984 L 146 414 L 156.16267485762415 418.209517756016 L 168 414"/></g><g transform="translate(-62,-238) scale(1,1)"><path fill="none" stroke="#000000" d="M 156.16267485762415 409.790482243984 L 146 414 L 156.16267485762415 418.209517756016 L 168 414 L 156.16267485762415 409.790482243984" stroke-miterlimit="10"/></g><g transform="translate(-62,-238) scale(1,1)"><path fill="none" stroke="#000000" d="M 252.83732514237585 418.209517756016 L 263 414 L 252.83732514237585 409.790482243984" stroke-miterlimit="10"/></g><g transform="translate(-62,-238) scale(1,1)"><path fill="none" stroke="#000000" d="M 369 414 L 487 414" stroke-miterlimit="10"/></g><g transform="translate(-62,-238) scale(1,1)"><path fill="#FFFFFF" stroke="none" d="M 476.83732514237585 418.209517756016 L 487 414 L 476.83732514237585 409.790482243984 L 465 414"/></g><g transform="translate(-62,-238) scale(1,1)"><path fill="none" stroke="#000000" d="M 476.83732514237585 418.209517756016 L 487 414 L 476.83732514237585 409.790482243984 L 465 414 L 476.83732514237585 418.209517756016" stroke-miterlimit="10"/></g><g transform="translate(-62,-238) scale(1,1)"><path fill="none" stroke="#000000" d="M 379.16267485762415 409.790482243984 L 369 414 L 379.16267485762415 418.209517756016" stroke-miterlimit="10"/></g><g transform="translate(-62,-238) scale(1,1)"><path fill="none" stroke="#000000" d="M 288 272 L 104 272 L 104 392" stroke-miterlimit="10" stroke-dasharray="3"/></g><g transform="translate(-62,-238) scale(1,1)"><path fill="none" stroke="#000000" d="M 99.79048224398402 381.83732514237585 L 104 392 L 108.20951775601598 381.83732514237585" stroke-miterlimit="10"/></g><g transform="translate(-62,-238) scale(1,1)"><path fill="none" stroke="#000000" d="M 313 293 L 316 391" stroke-miterlimit="10" stroke-dasharray="3"/></g><g transform="translate(-62,-238) scale(1,1)"><path fill="none" stroke="#000000" d="M 311.48149662295754 380.9708860196099 L 316 391 L 319.8965901261056 380.7132811164523" stroke-miterlimit="10"/></g><g transform="translate(-62,-238) scale(1,1)"><path fill="none" stroke="#000000" d="M 339 272 L 520 272 L 520 392" stroke-miterlimit="10" stroke-dasharray="3"/></g><g transform="translate(-62,-238) scale(1,1)"><path fill="none" stroke="#000000" d="M 515.790482243984 381.83732514237585 L 520 392 L 524.209517756016 381.83732514237585" stroke-miterlimit="10"/></g></g></svg>