<svg version="1.1" xmlns="http://www.w3.org/2000/svg" xmlns:xlink="http://www.w3.org/1999/xlink" width="595" height="352"><defs/><g><g transform="translate(2,-126) scale(1,1)"><rect fill="#C0C0C0" stroke="none" x="159" y="143" width="86" height="44" opacity="0.2"/></g><g transform="translate(2,-126) scale(1,1)"><rect fill="#ffffff" stroke="none" x="152" y="136" width="86" height="44"/></g><g transform="translate(2,-126) scale(1,1)"><path fill="none" stroke="#000000" d="M 152 136 L 238 136 L 238 180 L 152 180 L 152 136 Z Z" stroke-miterlimit="10"/></g><g transform="translate(2,-126) scale(1,1)"><path fill="none" stroke="#000000" d="M 152 161 L 238 161" stroke-miterlimit="10"/></g><g transform="translate(2,-126) scale(1,1)"><path fill="none" stroke="#000000" d="M 152 171 L 238 171" stroke-miterlimit="10"/></g><g transform="translate(2,-126) scale(1,1)"><g><path fill="none" stroke="none"/><text fill="#000000" stroke="none" font-family="Arial" font-size="13px" font-style="normal" font-weight="bold" text-decoration="none" x="159.5" y="155.5">ThreadLocal</text></g></g><g transform="translate(2,-126) scale(1,1)"><rect fill="#C0C0C0" stroke="none" x="15" y="295" width="142" height="44" opacity="0.2"/></g><g transform="translate(2,-126) scale(1,1)"><rect fill="#ffffff" stroke="none" x="8" y="288" width="142" height="44"/></g><g transform="translate(2,-126) scale(1,1)"><path fill="none" stroke="#000000" d="M 8 288 L 150 288 L 150 332 L 8 332 L 8 288 Z Z" stroke-miterlimit="10"/></g><g transform="translate(2,-126) scale(1,1)"><path fill="none" stroke="#000000" d="M 8 313 L 150 313" stroke-miterlimit="10"/></g><g transform="translate(2,-126) scale(1,1)"><path fill="none" stroke="#000000" d="M 8 323 L 150 323" stroke-miterlimit="10"/></g><g transform="translate(2,-126) scale(1,1)"><g><path fill="none" stroke="none"/><text fill="#000000" stroke="none" font-family="Arial" font-size="13px" font-style="normal" font-weight="bold" text-decoration="none" x="18.5" y="307.5">SuppliedThreadLocal</text></g></g><g transform="translate(2,-126) scale(1,1)"><path fill="none" stroke="#000000" d="M 79 287 L 80 160 L 151 159" stroke-miterlimit="10"/></g><g transform="translate(2,-126) scale(1,1)"><path fill="#FFFFFF" stroke="none" d="M 130.79523219395543 167.70444472116546 L 151 159 L 130.5580997832467 150.8680435608458"/></g><g transform="translate(2,-126) scale(1,1)"><path fill="none" stroke="#000000" d="M 130.79523219395543 167.70444472116546 L 151 159 L 130.5580997832467 150.8680435608458 L 130.79523219395543 167.70444472116546" stroke-miterlimit="10"/></g><g transform="translate(2,-126) scale(1,1)"><path fill="none" stroke="#000000" d="M 97 287 L 177 181" stroke-miterlimit="10"/></g><g transform="translate(2,-126) scale(1,1)"><path fill="#000000" stroke="none" d="M 174.2379258842173 191.6475793765026 L 177 181 L 167.51794308224322 186.57589424293724 L 163.7470480699388 198.56016130733107"/></g><g transform="translate(2,-126) scale(1,1)"><path fill="none" stroke="#000000" d="M 174.2379258842173 191.6475793765026 L 177 181 L 167.51794308224322 186.57589424293724 L 163.7470480699388 198.56016130733107 L 174.2379258842173 191.6475793765026" stroke-miterlimit="10"/></g><g transform="translate(2,-126) scale(1,1)"><path fill="none" stroke="#000000" d="M 99.7620741157827 276.35242062349744 L 97 287 L 106.4820569177568 281.42410575706276" stroke-miterlimit="10"/></g><g transform="translate(2,-126) scale(1,1)"><rect fill="#C0C0C0" stroke="none" x="295" y="295" width="112" height="44" opacity="0.2"/></g><g transform="translate(2,-126) scale(1,1)"><rect fill="#ffffff" stroke="none" x="288" y="288" width="112" height="44"/></g><g transform="translate(2,-126) scale(1,1)"><path fill="none" stroke="#000000" d="M 288 288 L 400 288 L 400 332 L 288 332 L 288 288 Z Z" stroke-miterlimit="10"/></g><g transform="translate(2,-126) scale(1,1)"><path fill="none" stroke="#000000" d="M 288 313 L 400 313" stroke-miterlimit="10"/></g><g transform="translate(2,-126) scale(1,1)"><path fill="none" stroke="#000000" d="M 288 323 L 400 323" stroke-miterlimit="10"/></g><g transform="translate(2,-126) scale(1,1)"><g><path fill="none" stroke="none"/><text fill="#000000" stroke="none" font-family="Arial" font-size="13px" font-style="normal" font-weight="bold" text-decoration="none" x="296" y="307.5">ThreadLocalMap</text></g></g><g transform="translate(2,-126) scale(1,1)"><rect fill="#C0C0C0" stroke="none" x="327" y="431" width="50" height="44" opacity="0.2"/></g><g transform="translate(2,-126) scale(1,1)"><rect fill="#ffffff" stroke="none" x="320" y="424" width="50" height="44"/></g><g transform="translate(2,-126) scale(1,1)"><path fill="none" stroke="#000000" d="M 320 424 L 370 424 L 370 468 L 320 468 L 320 424 Z Z" stroke-miterlimit="10"/></g><g transform="translate(2,-126) scale(1,1)"><path fill="none" stroke="#000000" d="M 320 449 L 370 449" stroke-miterlimit="10"/></g><g transform="translate(2,-126) scale(1,1)"><path fill="none" stroke="#000000" d="M 320 459 L 370 459" stroke-miterlimit="10"/></g><g transform="translate(2,-126) scale(1,1)"><g><path fill="none" stroke="none"/><text fill="#000000" stroke="none" font-family="Arial" font-size="13px" font-style="normal" font-weight="bold" text-decoration="none" x="329.5" y="443.5">Entry</text></g></g><g transform="translate(2,-126) scale(1,1)"><path fill="none" stroke="#000000" d="M 345 423 L 344 333" stroke-miterlimit="10"/></g><g transform="translate(2,-126) scale(1,1)"><path fill="#000000" stroke="none" d="M 348.32216957318826 343.1152780575032 L 344 333 L 339.9036537065916 343.2088171226876 L 344.2444293566782 354.99864210103874"/></g><g transform="translate(2,-126) scale(1,1)"><path fill="none" stroke="#000000" d="M 348.32216957318826 343.1152780575032 L 344 333 L 339.9036537065916 343.2088171226876 L 344.2444293566782 354.99864210103874 L 348.32216957318826 343.1152780575032" stroke-miterlimit="10"/></g><g transform="translate(2,-126) scale(1,1)"><path fill="none" stroke="#000000" d="M 340.67783042681174 412.8847219424968 L 345 423 L 349.0963462934084 412.7911828773124" stroke-miterlimit="10"/></g><g transform="translate(2,-126) scale(1,1)"><rect fill="#C0C0C0" stroke="none" x="487" y="431" width="103" height="44" opacity="0.2"/></g><g transform="translate(2,-126) scale(1,1)"><rect fill="#ffffff" stroke="none" x="480" y="424" width="103" height="44"/></g><g transform="translate(2,-126) scale(1,1)"><path fill="none" stroke="#000000" d="M 480 424 L 583 424 L 583 468 L 480 468 L 480 424 Z Z" stroke-miterlimit="10"/></g><g transform="translate(2,-126) scale(1,1)"><path fill="none" stroke="#000000" d="M 480 449 L 583 449" stroke-miterlimit="10"/></g><g transform="translate(2,-126) scale(1,1)"><path fill="none" stroke="#000000" d="M 480 459 L 583 459" stroke-miterlimit="10"/></g><g transform="translate(2,-126) scale(1,1)"><g><path fill="none" stroke="none"/><text fill="#000000" stroke="none" font-family="Arial" font-size="13px" font-style="normal" font-weight="bold" text-decoration="none" x="485.5" y="443.5">WeakReference</text></g></g><g transform="translate(2,-126) scale(1,1)"><path fill="none" stroke="#000000" d="M 371 446 L 479 446" stroke-miterlimit="10"/></g><g transform="translate(2,-126) scale(1,1)"><path fill="#FFFFFF" stroke="none" d="M 458.6746502847517 454.419035512032 L 479 446 L 458.6746502847517 437.580964487968"/></g><g transform="translate(2,-126) scale(1,1)"><path fill="none" stroke="#000000" d="M 458.6746502847517 454.419035512032 L 479 446 L 458.6746502847517 437.580964487968 L 458.6746502847517 454.419035512032" stroke-miterlimit="10"/></g><g transform="translate(2,-126) scale(1,1)"><path fill="none" stroke="#000000" d="M 321 287 L 218 181" stroke-miterlimit="10"/></g><g transform="translate(2,-126) scale(1,1)"><path fill="#000000" stroke="none" d="M 228.10121058850234 185.35494485002144 L 218 181 L 222.06322347017976 191.22204554046695 L 233.33147294667344 196.77802070240182"/></g><g transform="translate(2,-126) scale(1,1)"><path fill="none" stroke="#000000" d="M 228.10121058850234 185.35494485002144 L 218 181 L 222.06322347017976 191.22204554046695 L 233.33147294667344 196.77802070240182 L 228.10121058850234 185.35494485002144" stroke-miterlimit="10"/></g><g transform="translate(2,-126) scale(1,1)"><path fill="none" stroke="#000000" d="M 310.89878941149766 282.6450551499786 L 321 287 L 316.93677652982024 276.7779544595331" stroke-miterlimit="10"/></g></g></svg>