<svg xmlns="http://www.w3.org/2000/svg" xmlns:xlink="http://www.w3.org/1999/xlink" id="processonSvg1000" viewBox="156.0 67.0 556.0 481.0" width="556.0" height="481.0"><defs id="ProcessOnDefs1001"><marker id="ProcessOnMarker1017" markerUnits="userSpaceOnUse" orient="auto" markerWidth="16.23606797749979" markerHeight="10.550836550532098" viewBox="-1.0 -1.3763819204711736 16.23606797749979 10.550836550532098" refX="-1.0" refY="3.8990363547948754"><path id="ProcessOnPath1018" d="M12.0 3.8990363547948754L0.0 7.798072709589751V0.0Z" stroke="#323232" stroke-width="2.0" fill="#323232" transform="matrix(1.0,0.0,0.0,1.0,0.0,0.0)"/></marker><marker id="ProcessOnMarker1024" markerUnits="userSpaceOnUse" orient="auto" markerWidth="16.23606797749979" markerHeight="10.550836550532098" viewBox="-1.0 -1.3763819204711736 16.23606797749979 10.550836550532098" refX="-1.0" refY="3.8990363547948754"><path id="ProcessOnPath1025" d="M12.0 3.8990363547948754L0.0 7.798072709589751V0.0Z" stroke="#323232" stroke-width="2.0" fill="#323232" transform="matrix(1.0,0.0,0.0,1.0,0.0,0.0)"/></marker><marker id="ProcessOnMarker1031" markerUnits="userSpaceOnUse" orient="auto" markerWidth="16.23606797749979" markerHeight="10.550836550532098" viewBox="-1.0 -1.3763819204711736 16.23606797749979 10.550836550532098" refX="-1.0" refY="3.8990363547948754"><path id="ProcessOnPath1032" d="M12.0 3.8990363547948754L0.0 7.798072709589751V0.0Z" stroke="#323232" stroke-width="2.0" fill="#323232" transform="matrix(1.0,0.0,0.0,1.0,0.0,0.0)"/></marker><marker id="ProcessOnMarker1038" markerUnits="userSpaceOnUse" orient="auto" markerWidth="16.23606797749979" markerHeight="10.550836550532098" viewBox="-1.0 -1.3763819204711736 16.23606797749979 10.550836550532098" refX="-1.0" refY="3.8990363547948754"><path id="ProcessOnPath1039" d="M12.0 3.8990363547948754L0.0 7.798072709589751V0.0Z" stroke="#323232" stroke-width="2.0" fill="#323232" transform="matrix(1.0,0.0,0.0,1.0,0.0,0.0)"/></marker><marker id="ProcessOnMarker1045" markerUnits="userSpaceOnUse" orient="auto" markerWidth="16.23606797749979" markerHeight="10.550836550532098" viewBox="-1.0 -1.3763819204711736 16.23606797749979 10.550836550532098" refX="-1.0" refY="3.8990363547948754"><path id="ProcessOnPath1046" d="M12.0 3.8990363547948754L0.0 7.798072709589751V0.0Z" stroke="#323232" stroke-width="2.0" fill="#323232" transform="matrix(1.0,0.0,0.0,1.0,0.0,0.0)"/></marker><marker id="ProcessOnMarker1052" markerUnits="userSpaceOnUse" orient="auto" markerWidth="16.23606797749979" markerHeight="10.550836550532098" viewBox="-1.0 -1.3763819204711736 16.23606797749979 10.550836550532098" refX="-1.0" refY="3.8990363547948754"><path id="ProcessOnPath1053" d="M12.0 3.8990363547948754L0.0 7.798072709589751V0.0Z" stroke="#323232" stroke-width="2.0" fill="#323232" transform="matrix(1.0,0.0,0.0,1.0,0.0,0.0)"/></marker><marker id="ProcessOnMarker1059" markerUnits="userSpaceOnUse" orient="auto" markerWidth="16.23606797749979" markerHeight="10.550836550532098" viewBox="-1.0 -1.3763819204711736 16.23606797749979 10.550836550532098" refX="-1.0" refY="3.8990363547948754"><path id="ProcessOnPath1060" d="M12.0 3.8990363547948754L0.0 7.798072709589751V0.0Z" stroke="#323232" stroke-width="2.0" fill="#323232" transform="matrix(1.0,0.0,0.0,1.0,0.0,0.0)"/></marker></defs><g id="ProcessOnG1002"><path id="ProcessOnPath1003" d="M156.0 67.0H712.0V548.0H156.0V67.0Z" fill="none"/><g id="ProcessOnG1004"><g id="ProcessOnG1005" transform="matrix(1.0,0.0,0.0,1.0,176.0,87.0)" opacity="1.0"><path id="ProcessOnPath1006" d="M73.5 30.0L73.5 441.0" stroke="#323232" stroke-width="2.0" stroke-dasharray="2.0 3.0" opacity="1.0" fill="none"/><path id="ProcessOnPath1007" d="M0.0 0.0L147.0 0.0L147.0 30.0L0.0 30.0Z" stroke="#323232" stroke-width="2.0" stroke-dasharray="none" opacity="1.0" fill="#ffffff"/><g id="ProcessOnG1008" transform="matrix(1.0,0.0,0.0,1.0,10.0,6.875)"><text id="ProcessOnText1009" fill="#000000" font-size="13" x="62.5" y="13.325" font-family="微软雅黑" font-weight="normal" font-style="normal" text-decoration="none" family="微软雅黑" text-anchor="middle" size="13">浏览器</text></g></g><g id="ProcessOnG1010" transform="matrix(1.0,0.0,0.0,1.0,546.0,87.0)" opacity="1.0"><path id="ProcessOnPath1011" d="M73.0 30.0L73.0 441.0" stroke="#323232" stroke-width="2.0" stroke-dasharray="2.0 3.0" opacity="1.0" fill="none"/><path id="ProcessOnPath1012" d="M0.0 0.0L146.0 0.0L146.0 30.0L0.0 30.0Z" stroke="#323232" stroke-width="2.0" stroke-dasharray="none" opacity="1.0" fill="#ffffff"/><g id="ProcessOnG1013" transform="matrix(1.0,0.0,0.0,1.0,10.0,6.875)"><text id="ProcessOnText1014" fill="#000000" font-size="13" x="62.0" y="13.325" font-family="微软雅黑" font-weight="normal" font-style="normal" text-decoration="none" family="微软雅黑" text-anchor="middle" size="13">服务器</text></g></g><g id="ProcessOnG1015"><path id="ProcessOnPath1016" d="M251.0 148.0L600.992882344521 209.36861498643657" stroke="#323232" stroke-width="2.0" stroke-dasharray="none" fill="none" marker-end="url(#ProcessOnMarker1017)"/><g id="ProcessOnG1019" transform="matrix(1.0,0.0,0.0,1.0,425.9964411722605,170.55930749321828)"><path id="ProcessOnPath1020" d="M0 0H106.0V16.25H0Z" fill="#fff" transform="matrix(1.0,0.0,0.0,1.0,-53.0,0.0)"/><text id="ProcessOnText1021" fill="#000000" font-size="13" x="0.0" y="13.325" font-family="微软雅黑" font-weight="normal" font-style="normal" text-decoration="none" family="微软雅黑" text-anchor="middle" size="13">请求建立TCP 连接</text></g></g><g id="ProcessOnG1022"><path id="ProcessOnPath1023" d="M252.0 196.0L600.973472529224 254.48181819857874" stroke="#323232" stroke-width="2.0" stroke-dasharray="none" fill="none" marker-end="url(#ProcessOnMarker1024)"/><g id="ProcessOnG1026" transform="matrix(1.0,0.0,0.0,1.0,426.486736264612,217.11590909928935)"><path id="ProcessOnPath1027" d="M0 0H78.0V16.25H0Z" fill="#fff" transform="matrix(1.0,0.0,0.0,1.0,-39.0,0.0)"/><text id="ProcessOnText1028" fill="#000000" font-size="13" x="0.0" y="13.325" font-family="微软雅黑" font-weight="normal" font-style="normal" text-decoration="none" family="微软雅黑" text-anchor="middle" size="13">发送请求命令</text></g></g><g id="ProcessOnG1029"><path id="ProcessOnPath1030" d="M249.0 237.0L603.9734361571757 296.4820352479592" stroke="#323232" stroke-width="2.0" stroke-dasharray="none" fill="none" marker-end="url(#ProcessOnMarker1031)"/><g id="ProcessOnG1033" transform="matrix(1.0,0.0,0.0,1.0,426.48671807858784,258.6160176239796)"><path id="ProcessOnPath1034" d="M0 0H143.0V16.25H0Z" fill="#fff" transform="matrix(1.0,0.0,0.0,1.0,-71.5,0.0)"/><text id="ProcessOnText1035" fill="#000000" font-size="13" x="0.0" y="13.325" font-family="微软雅黑" font-weight="normal" font-style="normal" text-decoration="none" family="微软雅黑" text-anchor="middle" size="13">发送请求头，以空行结束</text></g></g><g id="ProcessOnG1036"><path id="ProcessOnPath1037" d="M617.0 334.0L266.20607273074313 356.0444271234779" stroke="#323232" stroke-width="2.0" stroke-dasharray="none" fill="none" marker-end="url(#ProcessOnMarker1038)"/><g id="ProcessOnG1040" transform="matrix(1.0,0.0,0.0,1.0,441.60303636537157,336.8972135617389)"><path id="ProcessOnPath1041" d="M0 0H65.0V16.25H0Z" fill="#fff" transform="matrix(1.0,0.0,0.0,1.0,-32.5,0.0)"/><text id="ProcessOnText1042" fill="#000000" font-size="13" x="0.0" y="13.325" font-family="微软雅黑" font-weight="normal" font-style="normal" text-decoration="none" family="微软雅黑" text-anchor="middle" size="13">服务器应答</text></g></g><g id="ProcessOnG1043"><path id="ProcessOnPath1044" d="M617.0 384.0L268.2030576807036 406.9976005924811" stroke="#323232" stroke-width="2.0" stroke-dasharray="none" fill="none" marker-end="url(#ProcessOnMarker1045)"/><g id="ProcessOnG1047" transform="matrix(1.0,0.0,0.0,1.0,442.60152884035176,387.3738002962406)"><path id="ProcessOnPath1048" d="M0 0H143.0V16.25H0Z" fill="#fff" transform="matrix(1.0,0.0,0.0,1.0,-71.5,0.0)"/><text id="ProcessOnText1049" fill="#000000" font-size="13" x="0.0" y="13.325" font-family="微软雅黑" font-weight="normal" font-style="normal" text-decoration="none" family="微软雅黑" text-anchor="middle" size="13">发送应答头，以空行结束</text></g></g><g id="ProcessOnG1050"><path id="ProcessOnPath1051" d="M618.0 433.0L269.1973485553696 457.9144751031879" stroke="#323232" stroke-width="2.0" stroke-dasharray="none" fill="none" marker-end="url(#ProcessOnMarker1052)"/><g id="ProcessOnG1054" transform="matrix(1.0,0.0,0.0,1.0,443.59867427768484,437.33223755159395)"><path id="ProcessOnPath1055" d="M0 0H279.0V16.25H0Z" fill="#fff" transform="matrix(1.0,0.0,0.0,1.0,-139.5,0.0)"/><text id="ProcessOnText1056" fill="#000000" font-size="13" x="0.0" y="13.325" font-family="微软雅黑" font-weight="normal" font-style="normal" text-decoration="none" family="微软雅黑" text-anchor="middle" size="13">根据 Content-Type 应答头描述的格式发送数据 </text></g></g><g id="ProcessOnG1057"><path id="ProcessOnPath1058" d="M619.0 481.0L268.197768972408 505.9203770675339" stroke="#323232" stroke-width="2.0" stroke-dasharray="none" fill="none" marker-end="url(#ProcessOnMarker1059)"/><g id="ProcessOnG1061" transform="matrix(1.0,0.0,0.0,1.0,443.59888448620404,485.33518853376694)"><path id="ProcessOnPath1062" d="M0 0H84.0V16.25H0Z" fill="#fff" transform="matrix(1.0,0.0,0.0,1.0,-42.0,0.0)"/><text id="ProcessOnText1063" fill="#000000" font-size="13" x="0.0" y="13.325" font-family="微软雅黑" font-weight="normal" font-style="normal" text-decoration="none" family="微软雅黑" text-anchor="middle" size="13">关闭 TCP 连接</text></g></g></g></g></svg>