<svg xmlns="http://www.w3.org/2000/svg" xmlns:xlink="http://www.w3.org/1999/xlink" id="processonSvg1000" viewBox="89.0 64.0 529.0 418.0" width="529.0" height="418.0"><defs id="ProcessOnDefs1001"><marker id="ProcessOnMarker1063" markerUnits="userSpaceOnUse" orient="auto" markerWidth="16.23606797749979" markerHeight="10.550836550532098" viewBox="-1.0 -1.3763819204711736 16.23606797749979 10.550836550532098" refX="15.23606797749979" refY="3.8990363547948754"><path id="ProcessOnPath1064" d="M12.0 3.8990363547948754L0.0 7.798072709589751V0.0Z" stroke="#323232" stroke-width="2.0" fill="#323232" transform="matrix(-1.0,1.2246467991473532E-16,-1.2246467991473532E-16,-1.0,14.23606797749979,7.798072709589751)"/></marker><marker id="ProcessOnMarker1065" markerUnits="userSpaceOnUse" orient="auto" markerWidth="16.23606797749979" markerHeight="10.550836550532098" viewBox="-1.0 -1.3763819204711736 16.23606797749979 10.550836550532098" refX="-1.0" refY="3.8990363547948754"><path id="ProcessOnPath1066" d="M12.0 3.8990363547948754L0.0 7.798072709589751V0.0Z" stroke="#323232" stroke-width="2.0" fill="#323232" transform="matrix(1.0,0.0,0.0,1.0,0.0,0.0)"/></marker></defs><g id="ProcessOnG1002"><path id="ProcessOnPath1003" d="M89.0 64.0H618.0V482.0H89.0V64.0Z" fill="none"/><g id="ProcessOnG1004"><g id="ProcessOnG1005" transform="matrix(1.0,0.0,0.0,1.0,113.0,84.0)" opacity="1.0"><path id="ProcessOnPath1006" d="M0.0 0.0L148.0 0.0L148.0 44.0L0.0 44.0Z" stroke="#323232" stroke-width="2.0" stroke-dasharray="none" opacity="1.0" fill="#ffffff"/><g id="ProcessOnG1007" transform="matrix(1.0,0.0,0.0,1.0,10.0,13.875)"><text id="ProcessOnText1008" fill="#000000" font-size="13" x="63.0" y="13.325" font-family="微软雅黑" font-weight="normal" font-style="normal" text-decoration="none" family="微软雅黑" text-anchor="middle" size="13">线程 A</text></g></g><g id="ProcessOnG1009" transform="matrix(1.0,0.0,0.0,1.0,446.0,84.0)" opacity="1.0"><path id="ProcessOnPath1010" d="M0.0 0.0L148.0 0.0L148.0 44.0L0.0 44.0Z" stroke="#323232" stroke-width="2.0" stroke-dasharray="none" opacity="1.0" fill="#ffffff"/><g id="ProcessOnG1011" transform="matrix(1.0,0.0,0.0,1.0,10.0,13.875)"><text id="ProcessOnText1012" fill="#000000" font-size="13" x="63.0" y="13.325" font-family="微软雅黑" font-weight="normal" font-style="normal" text-decoration="none" family="微软雅黑" text-anchor="middle" size="13">线程 B</text></g></g><g id="ProcessOnG1013" transform="matrix(1.0,0.0,0.0,1.0,109.0,183.0)" opacity="1.0"><path id="ProcessOnPath1014" d="M0.0 0.0L156.0 0.0L156.0 124.0L0.0 124.0Z" stroke="#323232" stroke-width="2.0" stroke-dasharray="none" opacity="1.0" fill="#ffffff"/><g id="ProcessOnG1015" transform="matrix(1.0,0.0,0.0,1.0,10.0,21.375)"><text id="ProcessOnText1016" fill="#000000" font-size="13" x="67.0" y="13.325" font-family="微软雅黑" font-weight="normal" font-style="normal" text-decoration="none" family="微软雅黑" text-anchor="middle" size="13">本地内存A</text><text id="ProcessOnText1017" fill="#000000" font-size="13" x="67.0" y="29.575" font-family="微软雅黑" font-weight="normal" font-style="normal" text-decoration="none" family="微软雅黑" text-anchor="middle" size="13"></text><text id="ProcessOnText1018" fill="#000000" font-size="13" x="67.0" y="45.825" font-family="微软雅黑" font-weight="normal" font-style="normal" text-decoration="none" family="微软雅黑" text-anchor="middle" size="13"></text><text id="ProcessOnText1019" fill="#000000" font-size="13" x="67.0" y="62.075" font-family="微软雅黑" font-weight="normal" font-style="normal" text-decoration="none" family="微软雅黑" text-anchor="middle" size="13"></text><text id="ProcessOnText1020" fill="#000000" font-size="13" x="67.0" y="78.325" font-family="微软雅黑" font-weight="normal" font-style="normal" text-decoration="none" family="微软雅黑" text-anchor="middle" size="13"></text></g></g><g id="ProcessOnG1021" transform="matrix(1.0,0.0,0.0,1.0,145.5,227.0)" opacity="1.0"><path id="ProcessOnPath1022" d="M0.0 36.5C0.0 -12.166666666666666 83.0 -12.166666666666666 83.0 36.5C83.0 85.16666666666667 0.0 85.16666666666667 0.0 36.5Z" stroke="#323232" stroke-width="2.0" stroke-dasharray="none" opacity="1.0" fill="#ffffff"/><g id="ProcessOnG1023" transform="matrix(1.0,0.0,0.0,1.0,10.0,20.25)"><text id="ProcessOnText1024" fill="#000000" font-size="13" x="30.5" y="13.325" font-family="微软雅黑" font-weight="normal" font-style="normal" text-decoration="none" family="微软雅黑" text-anchor="middle" size="13">共享变量</text><text id="ProcessOnText1025" fill="#000000" font-size="13" x="30.5" y="29.575" font-family="微软雅黑" font-weight="normal" font-style="normal" text-decoration="none" family="微软雅黑" text-anchor="middle" size="13">的副本</text></g></g><g id="ProcessOnG1026" transform="matrix(1.0,0.0,0.0,1.0,438.0,183.0)" opacity="1.0"><path id="ProcessOnPath1027" d="M0.0 0.0L156.0 0.0L156.0 124.0L0.0 124.0Z" stroke="#323232" stroke-width="2.0" stroke-dasharray="none" opacity="1.0" fill="#ffffff"/><g id="ProcessOnG1028" transform="matrix(1.0,0.0,0.0,1.0,10.0,21.375)"><text id="ProcessOnText1029" fill="#000000" font-size="13" x="67.0" y="13.325" font-family="微软雅黑" font-weight="normal" font-style="normal" text-decoration="none" family="微软雅黑" text-anchor="middle" size="13">本地内存B</text><text id="ProcessOnText1030" fill="#000000" font-size="13" x="67.0" y="29.575" font-family="微软雅黑" font-weight="normal" font-style="normal" text-decoration="none" family="微软雅黑" text-anchor="middle" size="13"></text><text id="ProcessOnText1031" fill="#000000" font-size="13" x="67.0" y="45.825" font-family="微软雅黑" font-weight="normal" font-style="normal" text-decoration="none" family="微软雅黑" text-anchor="middle" size="13"></text><text id="ProcessOnText1032" fill="#000000" font-size="13" x="67.0" y="62.075" font-family="微软雅黑" font-weight="normal" font-style="normal" text-decoration="none" family="微软雅黑" text-anchor="middle" size="13"></text><text id="ProcessOnText1033" fill="#000000" font-size="13" x="67.0" y="78.325" font-family="微软雅黑" font-weight="normal" font-style="normal" text-decoration="none" family="微软雅黑" text-anchor="middle" size="13"></text></g></g><g id="ProcessOnG1034" transform="matrix(1.0,0.0,0.0,1.0,474.5,227.0)" opacity="1.0"><path id="ProcessOnPath1035" d="M0.0 36.5C0.0 -12.166666666666666 83.0 -12.166666666666666 83.0 36.5C83.0 85.16666666666667 0.0 85.16666666666667 0.0 36.5Z" stroke="#323232" stroke-width="2.0" stroke-dasharray="none" opacity="1.0" fill="#ffffff"/><g id="ProcessOnG1036" transform="matrix(1.0,0.0,0.0,1.0,10.0,20.25)"><text id="ProcessOnText1037" fill="#000000" font-size="13" x="30.5" y="13.325" font-family="微软雅黑" font-weight="normal" font-style="normal" text-decoration="none" family="微软雅黑" text-anchor="middle" size="13">共享变量</text><text id="ProcessOnText1038" fill="#000000" font-size="13" x="30.5" y="29.575" font-family="微软雅黑" font-weight="normal" font-style="normal" text-decoration="none" family="微软雅黑" text-anchor="middle" size="13">的副本</text></g></g><g id="ProcessOnG1039" transform="matrix(1.0,0.0,0.0,1.0,113.0,381.0)" opacity="1.0"><path id="ProcessOnPath1040" d="M0.0 0.0L485.0 0.0L485.0 81.0L0.0 81.0Z" stroke="#323232" stroke-width="2.0" stroke-dasharray="none" opacity="1.0" fill="#ffffff"/></g><g id="ProcessOnG1041" transform="matrix(1.0,0.0,0.0,1.0,120.0,396.25)" opacity="1.0"><path id="ProcessOnPath1042" d="M0.0 25.25C0.0 -8.416666666666666 91.0 -8.416666666666666 91.0 25.25C91.0 58.916666666666664 0.0 58.916666666666664 0.0 25.25Z" stroke="#323232" stroke-width="2.0" stroke-dasharray="none" opacity="1.0" fill="#ffffff"/><g id="ProcessOnG1043" transform="matrix(1.0,0.0,0.0,1.0,10.0,17.125)"><text id="ProcessOnText1044" fill="#000000" font-size="13" x="34.5" y="13.325" font-family="微软雅黑" font-weight="normal" font-style="normal" text-decoration="none" family="微软雅黑" text-anchor="middle" size="13">共享变量</text></g></g><g id="ProcessOnG1045" transform="matrix(1.0,0.0,0.0,1.0,310.0,396.25)" opacity="1.0"><path id="ProcessOnPath1046" d="M0.0 25.25C0.0 -8.416666666666666 91.0 -8.416666666666666 91.0 25.25C91.0 58.916666666666664 0.0 58.916666666666664 0.0 25.25Z" stroke="#323232" stroke-width="2.0" stroke-dasharray="none" opacity="1.0" fill="#ffffff"/><g id="ProcessOnG1047" transform="matrix(1.0,0.0,0.0,1.0,10.0,17.125)"><text id="ProcessOnText1048" fill="#000000" font-size="13" x="34.5" y="13.325" font-family="微软雅黑" font-weight="normal" font-style="normal" text-decoration="none" family="微软雅黑" text-anchor="middle" size="13">共享变量</text></g></g><g id="ProcessOnG1049" transform="matrix(1.0,0.0,0.0,1.0,498.0,396.25)" opacity="1.0"><path id="ProcessOnPath1050" d="M0.0 25.25C0.0 -8.416666666666666 91.0 -8.416666666666666 91.0 25.25C91.0 58.916666666666664 0.0 58.916666666666664 0.0 25.25Z" stroke="#323232" stroke-width="2.0" stroke-dasharray="none" opacity="1.0" fill="#ffffff"/><g id="ProcessOnG1051" transform="matrix(1.0,0.0,0.0,1.0,10.0,17.125)"><text id="ProcessOnText1052" fill="#000000" font-size="13" x="34.5" y="13.325" font-family="微软雅黑" font-weight="normal" font-style="normal" text-decoration="none" family="微软雅黑" text-anchor="middle" size="13">共享变量</text></g></g><g id="ProcessOnG1053" transform="matrix(1.0,0.0,0.0,1.0,176.0,128.0)" opacity="1.0"><path id="ProcessOnPath1054" d="M11.0 0.0L22.0 11.0L14.74 11.0L14.74 44.0L22.0 44.0L11.0 55.0L0.0 44.0L7.260000000000001 44.0L7.260000000000001 11.0L0.0 11.0L11.0 0.0Z" stroke="#323232" stroke-width="2.0" stroke-dasharray="none" opacity="1.0" fill="#ffffff"/></g><g id="ProcessOnG1055" transform="matrix(1.0,0.0,0.0,1.0,505.0,128.0)" opacity="1.0"><path id="ProcessOnPath1056" d="M11.0 0.0L22.0 11.0L14.74 11.0L14.74 44.0L22.0 44.0L11.0 55.0L0.0 44.0L7.260000000000001 44.0L7.260000000000001 11.0L0.0 11.0L11.0 0.0Z" stroke="#323232" stroke-width="2.0" stroke-dasharray="none" opacity="1.0" fill="#ffffff"/></g><g id="ProcessOnG1057" transform="matrix(1.0,0.0,0.0,1.0,173.0,307.0)" opacity="1.0"><path id="ProcessOnPath1058" d="M14.0 0.0L28.0 14.0L18.76 14.0L18.76 60.0L28.0 60.0L14.0 74.0L0.0 60.0L9.24 60.0L9.24 14.0L0.0 14.0L14.0 0.0Z" stroke="#323232" stroke-width="2.0" stroke-dasharray="none" opacity="1.0" fill="#ffffff"/></g><g id="ProcessOnG1059" transform="matrix(1.0,0.0,0.0,1.0,505.0,307.0)" opacity="1.0"><path id="ProcessOnPath1060" d="M14.0 0.0L28.0 14.0L18.76 14.0L18.76 60.0L28.0 60.0L14.0 74.0L0.0 60.0L9.24 60.0L9.24 14.0L0.0 14.0L14.0 0.0Z" stroke="#323232" stroke-width="2.0" stroke-dasharray="none" opacity="1.0" fill="#ffffff"/></g><g id="ProcessOnG1061"><path id="ProcessOnPath1062" d="M206.2360679774998 342.0L353.0 342.0L353.0 342.0L499.7639320225002 342.0" stroke="#323232" stroke-width="2.0" stroke-dasharray="10.0 4.0" fill="none" marker-start="url(#ProcessOnMarker1063)" marker-end="url(#ProcessOnMarker1065)"/><g id="ProcessOnG1067" transform="matrix(1.0,0.0,0.0,1.0,353.0,333.875)"><path id="ProcessOnPath1068" d="M0 0H57.0V16.25H0Z" fill="#fff" transform="matrix(1.0,0.0,0.0,1.0,-28.5,0.0)"/><text id="ProcessOnText1069" fill="#000000" font-size="13" x="0.0" y="13.325" font-family="微软雅黑" font-weight="normal" font-style="normal" text-decoration="none" family="微软雅黑" text-anchor="middle" size="13">JMM控制</text></g></g></g></g></svg>