<svg version="1.1" xmlns="http://www.w3.org/2000/svg" xmlns:xlink="http://www.w3.org/1999/xlink" width="508.4853515625" height="232"><defs/><g><g transform="translate(-350,-312) scale(1,1)"><rect fill="#C0C0C0" stroke="none" x="367" y="329" width="116.5927734375" height="57" opacity="0.2"/></g><g transform="translate(-350,-312) scale(1,1)"><rect fill="#ffffff" stroke="none" x="360" y="322" width="116.5927734375" height="57"/></g><g transform="translate(-350,-312) scale(1,1)"><path fill="none" stroke="#000000" d="M 360 322 L 476.5927734375 322 L 476.5927734375 379 L 360 379 L 360 322 Z Z" stroke-miterlimit="10"/></g><g transform="translate(-350,-312) scale(1,1)"><path fill="none" stroke="#000000" d="M 360 347 L 476.5927734375 347" stroke-miterlimit="10"/></g><g transform="translate(-350,-312) scale(1,1)"><path fill="none" stroke="#000000" d="M 360 370 L 476.5927734375 370" stroke-miterlimit="10"/></g><g transform="translate(-350,-312) scale(1,1)"><g><path fill="none" stroke="none"/><text fill="#000000" stroke="none" font-family="Arial" font-size="13px" font-style="normal" font-weight="bold" text-decoration="none" x="368.432373046875" y="341.5">CountDownLatch</text></g></g><g transform="translate(-350,-312) scale(1,1)"><g><path fill="none" stroke="none"/><text fill="#000000" stroke="none" font-family="Arial" font-size="13px" font-style="normal" font-weight="normal" text-decoration="none" x="365" y="364.5">-sync: Sync</text></g></g><g transform="translate(-350,-312) scale(1,1)"><rect fill="#C0C0C0" stroke="none" x="663" y="439" width="192.4853515625" height="102" opacity="0.2"/></g><g transform="translate(-350,-312) scale(1,1)"><rect fill="#ffffff" stroke="none" x="656" y="432" width="192.4853515625" height="102"/></g><g transform="translate(-350,-312) scale(1,1)"><path fill="none" stroke="#000000" d="M 656 432 L 848.4853515625 432 L 848.4853515625 534 L 656 534 L 656 432 Z Z" stroke-miterlimit="10"/></g><g transform="translate(-350,-312) scale(1,1)"><path fill="none" stroke="#000000" d="M 656 457 L 848.4853515625 457" stroke-miterlimit="10"/></g><g transform="translate(-350,-312) scale(1,1)"><path fill="none" stroke="#000000" d="M 656 525 L 848.4853515625 525" stroke-miterlimit="10"/></g><g transform="translate(-350,-312) scale(1,1)"><g><path fill="none" stroke="none"/><text fill="#000000" stroke="none" font-family="Arial" font-size="13px" font-style="italic" font-weight="bold" text-decoration="none" x="667.33642578125" y="451.5">AbstractQueuedSynchronizer</text></g></g><g transform="translate(-350,-312) scale(1,1)"><g><path fill="none" stroke="none"/><text fill="#000000" stroke="none" font-family="Arial" font-size="13px" font-style="normal" font-weight="normal" text-decoration="none" x="661" y="474.5">-head: Node</text></g></g><g transform="translate(-350,-312) scale(1,1)"><g><path fill="none" stroke="none"/><text fill="#000000" stroke="none" font-family="Arial" font-size="13px" font-style="normal" font-weight="normal" text-decoration="none" x="661" y="489.5">-tail: Node</text></g></g><g transform="translate(-350,-312) scale(1,1)"><g><path fill="none" stroke="none"/><text fill="#000000" stroke="none" font-family="Arial" font-size="13px" font-style="normal" font-weight="normal" text-decoration="none" x="661" y="504.5">-state: int</text></g></g><g transform="translate(-350,-312) scale(1,1)"><g><path fill="none" stroke="none"/><text fill="#000000" stroke="none" font-family="Arial" font-size="13px" font-style="normal" font-weight="normal" text-decoration="none" x="661" y="519.5">-unsafe: Unsafe</text></g></g><g transform="translate(-350,-312) scale(1,1)"><rect fill="#C0C0C0" stroke="none" x="399" y="471" width="50.919921875" height="44" opacity="0.2"/></g><g transform="translate(-350,-312) scale(1,1)"><rect fill="#ffffff" stroke="none" x="392" y="464" width="50.919921875" height="44"/></g><g transform="translate(-350,-312) scale(1,1)"><path fill="none" stroke="#000000" d="M 392 464 L 442.919921875 464 L 442.919921875 508 L 392 508 L 392 464 Z Z" stroke-miterlimit="10"/></g><g transform="translate(-350,-312) scale(1,1)"><path fill="none" stroke="#000000" d="M 392 489 L 442.919921875 489" stroke-miterlimit="10"/></g><g transform="translate(-350,-312) scale(1,1)"><path fill="none" stroke="#000000" d="M 392 499 L 442.919921875 499" stroke-miterlimit="10"/></g><g transform="translate(-350,-312) scale(1,1)"><g><path fill="none" stroke="none"/><text fill="#000000" stroke="none" font-family="Arial" font-size="13px" font-style="normal" font-weight="bold" text-decoration="none" x="403.009521484375" y="483.5">Sync</text></g></g><g transform="translate(-350,-312) scale(1,1)"><path fill="none" stroke="#000000" d="M 417 463 L 418 380" stroke-miterlimit="10"/></g><g transform="translate(-350,-312) scale(1,1)"><path fill="#000000" stroke="none" d="M 422.08677928473185 390.212650737095 L 418 380 L 413.6683547553569 390.11122393553626 L 417.734958994875 401.9984034253762"/></g><g transform="translate(-350,-312) scale(1,1)"><path fill="none" stroke="#000000" d="M 422.08677928473185 390.212650737095 L 418 380 L 413.6683547553569 390.11122393553626 L 417.734958994875 401.9984034253762 L 422.08677928473185 390.212650737095" stroke-miterlimit="10"/></g><g transform="translate(-350,-312) scale(1,1)"><path fill="none" stroke="#000000" d="M 412.91322071526815 452.787349262905 L 417 463 L 421.3316452446431 452.88877606446374" stroke-miterlimit="10"/></g><g transform="translate(-350,-312) scale(1,1)"><path fill="none" stroke="#000000" d="M 444 486 L 655 484" stroke-miterlimit="10"/></g><g transform="translate(-350,-312) scale(1,1)"><path fill="#FFFFFF" stroke="none" d="M 634.7553609910407 492.6113060215582 L 655 484 L 634.5957655913749 475.7739913568075"/></g><g transform="translate(-350,-312) scale(1,1)"><path fill="none" stroke="#000000" d="M 634.7553609910407 492.6113060215582 L 655 484 L 634.5957655913749 475.7739913568075 L 634.7553609910407 492.6113060215582" stroke-miterlimit="10"/></g></g></svg>