<svg version="1.1" xmlns="http://www.w3.org/2000/svg" xmlns:xlink="http://www.w3.org/1999/xlink" width="582" height="228"><defs/><g><g transform="translate(-214,-246) scale(1,1)"><rect fill="#C0C0C0" stroke="none" x="375" y="263" width="177.00341796875" height="102" opacity="0.2"/></g><g transform="translate(-214,-246) scale(1,1)"><rect fill="#ffffff" stroke="none" x="368" y="256" width="177.00341796875" height="102"/></g><g transform="translate(-214,-246) scale(1,1)"><path fill="none" stroke="#000000" d="M 368 256 L 545.00341796875 256 L 545.00341796875 358 L 368 358 L 368 256 Z Z" stroke-miterlimit="10"/></g><g transform="translate(-214,-246) scale(1,1)"><path fill="none" stroke="#000000" d="M 368 281 L 545.00341796875 281" stroke-miterlimit="10"/></g><g transform="translate(-214,-246) scale(1,1)"><path fill="none" stroke="#000000" d="M 368 349 L 545.00341796875 349" stroke-miterlimit="10"/></g><g transform="translate(-214,-246) scale(1,1)"><g><path fill="none" stroke="none"/><text fill="#000000" stroke="none" font-family="Arial" font-size="13px" font-style="normal" font-weight="bold" text-decoration="none" x="419.666259765625" y="275.5">CyclicBarrier</text></g></g><g transform="translate(-214,-246) scale(1,1)"><g><path fill="none" stroke="none"/><text fill="#000000" stroke="none" font-family="Arial" font-size="13px" font-style="normal" font-weight="normal" text-decoration="none" x="373" y="298.5">-lock: ReentrantLock</text></g></g><g transform="translate(-214,-246) scale(1,1)"><g><path fill="none" stroke="none"/><text fill="#000000" stroke="none" font-family="Arial" font-size="13px" font-style="normal" font-weight="normal" text-decoration="none" x="373" y="313.5">-trip: Condition</text></g></g><g transform="translate(-214,-246) scale(1,1)"><g><path fill="none" stroke="none"/><text fill="#000000" stroke="none" font-family="Arial" font-size="13px" font-style="normal" font-weight="normal" text-decoration="none" x="373" y="328.5">-barrierCommand: Runnable</text></g></g><g transform="translate(-214,-246) scale(1,1)"><g><path fill="none" stroke="none"/><text fill="#000000" stroke="none" font-family="Arial" font-size="13px" font-style="normal" font-weight="normal" text-decoration="none" x="373" y="343.5">-generation: Generation</text></g></g><g transform="translate(-214,-246) scale(1,1)"><rect fill="#C0C0C0" stroke="none" x="673" y="309" width="107.32080078125" height="48" opacity="0.2"/></g><g transform="translate(-214,-246) scale(1,1)"><rect fill="#ffffff" stroke="none" x="666" y="302" width="107.32080078125" height="48"/></g><g transform="translate(-214,-246) scale(1,1)"><path fill="none" stroke="#000000" d="M 666 302 L 773.32080078125 302 L 773.32080078125 350 L 666 350 L 666 302 Z Z" stroke-miterlimit="10"/></g><g transform="translate(-214,-246) scale(1,1)"><g><path fill="none" stroke="none"/><text fill="#000000" stroke="none" font-family="Arial" font-size="13px" font-style="normal" font-weight="normal" text-decoration="none" x="687.5" y="319.5">«interface»</text></g></g><g transform="translate(-214,-246) scale(1,1)"><g><path fill="none" stroke="none"/><text fill="#000000" stroke="none" font-family="Arial" font-size="13px" font-style="normal" font-weight="bold" text-decoration="none" x="705.930419921875" y="334.5">Lock</text></g></g><g transform="translate(-214,-246) scale(1,1)"><rect fill="#C0C0C0" stroke="none" x="665" y="413" width="128" height="57" opacity="0.2"/></g><g transform="translate(-214,-246) scale(1,1)"><rect fill="#ffffff" stroke="none" x="658" y="406" width="128" height="57"/></g><g transform="translate(-214,-246) scale(1,1)"><path fill="none" stroke="#000000" d="M 658 406 L 786 406 L 786 463 L 658 463 L 658 406 Z Z" stroke-miterlimit="10"/></g><g transform="translate(-214,-246) scale(1,1)"><path fill="none" stroke="#000000" d="M 658 431 L 786 431" stroke-miterlimit="10"/></g><g transform="translate(-214,-246) scale(1,1)"><path fill="none" stroke="#000000" d="M 658 454 L 786 454" stroke-miterlimit="10"/></g><g transform="translate(-214,-246) scale(1,1)"><g><path fill="none" stroke="none"/><text fill="#000000" stroke="none" font-family="Arial" font-size="13px" font-style="normal" font-weight="bold" text-decoration="none" x="679.724609375" y="425.5">ReentrantLock</text></g></g><g transform="translate(-214,-246) scale(1,1)"><g><path fill="none" stroke="none"/><text fill="#000000" stroke="none" font-family="Arial" font-size="13px" font-style="normal" font-weight="normal" text-decoration="none" x="663" y="448.5">-sync: Sync</text></g></g><g transform="translate(-214,-246) scale(1,1)"><path fill="none" stroke="#000000" d="M 721 405 L 720 351" stroke-miterlimit="10" stroke-dasharray="3"/></g><g transform="translate(-214,-246) scale(1,1)"><path fill="#FFFFFF" stroke="none" d="M 728.7939231320462 371.16598413040293 L 720 351 L 711.9587385519949 371.4777468078113"/></g><g transform="translate(-214,-246) scale(1,1)"><path fill="none" stroke="#000000" d="M 728.7939231320462 371.16598413040293 L 720 351 L 711.9587385519949 371.4777468078113 L 728.7939231320462 371.16598413040293" stroke-miterlimit="10"/></g><g transform="translate(-214,-246) scale(1,1)"><rect fill="#C0C0C0" stroke="none" x="231" y="423" width="73.32080078125" height="48" opacity="0.2"/></g><g transform="translate(-214,-246) scale(1,1)"><rect fill="#ffffff" stroke="none" x="224" y="416" width="73.32080078125" height="48"/></g><g transform="translate(-214,-246) scale(1,1)"><path fill="none" stroke="#000000" d="M 224 416 L 297.32080078125 416 L 297.32080078125 464 L 224 464 L 224 416 Z Z" stroke-miterlimit="10"/></g><g transform="translate(-214,-246) scale(1,1)"><g><path fill="none" stroke="none"/><text fill="#000000" stroke="none" font-family="Arial" font-size="13px" font-style="normal" font-weight="normal" text-decoration="none" x="228.5" y="433.5">«interface»</text></g></g><g transform="translate(-214,-246) scale(1,1)"><g><path fill="none" stroke="none"/><text fill="#000000" stroke="none" font-family="Arial" font-size="13px" font-style="normal" font-weight="bold" text-decoration="none" x="233.197265625" y="448.5">Condition</text></g></g><g transform="translate(-214,-246) scale(1,1)"><rect fill="#C0C0C0" stroke="none" x="367" y="423" width="73.32080078125" height="48" opacity="0.2"/></g><g transform="translate(-214,-246) scale(1,1)"><rect fill="#ffffff" stroke="none" x="360" y="416" width="73.32080078125" height="48"/></g><g transform="translate(-214,-246) scale(1,1)"><path fill="none" stroke="#000000" d="M 360 416 L 433.32080078125 416 L 433.32080078125 464 L 360 464 L 360 416 Z Z" stroke-miterlimit="10"/></g><g transform="translate(-214,-246) scale(1,1)"><g><path fill="none" stroke="none"/><text fill="#000000" stroke="none" font-family="Arial" font-size="13px" font-style="normal" font-weight="normal" text-decoration="none" x="364.5" y="433.5">«interface»</text></g></g><g transform="translate(-214,-246) scale(1,1)"><g><path fill="none" stroke="none"/><text fill="#000000" stroke="none" font-family="Arial" font-size="13px" font-style="normal" font-weight="bold" text-decoration="none" x="368.832275390625" y="448.5">Runnable</text></g></g><g transform="translate(-214,-246) scale(1,1)"><rect fill="#C0C0C0" stroke="none" x="511" y="423" width="77.62451171875" height="44" opacity="0.2"/></g><g transform="translate(-214,-246) scale(1,1)"><rect fill="#ffffff" stroke="none" x="504" y="416" width="77.62451171875" height="44"/></g><g transform="translate(-214,-246) scale(1,1)"><path fill="none" stroke="#000000" d="M 504 416 L 581.62451171875 416 L 581.62451171875 460 L 504 460 L 504 416 Z Z" stroke-miterlimit="10"/></g><g transform="translate(-214,-246) scale(1,1)"><path fill="none" stroke="#000000" d="M 504 441 L 581.62451171875 441" stroke-miterlimit="10"/></g><g transform="translate(-214,-246) scale(1,1)"><path fill="none" stroke="#000000" d="M 504 451 L 581.62451171875 451" stroke-miterlimit="10"/></g><g transform="translate(-214,-246) scale(1,1)"><g><path fill="none" stroke="none"/><text fill="#000000" stroke="none" font-family="Arial" font-size="13px" font-style="normal" font-weight="bold" text-decoration="none" x="510.65185546875" y="435.5">Generation</text></g></g><g transform="translate(-214,-246) scale(1,1)"><path fill="none" stroke="#000000" d="M 297 415 L 379 359" stroke-miterlimit="10"/></g><g transform="translate(-214,-246) scale(1,1)"><path fill="#000000" stroke="none" d="M 372.9816596873247 368.20758273820155 L 379 359 L 368.2336465609004 361.2551349459374 L 360.83237839878234 371.4071562154657"/></g><g transform="translate(-214,-246) scale(1,1)"><path fill="none" stroke="#000000" d="M 372.9816596873247 368.20758273820155 L 379 359 L 368.2336465609004 361.2551349459374 L 360.83237839878234 371.4071562154657 L 372.9816596873247 368.20758273820155" stroke-miterlimit="10"/></g><g transform="translate(-214,-246) scale(1,1)"><path fill="none" stroke="#000000" d="M 303.0183403126753 405.79241726179845 L 297 415 L 307.7663534390996 412.7448650540626" stroke-miterlimit="10"/></g><g transform="translate(-214,-246) scale(1,1)"><path fill="none" stroke="#000000" d="M 407 415 L 433 359" stroke-miterlimit="10"/></g><g transform="translate(-214,-246) scale(1,1)"><path fill="#000000" stroke="none" d="M 432.538453068235 369.99031275395646 L 433 359 L 424.9023123590295 366.4449617103968 L 423.73555125799817 378.9541972904655"/></g><g transform="translate(-214,-246) scale(1,1)"><path fill="none" stroke="#000000" d="M 432.538453068235 369.99031275395646 L 433 359 L 424.9023123590295 366.4449617103968 L 423.73555125799817 378.9541972904655 L 432.538453068235 369.99031275395646" stroke-miterlimit="10"/></g><g transform="translate(-214,-246) scale(1,1)"><path fill="none" stroke="#000000" d="M 407.461546931765 404.00968724604354 L 407 415 L 415.0976876409705 407.5550382896032" stroke-miterlimit="10"/></g><g transform="translate(-214,-246) scale(1,1)"><path fill="none" stroke="#000000" d="M 527 415 L 490 359" stroke-miterlimit="10"/></g><g transform="translate(-214,-246) scale(1,1)"><path fill="#000000" stroke="none" d="M 499.11439769833356 365.1585513391228 L 490 359 L 492.0900990047435 369.79960583310196 L 502.1276598396125 377.3553770545486"/></g><g transform="translate(-214,-246) scale(1,1)"><path fill="none" stroke="#000000" d="M 499.11439769833356 365.1585513391228 L 490 359 L 492.0900990047435 369.79960583310196 L 502.1276598396125 377.3553770545486 L 499.11439769833356 365.1585513391228" stroke-miterlimit="10"/></g><g transform="translate(-214,-246) scale(1,1)"><path fill="none" stroke="#000000" d="M 517.8856023016664 408.8414486608772 L 527 415 L 524.9099009952565 404.20039416689804" stroke-miterlimit="10"/></g><g transform="translate(-214,-246) scale(1,1)"><path fill="none" stroke="#000000" d="M 661 405 L 546 350" stroke-miterlimit="10"/></g><g transform="translate(-214,-246) scale(1,1)"><path fill="#000000" stroke="none" d="M 556.9843163492509 350.5871919103502 L 546 350 L 553.351877195587 358.1822919589201 L 565.8469528759842 359.4920209406881"/></g><g transform="translate(-214,-246) scale(1,1)"><path fill="none" stroke="#000000" d="M 556.9843163492509 350.5871919103502 L 546 350 L 553.351877195587 358.1822919589201 L 565.8469528759842 359.4920209406881 L 556.9843163492509 350.5871919103502" stroke-miterlimit="10"/></g><g transform="translate(-214,-246) scale(1,1)"><path fill="none" stroke="#000000" d="M 650.0156836507491 404.4128080896498 L 661 405 L 653.648122804413 396.8177080410799" stroke-miterlimit="10"/></g></g></svg>