<svg version="1.1" xmlns="http://www.w3.org/2000/svg" xmlns:xlink="http://www.w3.org/1999/xlink" width="484.4853515625" height="314"><defs/><g><g transform="translate(-278,-294) scale(1,1)"><rect fill="#C0C0C0" stroke="none" x="386" y="311" width="79.8017578125" height="57" opacity="0.2"/></g><g transform="translate(-278,-294) scale(1,1)"><rect fill="#ffffff" stroke="none" x="379" y="304" width="79.8017578125" height="57"/></g><g transform="translate(-278,-294) scale(1,1)"><path fill="none" stroke="#000000" d="M 379 304 L 458.8017578125 304 L 458.8017578125 361 L 379 361 L 379 304 Z Z" stroke-miterlimit="10"/></g><g transform="translate(-278,-294) scale(1,1)"><path fill="none" stroke="#000000" d="M 379 329 L 458.8017578125 329" stroke-miterlimit="10"/></g><g transform="translate(-278,-294) scale(1,1)"><path fill="none" stroke="#000000" d="M 379 352 L 458.8017578125 352" stroke-miterlimit="10"/></g><g transform="translate(-278,-294) scale(1,1)"><g><path fill="none" stroke="none"/><text fill="#000000" stroke="none" font-family="Arial" font-size="13px" font-style="normal" font-weight="bold" text-decoration="none" x="385.29638671875" y="323.5">Semaphore</text></g></g><g transform="translate(-278,-294) scale(1,1)"><g><path fill="none" stroke="none"/><text fill="#000000" stroke="none" font-family="Arial" font-size="13px" font-style="normal" font-weight="normal" text-decoration="none" x="384" y="346.5">-sync: Sync</text></g></g><g transform="translate(-278,-294) scale(1,1)"><rect fill="#C0C0C0" stroke="none" x="399" y="449" width="50.919921875" height="44" opacity="0.2"/></g><g transform="translate(-278,-294) scale(1,1)"><rect fill="#ffffff" stroke="none" x="392" y="442" width="50.919921875" height="44"/></g><g transform="translate(-278,-294) scale(1,1)"><path fill="none" stroke="#000000" d="M 392 442 L 442.919921875 442 L 442.919921875 486 L 392 486 L 392 442 Z Z" stroke-miterlimit="10"/></g><g transform="translate(-278,-294) scale(1,1)"><path fill="none" stroke="#000000" d="M 392 467 L 442.919921875 467" stroke-miterlimit="10"/></g><g transform="translate(-278,-294) scale(1,1)"><path fill="none" stroke="#000000" d="M 392 477 L 442.919921875 477" stroke-miterlimit="10"/></g><g transform="translate(-278,-294) scale(1,1)"><g><path fill="none" stroke="none"/><text fill="#000000" stroke="none" font-family="Arial" font-size="13px" font-style="italic" font-weight="bold" text-decoration="none" x="403.009521484375" y="461.5">Sync</text></g></g><g transform="translate(-278,-294) scale(1,1)"><rect fill="#C0C0C0" stroke="none" x="567" y="423" width="192.4853515625" height="102" opacity="0.2"/></g><g transform="translate(-278,-294) scale(1,1)"><rect fill="#ffffff" stroke="none" x="560" y="416" width="192.4853515625" height="102"/></g><g transform="translate(-278,-294) scale(1,1)"><path fill="none" stroke="#000000" d="M 560 416 L 752.4853515625 416 L 752.4853515625 518 L 560 518 L 560 416 Z Z" stroke-miterlimit="10"/></g><g transform="translate(-278,-294) scale(1,1)"><path fill="none" stroke="#000000" d="M 560 441 L 752.4853515625 441" stroke-miterlimit="10"/></g><g transform="translate(-278,-294) scale(1,1)"><path fill="none" stroke="#000000" d="M 560 509 L 752.4853515625 509" stroke-miterlimit="10"/></g><g transform="translate(-278,-294) scale(1,1)"><g><path fill="none" stroke="none"/><text fill="#000000" stroke="none" font-family="Arial" font-size="13px" font-style="italic" font-weight="bold" text-decoration="none" x="571.33642578125" y="435.5">AbstractQueuedSynchronizer</text></g></g><g transform="translate(-278,-294) scale(1,1)"><g><path fill="none" stroke="none"/><text fill="#000000" stroke="none" font-family="Arial" font-size="13px" font-style="normal" font-weight="normal" text-decoration="none" x="565" y="458.5">-head: Node</text></g></g><g transform="translate(-278,-294) scale(1,1)"><g><path fill="none" stroke="none"/><text fill="#000000" stroke="none" font-family="Arial" font-size="13px" font-style="normal" font-weight="normal" text-decoration="none" x="565" y="473.5">-tail: Node</text></g></g><g transform="translate(-278,-294) scale(1,1)"><g><path fill="none" stroke="none"/><text fill="#000000" stroke="none" font-family="Arial" font-size="13px" font-style="normal" font-weight="normal" text-decoration="none" x="565" y="488.5">-state: int</text></g></g><g transform="translate(-278,-294) scale(1,1)"><g><path fill="none" stroke="none"/><text fill="#000000" stroke="none" font-family="Arial" font-size="13px" font-style="normal" font-weight="normal" text-decoration="none" x="565" y="503.5">-unsafe: Unsafe</text></g></g><g transform="translate(-278,-294) scale(1,1)"><path fill="none" stroke="#000000" d="M 444 464 L 559 466" stroke-miterlimit="10"/></g><g transform="translate(-278,-294) scale(1,1)"><path fill="#FFFFFF" stroke="none" d="M 538.5313274932404 474.0643317026907 L 559 466 L 538.8241192358734 457.2288065012939"/></g><g transform="translate(-278,-294) scale(1,1)"><path fill="none" stroke="#000000" d="M 538.5313274932404 474.0643317026907 L 559 466 L 538.8241192358734 457.2288065012939 L 538.5313274932404 474.0643317026907" stroke-miterlimit="10"/></g><g transform="translate(-278,-294) scale(1,1)"><rect fill="#C0C0C0" stroke="none" x="295" y="561" width="85.57177734375" height="44" opacity="0.2"/></g><g transform="translate(-278,-294) scale(1,1)"><rect fill="#ffffff" stroke="none" x="288" y="554" width="85.57177734375" height="44"/></g><g transform="translate(-278,-294) scale(1,1)"><path fill="none" stroke="#000000" d="M 288 554 L 373.57177734375 554 L 373.57177734375 598 L 288 598 L 288 554 Z Z" stroke-miterlimit="10"/></g><g transform="translate(-278,-294) scale(1,1)"><path fill="none" stroke="#000000" d="M 288 579 L 373.57177734375 579" stroke-miterlimit="10"/></g><g transform="translate(-278,-294) scale(1,1)"><path fill="none" stroke="#000000" d="M 288 589 L 373.57177734375 589" stroke-miterlimit="10"/></g><g transform="translate(-278,-294) scale(1,1)"><g><path fill="none" stroke="none"/><text fill="#000000" stroke="none" font-family="Arial" font-size="13px" font-style="normal" font-weight="bold" text-decoration="none" x="295.3818359375" y="573.5">NonfairSync</text></g></g><g transform="translate(-278,-294) scale(1,1)"><rect fill="#C0C0C0" stroke="none" x="487" y="561" width="63.91357421875" height="44" opacity="0.2"/></g><g transform="translate(-278,-294) scale(1,1)"><rect fill="#ffffff" stroke="none" x="480" y="554" width="63.91357421875" height="44"/></g><g transform="translate(-278,-294) scale(1,1)"><path fill="none" stroke="#000000" d="M 480 554 L 543.91357421875 554 L 543.91357421875 598 L 480 598 L 480 554 Z Z" stroke-miterlimit="10"/></g><g transform="translate(-278,-294) scale(1,1)"><path fill="none" stroke="#000000" d="M 480 579 L 543.91357421875 579" stroke-miterlimit="10"/></g><g transform="translate(-278,-294) scale(1,1)"><path fill="none" stroke="#000000" d="M 480 589 L 543.91357421875 589" stroke-miterlimit="10"/></g><g transform="translate(-278,-294) scale(1,1)"><g><path fill="none" stroke="none"/><text fill="#000000" stroke="none" font-family="Arial" font-size="13px" font-style="normal" font-weight="bold" text-decoration="none" x="486.312255859375" y="573.5">FairSync</text></g></g><g transform="translate(-278,-294) scale(1,1)"><path fill="none" stroke="#000000" d="M 492 553 L 436 487" stroke-miterlimit="10"/></g><g transform="translate(-278,-294) scale(1,1)"><path fill="#FFFFFF" stroke="none" d="M 455.5696343813966 497.05133872568524 L 436 487 L 442.73045140349194 507.9451909493619"/></g><g transform="translate(-278,-294) scale(1,1)"><path fill="none" stroke="#000000" d="M 455.5696343813966 497.05133872568524 L 436 487 L 442.73045140349194 507.9451909493619 L 455.5696343813966 497.05133872568524" stroke-miterlimit="10"/></g><g transform="translate(-278,-294) scale(1,1)"><path fill="none" stroke="#000000" d="M 348 553 L 399 487" stroke-miterlimit="10"/></g><g transform="translate(-278,-294) scale(1,1)"><path fill="#FFFFFF" stroke="none" d="M 393.2339722349793 508.2309426030266 L 399 487 L 379.9102591812615 497.93534615242646"/></g><g transform="translate(-278,-294) scale(1,1)"><path fill="none" stroke="#000000" d="M 393.2339722349793 508.2309426030266 L 399 487 L 379.9102591812615 497.93534615242646 L 393.2339722349793 508.2309426030266" stroke-miterlimit="10"/></g><g transform="translate(-278,-294) scale(1,1)"><path fill="none" stroke="#000000" d="M 417 441 L 418 362" stroke-miterlimit="10"/></g><g transform="translate(-278,-294) scale(1,1)"><path fill="#000000" stroke="none" d="M 422.0805494005072 372.21514153548645 L 418 362 L 413.6621883015425 372.10858000258816 L 417.7215412952693 383.9982376737265"/></g><g transform="translate(-278,-294) scale(1,1)"><path fill="none" stroke="#000000" d="M 422.0805494005072 372.21514153548645 L 418 362 L 413.6621883015425 372.10858000258816 L 417.7215412952693 383.9982376737265 L 422.0805494005072 372.21514153548645" stroke-miterlimit="10"/></g><g transform="translate(-278,-294) scale(1,1)"><path fill="none" stroke="#000000" d="M 412.9194505994928 430.78485846451355 L 417 441 L 421.3378116984575 430.89141999741184" stroke-miterlimit="10"/></g></g></svg>