<svg version="1.1" xmlns="http://www.w3.org/2000/svg" xmlns:xlink="http://www.w3.org/1999/xlink" width="445.57080078125" height="218"><defs/><g><g transform="translate(-22,-262) scale(1,1)"><rect fill="#C0C0C0" stroke="none" x="263" y="279" width="107.32080078125" height="60" opacity="0.2"/></g><g transform="translate(-22,-262) scale(1,1)"><rect fill="#ffffff" stroke="none" x="256" y="272" width="107.32080078125" height="60"/></g><g transform="translate(-22,-262) scale(1,1)"><path fill="none" stroke="#000000" d="M 256 272 L 363.32080078125 272 L 363.32080078125 332 L 256 332 L 256 272 Z Z" stroke-miterlimit="10"/></g><g transform="translate(-22,-262) scale(1,1)"><path fill="none" stroke="#000000" d="M 256 310 L 363.32080078125 310" stroke-miterlimit="10"/></g><g transform="translate(-22,-262) scale(1,1)"><g><path fill="none" stroke="none"/><text fill="#000000" stroke="none" font-family="Arial" font-size="13px" font-style="normal" font-weight="normal" text-decoration="none" x="277.5" y="289.5">«interface»</text></g></g><g transform="translate(-22,-262) scale(1,1)"><g><path fill="none" stroke="none"/><text fill="#000000" stroke="none" font-family="Arial" font-size="13px" font-style="normal" font-weight="bold" text-decoration="none" x="287.97998046875" y="304.5">Subject</text></g></g><g transform="translate(-22,-262) scale(1,1)"><g><path fill="none" stroke="none"/><text fill="#000000" stroke="none" font-family="Arial" font-size="13px" font-style="normal" font-weight="normal" text-decoration="none" x="261" y="327.5">+request()</text></g></g><g transform="translate(-22,-262) scale(1,1)"><rect fill="#C0C0C0" stroke="none" x="375" y="407" width="89.57080078125" height="57" opacity="0.2"/></g><g transform="translate(-22,-262) scale(1,1)"><rect fill="#ffffff" stroke="none" x="368" y="400" width="89.57080078125" height="57"/></g><g transform="translate(-22,-262) scale(1,1)"><path fill="none" stroke="#000000" d="M 368 400 L 457.57080078125 400 L 457.57080078125 457 L 368 457 L 368 400 Z Z" stroke-miterlimit="10"/></g><g transform="translate(-22,-262) scale(1,1)"><path fill="none" stroke="#000000" d="M 368 425 L 457.57080078125 425" stroke-miterlimit="10"/></g><g transform="translate(-22,-262) scale(1,1)"><path fill="none" stroke="#000000" d="M 368 435 L 457.57080078125 435" stroke-miterlimit="10"/></g><g transform="translate(-22,-262) scale(1,1)"><g><path fill="none" stroke="none"/><text fill="#000000" stroke="none" font-family="Arial" font-size="13px" font-style="normal" font-weight="bold" text-decoration="none" x="377.73681640625" y="419.5">RealSubject</text></g></g><g transform="translate(-22,-262) scale(1,1)"><g><path fill="none" stroke="none"/><text fill="#000000" stroke="none" font-family="Arial" font-size="13px" font-style="normal" font-weight="normal" text-decoration="none" x="373" y="452.5">+request()</text></g></g><g transform="translate(-22,-262) scale(1,1)"><path fill="none" stroke="#000000" d="M 388 399 L 334 333" stroke-miterlimit="10" stroke-dasharray="3"/></g><g transform="translate(-22,-262) scale(1,1)"><path fill="#FFFFFF" stroke="none" d="M 353.38675352667906 343.39970132724 L 334 333 L 340.3548055531008 354.0622042147131"/></g><g transform="translate(-22,-262) scale(1,1)"><path fill="none" stroke="#000000" d="M 353.38675352667906 343.39970132724 L 334 333 L 340.3548055531008 354.0622042147131 L 353.38675352667906 343.39970132724" stroke-miterlimit="10"/></g><g transform="translate(-22,-262) scale(1,1)"><rect fill="#C0C0C0" stroke="none" x="159" y="407" width="97.15625" height="70" opacity="0.2"/></g><g transform="translate(-22,-262) scale(1,1)"><rect fill="#ffffff" stroke="none" x="152" y="400" width="97.15625" height="70"/></g><g transform="translate(-22,-262) scale(1,1)"><path fill="none" stroke="#000000" d="M 152 400 L 249.15625 400 L 249.15625 470 L 152 470 L 152 400 Z Z" stroke-miterlimit="10"/></g><g transform="translate(-22,-262) scale(1,1)"><path fill="none" stroke="#000000" d="M 152 425 L 249.15625 425" stroke-miterlimit="10"/></g><g transform="translate(-22,-262) scale(1,1)"><path fill="none" stroke="#000000" d="M 152 448 L 249.15625 448" stroke-miterlimit="10"/></g><g transform="translate(-22,-262) scale(1,1)"><g><path fill="none" stroke="none"/><text fill="#000000" stroke="none" font-family="Arial" font-size="13px" font-style="normal" font-weight="bold" text-decoration="none" x="183.963134765625" y="419.5">Proxy</text></g></g><g transform="translate(-22,-262) scale(1,1)"><g><path fill="none" stroke="none"/><text fill="#000000" stroke="none" font-family="Arial" font-size="13px" font-style="normal" font-weight="normal" text-decoration="none" x="157" y="442.5">-target: Subject</text></g></g><g transform="translate(-22,-262) scale(1,1)"><g><path fill="none" stroke="none"/><text fill="#000000" stroke="none" font-family="Arial" font-size="13px" font-style="normal" font-weight="normal" text-decoration="none" x="157" y="465.5">+request()</text></g></g><g transform="translate(-22,-262) scale(1,1)"><path fill="none" stroke="#000000" d="M 230 399 L 284 333" stroke-miterlimit="10" stroke-dasharray="3"/></g><g transform="translate(-22,-262) scale(1,1)"><path fill="#FFFFFF" stroke="none" d="M 277.6451944468992 354.0622042147131 L 284 333 L 264.61324647332094 343.39970132724"/></g><g transform="translate(-22,-262) scale(1,1)"><path fill="none" stroke="#000000" d="M 277.6451944468992 354.0622042147131 L 284 333 L 264.61324647332094 343.39970132724 L 277.6451944468992 354.0622042147131" stroke-miterlimit="10"/></g><g transform="translate(-22,-262) scale(1,1)"><rect fill="#C0C0C0" stroke="none" x="39" y="287" width="50.919921875" height="44" opacity="0.2"/></g><g transform="translate(-22,-262) scale(1,1)"><rect fill="#ffffff" stroke="none" x="32" y="280" width="50.919921875" height="44"/></g><g transform="translate(-22,-262) scale(1,1)"><path fill="none" stroke="#000000" d="M 32 280 L 82.919921875 280 L 82.919921875 324 L 32 324 L 32 280 Z Z" stroke-miterlimit="10"/></g><g transform="translate(-22,-262) scale(1,1)"><path fill="none" stroke="#000000" d="M 32 305 L 82.919921875 305" stroke-miterlimit="10"/></g><g transform="translate(-22,-262) scale(1,1)"><path fill="none" stroke="#000000" d="M 32 315 L 82.919921875 315" stroke-miterlimit="10"/></g><g transform="translate(-22,-262) scale(1,1)"><g><path fill="none" stroke="none"/><text fill="#000000" stroke="none" font-family="Arial" font-size="13px" font-style="normal" font-weight="bold" text-decoration="none" x="40.841796875" y="299.5">Client</text></g></g><g transform="translate(-22,-262) scale(1,1)"><path fill="none" stroke="#000000" d="M 84 302 L 255 302" stroke-miterlimit="10" stroke-dasharray="3"/></g><g transform="translate(-22,-262) scale(1,1)"><path fill="none" stroke="#000000" d="M 244.83732514237585 306.209517756016 L 255 302 L 244.83732514237585 297.790482243984" stroke-miterlimit="10"/></g></g></svg>