<svg xmlns="http://www.w3.org/2000/svg" xmlns:xlink="http://www.w3.org/1999/xlink" id="processonSvg1000" viewBox="155.5 123.0 696.0 541.0" width="696.0" height="541.0"><defs id="ProcessOnDefs1001"><marker id="ProcessOnMarker1015" markerUnits="userSpaceOnUse" orient="auto" markerWidth="16.23606797749979" markerHeight="10.550836550532098" viewBox="-1.0 -1.3763819204711736 16.23606797749979 10.550836550532098" refX="-1.0" refY="3.8990363547948754"><path id="ProcessOnPath1016" d="M12.0 3.8990363547948754L0.0 7.798072709589751V0.0Z" stroke="#323232" stroke-width="2.0" fill="#323232" transform="matrix(1.0,0.0,0.0,1.0,0.0,0.0)"/></marker><marker id="ProcessOnMarker1024" markerUnits="userSpaceOnUse" orient="auto" markerWidth="16.23606797749979" markerHeight="10.550836550532098" viewBox="-1.0 -1.3763819204711736 16.23606797749979 10.550836550532098" refX="-1.0" refY="3.8990363547948754"><path id="ProcessOnPath1025" d="M12.0 3.8990363547948754L0.0 7.798072709589751V0.0Z" stroke="#323232" stroke-width="2.0" fill="#323232" transform="matrix(1.0,0.0,0.0,1.0,0.0,0.0)"/></marker><marker id="ProcessOnMarker1036" markerUnits="userSpaceOnUse" orient="auto" markerWidth="16.23606797749979" markerHeight="10.550836550532098" viewBox="-1.0 -1.3763819204711736 16.23606797749979 10.550836550532098" refX="-1.0" refY="3.8990363547948754"><path id="ProcessOnPath1037" d="M12.0 3.8990363547948754L0.0 7.798072709589751V0.0Z" stroke="#323232" stroke-width="2.0" fill="#323232" transform="matrix(1.0,0.0,0.0,1.0,0.0,0.0)"/></marker><marker id="ProcessOnMarker1047" markerUnits="userSpaceOnUse" orient="auto" markerWidth="16.23606797749979" markerHeight="10.550836550532098" viewBox="-1.0 -1.3763819204711736 16.23606797749979 10.550836550532098" refX="-1.0" refY="3.8990363547948754"><path id="ProcessOnPath1048" d="M12.0 3.8990363547948754L0.0 7.798072709589751V0.0Z" stroke="#323232" stroke-width="2.0" fill="#323232" transform="matrix(1.0,0.0,0.0,1.0,0.0,0.0)"/></marker><marker id="ProcessOnMarker1057" markerUnits="userSpaceOnUse" orient="auto" markerWidth="16.23606797749979" markerHeight="10.550836550532098" viewBox="-1.0 -1.3763819204711736 16.23606797749979 10.550836550532098" refX="-1.0" refY="3.8990363547948754"><path id="ProcessOnPath1058" d="M12.0 3.8990363547948754L0.0 7.798072709589751V0.0Z" stroke="#323232" stroke-width="2.0" fill="#323232" transform="matrix(1.0,0.0,0.0,1.0,0.0,0.0)"/></marker><marker id="ProcessOnMarker1061" markerUnits="userSpaceOnUse" orient="auto" markerWidth="16.23606797749979" markerHeight="10.550836550532098" viewBox="-1.0 -1.3763819204711736 16.23606797749979 10.550836550532098" refX="-1.0" refY="3.8990363547948754"><path id="ProcessOnPath1062" d="M12.0 3.8990363547948754L0.0 7.798072709589751V0.0Z" stroke="#323232" stroke-width="2.0" fill="#323232" transform="matrix(1.0,0.0,0.0,1.0,0.0,0.0)"/></marker><marker id="ProcessOnMarker1069" markerUnits="userSpaceOnUse" orient="auto" markerWidth="16.23606797749979" markerHeight="10.550836550532098" viewBox="-1.0 -1.3763819204711736 16.23606797749979 10.550836550532098" refX="-1.0" refY="3.8990363547948754"><path id="ProcessOnPath1070" d="M12.0 3.8990363547948754L0.0 7.798072709589751V0.0Z" stroke="#323232" stroke-width="2.0" fill="#323232" transform="matrix(1.0,0.0,0.0,1.0,0.0,0.0)"/></marker></defs><g id="ProcessOnG1002"><path id="ProcessOnPath1003" d="M155.5 123.0H851.5V664.0H155.5V123.0Z" fill="#ffffff"/><g id="ProcessOnG1004"><g id="ProcessOnG1005" transform="matrix(1.0,0.0,0.0,1.0,332.5,143.0)" opacity="1.0"><path id="ProcessOnPath1006" d="M11.666666666666666 0.0L275.3333333333333 0.0C290.8888888888889 0.0 290.8888888888889 35.0 275.3333333333333 35.0L11.666666666666666 35.0C-3.888888888888889 35.0 -3.888888888888889 0.0 11.666666666666666 0.0Z" stroke="#323232" stroke-width="2.0" stroke-dasharray="none" fill="#ccffe6"/><g id="ProcessOnG1007" transform="matrix(1.0,0.0,0.0,1.0,10.0,9.375)"><text id="ProcessOnText1008" fill="#323232" font-size="13" x="132.5" y="13.325" font-family="Arial" font-weight="normal" font-style="normal" text-decoration="none" family="Arial" text-anchor="middle" size="13">从服务器接受到客户端发来的 SLAVEOF 命令</text></g></g><g id="ProcessOnG1009" transform="matrix(1.0,0.0,0.0,1.0,312.0,243.0)" opacity="1.0"><path id="ProcessOnPath1010" d="M0.0 36.0L164.0 0.0L328.0 36.0L164.0 72.0L0.0 36.0Z" stroke="#323232" stroke-width="2.0" stroke-dasharray="none" fill="#ffcce6"/><g id="ProcessOnG1011" transform="matrix(1.0,0.0,0.0,1.0,10.0,27.875)"><text id="ProcessOnText1012" fill="#323232" font-size="13" x="153.0" y="13.325" font-family="Arial" font-weight="normal" font-style="normal" text-decoration="none" family="Arial" text-anchor="middle" size="13">判断是否是从服务器第一次执行复制</text></g></g><g id="ProcessOnG1013"><path id="ProcessOnPath1014" d="M476.0 178.0L476.0 210.5L476.0 210.5L476.0 227.7639320225002" stroke="#323232" stroke-width="2.0" stroke-dasharray="none" fill="none" marker-end="url(#ProcessOnMarker1015)"/></g><g id="ProcessOnG1017" transform="matrix(1.0,0.0,0.0,1.0,190.0,355.0)" opacity="1.0"><path id="ProcessOnPath1018" d="M0.0 0.0L189.0 0.0L189.0 41.0L0.0 41.0Z" stroke="#323232" stroke-width="2.0" stroke-dasharray="none" fill="#ffe6cc"/><g id="ProcessOnG1019" transform="matrix(1.0,0.0,0.0,1.0,10.0,4.25)"><text id="ProcessOnText1020" fill="#323232" font-size="13" x="83.5" y="13.325" font-family="Arial" font-weight="normal" font-style="normal" text-decoration="none" family="Arial" text-anchor="middle" size="13">向主服务器发送</text><text id="ProcessOnText1021" fill="#323232" font-size="13" x="83.5" y="29.575" font-family="Arial" font-weight="normal" font-style="normal" text-decoration="none" family="Arial" text-anchor="middle" size="13"> PSYNC &lt;runid&gt; &lt;offset&gt;</text></g></g><g id="ProcessOnG1022"><path id="ProcessOnPath1023" d="M312.0 279.0L284.5 279.0L284.5 339.7639320225002" stroke="#323232" stroke-width="2.0" stroke-dasharray="none" fill="none" marker-end="url(#ProcessOnMarker1024)"/><g id="ProcessOnG1026" transform="matrix(1.0,0.0,0.0,1.0,284.5,287.50696601125014)"><path id="ProcessOnPath1027" d="M0 0H10.0V16.25H0Z" fill="#fff" transform="matrix(1.0,0.0,0.0,1.0,-5.0,0.0)"/><text id="ProcessOnText1028" fill="#ff0000" font-size="13" x="0.0" y="13.325" font-family="Arial" font-weight="bold" font-style="normal" text-decoration="none" family="Arial" text-anchor="middle" size="13">否</text></g></g><g id="ProcessOnG1029" transform="matrix(1.0,0.0,0.0,1.0,573.0,355.0)" opacity="1.0"><path id="ProcessOnPath1030" d="M0.0 0.0L189.0 0.0L189.0 41.0L0.0 41.0Z" stroke="#323232" stroke-width="2.0" stroke-dasharray="none" fill="#ffe6cc"/><g id="ProcessOnG1031" transform="matrix(1.0,0.0,0.0,1.0,10.0,4.25)"><text id="ProcessOnText1032" fill="#323232" font-size="13" x="83.5" y="13.325" font-family="Arial" font-weight="normal" font-style="normal" text-decoration="none" family="Arial" text-anchor="middle" size="13">向主服务器发送</text><text id="ProcessOnText1033" fill="#323232" font-size="13" x="83.5" y="29.575" font-family="Arial" font-weight="normal" font-style="normal" text-decoration="none" family="Arial" text-anchor="middle" size="13"> PSYNC ？ -1</text></g></g><g id="ProcessOnG1034"><path id="ProcessOnPath1035" d="M640.0 279.0L667.5 279.0L667.5 339.7639320225002" stroke="#323232" stroke-width="2.0" stroke-dasharray="none" fill="none" marker-end="url(#ProcessOnMarker1036)"/><g id="ProcessOnG1038" transform="matrix(1.0,0.0,0.0,1.0,667.5,287.50696601125014)"><path id="ProcessOnPath1039" d="M0 0H10.0V16.25H0Z" fill="#fff" transform="matrix(1.0,0.0,0.0,1.0,-5.0,0.0)"/><text id="ProcessOnText1040" fill="#323232" font-size="13" x="0.0" y="13.325" font-family="Arial" font-weight="normal" font-style="normal" text-decoration="none" family="Arial" text-anchor="middle" size="13">是</text></g></g><g id="ProcessOnG1041" transform="matrix(1.0,0.0,0.0,1.0,503.5,451.0)" opacity="1.0"><path id="ProcessOnPath1042" d="M0.0 36.0L164.0 0.0L328.0 36.0L164.0 72.0L0.0 36.0Z" stroke="#323232" stroke-width="2.0" stroke-dasharray="none" fill="#ffcce6"/><g id="ProcessOnG1043" transform="matrix(1.0,0.0,0.0,1.0,10.0,27.875)"><text id="ProcessOnText1044" fill="#323232" font-size="13" x="153.0" y="13.325" font-family="Arial" font-weight="normal" font-style="normal" text-decoration="none" family="Arial" text-anchor="middle" size="13">主服务器是否返回 +CONTINUE</text></g></g><g id="ProcessOnG1045"><path id="ProcessOnPath1046" d="M667.5 396.0L667.5 423.5L667.5 423.5L667.5 435.7639320225002" stroke="#323232" stroke-width="2.0" stroke-dasharray="none" fill="none" marker-end="url(#ProcessOnMarker1047)"/></g><g id="ProcessOnG1049" transform="matrix(1.0,0.0,0.0,1.0,175.5,588.0)" opacity="1.0"><path id="ProcessOnPath1050" d="M0.0 0.0L218.0 0.0L218.0 56.0L0.0 56.0Z" stroke="#323232" stroke-width="2.0" stroke-dasharray="none" fill="#ffe6cc"/><g id="ProcessOnG1051" transform="matrix(1.0,0.0,0.0,1.0,10.0,3.625)"><text id="ProcessOnText1052" fill="#323232" font-size="13" x="98.0" y="13.325" font-family="Arial" font-weight="normal" font-style="normal" text-decoration="none" family="Arial" text-anchor="middle" size="13">主服务器返回 </text><text id="ProcessOnText1053" fill="#323232" font-size="13" x="98.0" y="29.575" font-family="Arial" font-weight="normal" font-style="normal" text-decoration="none" family="Arial" text-anchor="middle" size="13">+FULLRESYNC &lt;runid&gt; &lt;offset&gt;</text><text id="ProcessOnText1054" fill="#323232" font-size="13" x="98.0" y="45.825" font-family="Arial" font-weight="normal" font-style="normal" text-decoration="none" family="Arial" text-anchor="middle" size="13">执行完整重同步</text></g></g><g id="ProcessOnG1055"><path id="ProcessOnPath1056" d="M284.5 396.0L284.5 492.0L284.5 492.0L284.5 572.7639320225002" stroke="#323232" stroke-width="2.0" stroke-dasharray="none" fill="none" marker-end="url(#ProcessOnMarker1057)"/></g><g id="ProcessOnG1059"><path id="ProcessOnPath1060" d="M503.5 487.0L448.5 487.0L448.5 616.0L408.7360679774998 616.0" stroke="#323232" stroke-width="2.0" stroke-dasharray="none" fill="none" marker-end="url(#ProcessOnMarker1061)"/></g><g id="ProcessOnG1063" transform="matrix(1.0,0.0,0.0,1.0,558.5,588.0)" opacity="1.0"><path id="ProcessOnPath1064" d="M0.0 0.0L218.0 0.0L218.0 56.0L0.0 56.0Z" stroke="#323232" stroke-width="2.0" stroke-dasharray="none" fill="#ffe6cc"/><g id="ProcessOnG1065" transform="matrix(1.0,0.0,0.0,1.0,10.0,19.875)"><text id="ProcessOnText1066" fill="#323232" font-size="13" x="98.0" y="13.325" font-family="Arial" font-weight="normal" font-style="normal" text-decoration="none" family="Arial" text-anchor="middle" size="13">执行部分重同步</text></g></g><g id="ProcessOnG1067"><path id="ProcessOnPath1068" d="M667.5 523.0L667.5 555.5L667.5 555.5L667.5 572.7639320225002" stroke="#323232" stroke-width="2.0" stroke-dasharray="none" fill="none" marker-end="url(#ProcessOnMarker1069)"/></g></g></g></svg>